<?xml version="1.0" standalone="no"?>
<!DOCTYPE svg PUBLIC "-//W3C//DTD SVG 1.1//EN" "http://www.w3.org/Graphics/SVG/1.1/DTD/svg11.dtd" >
<svg xmlns="http://www.w3.org/2000/svg" xmlns:xlink="http://www.w3.org/1999/xlink" version="1.1">
<metadata>
Created by FontForge 20170731 at Thu Aug 30 04:22:55 2018
 By Aleksey,,,
(c) 2001-2018 Typodermic Fonts Inc.
</metadata>
<defs>
<font id="SteelfishEb-Regular" horiz-adv-x="286" >
  <font-face 
    font-family="Steelfish Eb"
    font-weight="800"
    font-stretch="normal"
    units-per-em="1000"
    panose-1="2 11 9 8 2 2 2 4 5 4"
    ascent="851"
    descent="-149"
    x-height="619"
    cap-height="823"
    bbox="-318 -149 593 1131"
    underline-thickness="50"
    underline-position="-175"
    unicode-range="U+0017-FB02"
  />
<missing-glyph horiz-adv-x="524" 
d="M124 -144q-90 0 -90 79v869q0 80 90 80h274q92 0 92 -80v-869q0 -79 -92 -79h-274zM257 234q5 27 9 44.5t11 31.5t19 27t34 31q35 29 56 69.5t32 103.5l18 104q2 11 3 23t1 23q0 64 -40.5 102t-121.5 38q-57 0 -87.5 -33t-41.5 -102l-27 -159l115 -21l28 162q5 29 27 29
q30 0 30 -29l-21 -117q-6 -32 -10.5 -51.5t-12 -33.5t-20 -26t-33.5 -29q-17 -15 -29 -31t-21 -35.5t-15.5 -44t-12.5 -57.5l-23 -123l112 -20zM225 42l-111 19l-24 -138l110 -18z" />
    <glyph glyph-name=".notdef" horiz-adv-x="524" 
d="M124 -144q-90 0 -90 79v869q0 80 90 80h274q92 0 92 -80v-869q0 -79 -92 -79h-274zM257 234q5 27 9 44.5t11 31.5t19 27t34 31q35 29 56 69.5t32 103.5l18 104q2 11 3 23t1 23q0 64 -40.5 102t-121.5 38q-57 0 -87.5 -33t-41.5 -102l-27 -159l115 -21l28 162q5 29 27 29
q30 0 30 -29l-21 -117q-6 -32 -10.5 -51.5t-12 -33.5t-20 -26t-33.5 -29q-17 -15 -29 -31t-21 -35.5t-15.5 -44t-12.5 -57.5l-23 -123l112 -20zM225 42l-111 19l-24 -138l110 -18z" />
    <glyph glyph-name=".null" horiz-adv-x="0" 
 />
    <glyph glyph-name="nonmarkingreturn" horiz-adv-x="136" 
 />
    <glyph glyph-name="uni0017" horiz-adv-x="136" 
 />
    <glyph glyph-name="space" unicode=" " horiz-adv-x="136" 
 />
    <glyph glyph-name="exclam" unicode="!" horiz-adv-x="185" 
d="M37 0v109h111v-109h-111zM58 159l-21 253v411h111v-409l-22 -255h-68z" />
    <glyph glyph-name="quotedbl" unicode="&#x22;" horiz-adv-x="307" 
d="M28 595zM49 595l-21 132v96h97v-96l-21 -132h-55zM203 595l-21 132v96h97v-96l-21 -132h-55z" />
    <glyph glyph-name="numbersign" unicode="#" horiz-adv-x="406" 
d="M181 0l43 283h-82l-42 -283h-68l42 283h-56v93h69l14 94h-65v93h79l38 260h71l-40 -260h81l38 260h70l-39 -260h54v-93h-68l-14 -94h63v-93h-77l-42 -283h-69zM251 470h-81l-14 -94h81z" />
    <glyph glyph-name="dollar" unicode="$" horiz-adv-x="287" 
d="M127 -52v62q-51 5 -75 40.5t-24 95.5v156h82v-165q0 -11 6.5 -19t15.5 -10v246l-35 39q-23 24 -36.5 42.5t-21 37.5t-9.5 39.5t-2 47.5v118q0 63 25.5 96.5t73.5 38.5v56h31v-56q99 -9 99 -135v-132h-80v141q0 24 -24 29v-241l38 -38q21 -22 34 -39.5t20.5 -37.5
t10.5 -44.5t3 -60.5v-109q0 -61 -25 -96.5t-76 -40.5v-61h-31zM132 716q-22 -4 -22 -29v-130q0 -19 4 -32t18 -30v221zM174 263q0 21 -4 35.5t-17 33.5v-224q21 4 21 29v126z" />
    <glyph glyph-name="percent" unicode="%" horiz-adv-x="484" 
d="M28 0zM31 768q0 34 16.5 52t52.5 18q68 0 68 -70v-281q0 -70 -68 -70q-36 0 -52.5 18t-16.5 52v281zM114 769q0 15 -14 15q-15 0 -15 -15v-283q0 -15 15 -15q14 0 14 15v283zM28 0l367 823h61l-366 -823h-62zM315 336q0 34 16.5 52t52.5 18q68 0 68 -70v-281
q0 -70 -68 -70q-36 0 -52.5 18t-16.5 52v281zM398 337q0 15 -14 15q-15 0 -15 -15v-283q0 -15 15 -15q14 0 14 15v283z" />
    <glyph glyph-name="ampersand" unicode="&#x26;" horiz-adv-x="384" 
d="M370 7q-11 -5 -21.5 -8t-29.5 -3q-16 0 -30.5 7.5t-23.5 18.5q-15 -17 -42 -24t-57 -7q-42 0 -69.5 10.5t-43.5 32t-22.5 53.5t-6.5 75v91q0 22 3.5 42.5t12 43t23.5 48t38 57.5q-17 45 -26.5 74.5t-14.5 51.5t-6.5 40.5t-1.5 40.5v47q0 74 28 104t91 30q31 0 52.5 -10.5
t34.5 -28.5t18.5 -42t5.5 -51v-63q0 -24 -3.5 -44.5t-12 -43t-24 -50.5t-39.5 -67l77 -216q2 14 3 29.5t1 35.5v24h83v-29q0 -55 -11.5 -97.5t-29.5 -76.5q4 -3 13 -3q7 0 15 1.5t16 7.5v-101zM143 333q-7 -17 -10 -33t-3 -40v-95q0 -32 10 -52t36 -20q14 0 28 4t20 11z
M195 693q0 33 -24 33q-26 0 -26 -33v-35q1 -29 4 -57.5t17 -68.5q15 28 22 60.5t7 65.5v35z" />
    <glyph glyph-name="quotesingle" unicode="'" horiz-adv-x="153" 
d="M49 595l-21 132v96h97v-96l-21 -132h-55z" />
    <glyph glyph-name="parenleft" unicode="(" horiz-adv-x="256" 
d="M228 -80q-79 0 -118 41t-39 132v637q0 91 39 132t118 41h9v-78h-9q-79 0 -79 -95v-637q0 -95 79 -95h9v-78h-9z" />
    <glyph glyph-name="parenright" unicode=")" horiz-adv-x="256" 
d="M71 -80v78h9q79 0 79 95v637q0 95 -79 95h-9v78h9q79 0 118 -41t39 -132v-637q0 -91 -39 -132t-118 -41h-9z" />
    <glyph glyph-name="asterisk" unicode="*" horiz-adv-x="317" 
d="M217 545l-59 93l-57 -93l-52 38l69 84l-106 26l20 61l101 -40l-8 109h66l-8 -109l101 42l20 -62l-106 -27l70 -83z" />
    <glyph glyph-name="plus" unicode="+" horiz-adv-x="470" 
d="M195 217v162h-161v81h161v160h81v-160h161v-81h-161v-162h-81z" />
    <glyph glyph-name="comma" unicode="," horiz-adv-x="157" 
d="M40 -62v43h13q12 0 16.5 5.5t4.5 18.5v17h-46v103h101v-113q0 -29 -17 -51.5t-59 -22.5h-13z" />
    <glyph glyph-name="hyphen" unicode="-" horiz-adv-x="181" 
d="M10 373v83h163v-83h-163z" />
    <glyph glyph-name="hyphen" unicode="&#xad;" horiz-adv-x="181" 
d="M10 373v83h163v-83h-163z" />
    <glyph glyph-name="period" unicode="." horiz-adv-x="157" 
d="M28 0v125h101v-125h-101z" />
    <glyph glyph-name="slash" unicode="/" horiz-adv-x="243" 
d="M3 0l157 823h79l-157 -823h-79z" />
    <glyph glyph-name="zero" unicode="0" horiz-adv-x="331" 
d="M28 692q0 69 33 104.5t105 35.5t104.5 -35.5t32.5 -104.5v-561q0 -69 -32.5 -104.5t-104.5 -35.5t-105 35.5t-33 104.5v561zM195 694q0 31 -29 31t-29 -31v-565q0 -31 29 -31t29 31v565z" />
    <glyph glyph-name="one" unicode="1" horiz-adv-x="204" 
d="M60 0v656h-46v106h21q36 0 36 41v20h97v-823h-108z" />
    <glyph glyph-name="two" unicode="2" horiz-adv-x="312" 
d="M24 0v150q0 38 3 66.5t12 55t24.5 55.5t40.5 67q20 31 34.5 56.5t24 50t14 49.5t4.5 54v88q0 31 -25 31q-24 0 -24 -31v-146h-108v144q0 76 32.5 109t99.5 33t100.5 -33.5t33.5 -108.5v-100q0 -57 -20.5 -114t-60.5 -118q-26 -39 -41 -67t-23 -51t-10 -44t-2 -46v-41h157
v-109h-266z" />
    <glyph glyph-name="three" unicode="3" horiz-adv-x="313" 
d="M183 337q0 31 -26 31h-42v103h47q20 0 20 31v190q0 31 -25 31q-24 0 -24 -31v-147h-107v145q0 75 31 108.5t100 33.5t99.5 -33.5t30.5 -109.5v-187q0 -30 -11 -49.5t-37 -33.5q50 -18 50 -86v-202q0 -63 -31.5 -101.5t-100.5 -38.5q-67 0 -100.5 38t-33.5 101v162h110
v-161q0 -31 24 -31q26 0 26 31v206z" />
    <glyph glyph-name="three" unicode="&#x417;" horiz-adv-x="313" 
d="M183 337q0 31 -26 31h-42v103h47q20 0 20 31v190q0 31 -25 31q-24 0 -24 -31v-147h-107v145q0 75 31 108.5t100 33.5t99.5 -33.5t30.5 -109.5v-187q0 -30 -11 -49.5t-37 -33.5q50 -18 50 -86v-202q0 -63 -31.5 -101.5t-100.5 -38.5q-67 0 -100.5 38t-33.5 101v162h110
v-161q0 -31 24 -31q26 0 26 31v206z" />
    <glyph glyph-name="four" unicode="4" horiz-adv-x="323" 
d="M174 262q0 63 0.5 108t1.5 78t2.5 56t2.5 42q-4 -18 -9.5 -41t-14.5 -55.5t-22 -78t-32 -109.5h71zM174 0v159h-167v94l167 570h101v-561h40v-103h-40v-159h-101z" />
    <glyph glyph-name="five" unicode="5" horiz-adv-x="318" 
d="M187 398q0 12 -7.5 20t-21.5 8q-16 0 -25.5 -11t-11.5 -28l-93 4l11 432h248v-109h-150l-8 -217q11 12 28.5 18.5t43.5 6.5q42 0 66.5 -29t24.5 -98v-266q0 -70 -31.5 -104t-98.5 -34q-133 0 -133 138v173h107v-171q0 -31 25 -31q26 0 26 31v267z" />
    <glyph glyph-name="six" unicode="6" horiz-adv-x="322" 
d="M187 382q0 31 -25 31q-11 0 -17 -5.5t-8 -12.5v-264q0 -31 25 -31t25 31v251zM296 131q0 -66 -33.5 -103t-100.5 -37t-100.5 36.5t-33.5 102.5v562q0 66 33.5 103t100.5 37t98 -37t31 -103v-142h-104v142q0 31 -25 31t-25 -31v-199q10 8 24 16t40 8q51 0 73 -29t22 -98
v-259z" />
    <glyph glyph-name="seven" unicode="7" horiz-adv-x="291" 
d="M54 0q0 175 18 306.5t40 221t42 136t24 50.5h-167v109h269v-101q-65 -148 -90.5 -329.5t-26.5 -392.5h-109z" />
    <glyph glyph-name="eight" unicode="8" horiz-adv-x="317" 
d="M291 130q0 -139 -133 -139t-133 139v201q0 36 13.5 60.5t36.5 35.5q-20 13 -30.5 33.5t-10.5 53.5v178q0 64 28.5 102t95.5 38t95.5 -38t28.5 -102v-178q0 -33 -10.5 -53.5t-30.5 -33.5q23 -11 36.5 -35.5t13.5 -60.5v-201zM183 339q0 12 -6 21t-19 9t-19 -9t-6 -21v-208
q0 -31 25 -31t25 31v208zM183 692q0 31 -25 31t-25 -31v-192q0 -30 25 -30t25 30v192z" />
    <glyph glyph-name="nine" unicode="9" horiz-adv-x="321" 
d="M183 692q0 31 -24 31q-25 0 -25 -31v-232q0 -32 25 -32q11 0 16.5 6t7.5 13v245zM183 343q-9 -8 -23.5 -16t-39.5 -8q-51 0 -72.5 29t-21.5 98v246q0 66 33 103t100 37t100.5 -36.5t33.5 -102.5v-562q0 -66 -33.5 -103t-100.5 -37q-63 0 -97.5 37t-34.5 103v142h107v-142
q0 -31 25 -31q24 0 24 31v212z" />
    <glyph glyph-name="colon" unicode=":" horiz-adv-x="157" 
d="M28 366v124h101v-124h-101zM28 0v125h101v-125h-101z" />
    <glyph glyph-name="semicolon" unicode=";" horiz-adv-x="157" 
d="M28 366v124h101v-124h-101zM40 -62v43h13q12 0 16.5 5.5t4.5 18.5v17h-46v103h101v-113q0 -29 -17 -51.5t-59 -22.5h-13z" />
    <glyph glyph-name="less" unicode="&#x3c;" horiz-adv-x="470" 
d="M34 369v99l403 114v-81l-320 -80l320 -85v-81z" />
    <glyph glyph-name="equal" unicode="=" horiz-adv-x="470" 
d="M34 472v82h403v-82h-403zM34 285v82h403v-82h-403z" />
    <glyph glyph-name="greater" unicode="&#x3e;" horiz-adv-x="470" 
d="M34 255v81l320 85l-320 80v81l403 -114v-99z" />
    <glyph glyph-name="question" unicode="?" horiz-adv-x="301" 
d="M85 187v111q0 60 9.5 95.5t35.5 65.5q15 18 24 30.5t13.5 26.5t6 32t1.5 47v97q0 31 -25 31t-25 -31v-146h-104v144q0 73 31 107.5t98 34.5t99.5 -34t32.5 -109v-95q0 -57 -12.5 -95.5t-38.5 -70.5q-17 -19 -26 -32t-13.5 -26t-5 -29t-0.5 -41v-113h-101zM85 0v125h101
v-125h-101z" />
    <glyph glyph-name="at" unicode="@" horiz-adv-x="525" 
d="M496 63q1 -5 1.5 -9.5t0.5 -8.5q0 -29 -9 -55.5t-34.5 -47t-71.5 -33t-120 -12.5q-54 0 -98 12.5t-75 41.5t-47.5 76.5t-16.5 118.5v349q0 62 14 105.5t42.5 71.5t73 40.5t105.5 12.5q118 0 172 -50t54 -161v-301q0 -29 -8.5 -50t-22.5 -35t-32.5 -21t-38.5 -7
q-29 0 -50.5 10t-31.5 26q-5 -11 -18.5 -21t-39.5 -10q-35 0 -57 20t-22 71v220q0 30 5.5 50t16 31.5t25 16t32.5 4.5q17 0 31.5 -9t20.5 -25q0 8 0.5 15.5t1.5 13.5h52v-331q10 -12 30 -12q15 0 24.5 9t9.5 30v307q0 57 -36 91t-118 34t-116.5 -37t-34.5 -106v-354
q0 -90 42 -124.5t124 -34.5q46 0 75 5.5t46 15t23.5 21.5t6.5 24q0 11 -1 12h70zM287 425q-7 16 -22 16q-27 0 -27 -29v-212q0 -27 27 -27q14 0 22 15v237z" />
    <glyph glyph-name="A" unicode="A" horiz-adv-x="339" 
d="M220 0l-12 117h-80l-14 -117h-105l100 823h126l94 -823h-109zM196 216q-8 81 -15 162t-13 166q-12 -168 -30 -328h58z" />
    <glyph glyph-name="A" unicode="&#x410;" horiz-adv-x="339" 
d="M220 0l-12 117h-80l-14 -117h-105l100 823h126l94 -823h-109zM196 216q-8 81 -15 162t-13 166q-12 -168 -30 -328h58z" />
    <glyph glyph-name="A" unicode="&#x391;" horiz-adv-x="339" 
d="M220 0l-12 117h-80l-14 -117h-105l100 823h126l94 -823h-109zM196 216q-8 81 -15 162t-13 166q-12 -168 -30 -328h58z" />
    <glyph glyph-name="B" unicode="B" horiz-adv-x="328" 
d="M195 683q0 31 -25 31h-27v-247h28q24 0 24 31v185zM195 341q0 31 -24 31h-28v-263h27q25 0 25 31v201zM34 0v823h136q69 0 97.5 -35t28.5 -110v-170q0 -29 -10 -51.5t-28 -30.5q19 -6 33.5 -26.5t14.5 -55.5v-205q0 -73 -33.5 -106t-102.5 -33h-136z" />
    <glyph glyph-name="B" unicode="&#x412;" horiz-adv-x="328" 
d="M195 683q0 31 -25 31h-27v-247h28q24 0 24 31v185zM195 341q0 31 -24 31h-28v-263h27q25 0 25 31v201zM34 0v823h136q69 0 97.5 -35t28.5 -110v-170q0 -29 -10 -51.5t-28 -30.5q19 -6 33.5 -26.5t14.5 -55.5v-205q0 -73 -33.5 -106t-102.5 -33h-136z" />
    <glyph glyph-name="B" unicode="&#x392;" horiz-adv-x="328" 
d="M195 683q0 31 -25 31h-27v-247h28q24 0 24 31v185zM195 341q0 31 -24 31h-28v-263h27q25 0 25 31v201zM34 0v823h136q69 0 97.5 -35t28.5 -110v-170q0 -29 -10 -51.5t-28 -30.5q19 -6 33.5 -26.5t14.5 -55.5v-205q0 -73 -33.5 -106t-102.5 -33h-136z" />
    <glyph glyph-name="C" unicode="C" horiz-adv-x="311" 
d="M189 302h99v-170q0 -72 -29 -106.5t-95 -34.5q-136 0 -136 139v560q0 142 136 142q124 0 124 -140v-146h-99v146q0 31 -25 31t-25 -31v-561q0 -31 25 -31t25 31v171z" />
    <glyph glyph-name="C" unicode="&#x421;" horiz-adv-x="311" 
d="M189 302h99v-170q0 -72 -29 -106.5t-95 -34.5q-136 0 -136 139v560q0 142 136 142q124 0 124 -140v-146h-99v146q0 31 -25 31t-25 -31v-561q0 -31 25 -31t25 31v171z" />
    <glyph glyph-name="D" unicode="D" horiz-adv-x="329" 
d="M193 683q0 31 -26 31h-24v-605h24q26 0 26 31v543zM34 0v823h133q67 0 100.5 -37.5t33.5 -103.5v-542q0 -140 -134 -140h-133z" />
    <glyph glyph-name="E" unicode="E" horiz-adv-x="282" 
d="M34 0v823h226v-109h-117v-240h74v-109h-74v-256h122v-109h-231z" />
    <glyph glyph-name="E" unicode="&#x415;" horiz-adv-x="282" 
d="M34 0v823h226v-109h-117v-240h74v-109h-74v-256h122v-109h-231z" />
    <glyph glyph-name="E" unicode="&#x395;" horiz-adv-x="282" 
d="M34 0v823h226v-109h-117v-240h74v-109h-74v-256h122v-109h-231z" />
    <glyph glyph-name="F" unicode="F" horiz-adv-x="272" 
d="M34 0v823h231v-109h-122v-244h75v-109h-75v-361h-109z" />
    <glyph glyph-name="G" unicode="G" horiz-adv-x="325" 
d="M287 -5l-35 33q-16 -21 -42.5 -29t-54.5 -8q-27 0 -50 7t-40.5 23.5t-27 43.5t-9.5 66v560q0 69 33 105t102 36t99 -36t30 -105v-145h-98v146q0 31 -31 31q-26 0 -26 -31v-561q0 -31 25 -31q31 0 31 31v161h-35v104h140v-401h-11z" />
    <glyph glyph-name="H" unicode="H" horiz-adv-x="335" 
d="M193 0v365h-50v-365h-109v823h109v-349h50v349h108v-823h-108z" />
    <glyph glyph-name="H" unicode="&#x41d;" horiz-adv-x="335" 
d="M193 0v365h-50v-365h-109v823h109v-349h50v349h108v-823h-108z" />
    <glyph glyph-name="H" unicode="&#x397;" horiz-adv-x="335" 
d="M193 0v365h-50v-365h-109v823h109v-349h50v349h108v-823h-108z" />
    <glyph glyph-name="I" unicode="I" horiz-adv-x="181" 
d="M36 0v823h109v-823h-109z" />
    <glyph glyph-name="I" unicode="&#x4cf;" horiz-adv-x="181" 
d="M36 0v823h109v-823h-109z" />
    <glyph glyph-name="I" unicode="&#x4c0;" horiz-adv-x="181" 
d="M36 0v823h109v-823h-109z" />
    <glyph glyph-name="I" unicode="&#x406;" horiz-adv-x="181" 
d="M36 0v823h109v-823h-109z" />
    <glyph glyph-name="I" unicode="&#x399;" horiz-adv-x="181" 
d="M36 0v823h109v-823h-109z" />
    <glyph glyph-name="J" unicode="J" horiz-adv-x="217" 
d="M7 107q16 -3 43 -3t27 36v683h109v-683q0 -76 -34.5 -111t-101.5 -35q-12 0 -22.5 1.5t-20.5 3.5v108z" />
    <glyph glyph-name="J" unicode="&#x408;" horiz-adv-x="217" 
d="M7 107q16 -3 43 -3t27 36v683h109v-683q0 -76 -34.5 -111t-101.5 -35q-12 0 -22.5 1.5t-20.5 3.5v108z" />
    <glyph glyph-name="K" unicode="K" horiz-adv-x="353" 
d="M228 0q-24 100 -39 165.5t-24.5 108.5t-15 69.5t-9.5 48.5q2 -45 2.5 -95t0.5 -119v-178h-109v823h109v-164v-60t-0.5 -47t-1 -39t-1.5 -35q3 17 8 38.5t14 59t24.5 96.5t39.5 151h116l-109 -367l119 -456h-124z" />
    <glyph glyph-name="K" unicode="&#x41a;" horiz-adv-x="353" 
d="M228 0q-24 100 -39 165.5t-24.5 108.5t-15 69.5t-9.5 48.5q2 -45 2.5 -95t0.5 -119v-178h-109v823h109v-164v-60t-0.5 -47t-1 -39t-1.5 -35q3 17 8 38.5t14 59t24.5 96.5t39.5 151h116l-109 -367l119 -456h-124z" />
    <glyph glyph-name="K" unicode="&#x39a;" horiz-adv-x="353" 
d="M228 0q-24 100 -39 165.5t-24.5 108.5t-15 69.5t-9.5 48.5q2 -45 2.5 -95t0.5 -119v-178h-109v823h109v-164v-60t-0.5 -47t-1 -39t-1.5 -35q3 17 8 38.5t14 59t24.5 96.5t39.5 151h116l-109 -367l119 -456h-124z" />
    <glyph glyph-name="L" unicode="L" horiz-adv-x="274" 
d="M34 0v823h109v-714h122v-109h-231z" />
    <glyph glyph-name="M" unicode="M" horiz-adv-x="458" 
d="M327 0v232q0 69 0.5 137t3.5 137q-3 -34 -7.5 -73.5t-11 -97t-16 -138t-22.5 -197.5h-92l-57 521q6 -144 6 -290v-231h-99v823h144q10 -111 17.5 -192t12.5 -139.5t9 -97.5t6 -65.5t3.5 -44.5t2.5 -34q1 16 2.5 34t3.5 45t5.5 66t9 97.5t13.5 139.5t19 191h146v-823h-99z
" />
    <glyph glyph-name="M" unicode="&#x41c;" horiz-adv-x="458" 
d="M327 0v232q0 69 0.5 137t3.5 137q-3 -34 -7.5 -73.5t-11 -97t-16 -138t-22.5 -197.5h-92l-57 521q6 -144 6 -290v-231h-99v823h144q10 -111 17.5 -192t12.5 -139.5t9 -97.5t6 -65.5t3.5 -44.5t2.5 -34q1 16 2.5 34t3.5 45t5.5 66t9 97.5t13.5 139.5t19 191h146v-823h-99z
" />
    <glyph glyph-name="M" unicode="&#x39c;" horiz-adv-x="458" 
d="M327 0v232q0 69 0.5 137t3.5 137q-3 -34 -7.5 -73.5t-11 -97t-16 -138t-22.5 -197.5h-92l-57 521q6 -144 6 -290v-231h-99v823h144q10 -111 17.5 -192t12.5 -139.5t9 -97.5t6 -65.5t3.5 -44.5t2.5 -34q1 16 2.5 34t3.5 45t5.5 66t9 97.5t13.5 139.5t19 191h146v-823h-99z
" />
    <glyph glyph-name="N" unicode="N" horiz-adv-x="357" 
d="M221 0q-25 119 -41.5 200t-28 137t-18.5 94t-13 73q2 -73 2.5 -145t0.5 -147v-212h-91v823h125q21 -130 34.5 -215t22 -141t13.5 -91.5t10 -67.5q-2 66 -2.5 130t-0.5 128v257h91v-823h-104z" />
    <glyph glyph-name="N" unicode="&#x39d;" horiz-adv-x="357" 
d="M221 0q-25 119 -41.5 200t-28 137t-18.5 94t-13 73q2 -73 2.5 -145t0.5 -147v-212h-91v823h125q21 -130 34.5 -215t22 -141t13.5 -91.5t10 -67.5q-2 66 -2.5 130t-0.5 128v257h91v-823h-104z" />
    <glyph glyph-name="O" unicode="O" horiz-adv-x="324" 
d="M28 692q0 140 134 140t134 -140v-561q0 -140 -134 -140t-134 140v561zM187 692q0 31 -25 31t-25 -31v-561q0 -31 25 -31t25 31v561z" />
    <glyph glyph-name="O" unicode="&#x41e;" horiz-adv-x="324" 
d="M28 692q0 140 134 140t134 -140v-561q0 -140 -134 -140t-134 140v561zM187 692q0 31 -25 31t-25 -31v-561q0 -31 25 -31t25 31v561z" />
    <glyph glyph-name="O" unicode="&#x39f;" horiz-adv-x="324" 
d="M28 692q0 140 134 140t134 -140v-561q0 -140 -134 -140t-134 140v561zM187 692q0 31 -25 31t-25 -31v-561q0 -31 25 -31t25 31v561z" />
    <glyph glyph-name="P" unicode="P" horiz-adv-x="325" 
d="M205 675q0 39 -38 39h-24v-217h25q37 0 37 38v140zM34 0v823h133q75 0 110 -35.5t35 -113.5v-135q0 -78 -34.5 -113t-109.5 -35h-25v-391h-109z" />
    <glyph glyph-name="P" unicode="&#x420;" horiz-adv-x="325" 
d="M205 675q0 39 -38 39h-24v-217h25q37 0 37 38v140zM34 0v823h133q75 0 110 -35.5t35 -113.5v-135q0 -78 -34.5 -113t-109.5 -35h-25v-391h-109z" />
    <glyph glyph-name="P" unicode="&#x3a1;" horiz-adv-x="325" 
d="M205 675q0 39 -38 39h-24v-217h25q37 0 37 38v140zM34 0v823h133q75 0 110 -35.5t35 -113.5v-135q0 -78 -34.5 -113t-109.5 -35h-25v-391h-109z" />
    <glyph glyph-name="Q" unicode="Q" horiz-adv-x="324" 
d="M296 -76q-10 -9 -26.5 -14.5t-42.5 -5.5q-53 0 -78 30.5t-26 74.5q-95 20 -95 137v546q0 140 134 140t134 -140v-546q0 -60 -25.5 -95.5t-77.5 -43.5q3 -19 46 -19q37 0 57 18v-82zM187 692q0 31 -25 31t-25 -31v-552q0 -31 25 -31t25 31v552z" />
    <glyph glyph-name="R" unicode="R" horiz-adv-x="333" 
d="M201 675q0 39 -37 39h-21v-248h22q36 0 36 38v171zM199 0q-8 94 -17 183.5t-21 183.5h-18v-367h-109v823h130q75 0 111 -33.5t36 -114.5v-170q0 -48 -11 -74.5t-36 -41.5q16 -100 29 -196t25 -193h-119z" />
    <glyph glyph-name="S" unicode="S" horiz-adv-x="313" 
d="M181 244q0 16 -3 29t-12 28.5t-24.5 36t-40.5 52.5q-19 25 -33.5 47t-24 44t-14.5 44.5t-5 48.5v123q0 135 133 135q70 0 99.5 -33t29.5 -102v-151h-100v151q0 26 -26 26t-26 -26v-122q0 -16 4 -28.5t13 -27.5t24 -34.5t38 -49.5q22 -29 36.5 -52.5t23.5 -45t12.5 -43.5
t3.5 -49v-118q0 -66 -31 -101t-101 -35q-69 0 -101 35t-32 101v175h104v-175q0 -27 26 -27q27 0 27 27v117z" />
    <glyph glyph-name="S" unicode="&#x405;" horiz-adv-x="313" 
d="M181 244q0 16 -3 29t-12 28.5t-24.5 36t-40.5 52.5q-19 25 -33.5 47t-24 44t-14.5 44.5t-5 48.5v123q0 135 133 135q70 0 99.5 -33t29.5 -102v-151h-100v151q0 26 -26 26t-26 -26v-122q0 -16 4 -28.5t13 -27.5t24 -34.5t38 -49.5q22 -29 36.5 -52.5t23.5 -45t12.5 -43.5
t3.5 -49v-118q0 -66 -31 -101t-101 -35q-69 0 -101 35t-32 101v175h104v-175q0 -27 26 -27q27 0 27 27v117z" />
    <glyph glyph-name="T" unicode="T" 
d="M89 0v714h-80v109h268v-109h-79v-714h-109z" />
    <glyph glyph-name="T" unicode="&#x422;" 
d="M89 0v714h-80v109h268v-109h-79v-714h-109z" />
    <glyph glyph-name="T" unicode="&#x3a4;" 
d="M89 0v714h-80v109h268v-109h-79v-714h-109z" />
    <glyph glyph-name="U" unicode="U" horiz-adv-x="329" 
d="M190 823h108v-692q0 -140 -133 -140q-134 0 -134 140v692h109v-692q0 -31 25 -31t25 31v692z" />
    <glyph glyph-name="V" unicode="V" horiz-adv-x="342" 
d="M95 0l-86 823h113q13 -153 21.5 -255t14 -172.5t8.5 -118t5 -89.5q3 42 6 89t9 117.5t15 173t24 255.5h108l-93 -823h-145z" />
    <glyph glyph-name="W" unicode="W" horiz-adv-x="537" 
d="M310 0q-10 102 -17 177t-12 129t-8.5 90t-5 61t-2 41.5t-0.5 31.5q-1 -15 -2.5 -31.5t-3.5 -41.5t-5.5 -61t-8.5 -90t-12.5 -129t-17.5 -177h-127l-79 823h114q8 -108 13.5 -187.5t9.5 -137.5t7 -97.5t4.5 -67t2.5 -47t2 -37.5q1 18 2.5 37.5t4 47t6 67t10 97.5t15 137.5
t20.5 187.5h97q10 -108 17.5 -187.5t12.5 -137.5t8.5 -97.5t5.5 -67t3.5 -47t2.5 -37.5q1 18 2 37.5t3 47t5 67t8 97.5t12 137.5t17 187.5h114l-92 -823h-126z" />
    <glyph glyph-name="X" unicode="X" horiz-adv-x="344" 
d="M225 0q-14 75 -23.5 126.5t-15.5 88.5t-10 63.5t-7 50.5q-3 -24 -6.5 -50.5t-9.5 -63t-15.5 -88.5t-24.5 -127h-111l106 441l-87 382h116q10 -57 16.5 -97.5t10.5 -70t6 -51t4 -40.5q2 19 4.5 40.5t7 50.5t10.5 69.5t15 98.5h113l-91 -379l109 -444h-117z" />
    <glyph glyph-name="X" unicode="&#x425;" horiz-adv-x="344" 
d="M225 0q-14 75 -23.5 126.5t-15.5 88.5t-10 63.5t-7 50.5q-3 -24 -6.5 -50.5t-9.5 -63t-15.5 -88.5t-24.5 -127h-111l106 441l-87 382h116q10 -57 16.5 -97.5t10.5 -70t6 -51t4 -40.5q2 19 4.5 40.5t7 50.5t10.5 69.5t15 98.5h113l-91 -379l109 -444h-117z" />
    <glyph glyph-name="X" unicode="&#x3a7;" horiz-adv-x="344" 
d="M225 0q-14 75 -23.5 126.5t-15.5 88.5t-10 63.5t-7 50.5q-3 -24 -6.5 -50.5t-9.5 -63t-15.5 -88.5t-24.5 -127h-111l106 441l-87 382h116q10 -57 16.5 -97.5t10.5 -70t6 -51t4 -40.5q2 19 4.5 40.5t7 50.5t10.5 69.5t15 98.5h113l-91 -379l109 -444h-117z" />
    <glyph glyph-name="Y" unicode="Y" horiz-adv-x="336" 
d="M111 0v351l-105 472h115q13 -76 21.5 -126.5t13.5 -85t8.5 -57t6.5 -43.5q3 21 6.5 43.5t9 57t14.5 85t23 126.5h106l-109 -472v-351h-110z" />
    <glyph glyph-name="Y" unicode="&#x4ae;" horiz-adv-x="336" 
d="M111 0v351l-105 472h115q13 -76 21.5 -126.5t13.5 -85t8.5 -57t6.5 -43.5q3 21 6.5 43.5t9 57t14.5 85t23 126.5h106l-109 -472v-351h-110z" />
    <glyph glyph-name="Y" unicode="&#x3a5;" horiz-adv-x="336" 
d="M111 0v351l-105 472h115q13 -76 21.5 -126.5t13.5 -85t8.5 -57t6.5 -43.5q3 21 6.5 43.5t9 57t14.5 85t23 126.5h106l-109 -472v-351h-110z" />
    <glyph glyph-name="Z" unicode="Z" horiz-adv-x="310" 
d="M22 0v111l159 606h-151v106h259v-98l-154 -614h154v-111h-267z" />
    <glyph glyph-name="Z" unicode="&#x396;" horiz-adv-x="310" 
d="M22 0v111l159 606h-151v106h259v-98l-154 -614h154v-111h-267z" />
    <glyph glyph-name="bracketleft" unicode="[" horiz-adv-x="253" 
d="M71 -80v983h163v-78h-85v-827h85v-78h-163z" />
    <glyph glyph-name="backslash" unicode="\" horiz-adv-x="243" 
d="M160 0l-157 823h79l157 -823h-79z" />
    <glyph glyph-name="bracketright" unicode="]" horiz-adv-x="253" 
d="M71 -80v78h85v827h-85v78h163v-983h-163z" />
    <glyph glyph-name="asciicircum" unicode="^" horiz-adv-x="324" 
d="M213 544l-48 196l-53 -196h-78l79 279h98l79 -279h-77z" />
    <glyph glyph-name="underscore" unicode="_" horiz-adv-x="308" 
d="M-1 -108v72h310v-72h-310z" />
    <glyph glyph-name="grave" unicode="`" horiz-adv-x="302" 
d="M154 656l-140 161h125l109 -161h-94z" />
    <glyph glyph-name="a" unicode="a" 
d="M169 0q-4 9 -4 31q-11 -18 -26 -29t-38 -11q-39 0 -60 23t-21 75v91q0 56 15.5 86t46.5 52q19 13 37.5 23t39.5 21v145q0 24 -22 24t-22 -24v-131h-86v131q0 122 110 122q114 0 114 -122v-455q0 -34 5 -52h-89zM159 283q-15 -6 -25 -16q-18 -15 -18 -48v-112
q0 -10 6.5 -15t15.5 -5q13 0 21 15v181z" />
    <glyph glyph-name="a" unicode="&#x430;" 
d="M169 0q-4 9 -4 31q-11 -18 -26 -29t-38 -11q-39 0 -60 23t-21 75v91q0 56 15.5 86t46.5 52q19 13 37.5 23t39.5 21v145q0 24 -22 24t-22 -24v-131h-86v131q0 122 110 122q114 0 114 -122v-455q0 -34 5 -52h-89zM159 283q-15 -6 -25 -16q-18 -15 -18 -48v-112
q0 -10 6.5 -15t15.5 -5q13 0 21 15v181z" />
    <glyph glyph-name="b" unicode="b" horiz-adv-x="305" 
d="M179 502q0 25 -24 25q-15 0 -23 -14v-399q8 -14 23 -14q24 0 24 26v376zM34 0v823h98v-212q21 18 55 18q45 0 67.5 -27t22.5 -87v-388q0 -66 -25.5 -99t-82.5 -33q-26 0 -43 11t-29 28q-2 -9 -6.5 -17.5t-9.5 -16.5h-47z" />
    <glyph glyph-name="c" unicode="c" horiz-adv-x="285" 
d="M168 253h91v-138q0 -57 -27 -90.5t-87 -33.5t-88.5 34.5t-28.5 91.5v384q0 57 28.5 92.5t88.5 35.5q59 0 85.5 -35.5t26.5 -91.5v-134h-89v136q0 24 -22 24t-22 -24v-387q0 -26 22 -26t22 26v136z" />
    <glyph glyph-name="c" unicode="&#x441;" horiz-adv-x="285" 
d="M168 253h91v-138q0 -57 -27 -90.5t-87 -33.5t-88.5 34.5t-28.5 91.5v384q0 57 28.5 92.5t88.5 35.5q59 0 85.5 -35.5t26.5 -91.5v-134h-89v136q0 24 -22 24t-22 -24v-387q0 -26 22 -26t22 26v136z" />
    <glyph glyph-name="d" unicode="d" horiz-adv-x="305" 
d="M173 516q-7 13 -23 13q-24 0 -24 -24v-379q0 -26 24 -26q15 0 23 14v402zM188 0q-3 15 -3 34q-9 -20 -24.5 -29.5t-46.5 -9.5q-39 0 -62.5 30t-23.5 87v403q0 60 22.5 87t67.5 27q34 0 55 -18v212h98v-823h-83z" />
    <glyph glyph-name="e" unicode="e" horiz-adv-x="281" 
d="M161 502q0 25 -22 25q-20 0 -20 -25v-139h42v139zM161 252h92v-136q0 -125 -114 -125q-111 0 -111 125v386q0 127 111 127q114 0 114 -127v-209h-134v-177q0 -25 20 -25q22 0 22 26v135z" />
    <glyph glyph-name="e" unicode="&#x435;" horiz-adv-x="281" 
d="M161 502q0 25 -22 25q-20 0 -20 -25v-139h42v139zM161 252h92v-136q0 -125 -114 -125q-111 0 -111 125v386q0 127 111 127q114 0 114 -127v-209h-134v-177q0 -25 20 -25q22 0 22 26v135z" />
    <glyph glyph-name="f" unicode="f" horiz-adv-x="191" 
d="M38 0v534h-31v85h31v86q0 25 5 47.5t16.5 39t30.5 26.5t47 10q26 0 46 -6v-83q-2 1 -6 1h-8q-14 0 -23.5 -8.5t-9.5 -28.5v-84h45v-85h-45v-534h-98z" />
    <glyph glyph-name="g" unicode="g" horiz-adv-x="305" 
d="M176 47q-21 -18 -59 -18q-45 0 -67 26.5t-22 86.5v365q0 57 23.5 87t62.5 30q28 0 43.5 -9.5t27.5 -29.5q0 19 3 34h83v-651q0 -57 -28.5 -87t-88.5 -30q-67 0 -92 30t-25 87v25h88v-30q0 -27 26 -27q25 0 25 27v84zM176 505q-8 14 -25 14q-26 0 -26 -26v-345
q0 -25 26 -25q17 0 25 14v368z" />
    <glyph glyph-name="h" unicode="h" horiz-adv-x="304" 
d="M175 0v509q0 24 -20 24q-14 0 -23 -10v-523h-98v823h98v-220q29 26 66 26q75 0 75 -114v-515h-98z" />
    <glyph glyph-name="h" unicode="&#x4bb;" horiz-adv-x="304" 
d="M175 0v509q0 24 -20 24q-14 0 -23 -10v-523h-98v823h98v-220q29 26 66 26q75 0 75 -114v-515h-98z" />
    <glyph glyph-name="i" unicode="i" horiz-adv-x="169" 
d="M36 698v125h98v-125h-98zM36 0v619h98v-619h-98z" />
    <glyph glyph-name="i" unicode="&#x456;" horiz-adv-x="169" 
d="M36 698v125h98v-125h-98zM36 0v619h98v-619h-98z" />
    <glyph glyph-name="j" unicode="j" horiz-adv-x="181" 
d="M47 698v125h98v-125h-98zM-16 -43q13 -3 38 -3t25 33v632h98v-632q0 -69 -31 -100t-92 -31q-25 0 -38 4v97z" />
    <glyph glyph-name="j" unicode="&#x458;" horiz-adv-x="181" 
d="M47 698v125h98v-125h-98zM-16 -43q13 -3 38 -3t25 33v632h98v-632q0 -69 -31 -100t-92 -31q-25 0 -38 4v97z" />
    <glyph glyph-name="k" unicode="k" horiz-adv-x="300" 
d="M190 0l-34 163q-6 27 -10 46.5t-7 36t-5.5 32t-5.5 33.5q1 -19 1.5 -34.5t0.5 -32.5v-37.5v-48.5v-158h-96v823h96v-316v-46.5v-36t-0.5 -31.5t-1.5 -33q4 17 7.5 32t7.5 31t9 35t12 45l30 116h100l-76 -266l79 -353h-107z" />
    <glyph glyph-name="l" unicode="l" horiz-adv-x="166" 
d="M34 0v823h98v-823h-98z" />
    <glyph glyph-name="m" unicode="m" horiz-adv-x="445" 
d="M316 0v509q0 24 -20 24q-13 0 -23 -10v-523h-98v509q0 24 -20 24q-14 0 -23 -10v-523h-98v619h83q3 -15 3 -33q28 43 76 43q46 0 64 -39q13 18 33 28.5t45 10.5q38 0 57 -31t19 -88v-510h-98z" />
    <glyph glyph-name="n" unicode="n" horiz-adv-x="304" 
d="M175 0v509q0 24 -20 24q-14 0 -23 -10v-523h-98v619h83q3 -15 3 -33q28 43 76 43q77 0 77 -114v-515h-98z" />
    <glyph glyph-name="o" unicode="o" horiz-adv-x="292" 
d="M28 505q0 60 29 92t89 32t89 -32t29 -92v-391q0 -60 -29 -91.5t-89 -31.5t-89 31.5t-29 91.5v391zM168 501q0 27 -22 27t-22 -27v-383q0 -27 22 -27t22 27v383z" />
    <glyph glyph-name="o" unicode="&#x43e;" horiz-adv-x="292" 
d="M28 505q0 60 29 92t89 32t89 -32t29 -92v-391q0 -60 -29 -91.5t-89 -31.5t-89 31.5t-29 91.5v391zM168 501q0 27 -22 27t-22 -27v-383q0 -27 22 -27t22 27v383z" />
    <glyph glyph-name="o" unicode="&#x3bf;" horiz-adv-x="292" 
d="M28 505q0 60 29 92t89 32t89 -32t29 -92v-391q0 -60 -29 -91.5t-89 -31.5t-89 31.5t-29 91.5v391zM168 501q0 27 -22 27t-22 -27v-383q0 -27 22 -27t22 27v383z" />
    <glyph glyph-name="p" unicode="p" horiz-adv-x="305" 
d="M179 494q0 26 -24 26q-15 0 -23 -14v-403q7 -13 23 -13q24 0 24 24v380zM34 -139v758h83q3 -17 3 -34q9 20 24.5 29.5t46.5 9.5q39 0 62.5 -30t23.5 -87v-403q0 -60 -22.5 -86.5t-67.5 -26.5q-35 0 -55 17v-147h-98z" />
    <glyph glyph-name="p" unicode="&#x440;" horiz-adv-x="305" 
d="M179 494q0 26 -24 26q-15 0 -23 -14v-403q7 -13 23 -13q24 0 24 24v380zM34 -139v758h83q3 -17 3 -34q9 20 24.5 29.5t46.5 9.5q39 0 62.5 -30t23.5 -87v-403q0 -60 -22.5 -86.5t-67.5 -26.5q-35 0 -55 17v-147h-98z" />
    <glyph glyph-name="q" unicode="q" horiz-adv-x="305" 
d="M173 508q-8 14 -23 14q-24 0 -24 -26v-382q0 -24 24 -24q16 0 23 13v405zM173 -139v147q-20 -17 -55 -17q-45 0 -67.5 26.5t-22.5 86.5v403q0 57 23.5 87t62.5 30q31 0 46.5 -9.5t24.5 -29.5q0 17 3 34h83v-758h-98z" />
    <glyph glyph-name="r" unicode="r" horiz-adv-x="207" 
d="M34 0v619h83q3 -15 3 -32q19 39 60 39q11 0 17 -3v-110q-11 8 -32 8q-10 0 -19.5 -3.5t-13.5 -13.5v-504h-98z" />
    <glyph glyph-name="s" unicode="s" horiz-adv-x="280" 
d="M255 107q0 -63 -30.5 -89.5t-90.5 -26.5q-54 0 -82 29t-28 92v95h89v-93q0 -26 23 -26q21 0 21 26v64q0 12 -2 21.5t-8.5 21.5t-19 28t-33.5 40q-16 19 -29 36.5t-22 36.5t-14 42t-5 53v47q0 70 29.5 97.5t83.5 27.5q67 0 91 -30t24 -95v-95h-89v96q0 26 -23 26
q-20 0 -20 -26v-64q0 -15 2.5 -26t10 -23.5t20.5 -27.5t33 -37q21 -23 34.5 -41.5t21 -37t10.5 -38.5t3 -47v-56z" />
    <glyph glyph-name="s" unicode="&#x455;" horiz-adv-x="280" 
d="M255 107q0 -63 -30.5 -89.5t-90.5 -26.5q-54 0 -82 29t-28 92v95h89v-93q0 -26 23 -26q21 0 21 26v64q0 12 -2 21.5t-8.5 21.5t-19 28t-33.5 40q-16 19 -29 36.5t-22 36.5t-14 42t-5 53v47q0 70 29.5 97.5t83.5 27.5q67 0 91 -30t24 -95v-95h-89v96q0 26 -23 26
q-20 0 -20 -26v-64q0 -15 2.5 -26t10 -23.5t20.5 -27.5t33 -37q21 -23 34.5 -41.5t21 -37t10.5 -38.5t3 -47v-56z" />
    <glyph glyph-name="t" unicode="t" horiz-adv-x="191" 
d="M183 -7q-8 -1 -15 -1.5t-15 -0.5q-60 0 -87.5 34t-27.5 94v415h-31v85h31v196h98v-196h45v-85h-45v-413q0 -26 12 -35.5t35 -9.5v-83z" />
    <glyph glyph-name="u" unicode="u" horiz-adv-x="302" 
d="M185 0q-3 15 -3 33q-14 -20 -32.5 -29t-41.5 -9q-36 0 -56.5 28t-20.5 76v520h98v-504q0 -24 19 -24q13 0 22 10v518h98v-619h-83z" />
    <glyph glyph-name="v" unicode="v" horiz-adv-x="279" 
d="M89 0l-81 619h98q9 -90 14.5 -150.5t9 -101.5t5.5 -68.5t3 -51.5q2 24 4.5 51.5t6.5 68.5t10.5 101.5t16.5 150.5h94l-84 -619h-97z" />
    <glyph glyph-name="v" unicode="&#x3bd;" horiz-adv-x="279" 
d="M89 0l-81 619h98q9 -90 14.5 -150.5t9 -101.5t5.5 -68.5t3 -51.5q2 24 4.5 51.5t6.5 68.5t10.5 101.5t16.5 150.5h94l-84 -619h-97z" />
    <glyph glyph-name="w" unicode="w" horiz-adv-x="425" 
d="M241 0q-10 100 -16 166t-9.5 108.5t-5 66.5t-1.5 40q-1 -16 -3 -39.5t-6 -65.5t-10.5 -108.5t-15.5 -167.5h-112l-52 619h90q5 -81 9 -141t6.5 -103.5t4.5 -73.5t3.5 -51t2 -35.5t1.5 -27.5l41 432h87q7 -81 11.5 -141t8 -103.5t6 -73.5t4 -51t3 -35.5t2.5 -27.5
q1 13 2 27.5t2.5 35.5t4 51t6 73.5t8.5 103.5t12 141h89l-60 -619h-113z" />
    <glyph glyph-name="x" unicode="x" horiz-adv-x="287" 
d="M182 0q-10 60 -16.5 102t-11 72t-7.5 51.5t-6 41.5q-2 -20 -4.5 -41.5t-7 -51.5t-11 -71.5t-16.5 -102.5h-98l75 332l-62 287h102q7 -46 11.5 -78.5t7 -56t4 -40.5t3.5 -33q2 16 3.5 33t4.5 40t7.5 55.5t12.5 79.5h97l-63 -285l76 -334h-101z" />
    <glyph glyph-name="x" unicode="&#x445;" horiz-adv-x="287" 
d="M182 0q-10 60 -16.5 102t-11 72t-7.5 51.5t-6 41.5q-2 -20 -4.5 -41.5t-7 -51.5t-11 -71.5t-16.5 -102.5h-98l75 332l-62 287h102q7 -46 11.5 -78.5t7 -56t4 -40.5t3.5 -33q2 16 3.5 33t4.5 40t7.5 55.5t12.5 79.5h97l-63 -285l76 -334h-101z" />
    <glyph glyph-name="y" unicode="y" horiz-adv-x="279" 
d="M17 -43q8 -2 15.5 -2.5t18.5 -0.5q21 0 29 19t11 52l-83 594h102q7 -87 12 -148.5t9 -105.5t6 -76t3 -60q1 28 3.5 59.5t7 76t11 105.5t15.5 149h93l-81 -606q-5 -38 -13.5 -67.5t-23.5 -49.5t-38.5 -30t-58.5 -10q-9 0 -19.5 1t-18.5 3v97z" />
    <glyph glyph-name="y" unicode="&#x443;" horiz-adv-x="279" 
d="M17 -43q8 -2 15.5 -2.5t18.5 -0.5q21 0 29 19t11 52l-83 594h102q7 -87 12 -148.5t9 -105.5t6 -76t3 -60q1 28 3.5 59.5t7 76t11 105.5t15.5 149h93l-81 -606q-5 -38 -13.5 -67.5t-23.5 -49.5t-38.5 -30t-58.5 -10q-9 0 -19.5 1t-18.5 3v97z" />
    <glyph glyph-name="z" unicode="z" horiz-adv-x="257" 
d="M22 0v93l121 430h-119v96h212v-91l-116 -428h115v-100h-213z" />
    <glyph glyph-name="braceleft" unicode="{" horiz-adv-x="284" 
d="M261 -80q-73 0 -113.5 34.5t-40.5 110.5v203q0 19 -4 28t-12 20l-78 96l78 95q8 11 12 20t4 28v203q0 76 40.5 110.5t113.5 34.5h8v-78h-7q-39 0 -58.5 -17t-19.5 -55v-199q0 -30 -7 -49t-25 -41l-43 -52l43 -53q18 -22 25 -41t7 -49v-199q0 -38 19.5 -55t58.5 -17h7v-78
h-8z" />
    <glyph glyph-name="bar" unicode="|" horiz-adv-x="210" 
d="M65 -80v983h79v-983h-79z" />
    <glyph glyph-name="braceright" unicode="}" horiz-adv-x="284" 
d="M13 -80v78h7q39 0 58.5 17t19.5 55v199q0 30 7 49t25 41l43 53l-43 52q-18 22 -25 41t-7 49v199q0 38 -19.5 55t-58.5 17h-7v78h8q73 0 113.5 -34.5t40.5 -110.5v-203q0 -19 4 -28t12 -20l78 -95l-78 -96q-8 -11 -12 -20t-4 -28v-203q0 -76 -40.5 -110.5t-113.5 -34.5h-8
z" />
    <glyph glyph-name="asciitilde" unicode="~" horiz-adv-x="471" 
d="M438 393q-25 -18 -52 -26t-65 -8q-24 0 -47.5 6.5t-46 14.5t-44.5 14.5t-43 6.5q-27 0 -52.5 -10t-53.5 -41v96q16 14 41.5 24.5t61.5 10.5q30 0 55 -6.5t47.5 -14.5t43.5 -14.5t42 -6.5q33 0 58.5 10t54.5 39v-95z" />
    <glyph glyph-name="nonbreakingspace" unicode="&#xa0;" horiz-adv-x="136" 
 />
    <glyph glyph-name="exclamdown" unicode="&#xa1;" horiz-adv-x="185" 
d="M37 0zM148.002 703v-108.993h-110.993v108.993h110.993zM127.004 544.01l20.998 -252.984v-410.976h-110.993v408.976l21.999 254.984h67.9961z" />
    <glyph glyph-name="cent" unicode="&#xa2;" horiz-adv-x="283" 
d="M131 0v90q-52 4 -77.5 38t-25.5 88v380q0 54 25.5 87.5t77.5 38.5v101h31v-101q51 -5 73 -39t22 -86v-136h-78v138q0 8 -6.5 15t-15.5 7v-430q9 1 15.5 6t6.5 19v131h80v-133q0 -52 -23 -85t-74 -38v-91h-31zM136 621q-10 -1 -16 -7.5t-6 -14.5v-383q0 -14 6.5 -19
t15.5 -5v429z" />
    <glyph glyph-name="sterling" unicode="&#xa3;" horiz-adv-x="288" 
d="M271 21q-15 -16 -32.5 -22.5t-41.5 -6.5q-15 0 -29.5 5.5t-28.5 12t-27.5 12t-27.5 5.5q-17 0 -31.5 -7t-31.5 -29h-4v100q8 9 21 17t30 11q2 25 3 44.5t2 41.5t1 50v69v131h-54v82h54v138q0 75 32 116t95 41q12 0 25 -1t27 -5v-101q-14 7 -31 7q-26 0 -40.5 -18.5
t-14.5 -37.5v-139h86v-82h-86v-132q0 -41 -0.5 -73t-1.5 -58.5t-3 -49.5t-5 -45q11 -5 21.5 -8.5t21.5 -3.5q19 0 34 7t32 27h5v-98z" />
    <glyph glyph-name="currency" unicode="&#xa4;" horiz-adv-x="499" 
d="M364 222q-26 -17 -54 -26.5t-60 -9.5t-61.5 9.5t-52.5 26.5l-65 -69l-58 59l67 65q-35 50 -35 114q0 62 35 115q-35 31 -66 63l58 59l63 -68q46 37 115 37q63 0 115 -37l61 68l58 -59l-65 -63q17 -25 26.5 -54t9.5 -61t-9.5 -61.5t-26.5 -52.5l66 -65l-58 -59zM366 391
q0 24 -9 45t-25 37t-37 25t-45 9t-45.5 -9t-37 -25t-24.5 -37t-9 -45t9 -45.5t24.5 -37t37 -24.5t45.5 -9t45 9t37 24.5t25 37t9 45.5z" />
    <glyph glyph-name="yen" unicode="&#xa5;" horiz-adv-x="344" 
d="M221 82v-82h-102v82h-104v82h104v75h-104v82h104v26l-110 476h115q13 -76 21.5 -126.5t14 -85t9 -57t6.5 -43.5q3 21 6.5 43.5t9.5 57t14.5 85t21.5 126.5h107l-113 -476v-26h104v-82h-104v-75h104v-82h-104z" />
    <glyph glyph-name="brokenbar" unicode="&#xa6;" horiz-adv-x="210" 
d="M65 490v413h79v-413h-79zM65 -80v413h79v-413h-79z" />
    <glyph glyph-name="section" unicode="&#xa7;" horiz-adv-x="290" 
d="M256 -22q0 -57 -26.5 -87t-87.5 -30q-60 0 -87 30t-27 87v90h90v-90q0 -23 22 -23q23 0 23 23v40q0 14 -2.5 25t-10 24.5t-21 31t-35.5 44.5q-17 22 -29.5 41t-20.5 37.5t-12 38t-4 42.5v105q0 45 23 68.5t55 26.5q-29 37 -50.5 76.5t-21.5 92.5v45q0 116 114 116
q60 0 85.5 -29t25.5 -87v-70h-86v70q0 22 -22 22q-23 0 -23 -22v-44q0 -14 3 -25t10.5 -24t20.5 -29.5t33 -42.5q19 -25 32 -45.5t20.5 -39t11 -37.5t3.5 -42v-101q0 -45 -19.5 -73.5t-49.5 -33.5q18 -24 30 -43.5t19.5 -37.5t10.5 -37t3 -42v-41zM167 400q0 23 -22 23
t-22 -23v-124q0 -23 22 -23t22 23v124z" />
    <glyph glyph-name="dieresis" unicode="&#xa8;" horiz-adv-x="321" 
d="M189 668v125h98v-125h-98zM34 668v125h98v-125h-98z" />
    <glyph glyph-name="copyright" unicode="&#xa9;" horiz-adv-x="526" 
d="M498 221q0 -62 -14 -106t-43 -71.5t-73 -40t-105 -12.5t-105 12.5t-73 40t-43 71.5t-14 106v381q0 62 14 106t43 71.5t73 40t105 12.5q121 0 178 -53t57 -177v-381zM425 611q0 43 -8 72.5t-27 47t-50 25t-77 7.5q-47 0 -78 -7.5t-49.5 -25t-26.5 -47t-8 -72.5v-399
q0 -41 8 -69.5t27 -46.5t50 -26.5t77 -8.5t77 8.5t50 26.5t27 46.5t8 69.5v399zM280 347h62v-107q0 -45 -18 -66.5t-60 -21.5q-85 0 -85 87v352q0 90 85 90q78 0 78 -89v-92h-62v92q0 20 -16 20q-15 0 -15 -20v-353q0 -19 15 -19q16 0 16 19v108z" />
    <glyph glyph-name="ordfeminine" unicode="&#xaa;" horiz-adv-x="217" 
d="M123 300q-2 8 -2 17q-6 -10 -14 -16t-21 -6q-22 0 -33.5 12.5t-11.5 41.5v50q0 24 5.5 39t16 26t24 18.5t30.5 16.5v80q0 13 -12 13t-12 -13v-72h-47v72q0 67 60 67q63 0 63 -67v-250q0 -22 3 -29h-49zM117 456q-11 -7 -17 -14t-6 -22v-61q0 -11 12 -11q8 0 11 8v100z
" />
    <glyph glyph-name="guillemotleft" unicode="&#xab;" horiz-adv-x="388" 
d="M16 169zM16 276v115l162 100v-91l-110 -66l110 -70v-95zM210 276v115l162 100v-91l-110 -66l110 -70v-95z" />
    <glyph glyph-name="logicalnot" unicode="&#xac;" horiz-adv-x="435" 
d="M300 0v358h-283v104h384v-462h-101z" />
    <glyph glyph-name="registered" unicode="&#xae;" horiz-adv-x="526" 
d="M498 221q0 -62 -14 -106t-43 -71.5t-73 -40t-105 -12.5t-105 12.5t-73 40t-43 71.5t-14 106v381q0 62 14 106t43 71.5t73 40t105 12.5q121 0 178 -53t57 -177v-381zM425 611q0 43 -8 72.5t-27 47t-50 25t-77 7.5q-47 0 -78 -7.5t-49.5 -25t-26.5 -47t-8 -72.5v-399
q0 -41 8 -69.5t27 -46.5t50 -26.5t77 -8.5t77 8.5t50 26.5t27 46.5t8 69.5v399zM285 582q0 24 -23 24h-13v-155h13q23 0 23 24v107zM284 157q-5 58 -10.5 115t-13.5 114h-11v-229h-69v518h82q48 0 70 -21t22 -72v-108q0 -30 -6.5 -47t-22.5 -27q11 -61 18.5 -121.5
t15.5 -121.5h-75z" />
    <glyph glyph-name="macron" unicode="&#xaf;" horiz-adv-x="306" 
d="M34 688v84h238v-84h-238z" />
    <glyph glyph-name="degree" unicode="&#xb0;" horiz-adv-x="307" 
d="M152 619q35 0 50 17t15 55q0 39 -15 56.5t-50 17.5q-33 0 -49.5 -17.5t-16.5 -56.5t16.5 -55.5t49.5 -16.5zM153 560q-63 0 -94 36.5t-31 94.5q0 57 31 95.5t94 38.5t94.5 -38.5t31.5 -95.5q0 -58 -31.5 -94.5t-94.5 -36.5z" />
    <glyph glyph-name="plusminus" unicode="&#xb1;" horiz-adv-x="470" 
d="M34 89zM195 217v162h-161v81h161v160h81v-160h161v-81h-161v-162h-81zM34 89v81h403v-81h-403z" />
    <glyph glyph-name="twosuperior" unicode="&#xb2;" horiz-adv-x="186" 
d="M27 422zM27 422v75q0 18 1.5 32.5t6 28t12 28t20.5 33.5q20 30 29 53t9 52v44q0 15 -12 15t-12 -15v-73h-54v72q0 38 16 54.5t50 16.5q67 0 67 -71v-50q0 -54 -41 -116q-13 -20 -20.5 -34t-11.5 -25.5t-5 -22t-1 -22.5v-21h79v-54h-133z" />
    <glyph glyph-name="threesuperior" unicode="&#xb3;" horiz-adv-x="186" 
d="M26 417zM106 590q0 16 -13 16h-21v51h24q10 0 10 16v95q0 15 -13 15q-12 0 -12 -15v-74h-53v73q0 38 15.5 54.5t49.5 16.5t49.5 -17t15.5 -55v-93q0 -29 -24 -42q25 -9 25 -43v-101q0 -32 -16 -51t-50 -19q-33 0 -50 19t-17 51v81h55v-81q0 -15 12 -15q13 0 13 15v103z
" />
    <glyph glyph-name="acute" unicode="&#xb4;" horiz-adv-x="302" 
d="M54 656l109 161h125l-140 -161h-94z" />
    <glyph glyph-name="paragraph" unicode="&#xb6;" horiz-adv-x="441" 
d="M275 -134v853h-66v-748q0 -49 -25 -83t-76 -34q-24 0 -44 7v74q5 -1 9 -1.5t7 -0.5q21 0 29 13.5t8 44.5v605q-56 0 -79.5 31t-23.5 80t24 82.5t81 33.5h307v-104h-61v-853h-90zM117 719h-10q-11 0 -15.5 -10.5t-4.5 -24.5t4.5 -23.5t15.5 -9.5h10v68z" />
    <glyph glyph-name="periodcentered" unicode="&#xb7;" horiz-adv-x="157" 
d="M28 350zM28 350v125h101v-125h-101z" />
    <glyph glyph-name="cedilla" unicode="&#xb8;" horiz-adv-x="149" 
d="M43 -149v31h20q11 0 11 12v14h-40v72h81v-86q0 -19 -11.5 -31t-37.5 -12h-23z" />
    <glyph glyph-name="onesuperior" unicode="&#xb9;" horiz-adv-x="132" 
d="M22 422zM45 422v328h-23v53h10q18 0 18 20v10h49v-411h-54z" />
    <glyph glyph-name="ordmasculine" unicode="&#xba;" horiz-adv-x="221" 
d="M45 578q0 68 65 68t65 -68v-215q0 -68 -65 -68t-65 68v215zM122 576q0 14 -12 14t-12 -14v-211q0 -15 12 -15t12 15v211z" />
    <glyph glyph-name="guillemotright" unicode="&#xbb;" horiz-adv-x="388" 
d="M16 169zM16 169v95l110 70l-110 66v91l162 -100v-115zM210 169v95l110 70l-110 66v91l162 -100v-115z" />
    <glyph glyph-name="onequarter" unicode="&#xbc;" horiz-adv-x="484" 
d="M28 0zM90 422v328h-23v53h10q18 0 18 20v10h49v-411h-54zM28 0l367 823h61l-366 -823h-62zM378 121q0 31 0.5 53.5t1 39t1 28.5t0.5 21q-2 -9 -4.5 -20.5t-7 -28t-11 -39t-16.5 -54.5h36zM378 -10v79h-84v47l84 285h50v-280h20v-52h-20v-79h-50z" />
    <glyph glyph-name="onehalf" unicode="&#xbd;" horiz-adv-x="484" 
d="M28 0zM90 422v328h-23v53h10q18 0 18 20v10h49v-411h-54zM28 0l367 823h61l-366 -823h-62zM313 -10v75q0 18 1.5 32.5t6 28t12 28t20.5 33.5q20 30 29 53t9 52v44q0 15 -12 15t-12 -15v-73h-54v72q0 38 16 54.5t50 16.5q67 0 67 -71v-50q0 -54 -41 -116
q-13 -20 -20.5 -34t-11.5 -25.5t-5 -22t-1 -22.5v-21h79v-54h-133z" />
    <glyph glyph-name="threequarters" unicode="&#xbe;" horiz-adv-x="484" 
d="M28 0zM127 590q0 16 -13 16h-21v51h24q10 0 10 16v95q0 15 -13 15q-12 0 -12 -15v-74h-53v73q0 38 15.5 54.5t49.5 16.5t49.5 -17t15.5 -55v-93q0 -29 -24 -42q25 -9 25 -43v-101q0 -32 -16 -51t-50 -19q-33 0 -50 19t-17 51v81h55v-81q0 -15 12 -15q13 0 13 15v103z
M28 0l367 823h61l-366 -823h-62zM358 121q0 31 0.5 53.5t1 39t1 28.5t0.5 21q-2 -9 -4.5 -20.5t-7 -28t-11 -39t-16.5 -54.5h36zM358 -10v79h-84v47l84 285h50v-280h20v-52h-20v-79h-50z" />
    <glyph glyph-name="questiondown" unicode="&#xbf;" horiz-adv-x="301" 
d="M21 0zM218.005 516.012v-110.993q0 -59.9971 -9.49902 -95.4941q-9.5 -35.498 -35.498 -65.4961q-14.999 -17.999 -23.998 -30.498q-9 -12.5 -13.5 -26.499q-4.49902 -13.999 -5.99902 -31.998t-1.5 -46.9971v-96.9941q0 -30.998 24.998 -30.998q24.999 0 24.999 30.998
v145.991h103.993v-143.991q0 -72.9951 -30.998 -107.493t-97.9941 -34.498q-66.9951 0 -99.4932 33.998t-32.498 108.993v94.9941q0 56.9971 12.499 95.4941q12.499 38.498 38.4971 70.4961q16.999 18.999 25.999 31.998q8.99902 12.999 13.499 25.998t5 28.998t0.5 40.998
v112.993h100.993zM218.005 703v-124.992h-100.993v124.992h100.993z" />
    <glyph glyph-name="Agrave" unicode="&#xc0;" horiz-adv-x="339" 
d="M2 0zM220 0l-12 117h-80l-14 -117h-105l100 823h126l94 -823h-109zM196 216q-8 81 -15 162t-13 166q-12 -168 -30 -328h58zM142 860l-140 161h125l109 -161h-94z" />
    <glyph glyph-name="Aacute" unicode="&#xc1;" horiz-adv-x="339" 
d="M9 0zM220 0l-12 117h-80l-14 -117h-105l100 823h126l94 -823h-109zM196 216q-8 81 -15 162t-13 166q-12 -168 -30 -328h58zM102 860l109 161h125l-140 -161h-94z" />
    <glyph glyph-name="Acircumflex" unicode="&#xc2;" horiz-adv-x="339" 
d="M9 0zM220 0l-12 117h-80l-14 -117h-105l100 823h126l94 -823h-109zM196 216q-8 81 -15 162t-13 166q-12 -168 -30 -328h58zM227 860l-57 109l-61 -109h-90l97 161h115l91 -161h-95z" />
    <glyph glyph-name="Atilde" unicode="&#xc3;" horiz-adv-x="339" 
d="M9 0zM220 0l-12 117h-80l-14 -117h-105l100 823h126l94 -823h-109zM196 216q-8 81 -15 162t-13 166q-12 -168 -30 -328h58zM293 906q-24 -24 -63 -24q-18 0 -34.5 5t-31.5 10.5t-30.5 10.5t-31.5 5q-34 0 -55 -27h-2v81q8 9 24 16.5t39 7.5q18 0 34 -4.5t31 -10t30.5 -10
t32.5 -4.5q20 0 32.5 5t22.5 21h2v-82z" />
    <glyph glyph-name="Adieresis" unicode="&#xc4;" horiz-adv-x="339" 
d="M9 0zM220 0l-12 117h-80l-14 -117h-105l100 823h126l94 -823h-109zM196 216q-8 81 -15 162t-13 166q-12 -168 -30 -328h58zM198 872v125h98v-125h-98zM43 872v125h98v-125h-98z" />
    <glyph glyph-name="Aring" unicode="&#xc5;" horiz-adv-x="339" 
d="M9 0zM220 0l-12 117h-80l-14 -117h-105l100 823h126l94 -823h-109zM196 216q-8 81 -15 162t-13 166q-12 -168 -30 -328h58zM220 941q0 21 -12 30.5t-40 9.5q-53 0 -53 -40q0 -21 13 -29.5t40 -8.5q28 0 40 9t12 29zM269 941q0 -34 -25 -56t-76 -22t-75 22t-24 56
q0 35 24 57.5t75 22.5t76 -22.5t25 -57.5z" />
    <glyph glyph-name="AE" unicode="&#xc6;" horiz-adv-x="472" 
d="M224 0v117h-95l-14 -117h-106l101 823h341v-109h-117v-240h74v-109h-74v-256h121v-109h-231zM224 714h-29l-55 -498h84v498z" />
    <glyph glyph-name="Ccedilla" unicode="&#xc7;" horiz-adv-x="311" 
d="M28 0zM189 302h99v-170q0 -72 -29 -106.5t-95 -34.5q-136 0 -136 139v560q0 142 136 142q124 0 124 -140v-146h-99v146q0 31 -25 31t-25 -31v-561q0 -31 25 -31t25 31v171zM134 -149v31h20q11 0 11 12v14h-40v72h81v-86q0 -19 -11.5 -31t-37.5 -12h-23z" />
    <glyph glyph-name="Egrave" unicode="&#xc8;" horiz-adv-x="282" 
d="M0 0zM34 0v823h226v-109h-117v-240h74v-109h-74v-256h122v-109h-231zM114 860l-140 161h125l109 -161h-94z" />
    <glyph glyph-name="Egrave" unicode="&#x400;" horiz-adv-x="282" 
d="M0 0zM34 0v823h226v-109h-117v-240h74v-109h-74v-256h122v-109h-231zM114 860l-140 161h125l109 -161h-94z" />
    <glyph glyph-name="Eacute" unicode="&#xc9;" horiz-adv-x="282" 
d="M34 0zM34 0v823h226v-109h-117v-240h74v-109h-74v-256h122v-109h-231zM75 860l109 161h125l-140 -161h-94z" />
    <glyph glyph-name="Ecircumflex" unicode="&#xca;" horiz-adv-x="282" 
d="M0 0zM34 0v823h226v-109h-117v-240h74v-109h-74v-256h122v-109h-231zM202 860l-57 109l-61 -109h-90l97 161h115l91 -161h-95z" />
    <glyph glyph-name="Edieresis" unicode="&#xcb;" horiz-adv-x="282" 
d="M18 0zM34 0v823h226v-109h-117v-240h74v-109h-74v-256h122v-109h-231zM173 872v125h98v-125h-98zM18 872v125h98v-125h-98z" />
    <glyph glyph-name="Edieresis" unicode="&#x401;" horiz-adv-x="282" 
d="M18 0zM34 0v823h226v-109h-117v-240h74v-109h-74v-256h122v-109h-231zM173 872v125h98v-125h-98zM18 872v125h98v-125h-98z" />
    <glyph glyph-name="Igrave" unicode="&#xcc;" horiz-adv-x="181" 
d="M0 0zM36 0v823h109v-823h-109zM64 860l-140 161h125l109 -161h-94z" />
    <glyph glyph-name="Iacute" unicode="&#xcd;" horiz-adv-x="181" 
d="M24 0zM36 0v823h109v-823h-109zM24 860l109 161h125l-140 -161h-94z" />
    <glyph glyph-name="Icircumflex" unicode="&#xce;" horiz-adv-x="181" 
d="M0 0zM36 0v823h109v-823h-109zM147 860l-57 109l-61 -109h-90l97 161h115l91 -161h-95z" />
    <glyph glyph-name="Idieresis" unicode="&#xcf;" horiz-adv-x="181" 
d="M0 0zM36 0v823h109v-823h-109zM119 872v125h98v-125h-98zM-36 872v125h98v-125h-98z" />
    <glyph glyph-name="Idieresis" unicode="&#x407;" horiz-adv-x="181" 
d="M0 0zM36 0v823h109v-823h-109zM119 872v125h98v-125h-98zM-36 872v125h98v-125h-98z" />
    <glyph glyph-name="Idieresis" unicode="&#x3aa;" horiz-adv-x="181" 
d="M0 0zM36 0v823h109v-823h-109zM119 872v125h98v-125h-98zM-36 872v125h98v-125h-98z" />
    <glyph glyph-name="Eth" unicode="&#xd0;" horiz-adv-x="328" 
d="M33 0v365h-26v109h26v349h133q67 0 100.5 -37.5t33.5 -103.5v-542q0 -140 -134 -140h-133zM192 683q0 31 -26 31h-24v-240h31v-109h-31v-256h24q26 0 26 31v543z" />
    <glyph glyph-name="Eth" unicode="&#x110;" horiz-adv-x="328" 
d="M33 0v365h-26v109h26v349h133q67 0 100.5 -37.5t33.5 -103.5v-542q0 -140 -134 -140h-133zM192 683q0 31 -26 31h-24v-240h31v-109h-31v-256h24q26 0 26 31v543z" />
    <glyph glyph-name="Ntilde" unicode="&#xd1;" horiz-adv-x="357" 
d="M32 0zM221 0q-25 119 -41.5 200t-28 137t-18.5 94t-13 73q2 -73 2.5 -145t0.5 -147v-212h-91v823h125q21 -130 34.5 -215t22 -141t13.5 -91.5t10 -67.5q-2 66 -2.5 130t-0.5 128v257h91v-823h-104zM302 906q-24 -24 -63 -24q-18 0 -34.5 5t-31.5 10.5t-30.5 10.5t-31.5 5
q-34 0 -55 -27h-2v81q8 9 24 16.5t39 7.5q18 0 34 -4.5t31 -10t30.5 -10t32.5 -4.5q20 0 32.5 5t22.5 21h2v-82z" />
    <glyph glyph-name="Ograve" unicode="&#xd2;" horiz-adv-x="324" 
d="M0 0zM28 692q0 140 134 140t134 -140v-561q0 -140 -134 -140t-134 140v561zM187 692q0 31 -25 31t-25 -31v-561q0 -31 25 -31t25 31v561zM135 860l-140 161h125l109 -161h-94z" />
    <glyph glyph-name="Oacute" unicode="&#xd3;" horiz-adv-x="324" 
d="M28 0zM28 692q0 140 134 140t134 -140v-561q0 -140 -134 -140t-134 140v561zM187 692q0 31 -25 31t-25 -31v-561q0 -31 25 -31t25 31v561zM95 860l109 161h125l-140 -161h-94z" />
    <glyph glyph-name="Ocircumflex" unicode="&#xd4;" horiz-adv-x="324" 
d="M11 0zM28 692q0 140 134 140t134 -140v-561q0 -140 -134 -140t-134 140v561zM187 692q0 31 -25 31t-25 -31v-561q0 -31 25 -31t25 31v561zM219 860l-57 109l-61 -109h-90l97 161h115l91 -161h-95z" />
    <glyph glyph-name="Otilde" unicode="&#xd5;" horiz-adv-x="324" 
d="M28 0zM28 692q0 140 134 140t134 -140v-561q0 -140 -134 -140t-134 140v561zM187 692q0 31 -25 31t-25 -31v-561q0 -31 25 -31t25 31v561zM286 906q-24 -24 -63 -24q-18 0 -34.5 5t-31.5 10.5t-30.5 10.5t-31.5 5q-34 0 -55 -27h-2v81q8 9 24 16.5t39 7.5q18 0 34 -4.5
t31 -10t30.5 -10t32.5 -4.5q20 0 32.5 5t22.5 21h2v-82z" />
    <glyph glyph-name="Odieresis" unicode="&#xd6;" horiz-adv-x="324" 
d="M28 0zM28 692q0 140 134 140t134 -140v-561q0 -140 -134 -140t-134 140v561zM187 692q0 31 -25 31t-25 -31v-561q0 -31 25 -31t25 31v561zM190 872v125h98v-125h-98zM35 872v125h98v-125h-98z" />
    <glyph glyph-name="multiply" unicode="&#xd7;" horiz-adv-x="470" 
d="M349 248l-115 114l-114 -114l-57 58l114 113l-113 114l57 57l113 -113l114 114l57 -58l-113 -114l114 -114z" />
    <glyph glyph-name="Oslash" unicode="&#xd8;" horiz-adv-x="324" 
d="M28 -94l28 126q-28 34 -28 99v561q0 140 134 140q39 0 69 -14l22 99h43l-29 -127q29 -35 29 -98v-561q0 -140 -134 -140q-40 0 -70 14l-22 -99h-42zM187 430l-50 -222v-77q0 -31 25 -31t25 31v299zM187 619v73q0 31 -25 31t-25 -31v-295z" />
    <glyph glyph-name="Ugrave" unicode="&#xd9;" horiz-adv-x="329" 
d="M0 0zM190 823h108v-692q0 -140 -133 -140q-134 0 -134 140v692h109v-692q0 -31 25 -31t25 31v692zM138 860l-140 161h125l109 -161h-94z" />
    <glyph glyph-name="Uacute" unicode="&#xda;" horiz-adv-x="329" 
d="M31 0zM190 823h108v-692q0 -140 -133 -140q-134 0 -134 140v692h109v-692q0 -31 25 -31t25 31v692zM97 860l109 161h125l-140 -161h-94z" />
    <glyph glyph-name="Ucircumflex" unicode="&#xdb;" horiz-adv-x="329" 
d="M13 0zM190 823h108v-692q0 -140 -133 -140q-134 0 -134 140v692h109v-692q0 -31 25 -31t25 31v692zM221 860l-57 109l-61 -109h-90l97 161h115l91 -161h-95z" />
    <glyph glyph-name="Udieresis" unicode="&#xdc;" horiz-adv-x="329" 
d="M31 0zM190 823h108v-692q0 -140 -133 -140q-134 0 -134 140v692h109v-692q0 -31 25 -31t25 31v692zM193 872v125h98v-125h-98zM38 872v125h98v-125h-98z" />
    <glyph glyph-name="Yacute" unicode="&#xdd;" horiz-adv-x="336" 
d="M6 0zM111 0v351l-105 472h115q13 -76 21.5 -126.5t13.5 -85t8.5 -57t6.5 -43.5q3 21 6.5 43.5t9 57t14.5 85t23 126.5h106l-109 -472v-351h-110zM103 860l109 161h125l-140 -161h-94z" />
    <glyph glyph-name="Thorn" unicode="&#xde;" horiz-adv-x="331" 
d="M208 529q0 39 -38 39h-27v-331h28q37 0 37 39v253zM34 0v823h109v-146h27q75 0 111 -36t36 -112v-253q0 -72 -36.5 -110t-109.5 -38h-28v-128h-109z" />
    <glyph glyph-name="germandbls" unicode="&#xdf;" horiz-adv-x="331" 
d="M160 93q10 -3 26 -3q24 0 24 28v233q0 28 -24 28h-38v94h7q19 0 19 26v206q0 27 -22 27t-22 -27v-705h-96v709q0 60 29 91.5t89 31.5t88.5 -31.5t28.5 -91.5v-210q0 -21 -8 -35t-13 -19q26 -8 42 -32t16 -66v-229q0 -66 -25.5 -96.5t-85.5 -30.5q-14 0 -22 1t-13 2v99z
" />
    <glyph glyph-name="agrave" unicode="&#xe0;" 
d="M0 0zM169 0q-4 9 -4 31q-11 -18 -26 -29t-38 -11q-39 0 -60 23t-21 75v91q0 56 15.5 86t46.5 52q19 13 37.5 23t39.5 21v145q0 24 -22 24t-22 -24v-131h-86v131q0 122 110 122q114 0 114 -122v-455q0 -34 5 -52h-89zM159 283q-15 -6 -25 -16q-18 -15 -18 -48v-112
q0 -10 6.5 -15t15.5 -5q13 0 21 15v181zM116 656l-140 161h125l109 -161h-94z" />
    <glyph glyph-name="aacute" unicode="&#xe1;" 
d="M20 0zM169 0q-4 9 -4 31q-11 -18 -26 -29t-38 -11q-39 0 -60 23t-21 75v91q0 56 15.5 86t46.5 52q19 13 37.5 23t39.5 21v145q0 24 -22 24t-22 -24v-131h-86v131q0 122 110 122q114 0 114 -122v-455q0 -34 5 -52h-89zM159 283q-15 -6 -25 -16q-18 -15 -18 -48v-112
q0 -10 6.5 -15t15.5 -5q13 0 21 15v181zM76 656l109 161h125l-140 -161h-94z" />
    <glyph glyph-name="acircumflex" unicode="&#xe2;" 
d="M0 0zM169 0q-4 9 -4 31q-11 -18 -26 -29t-38 -11q-39 0 -60 23t-21 75v91q0 56 15.5 86t46.5 52q19 13 37.5 23t39.5 21v145q0 24 -22 24t-22 -24v-131h-86v131q0 122 110 122q114 0 114 -122v-455q0 -34 5 -52h-89zM159 283q-15 -6 -25 -16q-18 -15 -18 -48v-112
q0 -10 6.5 -15t15.5 -5q13 0 21 15v181zM200 656l-57 109l-61 -109h-90l97 161h115l91 -161h-95z" />
    <glyph glyph-name="atilde" unicode="&#xe3;" 
d="M19 0zM169 0q-4 9 -4 31q-11 -18 -26 -29t-38 -11q-39 0 -60 23t-21 75v91q0 56 15.5 86t46.5 52q19 13 37.5 23t39.5 21v145q0 24 -22 24t-22 -24v-131h-86v131q0 122 110 122q114 0 114 -122v-455q0 -34 5 -52h-89zM159 283q-15 -6 -25 -16q-18 -15 -18 -48v-112
q0 -10 6.5 -15t15.5 -5q13 0 21 15v181zM267 702q-24 -24 -63 -24q-18 0 -34.5 5t-31.5 10.5t-30.5 10.5t-31.5 5q-34 0 -55 -27h-2v81q8 9 24 16.5t39 7.5q18 0 34 -4.5t31 -10t30.5 -10t32.5 -4.5q20 0 32.5 5t22.5 21h2v-82z" />
    <glyph glyph-name="adieresis" unicode="&#xe4;" 
d="M17 0zM169 0q-4 9 -4 31q-11 -18 -26 -29t-38 -11q-39 0 -60 23t-21 75v91q0 56 15.5 86t46.5 52q19 13 37.5 23t39.5 21v145q0 24 -22 24t-22 -24v-131h-86v131q0 122 110 122q114 0 114 -122v-455q0 -34 5 -52h-89zM159 283q-15 -6 -25 -16q-18 -15 -18 -48v-112
q0 -10 6.5 -15t15.5 -5q13 0 21 15v181zM172 668v125h98v-125h-98zM17 668v125h98v-125h-98z" />
    <glyph glyph-name="aring" unicode="&#xe5;" 
d="M20 0zM169 0q-4 9 -4 31q-11 -18 -26 -29t-38 -11q-39 0 -60 23t-21 75v91q0 56 15.5 86t46.5 52q19 13 37.5 23t39.5 21v145q0 24 -22 24t-22 -24v-131h-86v131q0 122 110 122q114 0 114 -122v-455q0 -34 5 -52h-89zM159 283q-15 -6 -25 -16q-18 -15 -18 -48v-112
q0 -10 6.5 -15t15.5 -5q13 0 21 15v181zM194 737q0 21 -12 30.5t-40 9.5q-53 0 -53 -40q0 -21 13 -29.5t40 -8.5q28 0 40 9t12 29zM243 737q0 -34 -25 -56t-76 -22t-75 22t-24 56q0 35 24 57.5t75 22.5t76 -22.5t25 -57.5z" />
    <glyph glyph-name="ae" unicode="&#xe6;" horiz-adv-x="415" 
d="M296 252h91v-136q0 -125 -113 -125q-34 0 -51.5 11t-31.5 34q-10 -21 -28.5 -33t-54.5 -12q-39 0 -63.5 23t-24.5 75v91q0 56 15.5 86t46.5 52q19 13 37.5 23t39.5 21v145q0 24 -22 24t-22 -24v-131h-86v131q0 122 110 122q43 0 69 -17q26 17 66 17q113 0 113 -127v-209
h-134v-177q0 -25 21 -25q22 0 22 26v135zM159 283q-15 -6 -25 -16q-18 -15 -18 -48v-112q0 -10 6.5 -15t15.5 -5q13 0 21 15v181zM296 502q0 25 -22 25q-21 0 -21 -25v-139h43v139z" />
    <glyph glyph-name="ccedilla" unicode="&#xe7;" horiz-adv-x="285" 
d="M28 0zM168 253h91v-138q0 -57 -27 -90.5t-87 -33.5t-88.5 34.5t-28.5 91.5v384q0 57 28.5 92.5t88.5 35.5q59 0 85.5 -35.5t26.5 -91.5v-134h-89v136q0 24 -22 24t-22 -24v-387q0 -26 22 -26t22 26v136zM115 -149v31h20q11 0 11 12v14h-40v72h81v-86q0 -19 -11.5 -31
t-37.5 -12h-23z" />
    <glyph glyph-name="egrave" unicode="&#xe8;" horiz-adv-x="281" 
d="M0 0zM161 502q0 25 -22 25q-20 0 -20 -25v-139h42v139zM161 252h92v-136q0 -125 -114 -125q-111 0 -111 125v386q0 127 111 127q114 0 114 -127v-209h-134v-177q0 -25 20 -25q22 0 22 26v135zM114 656l-140 161h125l109 -161h-94z" />
    <glyph glyph-name="egrave" unicode="&#x450;" horiz-adv-x="281" 
d="M0 0zM161 502q0 25 -22 25q-20 0 -20 -25v-139h42v139zM161 252h92v-136q0 -125 -114 -125q-111 0 -111 125v386q0 127 111 127q114 0 114 -127v-209h-134v-177q0 -25 20 -25q22 0 22 26v135zM114 656l-140 161h125l109 -161h-94z" />
    <glyph glyph-name="eacute" unicode="&#xe9;" horiz-adv-x="281" 
d="M28 0zM161 502q0 25 -22 25q-20 0 -20 -25v-139h42v139zM161 252h92v-136q0 -125 -114 -125q-111 0 -111 125v386q0 127 111 127q114 0 114 -127v-209h-134v-177q0 -25 20 -25q22 0 22 26v135zM73 656l109 161h125l-140 -161h-94z" />
    <glyph glyph-name="ecircumflex" unicode="&#xea;" horiz-adv-x="281" 
d="M0 0zM161 502q0 25 -22 25q-20 0 -20 -25v-139h42v139zM161 252h92v-136q0 -125 -114 -125q-111 0 -111 125v386q0 127 111 127q114 0 114 -127v-209h-134v-177q0 -25 20 -25q22 0 22 26v135zM197 656l-57 109l-61 -109h-90l97 161h115l91 -161h-95z" />
    <glyph glyph-name="edieresis" unicode="&#xeb;" horiz-adv-x="281" 
d="M14 0zM161 502q0 25 -22 25q-20 0 -20 -25v-139h42v139zM161 252h92v-136q0 -125 -114 -125q-111 0 -111 125v386q0 127 111 127q114 0 114 -127v-209h-134v-177q0 -25 20 -25q22 0 22 26v135zM169 668v125h98v-125h-98zM14 668v125h98v-125h-98z" />
    <glyph glyph-name="edieresis" unicode="&#x451;" horiz-adv-x="281" 
d="M14 0zM161 502q0 25 -22 25q-20 0 -20 -25v-139h42v139zM161 252h92v-136q0 -125 -114 -125q-111 0 -111 125v386q0 127 111 127q114 0 114 -127v-209h-134v-177q0 -25 20 -25q22 0 22 26v135zM169 668v125h98v-125h-98zM14 668v125h98v-125h-98z" />
    <glyph glyph-name="igrave" unicode="&#xec;" horiz-adv-x="197" 
d="M0 0zM64 0v619h98v-619h-98zM86 656l-140 161h125l109 -161h-94z" />
    <glyph glyph-name="iacute" unicode="&#xed;" horiz-adv-x="204" 
d="M18 0zM36 0v619h98v-619h-98zM18 656l109 161h125l-140 -161h-94z" />
    <glyph glyph-name="icircumflex" unicode="&#xee;" horiz-adv-x="252" 
d="M0 0zM77 0v619h98v-619h-98zM182 656l-57 109l-61 -109h-90l97 161h115l91 -161h-95z" />
    <glyph glyph-name="idieresis" unicode="&#xef;" horiz-adv-x="253" 
d="M0 0zM78 0v619h98v-619h-98zM155 668v125h98v-125h-98zM0 668v125h98v-125h-98z" />
    <glyph glyph-name="idieresis" unicode="&#x457;" horiz-adv-x="253" 
d="M0 0zM78 0v619h98v-619h-98zM155 668v125h98v-125h-98zM0 668v125h98v-125h-98z" />
    <glyph glyph-name="eth" unicode="&#xf0;" horiz-adv-x="324" 
d="M28 398q0 66 30.5 94t78.5 28q19 0 33 -5t26 -15v77q0 31 -2 53t-7 39l-88 -101l-28 24l97 111q-12 13 -29 16.5t-38 3.5v109q45 0 79.5 -10.5t58.5 -36.5l43 48l28 -24l-48 -55q16 -30 25 -74.5t9 -107.5v-438q0 -69 -33.5 -106t-100.5 -37t-100.5 37t-33.5 106v264z
M186 399q-2 6 -6.5 10t-15.5 4q-27 0 -27 -34v-248q0 -31 25 -31q24 0 24 31v268z" />
    <glyph glyph-name="ntilde" unicode="&#xf1;" horiz-adv-x="304" 
d="M28 0zM175 0v509q0 24 -20 24q-14 0 -23 -10v-523h-98v619h83q3 -15 3 -33q28 43 76 43q77 0 77 -114v-515h-98zM276 702q-24 -24 -63 -24q-18 0 -34.5 5t-31.5 10.5t-30.5 10.5t-31.5 5q-34 0 -55 -27h-2v81q8 9 24 16.5t39 7.5q18 0 34 -4.5t31 -10t30.5 -10t32.5 -4.5
q20 0 32.5 5t22.5 21h2v-82z" />
    <glyph glyph-name="ograve" unicode="&#xf2;" horiz-adv-x="292" 
d="M0 0zM28 505q0 60 29 92t89 32t89 -32t29 -92v-391q0 -60 -29 -91.5t-89 -31.5t-89 31.5t-29 91.5v391zM168 501q0 27 -22 27t-22 -27v-383q0 -27 22 -27t22 27v383zM119 656l-140 161h125l109 -161h-94z" />
    <glyph glyph-name="oacute" unicode="&#xf3;" horiz-adv-x="292" 
d="M28 0zM28 505q0 60 29 92t89 32t89 -32t29 -92v-391q0 -60 -29 -91.5t-89 -31.5t-89 31.5t-29 91.5v391zM168 501q0 27 -22 27t-22 -27v-383q0 -27 22 -27t22 27v383zM79 656l109 161h125l-140 -161h-94z" />
    <glyph glyph-name="ocircumflex" unicode="&#xf4;" horiz-adv-x="292" 
d="M0 0zM28 505q0 60 29 92t89 32t89 -32t29 -92v-391q0 -60 -29 -91.5t-89 -31.5t-89 31.5t-29 91.5v391zM168 501q0 27 -22 27t-22 -27v-383q0 -27 22 -27t22 27v383zM203 656l-57 109l-61 -109h-90l97 161h115l91 -161h-95z" />
    <glyph glyph-name="otilde" unicode="&#xf5;" horiz-adv-x="292" 
d="M22 0zM28 505q0 60 29 92t89 32t89 -32t29 -92v-391q0 -60 -29 -91.5t-89 -31.5t-89 31.5t-29 91.5v391zM168 501q0 27 -22 27t-22 -27v-383q0 -27 22 -27t22 27v383zM270 702q-24 -24 -63 -24q-18 0 -34.5 5t-31.5 10.5t-30.5 10.5t-31.5 5q-34 0 -55 -27h-2v81
q8 9 24 16.5t39 7.5q18 0 34 -4.5t31 -10t30.5 -10t32.5 -4.5q20 0 32.5 5t22.5 21h2v-82z" />
    <glyph glyph-name="odieresis" unicode="&#xf6;" horiz-adv-x="292" 
d="M20 0zM28 505q0 60 29 92t89 32t89 -32t29 -92v-391q0 -60 -29 -91.5t-89 -31.5t-89 31.5t-29 91.5v391zM168 501q0 27 -22 27t-22 -27v-383q0 -27 22 -27t22 27v383zM175 668v125h98v-125h-98zM20 668v125h98v-125h-98z" />
    <glyph glyph-name="divide" unicode="&#xf7;" horiz-adv-x="470" 
d="M34 174zM34 379v81h403v-81h-403zM184 540v125h101v-125h-101zM184 174v125h101v-125h-101z" />
    <glyph glyph-name="oslash" unicode="&#xf8;" horiz-adv-x="292" 
d="M28 -94l28 117q-28 31 -28 91v391q0 60 29 92t89 32q30 0 53 -10l23 94h42l-28 -118q28 -31 28 -90v-391q0 -60 -29 -91.5t-89 -31.5q-31 0 -53 8l-23 -93h-42zM168 315l-44 -183v-14q0 -27 22 -27t22 27v197zM168 490v11q0 27 -22 27t-22 -27v-193z" />
    <glyph glyph-name="ugrave" unicode="&#xf9;" horiz-adv-x="302" 
d="M0 0zM185 0q-3 15 -3 33q-14 -20 -32.5 -29t-41.5 -9q-36 0 -56.5 28t-20.5 76v520h98v-504q0 -24 19 -24q13 0 22 10v518h98v-619h-83zM124 656l-140 161h125l109 -161h-94z" />
    <glyph glyph-name="uacute" unicode="&#xfa;" horiz-adv-x="302" 
d="M31 0zM185 0q-3 15 -3 33q-14 -20 -32.5 -29t-41.5 -9q-36 0 -56.5 28t-20.5 76v520h98v-504q0 -24 19 -24q13 0 22 10v518h98v-619h-83zM84 656l109 161h125l-140 -161h-94z" />
    <glyph glyph-name="ucircumflex" unicode="&#xfb;" horiz-adv-x="302" 
d="M0 0zM185 0q-3 15 -3 33q-14 -20 -32.5 -29t-41.5 -9q-36 0 -56.5 28t-20.5 76v520h98v-504q0 -24 19 -24q13 0 22 10v518h98v-619h-83zM208 656l-57 109l-61 -109h-90l97 161h115l91 -161h-95z" />
    <glyph glyph-name="udieresis" unicode="&#xfc;" horiz-adv-x="302" 
d="M25 0zM185 0q-3 15 -3 33q-14 -20 -32.5 -29t-41.5 -9q-36 0 -56.5 28t-20.5 76v520h98v-504q0 -24 19 -24q13 0 22 10v518h98v-619h-83zM180 668v125h98v-125h-98zM25 668v125h98v-125h-98z" />
    <glyph glyph-name="yacute" unicode="&#xfd;" horiz-adv-x="279" 
d="M8 0zM17 -43q8 -2 15.5 -2.5t18.5 -0.5q21 0 29 19t11 52l-83 594h102q7 -87 12 -148.5t9 -105.5t6 -76t3 -60q1 28 3.5 59.5t7 76t11 105.5t15.5 149h93l-81 -606q-5 -38 -13.5 -67.5t-23.5 -49.5t-38.5 -30t-58.5 -10q-9 0 -19.5 1t-18.5 3v97zM74 656l109 161h125
l-140 -161h-94z" />
    <glyph glyph-name="thorn" unicode="&#xfe;" horiz-adv-x="305" 
d="M34 -139v962h98v-212q21 18 55 18q45 0 67.5 -27t22.5 -87v-411q0 -60 -22.5 -86.5t-67.5 -26.5q-35 0 -55 17v-147h-98zM179 502q0 25 -24 25q-15 0 -23 -14v-407q7 -13 23 -13q24 0 24 24v385z" />
    <glyph glyph-name="ydieresis" unicode="&#xff;" horiz-adv-x="279" 
d="M8 0zM17 -43q8 -2 15.5 -2.5t18.5 -0.5q21 0 29 19t11 52l-83 594h102q7 -87 12 -148.5t9 -105.5t6 -76t3 -60q1 28 3.5 59.5t7 76t11 105.5t15.5 149h93l-81 -606q-5 -38 -13.5 -67.5t-23.5 -49.5t-38.5 -30t-58.5 -10q-9 0 -19.5 1t-18.5 3v97zM170 668v125h98v-125
h-98zM15 668v125h98v-125h-98z" />
    <glyph glyph-name="Amacron" unicode="&#x100;" horiz-adv-x="339" 
d="M9 0zM220 0l-12 117h-80l-14 -117h-105l100 823h126l94 -823h-109zM196 216q-8 81 -15 162t-13 166q-12 -168 -30 -328h58zM50 892v84h238v-84h-238z" />
    <glyph glyph-name="amacron" unicode="&#x101;" 
d="M20 0zM169 0q-4 9 -4 31q-11 -18 -26 -29t-38 -11q-39 0 -60 23t-21 75v91q0 56 15.5 86t46.5 52q19 13 37.5 23t39.5 21v145q0 24 -22 24t-22 -24v-131h-86v131q0 122 110 122q114 0 114 -122v-455q0 -34 5 -52h-89zM159 283q-15 -6 -25 -16q-18 -15 -18 -48v-112
q0 -10 6.5 -15t15.5 -5q13 0 21 15v181zM24 688v84h238v-84h-238z" />
    <glyph glyph-name="Abreve" unicode="&#x102;" horiz-adv-x="339" 
d="M9 0zM220 0l-12 117h-80l-14 -117h-105l100 823h126l94 -823h-109zM196 216q-8 81 -15 162t-13 166q-12 -168 -30 -328h58zM308 1015q0 -45 -8.5 -74t-25 -46.5t-42.5 -24t-60 -6.5q-40 0 -67 6.5t-43.5 24t-23.5 46.5t-7 74h89q0 -32 4 -51t11 -29.5t16 -13.5t18 -3
t18 3t16 13.5t11 29.5t4 51h90z" />
    <glyph glyph-name="abreve" unicode="&#x103;" 
d="M5 0zM169 0q-4 9 -4 31q-11 -18 -26 -29t-38 -11q-39 0 -60 23t-21 75v91q0 56 15.5 86t46.5 52q19 13 37.5 23t39.5 21v145q0 24 -22 24t-22 -24v-131h-86v131q0 122 110 122q114 0 114 -122v-455q0 -34 5 -52h-89zM159 283q-15 -6 -25 -16q-18 -15 -18 -48v-112
q0 -10 6.5 -15t15.5 -5q13 0 21 15v181zM282 811q0 -45 -8.5 -74t-25 -46.5t-42.5 -24t-60 -6.5q-40 0 -67 6.5t-43.5 24t-23.5 46.5t-7 74h89q0 -32 4 -51t11 -29.5t16 -13.5t18 -3t18 3t16 13.5t11 29.5t4 51h90z" />
    <glyph glyph-name="Aogonek" unicode="&#x104;" horiz-adv-x="339" 
d="M355 -49q0 -47 -25 -73.5t-90 -26.5q-38 0 -63.5 17.5t-25.5 51.5q0 26 18.5 45.5t51.5 28.5l-13 123h-80l-14 -117h-105l100 823h126l94 -823q-32 -4 -53.5 -10.5t-34 -14.5t-17.5 -17t-5 -18q0 -7 5.5 -14t20.5 -7q17 0 22.5 10t5.5 22v11h82v-11zM196 216
q-8 81 -15 162t-13 166q-12 -168 -30 -328h58z" />
    <glyph glyph-name="aogonek" unicode="&#x105;" 
d="M284 -49q0 -47 -25 -73.5t-90 -26.5q-38 0 -63.5 17.5t-25.5 51.5q0 30 23.5 50.5t65.5 27.5q-2 7 -3 16t-1 17q-11 -18 -26 -29t-38 -11q-39 0 -60 23t-21 75v91q0 56 15.5 86t46.5 52q19 13 37.5 23t39.5 21v145q0 24 -22 24t-22 -24v-131h-86v131q0 122 110 122
q114 0 114 -122v-455q0 -34 5 -52q-32 -4 -53.5 -10.5t-34 -14.5t-17.5 -17t-5 -18q0 -7 5.5 -14t20.5 -7q17 0 22.5 10t5.5 22v11h82v-11zM159 283q-15 -6 -25 -16q-18 -15 -18 -48v-112q0 -10 6.5 -15t15.5 -5q13 0 21 15v181z" />
    <glyph glyph-name="Cacute" unicode="&#x106;" horiz-adv-x="311" 
d="M28 0zM189 302h99v-170q0 -72 -29 -106.5t-95 -34.5q-136 0 -136 139v560q0 142 136 142q124 0 124 -140v-146h-99v146q0 31 -25 31t-25 -31v-561q0 -31 25 -31t25 31v171zM88 860l109 161h125l-140 -161h-94z" />
    <glyph glyph-name="cacute" unicode="&#x107;" horiz-adv-x="285" 
d="M28 0zM168 253h91v-138q0 -57 -27 -90.5t-87 -33.5t-88.5 34.5t-28.5 91.5v384q0 57 28.5 92.5t88.5 35.5q59 0 85.5 -35.5t26.5 -91.5v-134h-89v136q0 24 -22 24t-22 -24v-387q0 -26 22 -26t22 26v136zM75 656l109 161h125l-140 -161h-94z" />
    <glyph glyph-name="Cdotaccent" unicode="&#x10a;" horiz-adv-x="311" 
d="M28 0zM189 302h99v-170q0 -72 -29 -106.5t-95 -34.5q-136 0 -136 139v560q0 142 136 142q124 0 124 -140v-146h-99v146q0 31 -25 31t-25 -31v-561q0 -31 25 -31t25 31v171zM111 872v125h98v-125h-98z" />
    <glyph glyph-name="cdotaccent" unicode="&#x10b;" horiz-adv-x="285" 
d="M28 0zM168 253h91v-138q0 -57 -27 -90.5t-87 -33.5t-88.5 34.5t-28.5 91.5v384q0 57 28.5 92.5t88.5 35.5q59 0 85.5 -35.5t26.5 -91.5v-134h-89v136q0 24 -22 24t-22 -24v-387q0 -26 22 -26t22 26v136zM93 668v125h98v-125h-98z" />
    <glyph glyph-name="Ccaron" unicode="&#x10c;" horiz-adv-x="311" 
d="M9 0zM189 302h99v-170q0 -72 -29 -106.5t-95 -34.5q-136 0 -136 139v560q0 142 136 142q124 0 124 -140v-146h-99v146q0 31 -25 31t-25 -31v-561q0 -31 25 -31t25 31v171zM100 860l-91 161h95l57 -109l61 109h90l-97 -161h-115z" />
    <glyph glyph-name="ccaron" unicode="&#x10d;" horiz-adv-x="285" 
d="M0 0zM168 253h91v-138q0 -57 -27 -90.5t-87 -33.5t-88.5 34.5t-28.5 91.5v384q0 57 28.5 92.5t88.5 35.5q59 0 85.5 -35.5t26.5 -91.5v-134h-89v136q0 24 -22 24t-22 -24v-387q0 -26 22 -26t22 26v136zM82 656l-91 161h95l57 -109l61 109h90l-97 -161h-115z" />
    <glyph glyph-name="Dcaron" unicode="&#x10e;" horiz-adv-x="329" 
d="M13 0zM193 683q0 31 -26 31h-24v-605h24q26 0 26 31v543zM34 0v823h133q67 0 100.5 -37.5t33.5 -103.5v-542q0 -140 -134 -140h-133zM104 860l-91 161h95l57 -109l61 109h90l-97 -161h-115z" />
    <glyph glyph-name="dcaron" unicode="&#x10f;" horiz-adv-x="406" 
d="M28 0zM173 516q-7 13 -23 13q-24 0 -24 -24v-379q0 -26 24 -26q15 0 23 14v402zM188 0q-3 15 -3 34q-9 -20 -24.5 -29.5t-46.5 -9.5q-39 0 -62.5 30t-23.5 87v403q0 60 22.5 87t67.5 27q34 0 55 -18v212h98v-823h-83zM317 636v43h13q12 0 16.5 5.5t4.5 17.5v18h-46v103
h101v-113q0 -29 -17 -51.5t-59 -22.5h-13z" />
    <glyph glyph-name="dmacron" unicode="&#x111;" horiz-adv-x="305" 
d="M188 0q-3 15 -3 34q-9 -20 -24.5 -29.5t-46.5 -9.5q-39 0 -62.5 30t-23.5 87v403q0 60 22.5 87t67.5 27q34 0 55 -18v62h-110v84h110v66h98v-66h30v-84h-30v-673h-83zM173 516q-7 13 -23 13q-24 0 -24 -24v-379q0 -26 24 -26q15 0 23 14v402z" />
    <glyph glyph-name="Emacron" unicode="&#x112;" horiz-adv-x="282" 
d="M22 0zM34 0v823h226v-109h-117v-240h74v-109h-74v-256h122v-109h-231zM22 892v84h238v-84h-238z" />
    <glyph glyph-name="emacron" unicode="&#x113;" horiz-adv-x="281" 
d="M22 0zM161 502q0 25 -22 25q-20 0 -20 -25v-139h42v139zM161 252h92v-136q0 -125 -114 -125q-111 0 -111 125v386q0 127 111 127q114 0 114 -127v-209h-134v-177q0 -25 20 -25q22 0 22 26v135zM22 688v84h238v-84h-238z" />
    <glyph glyph-name="Ebreve" unicode="&#x114;" horiz-adv-x="282" 
d="M3 0zM34 0v823h226v-109h-117v-240h74v-109h-74v-256h122v-109h-231zM280 1015q0 -45 -8.5 -74t-25 -46.5t-42.5 -24t-60 -6.5q-40 0 -67 6.5t-43.5 24t-23.5 46.5t-7 74h89q0 -32 4 -51t11 -29.5t16 -13.5t18 -3t18 3t16 13.5t11 29.5t4 51h90z" />
    <glyph glyph-name="ebreve" unicode="&#x115;" horiz-adv-x="281" 
d="M2 0zM161 502q0 25 -22 25q-20 0 -20 -25v-139h42v139zM161 252h92v-136q0 -125 -114 -125q-111 0 -111 125v386q0 127 111 127q114 0 114 -127v-209h-134v-177q0 -25 20 -25q22 0 22 26v135zM279 811q0 -45 -8.5 -74t-25 -46.5t-42.5 -24t-60 -6.5q-40 0 -67 6.5
t-43.5 24t-23.5 46.5t-7 74h89q0 -32 4 -51t11 -29.5t16 -13.5t18 -3t18 3t16 13.5t11 29.5t4 51h90z" />
    <glyph glyph-name="Edotaccent" unicode="&#x116;" horiz-adv-x="282" 
d="M34 0zM34 0v823h226v-109h-117v-240h74v-109h-74v-256h122v-109h-231zM97 872v125h98v-125h-98z" />
    <glyph glyph-name="edotaccent" unicode="&#x117;" horiz-adv-x="281" 
d="M28 0zM161 502q0 25 -22 25q-20 0 -20 -25v-139h42v139zM161 252h92v-136q0 -125 -114 -125q-111 0 -111 125v386q0 127 111 127q114 0 114 -127v-209h-134v-177q0 -25 20 -25q22 0 22 26v135zM91 668v125h98v-125h-98z" />
    <glyph glyph-name="Eogonek" unicode="&#x118;" horiz-adv-x="282" 
d="M291 -49q0 -47 -25 -73.5t-90 -26.5q-38 0 -63.5 17.5t-25.5 51.5q0 33 28 54t79 26h-160v823h226v-109h-117v-240h74v-109h-74v-256h122v-109q-32 -4 -53.5 -10.5t-34 -14.5t-17.5 -17t-5 -18q0 -7 5.5 -14t20.5 -7q17 0 22.5 10t5.5 22v11h82v-11z" />
    <glyph glyph-name="eogonek" unicode="&#x119;" horiz-adv-x="281" 
d="M232 -49q0 -47 -25 -73.5t-90 -26.5q-38 0 -63.5 17.5t-25.5 51.5q0 28 20 47.5t56 27.5q-76 18 -76 121v386q0 127 111 127q114 0 114 -127v-209h-134v-177q0 -25 20 -25q22 0 22 26v135h92v-136q0 -107 -88 -123q-40 -8 -54.5 -22.5t-14.5 -30.5q0 -7 5.5 -14t20.5 -7
q17 0 22.5 10t5.5 22v11h82v-11zM161 502q0 25 -22 25q-20 0 -20 -25v-139h42v139z" />
    <glyph glyph-name="Ecaron" unicode="&#x11a;" horiz-adv-x="282" 
d="M0 0zM34 0v823h226v-109h-117v-240h74v-109h-74v-256h122v-109h-231zM86 860l-91 161h95l57 -109l61 109h90l-97 -161h-115z" />
    <glyph glyph-name="ecaron" unicode="&#x11b;" horiz-adv-x="281" 
d="M0 0zM161 502q0 25 -22 25q-20 0 -20 -25v-139h42v139zM161 252h92v-136q0 -125 -114 -125q-111 0 -111 125v386q0 127 111 127q114 0 114 -127v-209h-134v-177q0 -25 20 -25q22 0 22 26v135zM80 656l-91 161h95l57 -109l61 109h90l-97 -161h-115z" />
    <glyph glyph-name="Gbreve" unicode="&#x11e;" horiz-adv-x="325" 
d="M24 0zM287 -5l-35 33q-16 -21 -42.5 -29t-54.5 -8q-27 0 -50 7t-40.5 23.5t-27 43.5t-9.5 66v560q0 69 33 105t102 36t99 -36t30 -105v-145h-98v146q0 31 -31 31q-26 0 -26 -31v-561q0 -31 25 -31q31 0 31 31v161h-35v104h140v-401h-11zM301 1015q0 -45 -8.5 -74
t-25 -46.5t-42.5 -24t-60 -6.5q-40 0 -67 6.5t-43.5 24t-23.5 46.5t-7 74h89q0 -32 4 -51t11 -29.5t16 -13.5t18 -3t18 3t16 13.5t11 29.5t4 51h90z" />
    <glyph glyph-name="gbreve" unicode="&#x11f;" horiz-adv-x="305" 
d="M14 0zM176 47q-21 -18 -59 -18q-45 0 -67 26.5t-22 86.5v365q0 57 23.5 87t62.5 30q28 0 43.5 -9.5t27.5 -29.5q0 19 3 34h83v-651q0 -57 -28.5 -87t-88.5 -30q-67 0 -92 30t-25 87v25h88v-30q0 -27 26 -27q25 0 25 27v84zM176 505q-8 14 -25 14q-26 0 -26 -26v-345
q0 -25 26 -25q17 0 25 14v368zM291 811q0 -45 -8.5 -74t-25 -46.5t-42.5 -24t-60 -6.5q-40 0 -67 6.5t-43.5 24t-23.5 46.5t-7 74h89q0 -32 4 -51t11 -29.5t16 -13.5t18 -3t18 3t16 13.5t11 29.5t4 51h90z" />
    <glyph glyph-name="Gdotaccent" unicode="&#x120;" horiz-adv-x="325" 
d="M28 0zM287 -5l-35 33q-16 -21 -42.5 -29t-54.5 -8q-27 0 -50 7t-40.5 23.5t-27 43.5t-9.5 66v560q0 69 33 105t102 36t99 -36t30 -105v-145h-98v146q0 31 -31 31q-26 0 -26 -31v-561q0 -31 25 -31q31 0 31 31v161h-35v104h140v-401h-11zM113 872v125h98v-125h-98z" />
    <glyph glyph-name="gdotaccent" unicode="&#x121;" horiz-adv-x="305" 
d="M28 0zM176 47q-21 -18 -59 -18q-45 0 -67 26.5t-22 86.5v365q0 57 23.5 87t62.5 30q28 0 43.5 -9.5t27.5 -29.5q0 19 3 34h83v-651q0 -57 -28.5 -87t-88.5 -30q-67 0 -92 30t-25 87v25h88v-30q0 -27 26 -27q25 0 25 27v84zM176 505q-8 14 -25 14q-26 0 -26 -26v-345
q0 -25 26 -25q17 0 25 14v368zM103 668v125h98v-125h-98z" />
    <glyph glyph-name="Gcommaaccent" unicode="&#x122;" horiz-adv-x="325" 
d="M28 0zM287 -5l-35 33q-16 -21 -42.5 -29t-54.5 -8q-27 0 -50 7t-40.5 23.5t-27 43.5t-9.5 66v560q0 69 33 105t102 36t99 -36t30 -105v-145h-98v146q0 31 -31 31q-26 0 -26 -31v-561q0 -31 25 -31q31 0 31 31v161h-35v104h140v-401h-11zM136 -149v31h20q11 0 11 12v14
h-40v72h81v-86q0 -19 -11.5 -31t-37.5 -12h-23z" />
    <glyph glyph-name="gcommaaccent" unicode="&#x123;" horiz-adv-x="305" 
d="M28 0zM176 47q-21 -18 -59 -18q-45 0 -67 26.5t-22 86.5v365q0 57 23.5 87t62.5 30q28 0 43.5 -9.5t27.5 -29.5q0 19 3 34h83v-651q0 -57 -28.5 -87t-88.5 -30q-67 0 -92 30t-25 87v25h88v-30q0 -27 26 -27q25 0 25 27v84zM176 505q-8 14 -25 14q-26 0 -26 -26v-345
q0 -25 26 -25q17 0 25 14v368zM184.003 783.991v-30.998h-19.999q-10.999 0 -10.999 -12v-13.999h39.9971v-71.9951h-80.9951v85.9941q0 18.999 11.499 30.998q11.5 12 37.498 12h22.999z" />
    <glyph glyph-name="Hbar" unicode="&#x126;" horiz-adv-x="335" 
d="M193 0v365h-50v-365h-109v823h109v-132h50v132h108v-823h-108zM193 474v133h-50v-133h50z" />
    <glyph glyph-name="hbar" unicode="&#x127;" horiz-adv-x="304" 
d="M132 673v-70q29 26 66 26q75 0 75 -114v-515h-98v509q0 24 -20 24q-14 0 -23 -10v-523h-98v673h-29v84h29v66h98v-66h111v-84h-111z" />
    <glyph glyph-name="hbar" unicode="&#x45b;" horiz-adv-x="304" 
d="M132 673v-70q29 26 66 26q75 0 75 -114v-515h-98v509q0 24 -20 24q-14 0 -23 -10v-523h-98v673h-29v84h29v66h98v-66h111v-84h-111z" />
    <glyph glyph-name="Itilde" unicode="&#x128;" horiz-adv-x="248" 
d="M0 0zM69 0v823h109v-823h-109zM248 906q-24 -24 -63 -24q-18 0 -34.5 5t-31.5 10.5t-30.5 10.5t-31.5 5q-34 0 -55 -27h-2v81q8 9 24 16.5t39 7.5q18 0 34 -4.5t31 -10t30.5 -10t32.5 -4.5q20 0 32.5 5t22.5 21h2v-82z" />
    <glyph glyph-name="itilde" unicode="&#x129;" horiz-adv-x="248" 
d="M0 0zM75 0v619h98v-619h-98zM248 702q-24 -24 -63 -24q-18 0 -34.5 5t-31.5 10.5t-30.5 10.5t-31.5 5q-34 0 -55 -27h-2v81q8 9 24 16.5t39 7.5q18 0 34 -4.5t31 -10t30.5 -10t32.5 -4.5q20 0 32.5 5t22.5 21h2v-82z" />
    <glyph glyph-name="Imacron" unicode="&#x12a;" horiz-adv-x="181" 
d="M0 0zM36 0v823h109v-823h-109zM-28 892v84h238v-84h-238z" />
    <glyph glyph-name="imacron" unicode="&#x12b;" horiz-adv-x="211" 
d="M0 0zM56 0v619h98v-619h-98zM-14 688v84h238v-84h-238z" />
    <glyph glyph-name="Ibreve" unicode="&#x12c;" horiz-adv-x="181" 
d="M0 0zM36 0v823h109v-823h-109zM229 1015q0 -45 -8.5 -74t-25 -46.5t-42.5 -24t-60 -6.5q-40 0 -67 6.5t-43.5 24t-23.5 46.5t-7 74h89q0 -32 4 -51t11 -29.5t16 -13.5t18 -3t18 3t16 13.5t11 29.5t4 51h90z" />
    <glyph glyph-name="ibreve" unicode="&#x12d;" horiz-adv-x="246" 
d="M0 0zM74 0v619h98v-619h-98zM261 811q0 -45 -8.5 -74t-25 -46.5t-42.5 -24t-60 -6.5q-40 0 -67 6.5t-43.5 24t-23.5 46.5t-7 74h89q0 -32 4 -51t11 -29.5t16 -13.5t18 -3t18 3t16 13.5t11 29.5t4 51h90z" />
    <glyph glyph-name="Iogonek" unicode="&#x12e;" horiz-adv-x="181" 
d="M171 -49q0 -47 -25 -73.5t-90 -26.5q-38 0 -63.5 17.5t-25.5 51.5q0 26 18.5 45t50.5 28v830h109v-823q-32 -4 -53.5 -10.5t-34 -14.5t-17.5 -17t-5 -18q0 -7 5.5 -14t20.5 -7q17 0 22.5 10t5.5 22v11h82v-11z" />
    <glyph glyph-name="iogonek" unicode="&#x12f;" horiz-adv-x="169" 
d="M160 -49q0 -47 -25 -73.5t-90 -26.5q-38 0 -63.5 17.5t-25.5 51.5q0 29 21 48.5t59 27.5v623h98v-619q-32 -4 -53.5 -10.5t-34 -14.5t-17.5 -17t-5 -18q0 -7 5.5 -14t20.5 -7q17 0 22.5 10t5.5 22v11h82v-11zM36 698v125h98v-125h-98z" />
    <glyph glyph-name="Idotaccent" unicode="&#x130;" horiz-adv-x="181" 
d="M36 0zM36 0v823h109v-823h-109zM41 872v125h98v-125h-98z" />
    <glyph glyph-name="dotlessi" unicode="&#x131;" horiz-adv-x="169" 
d="M36 0v619h98v-619h-98z" />
    <glyph glyph-name="IJ" unicode="&#x132;" horiz-adv-x="398" 
d="M36 0zM36 0v823h109v-823h-109zM188 107q16 -3 43 -3t27 36v683h109v-683q0 -76 -34.5 -111t-101.5 -35q-12 0 -22.5 1.5t-20.5 3.5v108z" />
    <glyph glyph-name="ij" unicode="&#x133;" horiz-adv-x="350" 
d="M36 0zM36 698v125h98v-125h-98zM36 0v619h98v-619h-98zM216 698v125h98v-125h-98zM153 -43q13 -3 38 -3t25 33v632h98v-632q0 -69 -31 -100t-92 -31q-25 0 -38 4v97z" />
    <glyph glyph-name="Kcommaaccent" unicode="&#x136;" horiz-adv-x="353" 
d="M34 0zM228 0q-24 100 -39 165.5t-24.5 108.5t-15 69.5t-9.5 48.5q2 -45 2.5 -95t0.5 -119v-178h-109v823h109v-164v-60t-0.5 -47t-1 -39t-1.5 -35q3 17 8 38.5t14 59t24.5 96.5t39.5 151h116l-109 -367l119 -456h-124zM155 -149v31h20q11 0 11 12v14h-40v72h81v-86
q0 -19 -11.5 -31t-37.5 -12h-23z" />
    <glyph glyph-name="kcommaaccent" unicode="&#x137;" horiz-adv-x="300" 
d="M34 0zM190 0l-34 163q-6 27 -10 46.5t-7 36t-5.5 32t-5.5 33.5q1 -19 1.5 -34.5t0.5 -32.5v-37.5v-48.5v-158h-96v823h96v-316v-46.5v-36t-0.5 -31.5t-1.5 -33q4 17 7.5 32t7.5 31t9 35t12 45l30 116h100l-76 -266l79 -353h-107zM131 -149v31h20q11 0 11 12v14h-40v72h81
v-86q0 -19 -11.5 -31t-37.5 -12h-23z" />
    <glyph glyph-name="Lacute" unicode="&#x139;" horiz-adv-x="274" 
d="M21 0zM34 0v823h109v-714h122v-109h-231zM21 860l109 161h125l-140 -161h-94z" />
    <glyph glyph-name="lacute" unicode="&#x13a;" horiz-adv-x="166" 
d="M16 0zM34 0v823h98v-823h-98zM16 860l109 161h125l-140 -161h-94z" />
    <glyph glyph-name="Lcommaaccent" unicode="&#x13b;" horiz-adv-x="274" 
d="M34 0zM34 0v823h109v-714h122v-109h-231zM115 -149v31h20q11 0 11 12v14h-40v72h81v-86q0 -19 -11.5 -31t-37.5 -12h-23z" />
    <glyph glyph-name="lcommaaccent" unicode="&#x13c;" horiz-adv-x="166" 
d="M34 0zM34 0v823h98v-823h-98zM51 -149v31h20q11 0 11 12v14h-40v72h81v-86q0 -19 -11.5 -31t-37.5 -12h-23z" />
    <glyph glyph-name="Lcaron" unicode="&#x13d;" horiz-adv-x="303" 
d="M34 0zM34 0v823h109v-714h122v-109h-231zM214 636v43h13q12 0 16.5 5.5t4.5 17.5v18h-46v103h101v-113q0 -29 -17 -51.5t-59 -22.5h-13z" />
    <glyph glyph-name="lcaron" unicode="&#x13e;" horiz-adv-x="267" 
d="M34 0zM34 0v823h98v-823h-98zM178 636v43h13q12 0 16.5 5.5t4.5 17.5v18h-46v103h101v-113q0 -29 -17 -51.5t-59 -22.5h-13z" />
    <glyph glyph-name="Lslash" unicode="&#x141;" horiz-adv-x="279" 
d="M38 0v488l-32 -19l-36 59l68 39v256h110v-193l42 26l34 -59l-76 -46v-442h121v-109h-231z" />
    <glyph glyph-name="lslash" unicode="&#x142;" horiz-adv-x="227" 
d="M65 0v494l-49 -27l-35 58l84 47v251h99v-194l47 29l36 -58l-83 -49v-551h-99z" />
    <glyph glyph-name="Nacute" unicode="&#x143;" horiz-adv-x="357" 
d="M32 0zM221 0q-25 119 -41.5 200t-28 137t-18.5 94t-13 73q2 -73 2.5 -145t0.5 -147v-212h-91v823h125q21 -130 34.5 -215t22 -141t13.5 -91.5t10 -67.5q-2 66 -2.5 130t-0.5 128v257h91v-823h-104zM111 860l109 161h125l-140 -161h-94z" />
    <glyph glyph-name="nacute" unicode="&#x144;" horiz-adv-x="304" 
d="M34 0zM175 0v509q0 24 -20 24q-14 0 -23 -10v-523h-98v619h83q3 -15 3 -33q28 43 76 43q77 0 77 -114v-515h-98zM85 656l109 161h125l-140 -161h-94z" />
    <glyph glyph-name="Ncommaaccent" unicode="&#x145;" horiz-adv-x="357" 
d="M32 0zM221 0q-25 119 -41.5 200t-28 137t-18.5 94t-13 73q2 -73 2.5 -145t0.5 -147v-212h-91v823h125q21 -130 34.5 -215t22 -141t13.5 -91.5t10 -67.5q-2 66 -2.5 130t-0.5 128v257h91v-823h-104zM147 -149v31h20q11 0 11 12v14h-40v72h81v-86q0 -19 -11.5 -31
t-37.5 -12h-23z" />
    <glyph glyph-name="ncommaaccent" unicode="&#x146;" horiz-adv-x="304" 
d="M34 0zM175 0v509q0 24 -20 24q-14 0 -23 -10v-523h-98v619h83q3 -15 3 -33q28 43 76 43q77 0 77 -114v-515h-98zM125 -149v31h20q11 0 11 12v14h-40v72h81v-86q0 -19 -11.5 -31t-37.5 -12h-23z" />
    <glyph glyph-name="Ncaron" unicode="&#x147;" horiz-adv-x="357" 
d="M27 0zM221 0q-25 119 -41.5 200t-28 137t-18.5 94t-13 73q2 -73 2.5 -145t0.5 -147v-212h-91v823h125q21 -130 34.5 -215t22 -141t13.5 -91.5t10 -67.5q-2 66 -2.5 130t-0.5 128v257h91v-823h-104zM118 860l-91 161h95l57 -109l61 109h90l-97 -161h-115z" />
    <glyph glyph-name="ncaron" unicode="&#x148;" horiz-adv-x="304" 
d="M4 0zM175 0v509q0 24 -20 24q-14 0 -23 -10v-523h-98v619h83q3 -15 3 -33q28 43 76 43q77 0 77 -114v-515h-98zM95 656l-91 161h95l57 -109l61 109h90l-97 -161h-115z" />
    <glyph glyph-name="Eng" unicode="&#x14a;" horiz-adv-x="357" 
d="M164 -48q13 -3 38 -3q16 0 27 12q-25 118 -43 204.5t-30.5 150t-21 108.5t-14.5 80q2 -73 2.5 -145t0.5 -147v-212h-91v823h125q21 -130 34.5 -215t22 -141t13.5 -91.5t10 -67.5q-2 66 -2.5 130t-0.5 128v257h91v-841q0 -69 -31 -100t-92 -31q-25 0 -38 4v97z" />
    <glyph glyph-name="eng" unicode="&#x14b;" horiz-adv-x="304" 
d="M112 -48q13 -3 38 -3t25 33v527q0 24 -20 24q-14 0 -23 -10v-523h-98v619h83q3 -15 3 -33q28 43 76 43q77 0 77 -114v-533q0 -69 -31 -100t-92 -31q-25 0 -38 4v97z" />
    <glyph glyph-name="Omacron" unicode="&#x14c;" horiz-adv-x="324" 
d="M28 0zM28 692q0 140 134 140t134 -140v-561q0 -140 -134 -140t-134 140v561zM187 692q0 31 -25 31t-25 -31v-561q0 -31 25 -31t25 31v561zM43 892v84h238v-84h-238z" />
    <glyph glyph-name="omacron" unicode="&#x14d;" horiz-adv-x="292" 
d="M27 0zM28 505q0 60 29 92t89 32t89 -32t29 -92v-391q0 -60 -29 -91.5t-89 -31.5t-89 31.5t-29 91.5v391zM168 501q0 27 -22 27t-22 -27v-383q0 -27 22 -27t22 27v383zM27 688v84h238v-84h-238z" />
    <glyph glyph-name="Obreve" unicode="&#x14e;" horiz-adv-x="324" 
d="M24 0zM28 692q0 140 134 140t134 -140v-561q0 -140 -134 -140t-134 140v561zM187 692q0 31 -25 31t-25 -31v-561q0 -31 25 -31t25 31v561zM301 1015q0 -45 -8.5 -74t-25 -46.5t-42.5 -24t-60 -6.5q-40 0 -67 6.5t-43.5 24t-23.5 46.5t-7 74h89q0 -32 4 -51t11 -29.5
t16 -13.5t18 -3t18 3t16 13.5t11 29.5t4 51h90z" />
    <glyph glyph-name="obreve" unicode="&#x14f;" horiz-adv-x="292" 
d="M8 0zM28 505q0 60 29 92t89 32t89 -32t29 -92v-391q0 -60 -29 -91.5t-89 -31.5t-89 31.5t-29 91.5v391zM168 501q0 27 -22 27t-22 -27v-383q0 -27 22 -27t22 27v383zM285 811q0 -45 -8.5 -74t-25 -46.5t-42.5 -24t-60 -6.5q-40 0 -67 6.5t-43.5 24t-23.5 46.5t-7 74h89
q0 -32 4 -51t11 -29.5t16 -13.5t18 -3t18 3t16 13.5t11 29.5t4 51h90z" />
    <glyph glyph-name="Ohungarumlaut" unicode="&#x150;" horiz-adv-x="324" 
d="M11 0zM28 692q0 140 134 140t134 -140v-561q0 -140 -134 -140t-134 140v561zM187 692q0 31 -25 31t-25 -31v-561q0 -31 25 -31t25 31v561zM179 860l109 161h126l-141 -161h-94zM11 860l109 161h125l-140 -161h-94z" />
    <glyph glyph-name="ohungarumlaut" unicode="&#x151;" horiz-adv-x="292" 
d="M0 0zM28 505q0 60 29 92t89 32t89 -32t29 -92v-391q0 -60 -29 -91.5t-89 -31.5t-89 31.5t-29 91.5v391zM168 501q0 27 -22 27t-22 -27v-383q0 -27 22 -27t22 27v383zM163 656l109 161h126l-141 -161h-94zM-5 656l109 161h125l-140 -161h-94z" />
    <glyph glyph-name="OE" unicode="&#x152;" horiz-adv-x="435" 
d="M217 0q-23 -9 -55 -9q-134 0 -134 140v561q0 140 134 140q32 0 55 -9h196v-109h-117v-240h74v-109h-74v-256h122v-109h-201zM187 720q-9 3 -25 3q-25 0 -25 -31v-561q0 -31 25 -31q16 0 25 3v617z" />
    <glyph glyph-name="oe" unicode="&#x153;" horiz-adv-x="426" 
d="M306 252h92v-136q0 -125 -114 -125q-40 0 -69 17q-26 -17 -69 -17q-60 0 -89 31.5t-29 91.5v391q0 60 29 92t89 32q42 0 70 -19q25 19 68 19q114 0 114 -127v-209h-134v-177q0 -25 20 -25q22 0 22 26v135zM168 501q0 27 -22 27t-22 -27v-383q0 -27 22 -27t22 27v383z
M306 502q0 25 -22 25q-20 0 -20 -25v-139h42v139z" />
    <glyph glyph-name="Racute" unicode="&#x154;" horiz-adv-x="333" 
d="M34 0zM201 675q0 39 -37 39h-21v-248h22q36 0 36 38v171zM199 0q-8 94 -17 183.5t-21 183.5h-18v-367h-109v823h130q75 0 111 -33.5t36 -114.5v-170q0 -48 -11 -74.5t-36 -41.5q16 -100 29 -196t25 -193h-119zM99 860l109 161h125l-140 -161h-94z" />
    <glyph glyph-name="racute" unicode="&#x155;" horiz-adv-x="207" 
d="M34 0zM34 0v619h83q3 -15 3 -32q19 39 60 39q11 0 17 -3v-110q-11 8 -32 8q-10 0 -19.5 -3.5t-13.5 -13.5v-504h-98zM37 656l109 161h125l-140 -161h-94z" />
    <glyph glyph-name="Rcommaaccent" unicode="&#x156;" horiz-adv-x="333" 
d="M34 0zM201 675q0 39 -37 39h-21v-248h22q36 0 36 38v171zM199 0q-8 94 -17 183.5t-21 183.5h-18v-367h-109v823h130q75 0 111 -33.5t36 -114.5v-170q0 -48 -11 -74.5t-36 -41.5q16 -100 29 -196t25 -193h-119zM145 -149v31h20q11 0 11 12v14h-40v72h81v-86
q0 -19 -11.5 -31t-37.5 -12h-23z" />
    <glyph glyph-name="rcommaaccent" unicode="&#x157;" horiz-adv-x="207" 
d="M34 0zM34 0v619h83q3 -15 3 -32q19 39 60 39q11 0 17 -3v-110q-11 8 -32 8q-10 0 -19.5 -3.5t-13.5 -13.5v-504h-98zM52 -149v31h20q11 0 11 12v14h-40v72h81v-86q0 -19 -11.5 -31t-37.5 -12h-23z" />
    <glyph glyph-name="Rcaron" unicode="&#x158;" horiz-adv-x="333" 
d="M17 0zM201 675q0 39 -37 39h-21v-248h22q36 0 36 38v171zM199 0q-8 94 -17 183.5t-21 183.5h-18v-367h-109v823h130q75 0 111 -33.5t36 -114.5v-170q0 -48 -11 -74.5t-36 -41.5q16 -100 29 -196t25 -193h-119zM108 860l-91 161h95l57 -109l61 109h90l-97 -161h-115z" />
    <glyph glyph-name="rcaron" unicode="&#x159;" horiz-adv-x="207" 
d="M0 0zM34 0v619h83q3 -15 3 -32q19 39 60 39q11 0 17 -3v-110q-11 8 -32 8q-10 0 -19.5 -3.5t-13.5 -13.5v-504h-98zM43 656l-91 161h95l57 -109l61 109h90l-97 -161h-115z" />
    <glyph glyph-name="Sacute" unicode="&#x15a;" horiz-adv-x="313" 
d="M24 0zM181 244q0 16 -3 29t-12 28.5t-24.5 36t-40.5 52.5q-19 25 -33.5 47t-24 44t-14.5 44.5t-5 48.5v123q0 135 133 135q70 0 99.5 -33t29.5 -102v-151h-100v151q0 26 -26 26t-26 -26v-122q0 -16 4 -28.5t13 -27.5t24 -34.5t38 -49.5q22 -29 36.5 -52.5t23.5 -45
t12.5 -43.5t3.5 -49v-118q0 -66 -31 -101t-101 -35q-69 0 -101 35t-32 101v175h104v-175q0 -27 26 -27q27 0 27 27v117zM89 860l109 161h125l-140 -161h-94z" />
    <glyph glyph-name="sacute" unicode="&#x15b;" horiz-adv-x="280" 
d="M24 0zM255 107q0 -63 -30.5 -89.5t-90.5 -26.5q-54 0 -82 29t-28 92v95h89v-93q0 -26 23 -26q21 0 21 26v64q0 12 -2 21.5t-8.5 21.5t-19 28t-33.5 40q-16 19 -29 36.5t-22 36.5t-14 42t-5 53v47q0 70 29.5 97.5t83.5 27.5q67 0 91 -30t24 -95v-95h-89v96q0 26 -23 26
q-20 0 -20 -26v-64q0 -15 2.5 -26t10 -23.5t20.5 -27.5t33 -37q21 -23 34.5 -41.5t21 -37t10.5 -38.5t3 -47v-56zM73 656l109 161h125l-140 -161h-94z" />
    <glyph glyph-name="Scedilla" unicode="&#x15e;" horiz-adv-x="313" 
d="M24 0zM181 244q0 16 -3 29t-12 28.5t-24.5 36t-40.5 52.5q-19 25 -33.5 47t-24 44t-14.5 44.5t-5 48.5v123q0 135 133 135q70 0 99.5 -33t29.5 -102v-151h-100v151q0 26 -26 26t-26 -26v-122q0 -16 4 -28.5t13 -27.5t24 -34.5t38 -49.5q22 -29 36.5 -52.5t23.5 -45
t12.5 -43.5t3.5 -49v-118q0 -66 -31 -101t-101 -35q-69 0 -101 35t-32 101v175h104v-175q0 -27 26 -27q27 0 27 27v117zM125 -149v31h20q11 0 11 12v14h-40v72h81v-86q0 -19 -11.5 -31t-37.5 -12h-23z" />
    <glyph glyph-name="Scedilla" unicode="&#x218;" horiz-adv-x="313" 
d="M24 0zM181 244q0 16 -3 29t-12 28.5t-24.5 36t-40.5 52.5q-19 25 -33.5 47t-24 44t-14.5 44.5t-5 48.5v123q0 135 133 135q70 0 99.5 -33t29.5 -102v-151h-100v151q0 26 -26 26t-26 -26v-122q0 -16 4 -28.5t13 -27.5t24 -34.5t38 -49.5q22 -29 36.5 -52.5t23.5 -45
t12.5 -43.5t3.5 -49v-118q0 -66 -31 -101t-101 -35q-69 0 -101 35t-32 101v175h104v-175q0 -27 26 -27q27 0 27 27v117zM125 -149v31h20q11 0 11 12v14h-40v72h81v-86q0 -19 -11.5 -31t-37.5 -12h-23z" />
    <glyph glyph-name="scedilla" unicode="&#x15f;" horiz-adv-x="280" 
d="M24 0zM255 107q0 -63 -30.5 -89.5t-90.5 -26.5q-54 0 -82 29t-28 92v95h89v-93q0 -26 23 -26q21 0 21 26v64q0 12 -2 21.5t-8.5 21.5t-19 28t-33.5 40q-16 19 -29 36.5t-22 36.5t-14 42t-5 53v47q0 70 29.5 97.5t83.5 27.5q67 0 91 -30t24 -95v-95h-89v96q0 26 -23 26
q-20 0 -20 -26v-64q0 -15 2.5 -26t10 -23.5t20.5 -27.5t33 -37q21 -23 34.5 -41.5t21 -37t10.5 -38.5t3 -47v-56zM108 -149v31h20q11 0 11 12v14h-40v72h81v-86q0 -19 -11.5 -31t-37.5 -12h-23z" />
    <glyph glyph-name="scedilla" unicode="&#x219;" horiz-adv-x="280" 
d="M24 0zM255 107q0 -63 -30.5 -89.5t-90.5 -26.5q-54 0 -82 29t-28 92v95h89v-93q0 -26 23 -26q21 0 21 26v64q0 12 -2 21.5t-8.5 21.5t-19 28t-33.5 40q-16 19 -29 36.5t-22 36.5t-14 42t-5 53v47q0 70 29.5 97.5t83.5 27.5q67 0 91 -30t24 -95v-95h-89v96q0 26 -23 26
q-20 0 -20 -26v-64q0 -15 2.5 -26t10 -23.5t20.5 -27.5t33 -37q21 -23 34.5 -41.5t21 -37t10.5 -38.5t3 -47v-56zM108 -149v31h20q11 0 11 12v14h-40v72h81v-86q0 -19 -11.5 -31t-37.5 -12h-23z" />
    <glyph glyph-name="Scaron" unicode="&#x160;" horiz-adv-x="313" 
d="M9 0zM181 244q0 16 -3 29t-12 28.5t-24.5 36t-40.5 52.5q-19 25 -33.5 47t-24 44t-14.5 44.5t-5 48.5v123q0 135 133 135q70 0 99.5 -33t29.5 -102v-151h-100v151q0 26 -26 26t-26 -26v-122q0 -16 4 -28.5t13 -27.5t24 -34.5t38 -49.5q22 -29 36.5 -52.5t23.5 -45
t12.5 -43.5t3.5 -49v-118q0 -66 -31 -101t-101 -35q-69 0 -101 35t-32 101v175h104v-175q0 -27 26 -27q27 0 27 27v117zM100 860l-91 161h95l57 -109l61 109h90l-97 -161h-115z" />
    <glyph glyph-name="scaron" unicode="&#x161;" horiz-adv-x="280" 
d="M0 0zM255 107q0 -63 -30.5 -89.5t-90.5 -26.5q-54 0 -82 29t-28 92v95h89v-93q0 -26 23 -26q21 0 21 26v64q0 12 -2 21.5t-8.5 21.5t-19 28t-33.5 40q-16 19 -29 36.5t-22 36.5t-14 42t-5 53v47q0 70 29.5 97.5t83.5 27.5q67 0 91 -30t24 -95v-95h-89v96q0 26 -23 26
q-20 0 -20 -26v-64q0 -15 2.5 -26t10 -23.5t20.5 -27.5t33 -37q21 -23 34.5 -41.5t21 -37t10.5 -38.5t3 -47v-56zM81 656l-91 161h95l57 -109l61 109h90l-97 -161h-115z" />
    <glyph glyph-name="Tcommaaccent" unicode="&#x162;" 
d="M9 0zM89 0v714h-80v109h268v-109h-79v-714h-109zM113 -149v31h20q11 0 11 12v14h-40v72h81v-86q0 -19 -11.5 -31t-37.5 -12h-23z" />
    <glyph glyph-name="Tcommaaccent" unicode="&#x21a;" 
d="M9 0zM89 0v714h-80v109h268v-109h-79v-714h-109zM113 -149v31h20q11 0 11 12v14h-40v72h81v-86q0 -19 -11.5 -31t-37.5 -12h-23z" />
    <glyph glyph-name="tcommaaccent" unicode="&#x163;" horiz-adv-x="191" 
d="M7 0zM183 -7q-8 -1 -15 -1.5t-15 -0.5q-60 0 -87.5 34t-27.5 94v415h-31v85h31v196h98v-196h45v-85h-45v-413q0 -26 12 -35.5t35 -9.5v-83zM84 -149v31h20q11 0 11 12v14h-40v72h81v-86q0 -19 -11.5 -31t-37.5 -12h-23z" />
    <glyph glyph-name="tcommaaccent" unicode="&#x21b;" horiz-adv-x="191" 
d="M7 0zM183 -7q-8 -1 -15 -1.5t-15 -0.5q-60 0 -87.5 34t-27.5 94v415h-31v85h31v196h98v-196h45v-85h-45v-413q0 -26 12 -35.5t35 -9.5v-83zM84 -149v31h20q11 0 11 12v14h-40v72h81v-86q0 -19 -11.5 -31t-37.5 -12h-23z" />
    <glyph glyph-name="Tcaron" unicode="&#x164;" 
d="M0 0zM89 0v714h-80v109h268v-109h-79v-714h-109zM83 860l-91 161h95l57 -109l61 109h90l-97 -161h-115z" />
    <glyph glyph-name="tcaron" unicode="&#x165;" horiz-adv-x="277" 
d="M7 0zM183 -7q-8 -1 -15 -1.5t-15 -0.5q-60 0 -87.5 34t-27.5 94v415h-31v85h31v196h98v-196h45v-85h-45v-413q0 -26 12 -35.5t35 -9.5v-83zM188 636v43h13q12 0 16.5 5.5t4.5 17.5v18h-46v103h101v-113q0 -29 -17 -51.5t-59 -22.5h-13z" />
    <glyph glyph-name="Tbar" unicode="&#x166;" 
d="M89 0v376h-48v83h48v255h-80v109h268v-109h-79v-255h46v-83h-46v-376h-109z" />
    <glyph glyph-name="tbar" unicode="&#x167;" horiz-adv-x="191" 
d="M136 283v-162q0 -26 12 -35.5t35 -9.5v-83q-8 -1 -15 -1.5t-15 -0.5q-60 0 -87.5 34t-27.5 94v164h-24v83h24v168h-31v85h31v196h98v-196h45v-85h-45v-168h41v-83h-41z" />
    <glyph glyph-name="Utilde" unicode="&#x168;" horiz-adv-x="329" 
d="M31 0zM190 823h108v-692q0 -140 -133 -140q-134 0 -134 140v692h109v-692q0 -31 25 -31t25 31v692zM288 906q-24 -24 -63 -24q-18 0 -34.5 5t-31.5 10.5t-30.5 10.5t-31.5 5q-34 0 -55 -27h-2v81q8 9 24 16.5t39 7.5q18 0 34 -4.5t31 -10t30.5 -10t32.5 -4.5q20 0 32.5 5
t22.5 21h2v-82z" />
    <glyph glyph-name="utilde" unicode="&#x169;" horiz-adv-x="302" 
d="M27 0zM185 0q-3 15 -3 33q-14 -20 -32.5 -29t-41.5 -9q-36 0 -56.5 28t-20.5 76v520h98v-504q0 -24 19 -24q13 0 22 10v518h98v-619h-83zM275 702q-24 -24 -63 -24q-18 0 -34.5 5t-31.5 10.5t-30.5 10.5t-31.5 5q-34 0 -55 -27h-2v81q8 9 24 16.5t39 7.5q18 0 34 -4.5
t31 -10t30.5 -10t32.5 -4.5q20 0 32.5 5t22.5 21h2v-82z" />
    <glyph glyph-name="Umacron" unicode="&#x16a;" horiz-adv-x="329" 
d="M31 0zM190 823h108v-692q0 -140 -133 -140q-134 0 -134 140v692h109v-692q0 -31 25 -31t25 31v692zM45 892v84h238v-84h-238z" />
    <glyph glyph-name="umacron" unicode="&#x16b;" horiz-adv-x="302" 
d="M31 0zM185 0q-3 15 -3 33q-14 -20 -32.5 -29t-41.5 -9q-36 0 -56.5 28t-20.5 76v520h98v-504q0 -24 19 -24q13 0 22 10v518h98v-619h-83zM32 688v84h238v-84h-238z" />
    <glyph glyph-name="Ubreve" unicode="&#x16c;" horiz-adv-x="329" 
d="M26 0zM190 823h108v-692q0 -140 -133 -140q-134 0 -134 140v692h109v-692q0 -31 25 -31t25 31v692zM303 1015q0 -45 -8.5 -74t-25 -46.5t-42.5 -24t-60 -6.5q-40 0 -67 6.5t-43.5 24t-23.5 46.5t-7 74h89q0 -32 4 -51t11 -29.5t16 -13.5t18 -3t18 3t16 13.5t11 29.5t4 51
h90z" />
    <glyph glyph-name="ubreve" unicode="&#x16d;" horiz-adv-x="302" 
d="M13 0zM185 0q-3 15 -3 33q-14 -20 -32.5 -29t-41.5 -9q-36 0 -56.5 28t-20.5 76v520h98v-504q0 -24 19 -24q13 0 22 10v518h98v-619h-83zM290 811q0 -45 -8.5 -74t-25 -46.5t-42.5 -24t-60 -6.5q-40 0 -67 6.5t-43.5 24t-23.5 46.5t-7 74h89q0 -32 4 -51t11 -29.5
t16 -13.5t18 -3t18 3t16 13.5t11 29.5t4 51h90z" />
    <glyph glyph-name="Uring" unicode="&#x16e;" horiz-adv-x="329" 
d="M31 0zM190 823h108v-692q0 -140 -133 -140q-134 0 -134 140v692h109v-692q0 -31 25 -31t25 31v692zM215 941q0 21 -12 30.5t-40 9.5q-53 0 -53 -40q0 -21 13 -29.5t40 -8.5q28 0 40 9t12 29zM264 941q0 -34 -25 -56t-76 -22t-75 22t-24 56q0 35 24 57.5t75 22.5t76 -22.5
t25 -57.5z" />
    <glyph glyph-name="uring" unicode="&#x16f;" horiz-adv-x="302" 
d="M31 0zM185 0q-3 15 -3 33q-14 -20 -32.5 -29t-41.5 -9q-36 0 -56.5 28t-20.5 76v520h98v-504q0 -24 19 -24q13 0 22 10v518h98v-619h-83zM202 737q0 21 -12 30.5t-40 9.5q-53 0 -53 -40q0 -21 13 -29.5t40 -8.5q28 0 40 9t12 29zM251 737q0 -34 -25 -56t-76 -22t-75 22
t-24 56q0 35 24 57.5t75 22.5t76 -22.5t25 -57.5z" />
    <glyph glyph-name="Uhungarumlaut" unicode="&#x170;" horiz-adv-x="329" 
d="M13 0zM190 823h108v-692q0 -140 -133 -140q-134 0 -134 140v692h109v-692q0 -31 25 -31t25 31v692zM181 860l109 161h126l-141 -161h-94zM13 860l109 161h125l-140 -161h-94z" />
    <glyph glyph-name="uhungarumlaut" unicode="&#x171;" horiz-adv-x="302" 
d="M0 0zM185 0q-3 15 -3 33q-14 -20 -32.5 -29t-41.5 -9q-36 0 -56.5 28t-20.5 76v520h98v-504q0 -24 19 -24q13 0 22 10v518h98v-619h-83zM168 656l109 161h126l-141 -161h-94zM0 656l109 161h125l-140 -161h-94z" />
    <glyph glyph-name="Uogonek" unicode="&#x172;" horiz-adv-x="329" 
d="M248 -49q0 -47 -25 -73.5t-90 -26.5q-38 0 -63.5 17.5t-25.5 51.5q0 28 20.5 47.5t56.5 27.5q-90 19 -90 136v692h109v-692q0 -31 25 -31t25 31v692h108v-692q0 -68 -31.5 -99t-91.5 -40q-37 -5 -50 -21t-13 -31q0 -7 5.5 -14t20.5 -7q17 0 22.5 10t5.5 22v11h82v-11z
" />
    <glyph glyph-name="uogonek" unicode="&#x173;" horiz-adv-x="302" 
d="M294 -49q0 -47 -25 -73.5t-90 -26.5q-38 0 -63.5 17.5t-25.5 51.5q0 32 25 52t70 27q-2 7 -2.5 16t-0.5 18q-14 -20 -32.5 -29t-41.5 -9q-36 0 -56.5 28t-20.5 76v520h98v-504q0 -24 19 -24q13 0 22 10v518h98v-619q-32 -4 -53.5 -10.5t-34 -14.5t-17.5 -17t-5 -18
q0 -7 5.5 -14t20.5 -7q17 0 22.5 10t5.5 22v11h82v-11z" />
    <glyph glyph-name="Wcircumflex" unicode="&#x174;" horiz-adv-x="537" 
d="M9 0zM310 0q-10 102 -17 177t-12 129t-8.5 90t-5 61t-2 41.5t-0.5 31.5q-1 -15 -2.5 -31.5t-3.5 -41.5t-5.5 -61t-8.5 -90t-12.5 -129t-17.5 -177h-127l-79 823h114q8 -108 13.5 -187.5t9.5 -137.5t7 -97.5t4.5 -67t2.5 -47t2 -37.5q1 18 2.5 37.5t4 47t6 67t10 97.5
t15 137.5t20.5 187.5h97q10 -108 17.5 -187.5t12.5 -137.5t8.5 -97.5t5.5 -67t3.5 -47t2.5 -37.5q1 18 2 37.5t3 47t5 67t8 97.5t12 137.5t17 187.5h114l-92 -823h-126zM325 860l-57 109l-61 -109h-90l97 161h115l91 -161h-95z" />
    <glyph glyph-name="wcircumflex" unicode="&#x175;" horiz-adv-x="425" 
d="M10 0zM241 0q-10 100 -16 166t-9.5 108.5t-5 66.5t-1.5 40q-1 -16 -3 -39.5t-6 -65.5t-10.5 -108.5t-15.5 -167.5h-112l-52 619h90q5 -81 9 -141t6.5 -103.5t4.5 -73.5t3.5 -51t2 -35.5t1.5 -27.5l41 432h87q7 -81 11.5 -141t8 -103.5t6 -73.5t4 -51t3 -35.5t2.5 -27.5
q1 13 2 27.5t2.5 35.5t4 51t6 73.5t8.5 103.5t12 141h89l-60 -619h-113zM269 656l-57 109l-61 -109h-90l97 161h115l91 -161h-95z" />
    <glyph glyph-name="Ycircumflex" unicode="&#x176;" horiz-adv-x="336" 
d="M6 0zM111 0v351l-105 472h115q13 -76 21.5 -126.5t13.5 -85t8.5 -57t6.5 -43.5q3 21 6.5 43.5t9 57t14.5 85t23 126.5h106l-109 -472v-351h-110zM228 860l-57 109l-61 -109h-90l97 161h115l91 -161h-95z" />
    <glyph glyph-name="ycircumflex" unicode="&#x177;" horiz-adv-x="279" 
d="M0 0zM17 -43q8 -2 15.5 -2.5t18.5 -0.5q21 0 29 19t11 52l-83 594h102q7 -87 12 -148.5t9 -105.5t6 -76t3 -60q1 28 3.5 59.5t7 76t11 105.5t15.5 149h93l-81 -606q-5 -38 -13.5 -67.5t-23.5 -49.5t-38.5 -30t-58.5 -10q-9 0 -19.5 1t-18.5 3v97zM198 656l-57 109
l-61 -109h-90l97 161h115l91 -161h-95z" />
    <glyph glyph-name="Ydieresis" unicode="&#x178;" horiz-adv-x="336" 
d="M6 0zM111 0v351l-105 472h115q13 -76 21.5 -126.5t13.5 -85t8.5 -57t6.5 -43.5q3 21 6.5 43.5t9 57t14.5 85t23 126.5h106l-109 -472v-351h-110zM199 872v125h98v-125h-98zM44 872v125h98v-125h-98z" />
    <glyph glyph-name="Ydieresis" unicode="&#x3ab;" horiz-adv-x="336" 
d="M6 0zM111 0v351l-105 472h115q13 -76 21.5 -126.5t13.5 -85t8.5 -57t6.5 -43.5q3 21 6.5 43.5t9 57t14.5 85t23 126.5h106l-109 -472v-351h-110zM199 872v125h98v-125h-98zM44 872v125h98v-125h-98z" />
    <glyph glyph-name="Zacute" unicode="&#x179;" horiz-adv-x="310" 
d="M22 0zM22 0v111l159 606h-151v106h259v-98l-154 -614h154v-111h-267zM88 860l109 161h125l-140 -161h-94z" />
    <glyph glyph-name="zacute" unicode="&#x17a;" horiz-adv-x="257" 
d="M22 0zM22 0v93l121 430h-119v96h212v-91l-116 -428h115v-100h-213zM61 656l109 161h125l-140 -161h-94z" />
    <glyph glyph-name="Zdotaccent" unicode="&#x17b;" horiz-adv-x="310" 
d="M22 0zM22 0v111l159 606h-151v106h259v-98l-154 -614h154v-111h-267zM111 872v125h98v-125h-98z" />
    <glyph glyph-name="zdotaccent" unicode="&#x17c;" horiz-adv-x="257" 
d="M22 0zM22 0v93l121 430h-119v96h212v-91l-116 -428h115v-100h-213zM79 668v125h98v-125h-98z" />
    <glyph glyph-name="Zcaron" unicode="&#x17d;" horiz-adv-x="310" 
d="M9 0zM22 0v111l159 606h-151v106h259v-98l-154 -614h154v-111h-267zM100 860l-91 161h95l57 -109l61 109h90l-97 -161h-115z" />
    <glyph glyph-name="zcaron" unicode="&#x17e;" horiz-adv-x="257" 
d="M0 0zM22 0v93l121 430h-119v96h212v-91l-116 -428h115v-100h-213zM68 656l-91 161h95l57 -109l61 109h90l-97 -161h-115z" />
    <glyph glyph-name="uni018E" unicode="&#x18e;" horiz-adv-x="282" 
d="M248 823v-823h-226v109h117v240h-74v109h74v256h-122v109h231z" />
    <glyph glyph-name="uni018F" unicode="&#x18f;" horiz-adv-x="316" 
d="M127 532h-99v159q0 72 29 106.5t95 34.5q136 0 136 -139v-560q0 -142 -136 -142q-124 0 -124 140v300h149v261q0 31 -25 31t-25 -31v-160zM177 348h-50v-217q0 -31 25 -31t25 31v217z" />
    <glyph glyph-name="uni018F" unicode="&#x4d8;" horiz-adv-x="316" 
d="M127 532h-99v159q0 72 29 106.5t95 34.5q136 0 136 -139v-560q0 -142 -136 -142q-124 0 -124 140v300h149v261q0 31 -25 31t-25 -31v-160zM177 348h-50v-217q0 -31 25 -31t25 31v217z" />
    <glyph glyph-name="florin" unicode="&#x192;" horiz-adv-x="417" 
d="M14 87q12 -2 24.5 -3.5t32.5 -1.5q25 0 36.5 11.5t15.5 43.5l52 420h-69v83h78l7 48q5 40 16 67.5t30 44.5t47.5 24.5t68.5 7.5q21 0 36 -3t23 -6v-87q-12 2 -24.5 3.5t-33.5 1.5q-24 0 -36.5 -11.5t-15.5 -43.5l-5 -46h91v-83h-102l-51 -422q-5 -40 -15.5 -67.5
t-29.5 -44.5t-47.5 -24.5t-69.5 -7.5q-21 0 -36.5 3t-22.5 6v87z" />
    <glyph glyph-name="uni0194" unicode="&#x194;" horiz-adv-x="342" 
d="M175 -149q-32 0 -53.5 6t-34.5 19t-18.5 32t-5.5 45q0 20 2.5 39t5.5 36l55 283l-117 512h113l52 -264l51 264h108l-111 -508l57 -287q3 -17 5.5 -36t2.5 -39q0 -52 -24 -77t-88 -25zM174 97l-19 -89q-3 -14 -5.5 -30.5t-2.5 -31.5q0 -21 6 -31.5t22 -10.5t22 10.5
t6 31.5q0 15 -2.5 31.5t-5.5 30.5z" />
    <glyph glyph-name="uni019D" unicode="&#x19d;" horiz-adv-x="357" 
d="M32 823h125q21 -130 34.5 -215t22 -141t13.5 -91.5t10 -67.5q-2 66 -2.5 130t-0.5 128v257h91v-823h-104q-25 119 -41.5 200t-28 137t-18.5 94t-13 73q2 -73 2.5 -145t0.5 -147v-225q0 -70 -27.5 -100.5t-90.5 -30.5q-10 0 -19 1t-17 3v97q7 -2 16 -2.5t15 -0.5
q18 0 25 7t7 26v836z" />
    <glyph glyph-name="uni01A0" unicode="&#x1a0;" horiz-adv-x="364" 
d="M157 832q26 0 43 -4.5t39 -4.5q17 0 24.5 6t7.5 23v70h93v-64q0 -45 -20 -69.5t-58 -32.5q10 -26 10 -64v-561q0 -140 -134 -140t-134 140v561q0 70 34 105t95 35zM187 692q0 31 -25 31t-25 -31v-561q0 -31 25 -31t25 31v561z" />
    <glyph glyph-name="uni01A1" unicode="&#x1a1;" horiz-adv-x="346" 
d="M141 629q26 0 42 -5t38 -5q18 0 25 6t7 23v70h93v-64q0 -48 -22 -73t-65 -30q5 -23 5 -46v-391q0 -60 -29 -91.5t-89 -31.5t-89 31.5t-29 91.5v391q0 60 29.5 92t83.5 32zM168 501q0 27 -22 27t-22 -27v-383q0 -27 22 -27t22 27v383z" />
    <glyph glyph-name="uni01AF" unicode="&#x1af;" horiz-adv-x="421" 
d="M190 823h108q17 0 23.5 6.5t6.5 22.5v70h93v-64q0 -56 -30 -80.5t-93 -24.5v-622q0 -140 -133 -140q-134 0 -134 140v692h109v-692q0 -31 25 -31t25 31v692z" />
    <glyph glyph-name="uni01B0" unicode="&#x1b0;" horiz-adv-x="391" 
d="M185 0q-3 15 -3 33q-14 -20 -32.5 -29t-38.5 -9q-39 0 -59.5 28t-20.5 76v520h98v-504q0 -24 19 -24q13 0 22 10v518h98q17 0 23.5 6.5t6.5 22.5v70h93v-64q0 -56 -30 -80.5t-93 -24.5v-549h-83z" />
    <glyph glyph-name="uni01DD" unicode="&#x1dd;" horiz-adv-x="281" 
d="M120 118q0 -25 22 -25q20 0 20 25v139h-42v-139zM120 368h-92v136q0 125 114 125q111 0 111 -125v-386q0 -127 -111 -127q-114 0 -114 127v209h134v177q0 25 -20 25q-22 0 -22 -26v-135z" />
    <glyph glyph-name="uni01DD" unicode="&#x4d9;" horiz-adv-x="281" 
d="M120 118q0 -25 22 -25q20 0 20 25v139h-42v-139zM120 368h-92v136q0 125 114 125q111 0 111 -125v-386q0 -127 -111 -127q-114 0 -114 127v209h134v177q0 25 -20 25q-22 0 -22 -26v-135z" />
    <glyph glyph-name="uni01E6" unicode="&#x1e6;" horiz-adv-x="325" 
d="M11 0zM287 -5l-35 33q-16 -21 -42.5 -29t-54.5 -8q-27 0 -50 7t-40.5 23.5t-27 43.5t-9.5 66v560q0 69 33 105t102 36t99 -36t30 -105v-145h-98v146q0 31 -31 31q-26 0 -26 -31v-561q0 -31 25 -31q31 0 31 31v161h-35v104h140v-401h-11zM102 860l-91 161h95l57 -109
l61 109h90l-97 -161h-115z" />
    <glyph glyph-name="uni01E7" unicode="&#x1e7;" horiz-adv-x="305" 
d="M1 0zM176 47q-21 -18 -59 -18q-45 0 -67 26.5t-22 86.5v365q0 57 23.5 87t62.5 30q28 0 43.5 -9.5t27.5 -29.5q0 19 3 34h83v-651q0 -57 -28.5 -87t-88.5 -30q-67 0 -92 30t-25 87v25h88v-30q0 -27 26 -27q25 0 25 27v84zM176 505q-8 14 -25 14q-26 0 -26 -26v-345
q0 -25 26 -25q17 0 25 14v368zM92 656l-91 161h95l57 -109l61 109h90l-97 -161h-115z" />
    <glyph glyph-name="uni01F4" unicode="&#x1f4;" horiz-adv-x="325" 
d="M28 0zM287 -5l-35 33q-16 -21 -42.5 -29t-54.5 -8q-27 0 -50 7t-40.5 23.5t-27 43.5t-9.5 66v560q0 69 33 105t102 36t99 -36t30 -105v-145h-98v146q0 31 -31 31q-26 0 -26 -31v-561q0 -31 25 -31q31 0 31 31v161h-35v104h140v-401h-11zM98 860l109 161h125l-140 -161
h-94z" />
    <glyph glyph-name="uni01F5" unicode="&#x1f5;" horiz-adv-x="305" 
d="M28 0zM176 47q-21 -18 -59 -18q-45 0 -67 26.5t-22 86.5v365q0 57 23.5 87t62.5 30q28 0 43.5 -9.5t27.5 -29.5q0 19 3 34h83v-651q0 -57 -28.5 -87t-88.5 -30q-67 0 -92 30t-25 87v25h88v-30q0 -27 26 -27q25 0 25 27v84zM176 505q-8 14 -25 14q-26 0 -26 -26v-345
q0 -25 26 -25q17 0 25 14v368zM73 656l109 161h125l-140 -161h-94z" />
    <glyph glyph-name="uni01F8" unicode="&#x1f8;" horiz-adv-x="357" 
d="M11 0zM221 0q-25 119 -41.5 200t-28 137t-18.5 94t-13 73q2 -73 2.5 -145t0.5 -147v-212h-91v823h125q21 -130 34.5 -215t22 -141t13.5 -91.5t10 -67.5q-2 66 -2.5 130t-0.5 128v257h91v-823h-104zM151 860l-140 161h125l109 -161h-94z" />
    <glyph glyph-name="uni01F9" unicode="&#x1f9;" horiz-adv-x="304" 
d="M0 0zM175 0v509q0 24 -20 24q-14 0 -23 -10v-523h-98v619h83q3 -15 3 -33q28 43 76 43q77 0 77 -114v-515h-98zM125 656l-140 161h125l109 -161h-94z" />
    <glyph glyph-name="dotlessj" unicode="&#x237;" horiz-adv-x="181" 
d="M-16 -43q13 -3 38 -3t25 33v632h98v-632q0 -69 -31 -100t-92 -31q-25 0 -38 4v97z" />
    <glyph glyph-name="uni0241" unicode="&#x241;" horiz-adv-x="301" 
d="M81 0v298q0 34 3 58t9.5 42t15.5 32t21 29q15 18 24 30.5t13.5 26t6 31.5t1.5 48v97q0 31 -25 31t-25 -31v-146h-104v144q0 73 31 107.5t99 34.5q66 0 98.5 -34t32.5 -109v-95q0 -32 -3 -56t-9.5 -43t-16 -35t-22.5 -32q-12 -15 -20 -26.5t-13 -25t-7 -31t-2 -45.5v-300
h-108z" />
    <glyph glyph-name="uni0242" unicode="&#x242;" horiz-adv-x="294" 
d="M79 0v135q0 34 2.5 58t8 42t13.5 32t20 29q14 18 22.5 30.5t13 26t6 31.5t1.5 48v57q0 31 -24 31t-24 -31v-106h-95v104q0 73 27 107.5t93 34.5q64 0 95 -34t31 -109v-55q0 -35 -3.5 -59.5t-10 -43t-15.5 -33.5t-20 -30q-11 -16 -19.5 -29t-13.5 -27t-7.5 -31t-2.5 -41
v-137h-98z" />
    <glyph glyph-name="uni024C" unicode="&#x24c;" horiz-adv-x="384" 
d="M251 -2q-8 94 -17 183.5t-21 183.5h-18v-367h-109v367h-86v99h86v357h130q75 0 111 -33.5t36 -114.5v-170q0 -48 -11 -74.5t-36 -41.5q16 -100 29 -196t25 -193h-119zM253 673q0 39 -37 39h-21v-248h22q36 0 36 38v171z" />
    <glyph glyph-name="uni024D" unicode="&#x24d;" horiz-adv-x="227" 
d="M54 0v269h-54v84h54v266h83q3 -15 3 -32q19 39 60 39q11 0 17 -3v-110q-11 8 -32 8q-10 0 -19.5 -3.5t-13.5 -13.5v-151h57v-84h-57v-269h-98z" />
    <glyph glyph-name="uni0263" unicode="&#x263;" horiz-adv-x="279" 
d="M142 -149q-53 0 -71 25.5t-18 81.5q0 23 2 38t5 32l41 209l-93 382h98l35 -176l35 176h94l-89 -375l44 -216q3 -17 5 -36t2 -39q0 -52 -19 -77t-71 -25zM141 72l-15 -64q-2 -11 -4 -30.5t-2 -33.5q0 -19 4.5 -29.5t17.5 -10.5t18 10.5t5 34.5q0 14 -1.5 26.5t-6.5 32.5z
" />
    <glyph glyph-name="uni0272" unicode="&#x272;" horiz-adv-x="304" 
d="M132 0q0 -69 -31 -106.5t-94 -37.5q-9 0 -18.5 1t-17.5 3v97q5 -2 16.5 -2.5t15.5 -0.5q20 0 25.5 14.5t5.5 31.5v619h83q3 -15 3 -33q28 43 76 43q77 0 77 -114v-515h-98v509q0 24 -20 24q-14 0 -23 -10v-523z" />
    <glyph glyph-name="circumflex" unicode="&#x2c6;" horiz-adv-x="389" 
d="M251 656l-57 109l-61 -109h-90l97 161h115l91 -161h-95z" />
    <glyph glyph-name="caron" unicode="&#x2c7;" horiz-adv-x="389" 
d="M134 656l-91 161h95l57 -109l61 109h90l-97 -161h-115z" />
    <glyph glyph-name="breve" unicode="&#x2d8;" horiz-adv-x="344" 
d="M311 811q0 -45 -8.5 -74t-25 -46.5t-42.5 -24t-60 -6.5q-40 0 -67 6.5t-43.5 24t-23.5 46.5t-7 74h89q0 -32 4 -51t11 -29.5t16 -13.5t18 -3t18 3t16 13.5t11 29.5t4 51h90z" />
    <glyph glyph-name="dotaccent" unicode="&#x2d9;" horiz-adv-x="166" 
d="M34 668v125h98v-125h-98z" />
    <glyph glyph-name="ring" unicode="&#x2da;" horiz-adv-x="267" 
d="M185 737q0 21 -12 30.5t-40 9.5q-53 0 -53 -40q0 -21 13 -29.5t40 -8.5q28 0 40 9t12 29zM234 737q0 -34 -25 -56t-76 -22t-75 22t-24 56q0 35 24 57.5t75 22.5t76 -22.5t25 -57.5z" />
    <glyph glyph-name="ogonek" unicode="&#x2db;" horiz-adv-x="271" 
d="M238 -49q0 -45 -24 -72.5t-84 -27.5q-46 0 -71 17.5t-25 50.5q0 36 29 56t78 25h71q-33 -4 -54.5 -11t-33.5 -15t-17 -16.5t-5 -15.5q0 -8 5.5 -15.5t20.5 -7.5q17 0 22.5 10t5.5 22v11h82v-11z" />
    <glyph glyph-name="tilde" unicode="&#x2dc;" horiz-adv-x="316" 
d="M282 702q-24 -24 -63 -24q-18 0 -34.5 5t-31.5 10.5t-30.5 10.5t-31.5 5q-34 0 -55 -27h-2v81q8 9 24 16.5t39 7.5q18 0 34 -4.5t31 -10t30.5 -10t32.5 -4.5q20 0 32.5 5t22.5 21h2v-82z" />
    <glyph glyph-name="hungarumlaut" unicode="&#x2dd;" horiz-adv-x="470" 
d="M222 656l109 161h126l-141 -161h-94zM54 656l109 161h125l-140 -161h-94z" />
    <glyph glyph-name="gravecomb" unicode="&#x300;" horiz-adv-x="0" 
d="M-84 656zM-178 656l-140 161h125l109 -161h-94z" />
    <glyph glyph-name="acutecomb" unicode="&#x301;" horiz-adv-x="0" 
d="M0 656zM-218 656l109 161h125l-140 -161h-94z" />
    <glyph glyph-name="uni0302" unicode="&#x302;" horiz-adv-x="0" 
d="M0 656zM-95 656l-57 109l-61 -109h-90l97 161h115l91 -161h-95z" />
    <glyph glyph-name="tildecomb" unicode="&#x303;" horiz-adv-x="0" 
d="M-27 678zM-27 702q-24 -24 -63 -24q-18 0 -34.5 5t-31.5 10.5t-30.5 10.5t-31.5 5q-34 0 -55 -27h-2v81q8 9 24 16.5t39 7.5q18 0 34 -4.5t31 -10t30.5 -10t32.5 -4.5q20 0 32.5 5t22.5 21h2v-82z" />
    <glyph glyph-name="uni0304" unicode="&#x304;" horiz-adv-x="0" 
d="M-32 688zM-270 688v84h238v-84h-238z" />
    <glyph glyph-name="uni0306" unicode="&#x306;" horiz-adv-x="0" 
d="M-14 660zM-14 811q0 -45 -8.5 -74t-25 -46.5t-42.5 -24t-60 -6.5q-40 0 -67 6.5t-43.5 24t-23.5 46.5t-7 74h89q0 -32 4 -51t11 -29.5t16 -13.5t18 -3t18 3t16 13.5t11 29.5t4 51h90z" />
    <glyph glyph-name="uni0307" unicode="&#x307;" horiz-adv-x="0" 
d="M-102 668zM-200 668v125h98v-125h-98z" />
    <glyph glyph-name="uni0308" unicode="&#x308;" horiz-adv-x="0" 
d="M-25 668zM-123 668v125h98v-125h-98zM-278 668v125h98v-125h-98z" />
    <glyph glyph-name="hookabovecomb" unicode="&#x309;" horiz-adv-x="0" 
d="M-189 661v12q0 25 8.5 37t19.5 20q12 9 19 13.5t7 19.5v5q0 9 -12 9q-14 0 -14 -9v-11h-68v14q0 46 81 46q83 0 83 -46v-9q0 -23 -7 -32.5t-26 -21.5q-20 -13 -23.5 -18t-3.5 -17v-12h-64z" />
    <glyph glyph-name="uni030A" unicode="&#x30a;" horiz-adv-x="0" 
d="M-52 659zM-101 737q0 21 -12 30.5t-40 9.5q-53 0 -53 -40q0 -21 13 -29.5t40 -8.5q28 0 40 9t12 29zM-52 737q0 -34 -25 -56t-76 -22t-75 22t-24 56q0 35 24 57.5t75 22.5t76 -22.5t25 -57.5z" />
    <glyph glyph-name="uni030B" unicode="&#x30b;" horiz-adv-x="0" 
d="M0 656zM-135 656l109 161h126l-141 -161h-94zM-303 656l109 161h125l-140 -161h-94z" />
    <glyph glyph-name="uni030C" unicode="&#x30c;" horiz-adv-x="0" 
d="M0 656zM-212 656l-91 161h95l57 -109l61 109h90l-97 -161h-115z" />
    <glyph glyph-name="uni0313" unicode="&#x313;" horiz-adv-x="0" 
d="M-203 661v83q0 29 18 51t58 22h13v-43h-13q-12 0 -16.5 -5t-4.5 -18v-4h46v-86h-101z" />
    <glyph glyph-name="uni031B" unicode="&#x31b;" horiz-adv-x="57" 
d="M-96 622q7 -2 15.5 -2.5t14.5 -0.5q17 0 23.5 6.5t6.5 22.5v70h93v-64q0 -56 -29.5 -80.5t-87.5 -24.5q-21 0 -36 3v70z" />
    <glyph glyph-name="dotbelowcomb" unicode="&#x323;" horiz-adv-x="0" 
d="M-200 -149v102h98v-102h-98z" />
    <glyph glyph-name="uni0326" unicode="&#x326;" horiz-adv-x="0" 
d="M-111 -20zM-183 -149v31h20q11 0 11 12v14h-40v72h81v-86q0 -19 -11.5 -31t-37.5 -12h-23z" />
    <glyph glyph-name="uni0328" unicode="&#x328;" horiz-adv-x="0" 
d="M-49 0zM-49 -49q0 -45 -24 -72.5t-84 -27.5q-46 0 -71 17.5t-25 50.5q0 36 29 56t78 25h71q-33 -4 -54.5 -11t-33.5 -15t-17 -16.5t-5 -15.5q0 -8 5.5 -15.5t20.5 -7.5q17 0 22.5 10t5.5 22v11h82v-11z" />
    <glyph glyph-name="uni032D" unicode="&#x32d;" horiz-adv-x="0" 
d="M-101 -149l-50 85l-54 -85h-80l86 125h102l80 -125h-84z" />
    <glyph glyph-name="tonos" unicode="&#x384;" horiz-adv-x="106" 
d="M10 658v199h89l-18 -199h-71z" />
    <glyph glyph-name="dieresistonos" unicode="&#x385;" horiz-adv-x="340" 
d="M10 658zM10 668v125h98v-125h-98zM132 658v199h89l-18 -199h-71zM232 668v125h98v-125h-98z" />
    <glyph glyph-name="Alphatonos" unicode="&#x386;" horiz-adv-x="375" 
d="M10 0zM10 658v199h89l-18 -199h-71zM256 0l-12 117h-80l-14 -117h-105l100 823h126l94 -823h-109zM232 216q-8 81 -15 162t-13 166q-12 -168 -30 -328h58z" />
    <glyph glyph-name="anoteleia" unicode="&#x387;" horiz-adv-x="157" 
d="M28 494zM28 494v125h101v-125h-101z" />
    <glyph glyph-name="Epsilontonos" unicode="&#x388;" horiz-adv-x="388" 
d="M10 0zM10 658v199h89l-18 -199h-71zM140 0v823h226v-109h-117v-240h74v-109h-74v-256h122v-109h-231z" />
    <glyph glyph-name="Etatonos" unicode="&#x389;" horiz-adv-x="441" 
d="M10 0zM10 658v199h89l-18 -199h-71zM299 0v365h-50v-365h-109v823h109v-349h50v349h108v-823h-108z" />
    <glyph glyph-name="Iotatonos" unicode="&#x38a;" horiz-adv-x="287" 
d="M10 0zM10 658v199h89l-18 -199h-71zM142 0v823h109v-823h-109z" />
    <glyph glyph-name="Omicrontonos" unicode="&#x38c;" horiz-adv-x="410" 
d="M10 0zM10 658v199h89l-18 -199h-71zM114 692q0 140 134 140t134 -140v-561q0 -140 -134 -140t-134 140v561zM273 692q0 31 -25 31t-25 -31v-561q0 -31 25 -31t25 31v561z" />
    <glyph glyph-name="Upsilontonos" unicode="&#x38e;" horiz-adv-x="442" 
d="M10 0zM10 658v199h89l-18 -199h-71zM217 0v351l-105 472h115q13 -76 21.5 -126.5t13.5 -85t8.5 -57t6.5 -43.5q3 21 6.5 43.5t9 57t14.5 85t23 126.5h106l-109 -472v-351h-110z" />
    <glyph glyph-name="Omegatonos" unicode="&#x38f;" horiz-adv-x="410" 
d="M10 0zM10 658v199h89l-18 -199h-71zM249 723q-17 0 -24.5 -8.5t-7.5 -28.5v-393q0 -68 6 -118t14 -77v-98h-129v109h52q-20 22 -33 72t-13 112v392q0 78 31 112.5t104 34.5q74 0 104.5 -34.5t30.5 -112.5v-392q0 -62 -13 -112t-33 -72h52v-109h-129v98q8 27 14 77t6 118
v393q0 20 -7.5 28.5t-24.5 8.5z" />
    <glyph glyph-name="iotadieresistonos" unicode="&#x390;" horiz-adv-x="330" 
d="M5 0zM267 4q-11 -5 -26.5 -7t-31.5 -2q-46 0 -70.5 28t-24.5 79v517h98v-489q0 -23 5 -38.5t25 -15.5q14 0 25 6v-78zM5 668v125h98v-125h-98zM127 658v199h89l-18 -199h-71zM227 668v125h98v-125h-98z" />
    <glyph glyph-name="uni0413" unicode="&#x393;" horiz-adv-x="274" 
d="M265 823v-109h-122v-714h-109v823h231z" />
    <glyph glyph-name="uni0413" unicode="&#x413;" horiz-adv-x="274" 
d="M265 823v-109h-122v-714h-109v823h231z" />
    <glyph glyph-name="Delta" unicode="&#x394;" horiz-adv-x="342" 
d="M9 0l93 823h145l86 -823h-324zM210 109q-11 119 -17.5 202t-11 142t-6.5 101.5t-4 80.5q-2 -39 -4.5 -81t-7.5 -101t-12.5 -141.5t-19.5 -202.5h83z" />
    <glyph glyph-name="Theta" unicode="&#x398;" horiz-adv-x="324" 
d="M28 692q0 140 134 140t134 -140v-561q0 -140 -134 -140t-134 140v561zM187 365h-50v-234q0 -31 25 -31t25 31v234zM187 474v218q0 31 -25 31t-25 -31v-218h50z" />
    <glyph glyph-name="Lambda" unicode="&#x39b;" horiz-adv-x="342" 
d="M247 823l86 -823h-113q-13 153 -21.5 255t-14 172.5t-8.5 118t-5 89.5q-3 -42 -6 -89t-9 -117.5t-15 -173t-24 -255.5h-108l93 823h145z" />
    <glyph glyph-name="Xi" unicode="&#x39e;" horiz-adv-x="282" 
d="M17 0v109h248v-109h-248zM22 714v109h238v-109h-238zM65 365v109h152v-109h-152z" />
    <glyph glyph-name="uni041F" unicode="&#x3a0;" horiz-adv-x="335" 
d="M193 0v714h-50v-714h-109v823h267v-823h-108z" />
    <glyph glyph-name="uni041F" unicode="&#x41f;" horiz-adv-x="335" 
d="M193 0v714h-50v-714h-109v823h267v-823h-108z" />
    <glyph glyph-name="Sigma" unicode="&#x3a3;" horiz-adv-x="287" 
d="M119 109h151v-109h-257v111l115 325l-102 289v98h239v-109h-133l99 -280z" />
    <glyph glyph-name="uni0424" unicode="&#x3a6;" horiz-adv-x="421" 
d="M121 244q0 -21 8 -31.5t31 -15.5v429q-23 -5 -31 -15.5t-8 -31.5v-335zM261 197q23 5 31 15.5t8 31.5v335q0 21 -8 31.5t-31 15.5v-429zM26 571q0 37 4.5 65t18.5 47.5t39.5 31t68.5 15.5v93h107v-93q43 -4 68.5 -15.5t39.5 -31t18.5 -47.5t4.5 -65v-319
q0 -38 -4.5 -65.5t-18.5 -47t-39.5 -31t-68.5 -15.5v-93h-107v93q-43 4 -68.5 15.5t-39.5 31t-18.5 47t-4.5 65.5v319z" />
    <glyph glyph-name="uni0424" unicode="&#x424;" horiz-adv-x="421" 
d="M121 244q0 -21 8 -31.5t31 -15.5v429q-23 -5 -31 -15.5t-8 -31.5v-335zM261 197q23 5 31 15.5t8 31.5v335q0 21 -8 31.5t-31 15.5v-429zM26 571q0 37 4.5 65t18.5 47.5t39.5 31t68.5 15.5v93h107v-93q43 -4 68.5 -15.5t39.5 -31t18.5 -47.5t4.5 -65v-319
q0 -38 -4.5 -65.5t-18.5 -47t-39.5 -31t-68.5 -15.5v-93h-107v93q-43 4 -68.5 15.5t-39.5 31t-18.5 47t-4.5 65.5v319z" />
    <glyph glyph-name="Psi" unicode="&#x3a8;" horiz-adv-x="421" 
d="M26 823h95v-471q0 -21 8 -31.5t31 -15.5v518h101v-518q23 5 31 15.5t8 31.5v471h95v-463q0 -38 -4.5 -65.5t-18.5 -47t-39.5 -31t-68.5 -15.5v-201h-107v201q-43 4 -68.5 15.5t-39.5 31t-18.5 47t-4.5 65.5v463z" />
    <glyph glyph-name="Omega" unicode="&#x3a9;" horiz-adv-x="322" 
d="M161 723q-17 0 -24.5 -8.5t-7.5 -28.5v-393q0 -68 6 -118t14 -77v-98h-129v109h52q-20 22 -33 72t-13 112v392q0 78 31 112.5t104 34.5q74 0 104.5 -34.5t30.5 -112.5v-392q0 -62 -13 -112t-33 -72h52v-109h-129v98q8 27 14 77t6 118v393q0 20 -7.5 28.5t-24.5 8.5z" />
    <glyph glyph-name="alphatonos" unicode="&#x3ac;" horiz-adv-x="336" 
d="M28 0zM28 507q0 57 23.5 87t62.5 30q31 0 46.5 -9.5t24.5 -29.5q0 17 3 34h83v-489q0 -23 5 -38.5t25 -15.5q14 0 25 6v-78q-11 -5 -26.5 -7t-31.5 -2q-58 0 -81 43q-14 -18 -33 -30.5t-40 -12.5q-39 0 -62.5 30t-23.5 87v395zM173 508q-8 14 -23 14q-24 0 -24 -26v-370
q0 -26 24 -26q15 0 23 14v394zM111 658v199h89l-18 -199h-71z" />
    <glyph glyph-name="epsilontonos" unicode="&#x3ad;" horiz-adv-x="289" 
d="M30 0zM128 97q0 -23 24 -23q20 0 20 23v139h91v-139q0 -48 -29 -77t-88 -29q-61 0 -88.5 29t-27.5 77v154q0 51 44 65q-23 11 -32.5 25.5t-9.5 37.5v142q0 58 26.5 83.5t87.5 25.5q60 0 87.5 -25.5t27.5 -82.5v-118h-89v100q0 24 -19 24q-25 0 -25 -24v-119
q0 -12 6.5 -17.5t14.5 -5.5h64v-83h-62q-23 0 -23 -23v-159zM106 658v199h89l-18 -199h-71z" />
    <glyph glyph-name="etatonos" unicode="&#x3ae;" horiz-adv-x="304" 
d="M34 0zM175 -139v648q0 24 -20 24q-14 0 -23 -10v-523h-98v619h83q3 -15 3 -33q28 43 76 43q77 0 77 -114v-654h-98zM113 658v199h89l-18 -199h-71z" />
    <glyph glyph-name="iotatonos" unicode="&#x3af;" horiz-adv-x="199" 
d="M36 0zM189 4q-11 -5 -26.5 -7t-31.5 -2q-46 0 -70.5 28t-24.5 79v517h98v-489q0 -23 5 -38.5t25 -15.5q14 0 25 6v-78zM51 658v199h89l-18 -199h-71z" />
    <glyph glyph-name="upsilondieresistonos" unicode="&#x3b0;" horiz-adv-x="332" 
d="M6 0zM281 114q0 -60 -29 -91.5t-89 -31.5t-89 31.5t-29 91.5v505h96v-501q0 -27 22 -27t22 27v501h96v-505zM6 668v125h98v-125h-98zM128 658v199h89l-18 -199h-71zM228 668v125h98v-125h-98z" />
    <glyph glyph-name="alpha" unicode="&#x3b1;" horiz-adv-x="336" 
d="M28 507q0 57 23.5 87t62.5 30q31 0 46.5 -9.5t24.5 -29.5q0 17 3 34h83v-489q0 -23 5 -38.5t25 -15.5q14 0 25 6v-78q-11 -5 -26.5 -7t-31.5 -2q-58 0 -81 43q-14 -18 -33 -30.5t-40 -12.5q-39 0 -62.5 30t-23.5 87v395zM173 508q-8 14 -23 14q-24 0 -24 -26v-370
q0 -26 24 -26q15 0 23 14v394z" />
    <glyph glyph-name="beta" unicode="&#x3b2;" horiz-adv-x="307" 
d="M183 -9q-25 0 -51 8v-138h-98v848q0 60 29 91.5t89 31.5t88.5 -31.5t28.5 -91.5v-207q0 -21 -8.5 -38t-19.5 -23q14 -8 24.5 -28.5t10.5 -62.5v-232q0 -69 -22.5 -98t-70.5 -29zM132 96q12 -6 26 -6q10 0 15.5 5.5t5.5 22.5v236q0 14 -4.5 21t-16.5 7h-12v94h11
q19 0 19 26v203q0 27 -22 27t-22 -27v-609z" />
    <glyph glyph-name="uni04AF" unicode="&#x3b3;" horiz-adv-x="279" 
d="M187 -139h-98v170l-81 588h98l32 -353l38 353h94l-83 -588v-170z" />
    <glyph glyph-name="uni04AF" unicode="&#x4af;" horiz-adv-x="279" 
d="M187 -139h-98v170l-81 588h98l32 -353l38 353h94l-83 -588v-170z" />
    <glyph glyph-name="delta" unicode="&#x3b4;" horiz-adv-x="295" 
d="M187 734q32 -32 54.5 -76.5t22.5 -103.5v-440q0 -60 -28.5 -91.5t-88.5 -31.5t-89.5 31.5t-29.5 91.5v391q0 64 24 94t68 30q11 0 21 -2t21 -5q-14 43 -47 72t-65 40v89h211v-89h-74zM146 91q22 0 22 27v414q-12 5 -21 5q-14 0 -18.5 -7.5t-4.5 -19.5v-392q0 -27 22 -27z
" />
    <glyph glyph-name="epsilon" unicode="&#x3b5;" horiz-adv-x="289" 
d="M128 97q0 -23 24 -23q20 0 20 23v139h91v-139q0 -48 -29 -77t-88 -29q-61 0 -88.5 29t-27.5 77v154q0 51 44 65q-23 11 -32.5 25.5t-9.5 37.5v142q0 58 26.5 83.5t87.5 25.5q60 0 87.5 -25.5t27.5 -82.5v-118h-89v100q0 24 -19 24q-25 0 -25 -24v-119q0 -12 6.5 -17.5
t14.5 -5.5h64v-83h-62q-23 0 -23 -23v-159z" />
    <glyph glyph-name="zeta" unicode="&#x3b6;" horiz-adv-x="262" 
d="M123 201q0 -33 3.5 -47.5t11.5 -23.5q15 -19 40.5 -36t43.5 -37q11 -12 18.5 -30.5t7.5 -55.5q0 -66 -26.5 -93t-71.5 -27h-85v102h75q20 0 20 17t-15 30q-6 6 -17.5 15t-25 20t-26.5 23.5t-23 25.5q-6 8 -11 17.5t-8 23t-5 32t-2 44.5v40q0 31 1.5 55t4.5 44t7.5 37.5
t10.5 35.5l105 321h-123v89h212v-91l-103 -332q-5 -17 -9 -32.5t-6 -33.5t-3 -40.5t-1 -52.5v-40z" />
    <glyph glyph-name="eta" unicode="&#x3b7;" horiz-adv-x="304" 
d="M175 -139v648q0 24 -20 24q-14 0 -23 -10v-523h-98v619h83q3 -15 3 -33q28 43 76 43q77 0 77 -114v-654h-98z" />
    <glyph glyph-name="theta" unicode="&#x3b8;" horiz-adv-x="292" 
d="M28 708q0 60 29 92t89 32t89 -32t29 -92v-594q0 -60 -29 -91.5t-89 -31.5t-89 31.5t-29 91.5v594zM168 371h-44v-253q0 -27 22 -27t22 27v253zM124 471h44v233q0 27 -22 27t-22 -27v-233z" />
    <glyph glyph-name="iota" unicode="&#x3b9;" horiz-adv-x="199" 
d="M189 4q-11 -5 -26.5 -7t-31.5 -2q-46 0 -70.5 28t-24.5 79v517h98v-489q0 -23 5 -38.5t25 -15.5q14 0 25 6v-78z" />
    <glyph glyph-name="uni043A" unicode="&#x3ba;" horiz-adv-x="300" 
d="M190 0l-34 163q-5 23 -8.5 41.5t-7 35t-6.5 33.5t-6 38q1 -19 1.5 -34.5t0.5 -32.5v-37.5v-48.5v-158h-96v619h96v-112v-46.5v-36t-0.5 -31.5t-1.5 -33q4 18 8 33t8 31.5t9 35.5t11 43l30 116h100l-76 -266l79 -353h-107z" />
    <glyph glyph-name="uni043A" unicode="&#x43a;" horiz-adv-x="300" 
d="M190 0l-34 163q-5 23 -8.5 41.5t-7 35t-6.5 33.5t-6 38q1 -19 1.5 -34.5t0.5 -32.5v-37.5v-48.5v-158h-96v619h96v-112v-46.5v-36t-0.5 -31.5t-1.5 -33q4 18 8 33t8 31.5t9 35.5t11 43l30 116h100l-76 -266l79 -353h-107z" />
    <glyph glyph-name="lambda" unicode="&#x3bb;" horiz-adv-x="279" 
d="M9 824q8 2 18.5 3t19.5 1q35 0 58.5 -10t38.5 -29.5t23.5 -47t13.5 -63.5l89 -678h-97q-10 88 -16 147.5t-9 101.5t-5 70.5t-3 53.5q-2 -25 -4.5 -53t-6.5 -70t-10.5 -102t-15.5 -148h-95l82 603l-8 66q-4 29 -11.5 45t-27.5 16q-11 0 -18.5 -0.5t-15.5 -2.5v97z" />
    <glyph glyph-name="mu" unicode="&#x3bc;" horiz-adv-x="336" 
d="M34 -139v758h98v-504q0 -24 19 -24q12 0 22 10v518h98v-489q0 -23 5 -38.5t25 -15.5q14 0 25 6v-78q-11 -5 -26.5 -7t-27.5 -2q-32 0 -52.5 10.5t-32.5 31.5q-23 -34 -55 -40v-136h-98z" />
    <glyph glyph-name="xi" unicode="&#x3be;" horiz-adv-x="259" 
d="M29 554q0 59 22.5 103.5t54.5 76.5h-74v89h211v-89q-20 -6 -40.5 -20t-38 -33.5t-28.5 -44t-11 -53.5v-90q0 -12 6.5 -17.5t14.5 -5.5h71v-83h-71q-23 0 -23 -23v-187q0 -29 15 -47q15 -19 40.5 -36t43.5 -37q11 -12 18.5 -30.5t7.5 -55.5q0 -66 -26.5 -93t-71.5 -27h-85
v102h75q20 0 20 17t-15 30q-7 6 -19 15t-26 20t-27.5 23t-22.5 24q-12 17 -17.5 38.5t-5.5 54.5v184q0 51 44 65q-23 11 -32.5 25.5t-9.5 37.5v67z" />
    <glyph glyph-name="pi" unicode="&#x3c0;" horiz-adv-x="354" 
d="M344 4q-11 -5 -26.5 -7t-31.5 -2q-46 0 -70.5 28t-24.5 79v432h-43v-534h-98v534h-40v85h325v-85h-46v-404q0 -23 5 -38.5t25 -15.5q14 0 25 6v-78z" />
    <glyph glyph-name="rho" unicode="&#x3c1;" horiz-adv-x="302" 
d="M176 501q0 27 -24 27q-23 0 -23 -27v-398q7 -13 23 -13q24 0 24 24v387zM274 104q0 -60 -22.5 -86.5t-67.5 -26.5q-35 0 -55 17v-147h-98v644q0 60 29.5 92t91.5 32q63 0 92.5 -32t29.5 -92v-401z" />
    <glyph glyph-name="sigma1" unicode="&#x3c2;" horiz-adv-x="279" 
d="M168 504q0 24 -22 24t-22 -24v-327q0 -29 15 -47q7 -9 18 -18t23 -18t23 -18t20 -19q11 -12 18.5 -30.5t7.5 -55.5q0 -66 -26.5 -93t-71.5 -27h-85v102h75q20 0 20 17t-15 30q-7 6 -19 15t-26 20t-27.5 23t-22.5 24q-12 17 -17.5 38.5t-5.5 54.5v326q0 57 28.5 92.5
t88.5 35.5q59 0 85.5 -35.5t26.5 -91.5v-134h-89v136z" />
    <glyph glyph-name="sigma" unicode="&#x3c3;" horiz-adv-x="322" 
d="M28 495q0 60 29 92t89 32h170v-100h-62q3 -11 3 -24v-381q0 -60 -25.5 -91.5t-85.5 -31.5t-89 31.5t-29 91.5v381zM168 491q0 27 -22 27t-22 -27v-373q0 -27 22 -27t22 27v373z" />
    <glyph glyph-name="tau" unicode="&#x3c4;" horiz-adv-x="228" 
d="M163 130q0 -23 5 -38.5t25 -15.5q14 0 25 6v-78q-11 -5 -26.5 -7t-31.5 -2q-46 0 -70.5 28t-24.5 79v417h-55v100h208v-100h-55v-389v0z" />
    <glyph glyph-name="upsilon" unicode="&#x3c5;" horiz-adv-x="298" 
d="M267 114q0 -60 -29 -91.5t-89 -31.5t-89 31.5t-29 91.5v505h96v-501q0 -27 22 -27t22 27v501h96v-505z" />
    <glyph glyph-name="uni0444" unicode="&#x3c6;" horiz-adv-x="416" 
d="M159 -139v131q-131 6 -131 122v391q0 57 32 88.5t99 34.5v195h98v-195q67 -3 99 -34.5t32 -88.5v-391q0 -116 -131 -122v-131h-98zM122 114q0 -14 11.5 -20.5t29.5 -6.5v445q-18 0 -29.5 -6.5t-11.5 -20.5v-391zM294 505q0 14 -11.5 20.5t-29.5 6.5v-445q18 0 29.5 6.5
t11.5 20.5v391z" />
    <glyph glyph-name="uni0444" unicode="&#x444;" horiz-adv-x="416" 
d="M159 -139v131q-131 6 -131 122v391q0 57 32 88.5t99 34.5v195h98v-195q67 -3 99 -34.5t32 -88.5v-391q0 -116 -131 -122v-131h-98zM122 114q0 -14 11.5 -20.5t29.5 -6.5v445q-18 0 -29.5 -6.5t-11.5 -20.5v-391zM294 505q0 14 -11.5 20.5t-29.5 6.5v-445q18 0 29.5 6.5
t11.5 20.5v391z" />
    <glyph glyph-name="chi" unicode="&#x3c7;" horiz-adv-x="287" 
d="M182 -139q-10 74 -16.5 125t-11 88t-7.5 63.5t-6 50.5q-2 -25 -4.5 -51t-7 -63t-11 -88t-16.5 -125h-98l75 407l-62 351h102q7 -56 11.5 -95.5t7 -68.5t4 -50.5t3.5 -40.5q2 20 3.5 40.5t4.5 49t7.5 68t12.5 97.5h97l-63 -349l76 -409h-101z" />
    <glyph glyph-name="psi" unicode="&#x3c8;" horiz-adv-x="424" 
d="M302 619h94v-505q0 -116 -135 -122v-131h-98v131q-135 6 -135 122v505h94v-505q0 -14 13.5 -20.5t31.5 -6.5v532h90v-532q18 0 31.5 6.5t13.5 20.5v505z" />
    <glyph glyph-name="omega" unicode="&#x3c9;" horiz-adv-x="429" 
d="M261 118q0 -27 22 -27t22 27v383q0 27 -22 27v101q60 0 89 -32t29 -92v-391q0 -60 -27.5 -91.5t-79.5 -31.5q-29 0 -48 11.5t-32 30.5q-12 -19 -31.5 -30.5t-47.5 -11.5q-52 0 -79.5 31.5t-27.5 91.5v391q0 60 29 92t89 32v-101q-22 0 -22 -27v-383q0 -27 22 -27t22 27
v304h93v-304z" />
    <glyph glyph-name="iotadieresis" unicode="&#x3ca;" horiz-adv-x="269" 
d="M9 0zM241 4q-11 -5 -26.5 -7t-31.5 -2q-46 0 -70.5 28t-24.5 79v517h98v-489q0 -23 5 -38.5t25 -15.5q14 0 25 6v-78zM164 668v125h98v-125h-98zM9 668v125h98v-125h-98z" />
    <glyph glyph-name="upsilondieresis" unicode="&#x3cb;" horiz-adv-x="298" 
d="M23 0zM267 114q0 -60 -29 -91.5t-89 -31.5t-89 31.5t-29 91.5v505h96v-501q0 -27 22 -27t22 27v501h96v-505zM178 668v125h98v-125h-98zM23 668v125h98v-125h-98z" />
    <glyph glyph-name="omicrontonos" unicode="&#x3cc;" horiz-adv-x="292" 
d="M28 0zM28 505q0 60 29 92t89 32t89 -32t29 -92v-391q0 -60 -29 -91.5t-89 -31.5t-89 31.5t-29 91.5v391zM168 501q0 27 -22 27t-22 -27v-383q0 -27 22 -27t22 27v383zM107 658v199h89l-18 -199h-71z" />
    <glyph glyph-name="upsilontonos" unicode="&#x3cd;" horiz-adv-x="298" 
d="M31 0zM267 114q0 -60 -29 -91.5t-89 -31.5t-89 31.5t-29 91.5v505h96v-501q0 -27 22 -27t22 27v501h96v-505zM110 658v199h89l-18 -199h-71z" />
    <glyph glyph-name="omegatonos" unicode="&#x3ce;" horiz-adv-x="429" 
d="M28 0zM261 118q0 -27 22 -27t22 27v383q0 27 -22 27v101q60 0 89 -32t29 -92v-391q0 -60 -27.5 -91.5t-79.5 -31.5q-29 0 -48 11.5t-32 30.5q-12 -19 -31.5 -30.5t-47.5 -11.5q-52 0 -79.5 31.5t-27.5 91.5v391q0 60 29 92t89 32v-101q-22 0 -22 -27v-383q0 -27 22 -27
t22 27v304h93v-304zM176 658v199h89l-18 -199h-71z" />
    <glyph glyph-name="uni0402" unicode="&#x402;" horiz-adv-x="411" 
d="M249 352q0 17 -6.5 24t-22.5 7q-11 0 -20 -4v-379h-109v714h-82v109h279v-109h-88v-226q6 2 18.5 3t23.5 1q53 0 84.5 -35t31.5 -105v-365q0 -69 -34.5 -100t-102.5 -31q-28 0 -43 4v97q15 -3 43 -3t28 33v365z" />
    <glyph glyph-name="uni0403" unicode="&#x403;" horiz-adv-x="274" 
d="M34 0zM265 823v-109h-122v-714h-109v823h231zM80 860l109 161h125l-140 -161h-94z" />
    <glyph glyph-name="uni0404" unicode="&#x404;" horiz-adv-x="311" 
d="M189 288h99v-156q0 -72 -29 -106.5t-95 -34.5q-136 0 -136 139v560q0 142 136 142q124 0 124 -140v-141h-99v141q0 31 -25 31t-25 -31v-218h128v-109h-128v-234q0 -31 25 -31t25 31v157z" />
    <glyph glyph-name="uni0409" unicode="&#x409;" horiz-adv-x="519" 
d="M337 823v-349h25q75 0 109.5 -35t34.5 -113v-177q0 -78 -35 -113.5t-110 -35.5h-133v714h-31l-13 -257q-4 -79 -8.5 -135.5t-9 -97t-9 -67.5t-8.5 -46q-6 -24 -14 -44.5t-22 -35t-35.5 -23t-52.5 -8.5h-16v109h13q15 0 24.5 6.5t17.5 35.5q4 14 7.5 36t7 59t7 93t7.5 139
l16 345h228zM399 330q0 38 -37 38h-25v-259h24q38 0 38 39v182z" />
    <glyph glyph-name="uni040A" unicode="&#x40a;" horiz-adv-x="484" 
d="M302 823v-349h25q75 0 109.5 -35t34.5 -113v-177q0 -78 -35 -113.5t-110 -35.5h-133v365h-50v-365h-109v823h109v-349h50v349h109zM364 330q0 38 -37 38h-25v-259h24q38 0 38 39v182z" />
    <glyph glyph-name="uni040B" unicode="&#x40b;" horiz-adv-x="411" 
d="M288 823v-109h-88v-226q6 2 18.5 3t23.5 1q53 0 84.5 -35t31.5 -105v-352h-109v352q0 17 -6.5 24t-22.5 7q-11 0 -20 -4v-379h-109v714h-82v109h279z" />
    <glyph glyph-name="uni040C" unicode="&#x40c;" horiz-adv-x="353" 
d="M34 0zM228 0q-24 100 -39 165.5t-24.5 108.5t-15 69.5t-9.5 48.5q2 -45 2.5 -95t0.5 -119v-178h-109v823h109v-164v-60t-0.5 -47t-1 -39t-1.5 -35q3 17 8 38.5t14 59t24.5 96.5t39.5 151h116l-109 -367l119 -456h-124zM120 860l109 161h125l-140 -161h-94z" />
    <glyph glyph-name="uni040D" unicode="&#x40d;" horiz-adv-x="335" 
d="M0 0zM34 0v823h99v-465l43 465h125v-823h-99v474l-64 -474h-104zM140 860l-140 161h125l109 -161h-94z" />
    <glyph glyph-name="uni040E" unicode="&#x40e;" horiz-adv-x="333" 
d="M7 0zM209 141q-8 -42 -18.5 -69.5t-30.5 -43.5t-53 -22t-84 -6h-9v109h9q36 0 58.5 9t28.5 46l17 97l-120 562h114l26 -166q6 -38 12 -86t11 -93q5 51 10.5 91.5t13.5 86.5l27 167h106zM308 1015q0 -45 -8.5 -74t-25 -46.5t-42.5 -24t-60 -6.5q-40 0 -67 6.5t-43.5 24
t-23.5 46.5t-7 74h89q0 -32 4 -51t11 -29.5t16 -13.5t18 -3t18 3t16 13.5t11 29.5t4 51h90z" />
    <glyph glyph-name="uni040F" unicode="&#x40f;" horiz-adv-x="335" 
d="M125 -109v109h-91v823h109v-714h50v714h108v-823h-92v-109h-84z" />
    <glyph glyph-name="uni0411" unicode="&#x411;" horiz-adv-x="325" 
d="M265 823v-109h-122v-240h25q75 0 109.5 -35t34.5 -113v-177q0 -78 -35 -113.5t-110 -35.5h-133v823h231zM205 330q0 38 -37 38h-25v-259h24q38 0 38 39v182z" />
    <glyph glyph-name="uni0414" unicode="&#x414;" horiz-adv-x="389" 
d="M9 -109v218h20q11 0 19 8t16 34q4 16 8 38.5t7.5 59.5t6.5 92.5t7 136.5l16 345h227v-714h44v-218h-84v109h-203v-109h-84zM197 714l-13 -257q-4 -75 -8 -131.5t-8.5 -98.5t-9.5 -70.5t-10 -47.5h80v605h-31z" />
    <glyph glyph-name="uni0416" unicode="&#x416;" horiz-adv-x="528" 
d="M1 0l119 456l-109 367h116q24 -92 39.5 -151t24.5 -96.5t14 -59t8 -38.5q-1 17 -1.5 35t-1 39t-0.5 47v60v164h108v-164v-60t-0.5 -47t-1 -39t-1.5 -35q3 17 8 38.5t14 59t24.5 96.5t39.5 151h116l-109 -367l119 -456h-124q-24 100 -39 165.5t-24.5 108.5t-15 69.5
t-9.5 48.5q2 -45 2.5 -95t0.5 -119v-178h-108v178q0 69 0.5 119t2.5 95q-4 -22 -9.5 -48.5t-15 -69.5t-24.5 -108.5t-39 -165.5h-124z" />
    <glyph glyph-name="uni0418" unicode="&#x418;" horiz-adv-x="335" 
d="M34 0v823h99v-465l43 465h125v-823h-99v474l-64 -474h-104z" />
    <glyph glyph-name="uni0419" unicode="&#x419;" horiz-adv-x="335" 
d="M29 0zM34 0v823h99v-465l43 465h125v-823h-99v474l-64 -474h-104zM306 1015q0 -45 -8.5 -74t-25 -46.5t-42.5 -24t-60 -6.5q-40 0 -67 6.5t-43.5 24t-23.5 46.5t-7 74h89q0 -32 4 -51t11 -29.5t16 -13.5t18 -3t18 3t16 13.5t11 29.5t4 51h90z" />
    <glyph glyph-name="uni041B" unicode="&#x41b;" horiz-adv-x="370" 
d="M9 0v109h13q15 0 24.5 6.5t17.5 35.5q4 14 7.5 36t7 59t7 93t7.5 139l16 345h227v-823h-108v714h-31l-13 -257q-4 -79 -8.5 -135.5t-9 -97t-9 -67.5t-8.5 -46q-6 -24 -14 -44.5t-22 -35t-35.5 -23t-52.5 -8.5h-16z" />
    <glyph glyph-name="uni0423" unicode="&#x423;" horiz-adv-x="333" 
d="M209 141q-8 -42 -18.5 -69.5t-30.5 -43.5t-53 -22t-84 -6h-9v109h9q36 0 58.5 9t28.5 46l17 97l-120 562h114l26 -166q6 -38 12 -86t11 -93q5 51 10.5 91.5t13.5 86.5l27 167h106z" />
    <glyph glyph-name="uni0426" unicode="&#x426;" horiz-adv-x="354" 
d="M261 -109v109h-227v823h109v-714h50v714h108v-714h44v-218h-84z" />
    <glyph glyph-name="uni0427" unicode="&#x427;" horiz-adv-x="325" 
d="M182 0v335q-6 -2 -18.5 -3t-23.5 -1q-53 0 -84.5 35t-31.5 105v352h109v-359q0 -17 6.5 -24t22.5 -7q11 0 20 4v386h109v-823h-109z" />
    <glyph glyph-name="uni0428" unicode="&#x428;" horiz-adv-x="497" 
d="M36 0v823h109v-714h52v714h103v-714h52v714h109v-823h-425z" />
    <glyph glyph-name="uni0429" unicode="&#x429;" horiz-adv-x="514" 
d="M421 -109v109h-385v823h109v-714h52v714h103v-714h52v714h109v-714h44v-218h-84z" />
    <glyph glyph-name="uni042A" unicode="&#x42a;" horiz-adv-x="382" 
d="M200 823v-349h25q75 0 109.5 -35t34.5 -113v-177q0 -78 -35 -113.5t-110 -35.5h-133v714h-82v109h191zM262 330q0 38 -37 38h-25v-259h24q38 0 38 39v182z" />
    <glyph glyph-name="uni042B" unicode="&#x42b;" horiz-adv-x="506" 
d="M34 0zM143 823v-349h25q75 0 109.5 -35t34.5 -113v-177q0 -78 -35 -113.5t-110 -35.5h-133v823h109zM205 330q0 38 -37 38h-25v-259h24q38 0 38 39v182zM361 0v823h109v-823h-109z" />
    <glyph glyph-name="uni042C" unicode="&#x42c;" horiz-adv-x="325" 
d="M143 823v-349h25q75 0 109.5 -35t34.5 -113v-177q0 -78 -35 -113.5t-110 -35.5h-133v823h109zM205 330q0 38 -37 38h-25v-259h24q38 0 38 39v182z" />
    <glyph glyph-name="uni042D" unicode="&#x42d;" horiz-adv-x="311" 
d="M122 131q0 -31 25 -31t25 31v234h-128v109h128v218q0 31 -25 31t-25 -31v-141h-99v141q0 140 124 140q136 0 136 -142v-560q0 -139 -136 -139q-66 0 -95 34.5t-29 106.5v156h99v-157z" />
    <glyph glyph-name="uni042E" unicode="&#x42e;" horiz-adv-x="505" 
d="M36 0v823h109v-349h64v218q0 140 134 140t134 -140v-561q0 -140 -134 -140t-134 140v234h-64v-365h-109zM368 692q0 31 -25 31t-25 -31v-561q0 -31 25 -31t25 31v561z" />
    <glyph glyph-name="uni042F" unicode="&#x42f;" horiz-adv-x="333" 
d="M15 0l54 389q-25 15 -36 41.5t-11 74.5v170q0 81 36 114.5t111 33.5h130v-823h-109v367h-18l-38 -367h-119zM132 504q0 -38 36 -38h22v248h-21q-37 0 -37 -39v-171z" />
    <glyph glyph-name="uni0431" unicode="&#x431;" horiz-adv-x="296" 
d="M31 673q0 43 6.5 69.5t18.5 41.5t29.5 21t39.5 8t35 4t20 6t9.5 10t2.5 17v10h76v-10q0 -38 -5 -60t-15.5 -34t-26.5 -17.5t-38 -9.5q-32 -7 -44 -18.5t-12 -37.5v-53q22 9 48 9q44 0 68 -30t24 -94v-391q0 -60 -29.5 -91.5t-89.5 -31.5t-88.5 31.5t-28.5 91.5v559z
M148 533q-9 0 -21 -5v-410q0 -27 22 -27t22 27v388q0 12 -4.5 19.5t-18.5 7.5z" />
    <glyph glyph-name="uni0432" unicode="&#x432;" horiz-adv-x="309" 
d="M179 496q0 23 -23 23h-24v-162h25q22 0 22 24v115zM179 250q0 24 -22 24h-25v-174h24q23 0 23 23v127zM34 0v619h122q63 0 88.5 -26t25.5 -83v-128q0 -22 -9 -38.5t-26 -23.5q17 -5 30.5 -20t13.5 -41v-154q0 -55 -30 -80t-93 -25h-122z" />
    <glyph glyph-name="uni0433" unicode="&#x433;" horiz-adv-x="217" 
d="M34 0v619h173v-100h-75v-519h-98z" />
    <glyph glyph-name="uni0434" unicode="&#x434;" horiz-adv-x="362" 
d="M309 100h44v-199h-73v99h-198v-99h-73v199h12q16 0 24 6t15 25q4 12 7 27t6 41.5t6 67t7 102.5l15 250h208v-519zM181 519l-11 -175q-5 -84 -12.5 -148t-15.5 -96h69v419h-30z" />
    <glyph glyph-name="uni0436" unicode="&#x436;" horiz-adv-x="411" 
d="M162 0v311l-56 -311h-103l73 353l-70 266h96l60 -259v259h87v-259l60 259h96l-70 -266l73 -353h-103l-56 311v-311h-87z" />
    <glyph glyph-name="uni0437" unicode="&#x437;" horiz-adv-x="289" 
d="M161 256q0 23 -23 23h-30v83h32q8 0 14.5 5.5t6.5 17.5v119q0 24 -25 24q-19 0 -19 -24v-100h-89v118q0 57 27.5 82.5t87.5 25.5q61 0 87.5 -25.5t26.5 -83.5v-142q0 -23 -9.5 -37.5t-32.5 -25.5q44 -14 44 -65v-154q0 -48 -27.5 -77t-88.5 -29q-59 0 -88 29t-29 77v139
h91v-139q0 -23 20 -23q24 0 24 23v159z" />
    <glyph glyph-name="uni0438" unicode="&#x438;" horiz-adv-x="323" 
d="M34 0v619h99v-324l60 324h96v-619h-94v362l-73 -362h-88z" />
    <glyph glyph-name="uni0439" unicode="&#x439;" horiz-adv-x="323" 
d="M23 0zM34 0v619h99v-324l60 324h96v-619h-94v362l-73 -362h-88zM300 811q0 -45 -8.5 -74t-25 -46.5t-42.5 -24t-60 -6.5q-40 0 -67 6.5t-43.5 24t-23.5 46.5t-7 74h89q0 -32 4 -51t11 -29.5t16 -13.5t18 -3t18 3t16 13.5t11 29.5t4 51h90z" />
    <glyph glyph-name="uni043B" unicode="&#x43b;" horiz-adv-x="343" 
d="M9 0v100h12q14 0 22.5 5t16.5 26q4 12 7 27t6 41t6 66.5t7 103.5l15 250h208v-619h-98v519h-30l-11 -175q-4 -59 -8 -101.5t-8 -73t-8 -51t-8 -35.5q-5 -18 -13 -33t-20.5 -26.5t-32 -17.5t-48.5 -6h-15z" />
    <glyph glyph-name="uni043C" unicode="&#x43c;" horiz-adv-x="447" 
d="M318 0v174q0 52 0.5 103.5t3.5 102.5q-3 -26 -7.5 -55.5t-11 -72t-15.5 -103.5t-21 -149h-89l-55 392q6 -108 6 -218v-174h-95v619h139q14 -125 23 -201.5t14 -121.5l7.5 -67.5l4.5 -40.5q1 12 2 25.5t3 34t5.5 49.5t9 73t13 105t18.5 144h140v-619h-95z" />
    <glyph glyph-name="uni043D" unicode="&#x43d;" horiz-adv-x="307" 
d="M34 0v619h98v-235h43v235h98v-619h-98v284h-43v-284h-98z" />
    <glyph glyph-name="uni043F" unicode="&#x43f;" horiz-adv-x="307" 
d="M34 0v619h239v-619h-98v519h-43v-519h-98z" />
    <glyph glyph-name="uni0442" unicode="&#x442;" horiz-adv-x="228" 
d="M65 0v519h-55v100h208v-100h-55v-519h-98z" />
    <glyph glyph-name="uni0446" unicode="&#x446;" horiz-adv-x="326" 
d="M244 -99v99h-210v619h98v-519h43v519h98v-519h44v-199h-73z" />
    <glyph glyph-name="uni0447" unicode="&#x447;" horiz-adv-x="298" 
d="M166 0v286q-5 -2 -15.5 -3t-21.5 -1q-48 0 -76 28.5t-28 85.5v223h98v-226q0 -14 5.5 -19.5t19.5 -5.5q5 0 9 0.5t9 2.5v248h98v-619h-98z" />
    <glyph glyph-name="uni0448" unicode="&#x448;" horiz-adv-x="443" 
d="M34 0v619h98v-519h43v519h93v-519h43v519h98v-619h-375z" />
    <glyph glyph-name="uni0449" unicode="&#x449;" horiz-adv-x="462" 
d="M380 -99v99h-346v619h98v-519h43v519h93v-519h43v519h98v-519h44v-199h-73z" />
    <glyph glyph-name="uni044A" unicode="&#x44a;" horiz-adv-x="337" 
d="M163 384h28q63 0 91.5 -31t28.5 -100v-121q0 -69 -29 -100.5t-92 -31.5h-125v519h-55v100h153v-235zM213 254q0 33 -26 33h-24v-187h23q27 0 27 34v120z" />
    <glyph glyph-name="uni044B" unicode="&#x44b;" horiz-adv-x="475" 
d="M34 0zM132 619v-235h28q63 0 91.5 -31t28.5 -100v-121q0 -69 -29 -100.5t-92 -31.5h-125v619h98zM182 254q0 33 -26 33h-24v-187h23q27 0 27 34v120zM342 0v619h98v-619h-98z" />
    <glyph glyph-name="uni044C" unicode="&#x44c;" horiz-adv-x="306" 
d="M132 619v-235h28q63 0 91.5 -31t28.5 -100v-121q0 -69 -29 -100.5t-92 -31.5h-125v619h98zM182 254q0 33 -26 33h-24v-187h23q27 0 27 34v120z" />
    <glyph glyph-name="uni044D" unicode="&#x44d;" horiz-adv-x="285" 
d="M140 629q60 0 88.5 -35.5t28.5 -92.5v-384q0 -57 -28.5 -91.5t-88.5 -34.5t-87 33.5t-27 90.5v121h91v-119q0 -26 22 -26t22 26v162h-100v83h100v142q0 24 -22 24t-22 -24v-100h-89v98q0 56 26.5 91.5t85.5 35.5z" />
    <glyph glyph-name="uni044E" unicode="&#x44e;" horiz-adv-x="461" 
d="M36 0v619h98v-254h63v140q0 60 29 92t89 32t89 -32t29 -92v-391q0 -60 -29 -91.5t-89 -31.5t-89 31.5t-29 91.5v151h-63v-265h-98zM337 501q0 27 -22 27t-22 -27v-383q0 -27 22 -27t22 27v383z" />
    <glyph glyph-name="uni044F" unicode="&#x44f;" horiz-adv-x="304" 
d="M15 0l48 293q-22 11 -32 31t-10 56v128q0 61 32 86t100 25h117v-619h-98v273h-16l-40 -273h-101zM120 385q0 -29 32 -29h20v163h-19q-33 0 -33 -29v-105z" />
    <glyph glyph-name="uni0452" unicode="&#x452;" horiz-adv-x="304" 
d="M175 509q0 24 -20 24q-14 0 -23 -10v-523h-98v673h-29v84h29v66h98v-66h111v-84h-111v-70q29 26 66 26q75 0 75 -114v-528q0 -69 -31 -100t-92 -31q-25 0 -38 4v97q13 -3 38 -3t25 33v522z" />
    <glyph glyph-name="uni0453" unicode="&#x453;" horiz-adv-x="249" 
d="M34 0zM34 0v619h173v-100h-75v-519h-98zM43 656l109 161h125l-140 -161h-94z" />
    <glyph glyph-name="uni0454" unicode="&#x454;" horiz-adv-x="285" 
d="M124 279v-162q0 -26 22 -26t22 26v119h91v-121q0 -57 -27 -90.5t-87 -33.5t-88.5 34.5t-28.5 91.5v384q0 57 28.5 92.5t88.5 35.5q59 0 85.5 -35.5t26.5 -91.5v-98h-89v100q0 24 -22 24t-22 -24v-142h100v-83h-100z" />
    <glyph glyph-name="uni0459" unicode="&#x459;" horiz-adv-x="483" 
d="M9 0v100h12q14 0 22.5 5t16.5 26q4 12 7 27t6 41t6 66.5t7 103.5l15 250h208v-235h28q63 0 91.5 -31t28.5 -100v-121q0 -69 -29 -100.5t-92 -31.5h-125v519h-30l-11 -175q-4 -59 -8 -101.5t-8 -73t-8 -51t-8 -35.5q-5 -18 -13 -33t-20.5 -26.5t-32 -17.5t-48.5 -6h-15z
M359 254q0 33 -26 33h-24v-187h23q27 0 27 34v120z" />
    <glyph glyph-name="uni045A" unicode="&#x45a;" horiz-adv-x="447" 
d="M34 0v619h98v-235h43v235h98v-235h28q63 0 91.5 -31t28.5 -100v-121q0 -69 -29 -100.5t-92 -31.5h-125v284h-43v-284h-98zM323 254q0 33 -26 33h-24v-187h23q27 0 27 34v120z" />
    <glyph glyph-name="uni045C" unicode="&#x45c;" horiz-adv-x="300" 
d="M34 0zM190 0l-34 163q-5 23 -8.5 41.5t-7 35t-6.5 33.5t-6 38q1 -19 1.5 -34.5t0.5 -32.5v-37.5v-48.5v-158h-96v619h96v-112v-46.5v-36t-0.5 -31.5t-1.5 -33q4 18 8 33t8 31.5t9 35.5t11 43l30 116h100l-76 -266l79 -353h-107zM67 656l109 161h125l-140 -161h-94z" />
    <glyph glyph-name="uni045D" unicode="&#x45d;" horiz-adv-x="323" 
d="M0 0zM34 0v619h99v-324l60 324h96v-619h-94v362l-73 -362h-88zM139 656l-140 161h125l109 -161h-94z" />
    <glyph glyph-name="uni045E" unicode="&#x45e;" horiz-adv-x="279" 
d="M4 0zM17 -43q8 -2 15.5 -2.5t18.5 -0.5q21 0 29 19t11 52l-83 594h102q7 -87 12 -148.5t9 -105.5t6 -76t3 -60q1 28 3.5 59.5t7 76t11 105.5t15.5 149h93l-81 -606q-5 -38 -13.5 -67.5t-23.5 -49.5t-38.5 -30t-58.5 -10q-9 0 -19.5 1t-18.5 3v97zM281 811q0 -45 -8.5 -74
t-25 -46.5t-42.5 -24t-60 -6.5q-40 0 -67 6.5t-43.5 24t-23.5 46.5t-7 74h89q0 -32 4 -51t11 -29.5t16 -13.5t18 -3t18 3t16 13.5t11 29.5t4 51h90z" />
    <glyph glyph-name="uni045F" unicode="&#x45f;" horiz-adv-x="307" 
d="M117 -99v99h-83v619h98v-519h43v519h98v-619h-83v-99h-73z" />
    <glyph glyph-name="uni0490" unicode="&#x490;" horiz-adv-x="274" 
d="M181 823v109h84v-218h-122v-714h-109v823h147z" />
    <glyph glyph-name="uni0491" unicode="&#x491;" horiz-adv-x="217" 
d="M132 519v-519h-98v619h100v99h73v-199h-75z" />
    <glyph glyph-name="uni0492" unicode="&#x492;" horiz-adv-x="289" 
d="M158 392v-392h-109v392h-40v84h40v347h231v-109h-122v-238h89v-84h-89z" />
    <glyph glyph-name="uni0493" unicode="&#x493;" horiz-adv-x="243" 
d="M60 0v258h-52v84h52v277h173v-100h-75v-177h70v-84h-70v-258h-98z" />
    <glyph glyph-name="uni0496" unicode="&#x496;" horiz-adv-x="578" 
d="M1 0l119 456l-109 367h116q24 -92 39.5 -151t24.5 -96.5t14 -59t8 -38.5q-1 17 -1.5 35t-1 39t-0.5 47v60v164h108v-164v-60t-0.5 -47t-1 -39t-1.5 -35q3 17 8 38.5t14 59t24.5 96.5t39.5 151h116l-109 -367l90 -347h71v-218h-84v109h-82q-24 100 -39 165.5t-24.5 108.5
t-15 69.5t-9.5 48.5q2 -45 2.5 -95t0.5 -119v-178h-108v178q0 69 0.5 119t2.5 95q-4 -22 -9.5 -48.5t-15 -69.5t-24.5 -108.5t-39 -165.5h-124z" />
    <glyph glyph-name="uni0497" unicode="&#x497;" horiz-adv-x="453" 
d="M162 0v311l-56 -311h-103l73 353l-70 266h96l60 -259v259h87v-259l60 259h96l-70 -266l52 -253h57v-199h-73v99h-66l-56 311v-311h-87z" />
    <glyph glyph-name="uni0498" unicode="&#x498;" horiz-adv-x="313" 
d="M183 337q0 31 -26 31h-42v103h47q20 0 20 31v190q0 31 -25 31q-24 0 -24 -31v-147h-107v145q0 75 31 108.5t100 33.5t99.5 -33.5t30.5 -109.5v-187q0 -30 -11 -49.5t-37 -33.5q50 -18 50 -86v-202q0 -54 -22.5 -90t-70.5 -46q38 -11 52 -27.5t14 -48.5q0 -33 -25 -50.5
t-71 -17.5h-79v68h81q15 0 20.5 7.5t5.5 15.5q0 13 -11 24.5t-51 26.5q-55 7 -82 43.5t-27 93.5v162h110v-161q0 -31 24 -31q26 0 26 31v206z" />
    <glyph glyph-name="uni0499" unicode="&#x499;" horiz-adv-x="289" 
d="M161 256q0 23 -23 23h-30v83h32q8 0 14.5 5.5t6.5 17.5v119q0 24 -25 24q-19 0 -19 -24v-100h-89v118q0 57 27.5 82.5t87.5 25.5q61 0 87.5 -25.5t26.5 -83.5v-142q0 -23 -9.5 -37.5t-32.5 -25.5q44 -14 44 -65v-154q0 -40 -18.5 -67t-60.5 -35q39 -11 53 -27.5t14 -48.5
q0 -33 -25 -50.5t-71 -17.5h-79v68h81q15 0 20.5 7.5t5.5 15.5q0 13 -11 24.5t-53 26.5q-45 7 -67 34.5t-22 69.5v139h91v-139q0 -23 20 -23q24 0 24 23v159z" />
    <glyph glyph-name="uni049A" unicode="&#x49a;" horiz-adv-x="401" 
d="M308 -109v109h-80q-24 100 -39 165.5t-24.5 108.5t-15 69.5t-9.5 48.5q2 -45 2.5 -95t0.5 -119v-178h-109v823h109v-164v-60t-0.5 -47t-1 -39t-1.5 -35q3 17 8 38.5t14 59t24.5 96.5t39.5 151h116l-109 -367l90 -347h69v-218h-84z" />
    <glyph glyph-name="uni049B" unicode="&#x49b;" horiz-adv-x="342" 
d="M260 -99v99h-70l-34 163q-5 23 -8.5 41.5t-7 35t-6.5 33.5t-6 38q1 -19 1.5 -34.5t0.5 -32.5v-37.5v-48.5v-158h-96v619h96v-112v-46.5v-36t-0.5 -31.5t-1.5 -33q4 18 8 33t8 31.5t9 35.5t11 43l30 116h100l-76 -266l56 -253h59v-199h-73z" />
    <glyph glyph-name="uni04A0" unicode="&#x4a0;" horiz-adv-x="411" 
d="M286 0q-24 100 -39 165.5t-24.5 108.5t-15 69.5t-9.5 48.5q2 -45 2.5 -95t0.5 -119v-178h-109v714h-83v109h192v-164v-60t-0.5 -47t-1 -39t-1.5 -35q3 17 8 38.5t14 59t24.5 96.5t39.5 151h116l-109 -367l119 -456h-124z" />
    <glyph glyph-name="uni04A1" unicode="&#x4a1;" horiz-adv-x="333" 
d="M223 0l-34 163q-5 23 -8.5 41.5t-7 35t-6.5 33.5t-6 38q1 -19 1.5 -34.5t0.5 -32.5v-37.5v-48.5v-158h-96v519h-57v100h153v-112v-47v-36.5t-0.5 -31.5t-1.5 -32q4 18 8 33t8 31.5t9 35.5t11 43l30 116h100l-76 -266l79 -353h-107z" />
    <glyph glyph-name="uni04A2" unicode="&#x4a2;" horiz-adv-x="354" 
d="M261 -109v109h-68v365h-50v-365h-109v823h109v-349h50v349h108v-714h44v-218h-84z" />
    <glyph glyph-name="uni04A3" unicode="&#x4a3;" horiz-adv-x="335" 
d="M253 -99v99h-78v284h-43v-284h-98v619h98v-235h43v235h98v-519h53v-199h-73z" />
    <glyph glyph-name="uni04AA" unicode="&#x4aa;" horiz-adv-x="311" 
d="M189 302h99v-170q0 -62 -21 -96t-68 -42q37 -11 50 -27t13 -48q0 -33 -25 -50.5t-71 -17.5h-79v68h81q15 0 20.5 7.5t5.5 15.5q0 7 -2 13t-9 12t-20 12.5t-34 14.5q-101 15 -101 136v560q0 142 136 142q124 0 124 -140v-146h-99v146q0 31 -25 31t-25 -31v-561
q0 -31 25 -31t25 31v171z" />
    <glyph glyph-name="uni04AB" unicode="&#x4ab;" horiz-adv-x="285" 
d="M168 253h91v-138q0 -48 -18.5 -79t-58.5 -41q34 -11 48.5 -26t14.5 -44q0 -74 -96 -74h-79v68h81q16 0 21 7.5t5 17.5q0 6 -2 11t-8 11t-17.5 12.5t-31.5 14.5q-46 8 -68 40.5t-22 83.5v384q0 57 28.5 92.5t88.5 35.5q59 0 85.5 -35.5t26.5 -91.5v-134h-89v136
q0 24 -22 24t-22 -24v-387q0 -26 22 -26t22 26v136z" />
    <glyph glyph-name="uni04B2" unicode="&#x4b2;" horiz-adv-x="392" 
d="M299 -109v109h-74q-14 75 -23.5 126.5t-15.5 88.5t-10 63.5t-7 50.5q-3 -24 -6.5 -50.5t-9.5 -63t-15.5 -88.5t-24.5 -127h-111l106 441l-87 382h116q10 -57 16.5 -97.5t10.5 -70t6 -51t4 -40.5q2 19 4.5 40.5t7 50.5t10.5 69.5t15 98.5h113l-91 -379l82 -335h68v-218
h-84z" />
    <glyph glyph-name="uni04B3" unicode="&#x4b3;" horiz-adv-x="378" 
d="M247 -99v99h-65q-10 60 -16.5 102t-11 72t-7.5 51.5t-6 41.5q-2 -20 -4.5 -41.5t-7 -51.5t-11 -71.5t-16.5 -102.5h-98l75 332l-62 287h102q7 -46 11.5 -78.5t7 -56t4 -40.5t3.5 -33q2 16 3.5 33t4.5 40t7.5 55.5t12.5 79.5h97l-63 -285l53 -234h60v-199h-73z" />
    <glyph glyph-name="uni04B6" unicode="&#x4b6;" horiz-adv-x="344" 
d="M251 -109v109h-69v335q-6 -2 -18.5 -3t-23.5 -1q-53 0 -84.5 35t-31.5 105v352h109v-359q0 -17 6.5 -24t22.5 -7q11 0 20 4v386h109v-714h44v-218h-84z" />
    <glyph glyph-name="uni04B7" unicode="&#x4b7;" horiz-adv-x="326" 
d="M244 -99v99h-78v286q-5 -2 -15.5 -3t-21.5 -1q-48 0 -76 28.5t-28 85.5v223h98v-226q0 -14 5.5 -19.5t19.5 -5.5q5 0 9 0.5t9 2.5v248h98v-519h53v-199h-73z" />
    <glyph glyph-name="uni04BA" unicode="&#x4ba;" horiz-adv-x="332" 
d="M146 823v-335q6 2 18.5 3t23.5 1q53 0 84.5 -35t31.5 -105v-352h-109v359q0 17 -6.5 24t-22.5 7q-11 0 -20 -4v-386h-109v823h109z" />
    <glyph glyph-name="uni04C3" unicode="&#x4c3;" horiz-adv-x="353" 
d="M158 -43q8 -2 19 -2.5t22 -0.5q15 0 25 4t10 23q0 9 -3 21l-88 390v-392h-109v823h109v-345l83 345h116l-109 -367l112 -432q3 -11 5 -22.5t2 -26.5q0 -119 -149 -119q-12 0 -24 1t-21 3v97z" />
    <glyph glyph-name="uni04C4" unicode="&#x4c4;" horiz-adv-x="300" 
d="M136 -43q7 -2 16 -2.5t16 -0.5q18 0 23.5 6t5.5 18q0 11 -3 25l-64 308v-311h-96v619h96v-259l64 259h100l-76 -266l73 -328q4 -16 5 -23.5t1 -17.5q0 -67 -31.5 -97.5t-92.5 -30.5q-10 0 -19.5 1t-17.5 3v97z" />
    <glyph glyph-name="uni04C7" unicode="&#x4c7;" horiz-adv-x="335" 
d="M125 -43q7 -2 17 -2.5t17 -0.5q20 0 27 7t7 26v378h-50v-365h-109v823h109v-349h50v349h108v-836q0 -69 -34 -100t-103 -31q-11 0 -21 1t-18 3v97z" />
    <glyph glyph-name="uni04C8" unicode="&#x4c8;" horiz-adv-x="307" 
d="M112 -43q7 -2 16 -2.5t15 -0.5q18 0 25 7t7 26v297h-43v-284h-98v619h98v-235h43v235h98v-632q0 -70 -31 -100.5t-94 -30.5q-10 0 -19 1t-17 3v97z" />
    <glyph glyph-name="uni04E8" unicode="&#x4e8;" horiz-adv-x="324" 
d="M28 692q0 140 134 140t134 -140v-561q0 -140 -134 -140t-134 140v561zM187 372h-50v-241q0 -31 25 -31t25 31v241zM137 481h50v211q0 31 -25 31t-25 -31v-211z" />
    <glyph glyph-name="uni04E9" unicode="&#x4e9;" horiz-adv-x="292" 
d="M28 505q0 60 29 92t89 32t89 -32t29 -92v-391q0 -60 -29 -91.5t-89 -31.5t-89 31.5t-29 91.5v391zM168 272h-44v-154q0 -27 22 -27t22 27v154zM124 356h44v145q0 27 -22 27t-22 -27v-145z" />
    <glyph glyph-name="uni04EE" unicode="&#x4ee;" horiz-adv-x="333" 
d="M7 0zM209 141q-8 -42 -18.5 -69.5t-30.5 -43.5t-53 -22t-84 -6h-9v109h9q36 0 58.5 9t28.5 46l17 97l-120 562h114l26 -166q6 -38 12 -86t11 -93q5 51 10.5 91.5t13.5 86.5l27 167h106zM50 892v84h238v-84h-238z" />
    <glyph glyph-name="uni04EF" unicode="&#x4ef;" horiz-adv-x="279" 
d="M8 0zM17 -43q8 -2 15.5 -2.5t18.5 -0.5q21 0 29 19t11 52l-83 594h102q7 -87 12 -148.5t9 -105.5t6 -76t3 -60q1 28 3.5 59.5t7 76t11 105.5t15.5 149h93l-81 -606q-5 -38 -13.5 -67.5t-23.5 -49.5t-38.5 -30t-58.5 -10q-9 0 -19.5 1t-18.5 3v97zM23 688v84h238v-84h-238
z" />
    <glyph glyph-name="uni0512" unicode="&#x512;" horiz-adv-x="370" 
d="M160 -43q13 -3 41 -3q27 0 27 33v727h-31l-13 -257q-4 -79 -8.5 -135.5t-9 -97t-9 -67.5t-8.5 -46q-6 -24 -14 -44.5t-22 -35t-35.5 -23t-52.5 -8.5h-16v109h13q15 0 24.5 6.5t17.5 35.5q4 14 7.5 36t7 59t7 93t7.5 139l16 345h227v-836q0 -69 -34 -100t-101 -31
q-12 0 -22.5 1t-18.5 3v97z" />
    <glyph glyph-name="uni0513" unicode="&#x513;" horiz-adv-x="343" 
d="M148 -43q13 -3 38 -3t25 33v532h-30l-11 -175q-4 -59 -8 -101.5t-8 -73t-8 -51t-8 -35.5q-5 -18 -13 -33t-20.5 -26.5t-32 -17.5t-48.5 -6h-15v100h12q14 0 22.5 5t16.5 26q4 12 7 27t6 41t6 66.5t7 103.5l15 250h208v-632q0 -69 -31 -100t-92 -31q-25 0 -38 4v97z" />
    <glyph glyph-name="uni058F" unicode="&#x58f;" horiz-adv-x="338" 
d="M275 392v-116h46v-84h-46v-192h-109v192h-100v84h100v116h-100v84h100v216q0 31 -25 31t-25 -31v-150h-96v150q0 70 27 105t94 35q134 0 134 -140v-216h46v-84h-46z" />
    <glyph glyph-name="uni1E0C" unicode="&#x1e0c;" horiz-adv-x="329" 
d="M34 0zM193 683q0 31 -26 31h-24v-605h24q26 0 26 31v543zM34 0v823h133q67 0 100.5 -37.5t33.5 -103.5v-542q0 -140 -134 -140h-133zM115 -149v102h98v-102h-98z" />
    <glyph glyph-name="uni1E0D" unicode="&#x1e0d;" horiz-adv-x="305" 
d="M28 0zM173 516q-7 13 -23 13q-24 0 -24 -24v-379q0 -26 24 -26q15 0 23 14v402zM188 0q-3 15 -3 34q-9 -20 -24.5 -29.5t-46.5 -9.5q-39 0 -62.5 30t-23.5 87v403q0 60 22.5 87t67.5 27q34 0 55 -18v212h98v-823h-83zM103 -149v102h98v-102h-98z" />
    <glyph glyph-name="uni1E12" unicode="&#x1e12;" horiz-adv-x="329" 
d="M20 0zM193 683q0 31 -26 31h-24v-605h24q26 0 26 31v543zM34 0v823h133q67 0 100.5 -37.5t33.5 -103.5v-542q0 -140 -134 -140h-133zM204 -149l-50 85l-54 -85h-80l86 125h102l80 -125h-84z" />
    <glyph glyph-name="uni1E13" unicode="&#x1e13;" horiz-adv-x="305" 
d="M18 0zM173 516q-7 13 -23 13q-24 0 -24 -24v-379q0 -26 24 -26q15 0 23 14v402zM188 0q-3 15 -3 34q-9 -20 -24.5 -29.5t-46.5 -9.5q-39 0 -62.5 30t-23.5 87v403q0 60 22.5 87t67.5 27q34 0 55 -18v212h98v-823h-83zM202 -149l-50 85l-54 -85h-80l86 125h102l80 -125
h-84z" />
    <glyph glyph-name="uni1E24" unicode="&#x1e24;" horiz-adv-x="335" 
d="M34 0zM193 0v365h-50v-365h-109v823h109v-349h50v349h108v-823h-108zM118 -149v102h98v-102h-98z" />
    <glyph glyph-name="uni1E25" unicode="&#x1e25;" horiz-adv-x="304" 
d="M34 0zM175 0v509q0 24 -20 24q-14 0 -23 -10v-523h-98v823h98v-220q29 26 66 26q75 0 75 -114v-515h-98zM103 -149v102h98v-102h-98z" />
    <glyph glyph-name="uni1E3C" unicode="&#x1e3c;" horiz-adv-x="274" 
d="M13 0zM34 0v823h109v-714h122v-109h-231zM197 -149l-50 85l-54 -85h-80l86 125h102l80 -125h-84z" />
    <glyph glyph-name="uni1E3D" unicode="&#x1e3d;" horiz-adv-x="238" 
d="M0 0zM69 0v823h98v-823h-98zM168 -149l-50 85l-54 -85h-80l86 125h102l80 -125h-84z" />
    <glyph glyph-name="uni1E44" unicode="&#x1e44;" horiz-adv-x="357" 
d="M32 0zM221 0q-25 119 -41.5 200t-28 137t-18.5 94t-13 73q2 -73 2.5 -145t0.5 -147v-212h-91v823h125q21 -130 34.5 -215t22 -141t13.5 -91.5t10 -67.5q-2 66 -2.5 130t-0.5 128v257h91v-823h-104zM129 872v125h98v-125h-98z" />
    <glyph glyph-name="uni1E45" unicode="&#x1e45;" horiz-adv-x="304" 
d="M34 0zM175 0v509q0 24 -20 24q-14 0 -23 -10v-523h-98v619h83q3 -15 3 -33q28 43 76 43q77 0 77 -114v-515h-98zM103 668v125h98v-125h-98z" />
    <glyph glyph-name="uni1E4A" unicode="&#x1e4a;" horiz-adv-x="357" 
d="M32 0zM221 0q-25 119 -41.5 200t-28 137t-18.5 94t-13 73q2 -73 2.5 -145t0.5 -147v-212h-91v823h125q21 -130 34.5 -215t22 -141t13.5 -91.5t10 -67.5q-2 66 -2.5 130t-0.5 128v257h91v-823h-104zM228 -149l-50 85l-54 -85h-80l86 125h102l80 -125h-84z" />
    <glyph glyph-name="uni1E4B" unicode="&#x1e4b;" horiz-adv-x="304" 
d="M18 0zM175 0v509q0 24 -20 24q-14 0 -23 -10v-523h-98v619h83q3 -15 3 -33q28 43 76 43q77 0 77 -114v-515h-98zM202 -149l-50 85l-54 -85h-80l86 125h102l80 -125h-84z" />
    <glyph glyph-name="uni1E5A" unicode="&#x1e5a;" horiz-adv-x="333" 
d="M34 0zM201 675q0 39 -37 39h-21v-248h22q36 0 36 38v171zM199 0q-8 94 -17 183.5t-21 183.5h-18v-367h-109v823h130q75 0 111 -33.5t36 -114.5v-170q0 -48 -11 -74.5t-36 -41.5q16 -100 29 -196t25 -193h-119zM117 -149v102h98v-102h-98z" />
    <glyph glyph-name="uni1E5B" unicode="&#x1e5b;" horiz-adv-x="207" 
d="M34 0zM34 0v619h83q3 -15 3 -32q19 39 60 39q11 0 17 -3v-110q-11 8 -32 8q-10 0 -19.5 -3.5t-13.5 -13.5v-504h-98zM34 -149v102h98v-102h-98z" />
    <glyph glyph-name="uni1E62" unicode="&#x1e62;" horiz-adv-x="313" 
d="M24 0zM181 244q0 16 -3 29t-12 28.5t-24.5 36t-40.5 52.5q-19 25 -33.5 47t-24 44t-14.5 44.5t-5 48.5v123q0 135 133 135q70 0 99.5 -33t29.5 -102v-151h-100v151q0 26 -26 26t-26 -26v-122q0 -16 4 -28.5t13 -27.5t24 -34.5t38 -49.5q22 -29 36.5 -52.5t23.5 -45
t12.5 -43.5t3.5 -49v-118q0 -66 -31 -101t-101 -35q-69 0 -101 35t-32 101v175h104v-175q0 -27 26 -27q27 0 27 27v117zM107 -149v102h98v-102h-98z" />
    <glyph glyph-name="uni1E63" unicode="&#x1e63;" horiz-adv-x="280" 
d="M24 0zM255 107q0 -63 -30.5 -89.5t-90.5 -26.5q-54 0 -82 29t-28 92v95h89v-93q0 -26 23 -26q21 0 21 26v64q0 12 -2 21.5t-8.5 21.5t-19 28t-33.5 40q-16 19 -29 36.5t-22 36.5t-14 42t-5 53v47q0 70 29.5 97.5t83.5 27.5q67 0 91 -30t24 -95v-95h-89v96q0 26 -23 26
q-20 0 -20 -26v-64q0 -15 2.5 -26t10 -23.5t20.5 -27.5t33 -37q21 -23 34.5 -41.5t21 -37t10.5 -38.5t3 -47v-56zM91 -149v102h98v-102h-98z" />
    <glyph glyph-name="uni1E6C" unicode="&#x1e6c;" 
d="M9 0zM89 0v714h-80v109h268v-109h-79v-714h-109zM94 -149v102h98v-102h-98z" />
    <glyph glyph-name="uni1E6D" unicode="&#x1e6d;" horiz-adv-x="191" 
d="M7 0zM183 -7q-8 -1 -15 -1.5t-15 -0.5q-60 0 -87.5 34t-27.5 94v415h-31v85h31v196h98v-196h45v-85h-45v-413q0 -26 12 -35.5t35 -9.5v-83zM46 -149v102h98v-102h-98z" />
    <glyph glyph-name="Wgrave" unicode="&#x1e80;" horiz-adv-x="537" 
d="M9 0zM310 0q-10 102 -17 177t-12 129t-8.5 90t-5 61t-2 41.5t-0.5 31.5q-1 -15 -2.5 -31.5t-3.5 -41.5t-5.5 -61t-8.5 -90t-12.5 -129t-17.5 -177h-127l-79 823h114q8 -108 13.5 -187.5t9.5 -137.5t7 -97.5t4.5 -67t2.5 -47t2 -37.5q1 18 2.5 37.5t4 47t6 67t10 97.5
t15 137.5t20.5 187.5h97q10 -108 17.5 -187.5t12.5 -137.5t8.5 -97.5t5.5 -67t3.5 -47t2.5 -37.5q1 18 2 37.5t3 47t5 67t8 97.5t12 137.5t17 187.5h114l-92 -823h-126zM241 860l-140 161h125l109 -161h-94z" />
    <glyph glyph-name="wgrave" unicode="&#x1e81;" horiz-adv-x="425" 
d="M10 0zM241 0q-10 100 -16 166t-9.5 108.5t-5 66.5t-1.5 40q-1 -16 -3 -39.5t-6 -65.5t-10.5 -108.5t-15.5 -167.5h-112l-52 619h90q5 -81 9 -141t6.5 -103.5t4.5 -73.5t3.5 -51t2 -35.5t1.5 -27.5l41 432h87q7 -81 11.5 -141t8 -103.5t6 -73.5t4 -51t3 -35.5t2.5 -27.5
q1 13 2 27.5t2.5 35.5t4 51t6 73.5t8.5 103.5t12 141h89l-60 -619h-113zM185 656l-140 161h125l109 -161h-94z" />
    <glyph glyph-name="Wacute" unicode="&#x1e82;" horiz-adv-x="537" 
d="M9 0zM310 0q-10 102 -17 177t-12 129t-8.5 90t-5 61t-2 41.5t-0.5 31.5q-1 -15 -2.5 -31.5t-3.5 -41.5t-5.5 -61t-8.5 -90t-12.5 -129t-17.5 -177h-127l-79 823h114q8 -108 13.5 -187.5t9.5 -137.5t7 -97.5t4.5 -67t2.5 -47t2 -37.5q1 18 2.5 37.5t4 47t6 67t10 97.5
t15 137.5t20.5 187.5h97q10 -108 17.5 -187.5t12.5 -137.5t8.5 -97.5t5.5 -67t3.5 -47t2.5 -37.5q1 18 2 37.5t3 47t5 67t8 97.5t12 137.5t17 187.5h114l-92 -823h-126zM201 860l109 161h125l-140 -161h-94z" />
    <glyph glyph-name="wacute" unicode="&#x1e83;" horiz-adv-x="425" 
d="M10 0zM241 0q-10 100 -16 166t-9.5 108.5t-5 66.5t-1.5 40q-1 -16 -3 -39.5t-6 -65.5t-10.5 -108.5t-15.5 -167.5h-112l-52 619h90q5 -81 9 -141t6.5 -103.5t4.5 -73.5t3.5 -51t2 -35.5t1.5 -27.5l41 432h87q7 -81 11.5 -141t8 -103.5t6 -73.5t4 -51t3 -35.5t2.5 -27.5
q1 13 2 27.5t2.5 35.5t4 51t6 73.5t8.5 103.5t12 141h89l-60 -619h-113zM145 656l109 161h125l-140 -161h-94z" />
    <glyph glyph-name="Wdieresis" unicode="&#x1e84;" horiz-adv-x="537" 
d="M9 0zM310 0q-10 102 -17 177t-12 129t-8.5 90t-5 61t-2 41.5t-0.5 31.5q-1 -15 -2.5 -31.5t-3.5 -41.5t-5.5 -61t-8.5 -90t-12.5 -129t-17.5 -177h-127l-79 823h114q8 -108 13.5 -187.5t9.5 -137.5t7 -97.5t4.5 -67t2.5 -47t2 -37.5q1 18 2.5 37.5t4 47t6 67t10 97.5
t15 137.5t20.5 187.5h97q10 -108 17.5 -187.5t12.5 -137.5t8.5 -97.5t5.5 -67t3.5 -47t2.5 -37.5q1 18 2 37.5t3 47t5 67t8 97.5t12 137.5t17 187.5h114l-92 -823h-126zM297 872v125h98v-125h-98zM142 872v125h98v-125h-98z" />
    <glyph glyph-name="wdieresis" unicode="&#x1e85;" horiz-adv-x="425" 
d="M10 0zM241 0q-10 100 -16 166t-9.5 108.5t-5 66.5t-1.5 40q-1 -16 -3 -39.5t-6 -65.5t-10.5 -108.5t-15.5 -167.5h-112l-52 619h90q5 -81 9 -141t6.5 -103.5t4.5 -73.5t3.5 -51t2 -35.5t1.5 -27.5l41 432h87q7 -81 11.5 -141t8 -103.5t6 -73.5t4 -51t3 -35.5t2.5 -27.5
q1 13 2 27.5t2.5 35.5t4 51t6 73.5t8.5 103.5t12 141h89l-60 -619h-113zM241 668v125h98v-125h-98zM86 668v125h98v-125h-98z" />
    <glyph glyph-name="uni1E92" unicode="&#x1e92;" horiz-adv-x="310" 
d="M22 0zM22 0v111l159 606h-151v106h259v-98l-154 -614h154v-111h-267zM106 -149v102h98v-102h-98z" />
    <glyph glyph-name="uni1E93" unicode="&#x1e93;" horiz-adv-x="257" 
d="M22 0zM22 0v93l121 430h-119v96h212v-91l-116 -428h115v-100h-213zM79 -149v102h98v-102h-98z" />
    <glyph glyph-name="uni1E9E" unicode="&#x1e9e;" horiz-adv-x="364" 
d="M317 823v-98l-60 -264q32 -11 54 -37t22 -77v-229q0 -66 -29.5 -96.5t-96.5 -30.5q-16 0 -24.5 1t-14.5 2v99q12 -3 26 -3t22 5.5t8 22.5v215q0 14 -2.5 23t-9.5 14t-21 7t-36 2v71l58 267h-49q-25 0 -25 -31v-686h-108v683q0 140 133 140h153z" />
    <glyph glyph-name="uni1EA0" unicode="&#x1ea0;" horiz-adv-x="339" 
d="M9 0zM220 0l-12 117h-80l-14 -117h-105l100 823h126l94 -823h-109zM196 216q-8 81 -15 162t-13 166q-12 -168 -30 -328h58zM120 -149v102h98v-102h-98z" />
    <glyph glyph-name="uni1EA1" unicode="&#x1ea1;" 
d="M20 0zM169 0q-4 9 -4 31q-11 -18 -26 -29t-38 -11q-39 0 -60 23t-21 75v91q0 56 15.5 86t46.5 52q19 13 37.5 23t39.5 21v145q0 24 -22 24t-22 -24v-131h-86v131q0 122 110 122q114 0 114 -122v-455q0 -34 5 -52h-89zM159 283q-15 -6 -25 -16q-18 -15 -18 -48v-112
q0 -10 6.5 -15t15.5 -5q13 0 21 15v181zM94 -149v102h98v-102h-98z" />
    <glyph glyph-name="uni1EA2" unicode="&#x1ea2;" horiz-adv-x="339" 
d="M9 0zM220 0l-12 117h-80l-14 -117h-105l100 823h126l94 -823h-109zM196 216q-8 81 -15 162t-13 166q-12 -168 -30 -328h58zM139 865v12q0 25 8.5 37t19.5 20q12 9 19 13.5t7 19.5v5q0 9 -12 9q-14 0 -14 -9v-11h-68v14q0 46 81 46q83 0 83 -46v-9q0 -23 -7 -32.5
t-26 -21.5q-20 -13 -23.5 -18t-3.5 -17v-12h-64z" />
    <glyph glyph-name="uni1EA3" unicode="&#x1ea3;" 
d="M20 0zM169 0q-4 9 -4 31q-11 -18 -26 -29t-38 -11q-39 0 -60 23t-21 75v91q0 56 15.5 86t46.5 52q19 13 37.5 23t39.5 21v145q0 24 -22 24t-22 -24v-131h-86v131q0 122 110 122q114 0 114 -122v-455q0 -34 5 -52h-89zM159 283q-15 -6 -25 -16q-18 -15 -18 -48v-112
q0 -10 6.5 -15t15.5 -5q13 0 21 15v181zM111 661v12q0 25 8.5 37t19.5 20q12 9 19 13.5t7 19.5v5q0 9 -12 9q-14 0 -14 -9v-11h-68v14q0 46 81 46q83 0 83 -46v-9q0 -23 -7 -32.5t-26 -21.5q-20 -13 -23.5 -18t-3.5 -17v-12h-64z" />
    <glyph glyph-name="uni1EA4" unicode="&#x1ea4;" horiz-adv-x="339" 
d="M9 0zM220 0l-12 117h-80l-14 -117h-105l100 823h126l94 -823h-109zM196 216q-8 81 -15 162t-13 166q-12 -168 -30 -328h58zM285 900l109 161h125l-140 -161h-94zM227 834.792l-57 87.1982l-61 -87.1982h-90l97 128.798h115l91 -128.798h-95z" />
    <glyph glyph-name="uni1EA5" unicode="&#x1ea5;" 
d="M0 0zM169 0q-4 9 -4 31q-11 -18 -26 -29t-38 -11q-39 0 -60 23t-21 75v91q0 56 15.5 86t46.5 52q19 13 37.5 23t39.5 21v145q0 24 -22 24t-22 -24v-131h-86v131q0 122 110 122q114 0 114 -122v-455q0 -34 5 -52h-89zM159 283q-15 -6 -25 -16q-18 -15 -18 -48v-112
q0 -10 6.5 -15t15.5 -5q13 0 21 15v181zM200 656l-57 109l-61 -109h-90l97 161h115l91 -161h-95zM77 860l109 161h125l-140 -161h-94z" />
    <glyph glyph-name="uni1EA6" unicode="&#x1ea6;" horiz-adv-x="339" 
d="M9 0zM220 0l-12 117h-80l-14 -117h-105l100 823h126l94 -823h-109zM196 216q-8 81 -15 162t-13 166q-12 -168 -30 -328h58zM317 900l-140 161h125l109 -161h-94zM227 834.792l-57 87.1982l-61 -87.1982h-90l97 128.798h115l91 -128.798h-95z" />
    <glyph glyph-name="uni1EA7" unicode="&#x1ea7;" 
d="M0 0zM169 0q-4 9 -4 31q-11 -18 -26 -29t-38 -11q-39 0 -60 23t-21 75v91q0 56 15.5 86t46.5 52q19 13 37.5 23t39.5 21v145q0 24 -22 24t-22 -24v-131h-86v131q0 122 110 122q114 0 114 -122v-455q0 -34 5 -52h-89zM159 283q-15 -6 -25 -16q-18 -15 -18 -48v-112
q0 -10 6.5 -15t15.5 -5q13 0 21 15v181zM200 656l-57 109l-61 -109h-90l97 161h115l91 -161h-95zM116 860l-140 161h125l109 -161h-94z" />
    <glyph glyph-name="uni1EA8" unicode="&#x1ea8;" horiz-adv-x="339" 
d="M9 0zM220 0l-12 117h-80l-14 -117h-105l100 823h126l94 -823h-109zM196 216q-8 81 -15 162t-13 166q-12 -168 -30 -328h58zM302 875v12q0 25 8.5 37t19.5 20q12 9 19 13.5t7 19.5v5q0 9 -12 9q-14 0 -14 -9v-11h-68v14q0 46 81 46q83 0 83 -46v-9q0 -23 -7 -32.5
t-26 -21.5q-20 -13 -23.5 -18t-3.5 -17v-12h-64zM227 834.792l-57 87.1982l-61 -87.1982h-90l97 128.798h115l91 -128.798h-95z" />
    <glyph glyph-name="uni1EA9" unicode="&#x1ea9;" 
d="M0 0zM169 0q-4 9 -4 31q-11 -18 -26 -29t-38 -11q-39 0 -60 23t-21 75v91q0 56 15.5 86t46.5 52q19 13 37.5 23t39.5 21v145q0 24 -22 24t-22 -24v-131h-86v131q0 122 110 122q114 0 114 -122v-455q0 -34 5 -52h-89zM159 283q-15 -6 -25 -16q-18 -15 -18 -48v-112
q0 -10 6.5 -15t15.5 -5q13 0 21 15v181zM200 656l-57 109l-61 -109h-90l97 161h115l91 -161h-95zM111 865v12q0 25 8.5 37t19.5 20q12 9 19 13.5t7 19.5v5q0 9 -12 9q-14 0 -14 -9v-11h-68v14q0 46 81 46q83 0 83 -46v-9q0 -23 -7 -32.5t-26 -21.5q-20 -13 -23.5 -18
t-3.5 -17v-12h-64z" />
    <glyph glyph-name="uni1EAA" unicode="&#x1eaa;" horiz-adv-x="339" 
d="M9 0zM220 0l-12 117h-80l-14 -117h-105l100 823h126l94 -823h-109zM196 216q-8 81 -15 162t-13 166q-12 -168 -30 -328h58zM227 834.792l-57 87.1982l-61 -87.1982h-90l97 128.798h115l91 -128.798h-95zM293 1006q-24 -24 -63 -24q-18 0 -34.5 5t-31.5 10.5t-30.5 10.5
t-31.5 5q-34 0 -55 -27h-2v81q8 9 24 16.5t39 7.5q18 0 34 -4.5t31 -10t30.5 -10t32.5 -4.5q20 0 32.5 5t22.5 21h2v-82z" />
    <glyph glyph-name="uni1EAB" unicode="&#x1eab;" 
d="M0 0zM169 0q-4 9 -4 31q-11 -18 -26 -29t-38 -11q-39 0 -60 23t-21 75v91q0 56 15.5 86t46.5 52q19 13 37.5 23t39.5 21v145q0 24 -22 24t-22 -24v-131h-86v131q0 122 110 122q114 0 114 -122v-455q0 -34 5 -52h-89zM159 283q-15 -6 -25 -16q-18 -15 -18 -48v-112
q0 -10 6.5 -15t15.5 -5q13 0 21 15v181zM200 656l-57 109l-61 -109h-90l97 161h115l91 -161h-95zM267 906q-24 -24 -63 -24q-18 0 -34.5 5t-31.5 10.5t-30.5 10.5t-31.5 5q-34 0 -55 -27h-2v81q8 9 24 16.5t39 7.5q18 0 34 -4.5t31 -10t30.5 -10t32.5 -4.5q20 0 32.5 5
t22.5 21h2v-82z" />
    <glyph glyph-name="uni1EAC" unicode="&#x1eac;" horiz-adv-x="339" 
d="M9 0zM220 0l-12 117h-80l-14 -117h-105l100 823h126l94 -823h-109zM196 216q-8 81 -15 162t-13 166q-12 -168 -30 -328h58zM227 860l-57 109l-61 -109h-90l97 161h115l91 -161h-95zM120 -149v102h98v-102h-98z" />
    <glyph glyph-name="uni1EAD" unicode="&#x1ead;" 
d="M0 0zM169 0q-4 9 -4 31q-11 -18 -26 -29t-38 -11q-39 0 -60 23t-21 75v91q0 56 15.5 86t46.5 52q19 13 37.5 23t39.5 21v145q0 24 -22 24t-22 -24v-131h-86v131q0 122 110 122q114 0 114 -122v-455q0 -34 5 -52h-89zM159 283q-15 -6 -25 -16q-18 -15 -18 -48v-112
q0 -10 6.5 -15t15.5 -5q13 0 21 15v181zM200 656l-57 109l-61 -109h-90l97 161h115l91 -161h-95zM94 -149v102h98v-102h-98z" />
    <glyph glyph-name="uni1EAE" unicode="&#x1eae;" horiz-adv-x="339" 
d="M9 0zM220 0l-12 117h-80l-14 -117h-105l100 823h126l94 -823h-109zM196 216q-8 81 -15 162t-13 166q-12 -168 -30 -328h58zM308 950.25q0 -33.75 -8.5 -55.5t-25 -34.875t-42.5 -18t-60 -4.875q-40 0 -67 4.875t-43.5 18t-23.5 34.875t-7 55.5h89q0 -24 4 -38.25
t11 -22.125t16 -10.125t18 -2.25t18 2.25t16 10.125t11 22.125t4 38.25h90zM103 970l109 161h125l-140 -161h-94z" />
    <glyph glyph-name="uni1EAF" unicode="&#x1eaf;" 
d="M5 0zM169 0q-4 9 -4 31q-11 -18 -26 -29t-38 -11q-39 0 -60 23t-21 75v91q0 56 15.5 86t46.5 52q19 13 37.5 23t39.5 21v145q0 24 -22 24t-22 -24v-131h-86v131q0 122 110 122q114 0 114 -122v-455q0 -34 5 -52h-89zM159 283q-15 -6 -25 -16q-18 -15 -18 -48v-112
q0 -10 6.5 -15t15.5 -5q13 0 21 15v181zM282 811q0 -45 -8.5 -74t-25 -46.5t-42.5 -24t-60 -6.5q-40 0 -67 6.5t-43.5 24t-23.5 46.5t-7 74h89q0 -32 4 -51t11 -29.5t16 -13.5t18 -3t18 3t16 13.5t11 29.5t4 51h90zM76 860l109 161h125l-140 -161h-94z" />
    <glyph glyph-name="uni1EB0" unicode="&#x1eb0;" horiz-adv-x="339" 
d="M2 0zM220 0l-12 117h-80l-14 -117h-105l100 823h126l94 -823h-109zM196 216q-8 81 -15 162t-13 166q-12 -168 -30 -328h58zM142 970l-140 161h125l109 -161h-94zM308 950.25q0 -33.75 -8.5 -55.5t-25 -34.875t-42.5 -18t-60 -4.875q-40 0 -67 4.875t-43.5 18
t-23.5 34.875t-7 55.5h89q0 -24 4 -38.25t11 -22.125t16 -10.125t18 -2.25t18 2.25t16 10.125t11 22.125t4 38.25h90z" />
    <glyph glyph-name="uni1EB1" unicode="&#x1eb1;" 
d="M0 0zM169 0q-4 9 -4 31q-11 -18 -26 -29t-38 -11q-39 0 -60 23t-21 75v91q0 56 15.5 86t46.5 52q19 13 37.5 23t39.5 21v145q0 24 -22 24t-22 -24v-131h-86v131q0 122 110 122q114 0 114 -122v-455q0 -34 5 -52h-89zM159 283q-15 -6 -25 -16q-18 -15 -18 -48v-112
q0 -10 6.5 -15t15.5 -5q13 0 21 15v181zM282 811q0 -45 -8.5 -74t-25 -46.5t-42.5 -24t-60 -6.5q-40 0 -67 6.5t-43.5 24t-23.5 46.5t-7 74h89q0 -32 4 -51t11 -29.5t16 -13.5t18 -3t18 3t16 13.5t11 29.5t4 51h90zM116 860l-140 161h125l109 -161h-94z" />
    <glyph glyph-name="uni1EB2" unicode="&#x1eb2;" horiz-adv-x="339" 
d="M9 0zM220 0l-12 117h-80l-14 -117h-105l100 823h126l94 -823h-109zM196 216q-8 81 -15 162t-13 166q-12 -168 -30 -328h58zM137 955v12q0 25 8.5 37t19.5 20q12 9 19 13.5t7 19.5v5q0 9 -12 9q-14 0 -14 -9v-11h-68v14q0 46 81 46q83 0 83 -46v-9q0 -23 -7 -32.5
t-26 -21.5q-20 -13 -23.5 -18t-3.5 -17v-12h-64zM308 950.25q0 -33.75 -8.5 -55.5t-25 -34.875t-42.5 -18t-60 -4.875q-40 0 -67 4.875t-43.5 18t-23.5 34.875t-7 55.5h89q0 -24 4 -38.25t11 -22.125t16 -10.125t18 -2.25t18 2.25t16 10.125t11 22.125t4 38.25h90z" />
    <glyph glyph-name="uni1EB3" unicode="&#x1eb3;" 
d="M5 0zM169 0q-4 9 -4 31q-11 -18 -26 -29t-38 -11q-39 0 -60 23t-21 75v91q0 56 15.5 86t46.5 52q19 13 37.5 23t39.5 21v145q0 24 -22 24t-22 -24v-131h-86v131q0 122 110 122q114 0 114 -122v-455q0 -34 5 -52h-89zM159 283q-15 -6 -25 -16q-18 -15 -18 -48v-112
q0 -10 6.5 -15t15.5 -5q13 0 21 15v181zM282 811q0 -45 -8.5 -74t-25 -46.5t-42.5 -24t-60 -6.5q-40 0 -67 6.5t-43.5 24t-23.5 46.5t-7 74h89q0 -32 4 -51t11 -29.5t16 -13.5t18 -3t18 3t16 13.5t11 29.5t4 51h90zM111 865v12q0 25 8.5 37t19.5 20q12 9 19 13.5t7 19.5v5
q0 9 -12 9q-14 0 -14 -9v-11h-68v14q0 46 81 46q83 0 83 -46v-9q0 -23 -7 -32.5t-26 -21.5q-20 -13 -23.5 -18t-3.5 -17v-12h-64z" />
    <glyph glyph-name="uni1EB4" unicode="&#x1eb4;" horiz-adv-x="339" 
d="M9 0zM220 0l-12 117h-80l-14 -117h-105l100 823h126l94 -823h-109zM196 216q-8 81 -15 162t-13 166q-12 -168 -30 -328h58zM293 986q-24 -24 -63 -24q-18 0 -34.5 5t-31.5 10.5t-30.5 10.5t-31.5 5q-34 0 -55 -27h-2v81q8 9 24 16.5t39 7.5q18 0 34 -4.5t31 -10t30.5 -10
t32.5 -4.5q20 0 32.5 5t22.5 21h2v-82zM308 950.25q0 -33.75 -8.5 -55.5t-25 -34.875t-42.5 -18t-60 -4.875q-40 0 -67 4.875t-43.5 18t-23.5 34.875t-7 55.5h89q0 -24 4 -38.25t11 -22.125t16 -10.125t18 -2.25t18 2.25t16 10.125t11 22.125t4 38.25h90z" />
    <glyph glyph-name="uni1EB5" unicode="&#x1eb5;" 
d="M5 0zM169 0q-4 9 -4 31q-11 -18 -26 -29t-38 -11q-39 0 -60 23t-21 75v91q0 56 15.5 86t46.5 52q19 13 37.5 23t39.5 21v145q0 24 -22 24t-22 -24v-131h-86v131q0 122 110 122q114 0 114 -122v-455q0 -34 5 -52h-89zM159 283q-15 -6 -25 -16q-18 -15 -18 -48v-112
q0 -10 6.5 -15t15.5 -5q13 0 21 15v181zM282 811q0 -45 -8.5 -74t-25 -46.5t-42.5 -24t-60 -6.5q-40 0 -67 6.5t-43.5 24t-23.5 46.5t-7 74h89q0 -32 4 -51t11 -29.5t16 -13.5t18 -3t18 3t16 13.5t11 29.5t4 51h90zM267 906q-24 -24 -63 -24q-18 0 -34.5 5t-31.5 10.5
t-30.5 10.5t-31.5 5q-34 0 -55 -27h-2v81q8 9 24 16.5t39 7.5q18 0 34 -4.5t31 -10t30.5 -10t32.5 -4.5q20 0 32.5 5t22.5 21h2v-82z" />
    <glyph glyph-name="uni1EB6" unicode="&#x1eb6;" horiz-adv-x="339" 
d="M9 0zM220 0l-12 117h-80l-14 -117h-105l100 823h126l94 -823h-109zM196 216q-8 81 -15 162t-13 166q-12 -168 -30 -328h58zM308 1015q0 -45 -8.5 -74t-25 -46.5t-42.5 -24t-60 -6.5q-40 0 -67 6.5t-43.5 24t-23.5 46.5t-7 74h89q0 -32 4 -51t11 -29.5t16 -13.5t18 -3
t18 3t16 13.5t11 29.5t4 51h90zM120 -149v102h98v-102h-98z" />
    <glyph glyph-name="uni1EB7" unicode="&#x1eb7;" 
d="M5 0zM169 0q-4 9 -4 31q-11 -18 -26 -29t-38 -11q-39 0 -60 23t-21 75v91q0 56 15.5 86t46.5 52q19 13 37.5 23t39.5 21v145q0 24 -22 24t-22 -24v-131h-86v131q0 122 110 122q114 0 114 -122v-455q0 -34 5 -52h-89zM159 283q-15 -6 -25 -16q-18 -15 -18 -48v-112
q0 -10 6.5 -15t15.5 -5q13 0 21 15v181zM282 811q0 -45 -8.5 -74t-25 -46.5t-42.5 -24t-60 -6.5q-40 0 -67 6.5t-43.5 24t-23.5 46.5t-7 74h89q0 -32 4 -51t11 -29.5t16 -13.5t18 -3t18 3t16 13.5t11 29.5t4 51h90zM94 -149v102h98v-102h-98z" />
    <glyph glyph-name="uni1EB8" unicode="&#x1eb8;" horiz-adv-x="282" 
d="M34 0zM34 0v823h226v-109h-117v-240h74v-109h-74v-256h122v-109h-231zM102 -149v102h98v-102h-98z" />
    <glyph glyph-name="uni1EB9" unicode="&#x1eb9;" horiz-adv-x="281" 
d="M28 0zM161 502q0 25 -22 25q-20 0 -20 -25v-139h42v139zM161 252h92v-136q0 -125 -114 -125q-111 0 -111 125v386q0 127 111 127q114 0 114 -127v-209h-134v-177q0 -25 20 -25q22 0 22 26v135zM91 -149v102h98v-102h-98z" />
    <glyph glyph-name="uni1EBA" unicode="&#x1eba;" horiz-adv-x="282" 
d="M34 0zM34 0v823h226v-109h-117v-240h74v-109h-74v-256h122v-109h-231zM118 865v12q0 25 8.5 37t19.5 20q12 9 19 13.5t7 19.5v5q0 9 -12 9q-14 0 -14 -9v-11h-68v14q0 46 81 46q83 0 83 -46v-9q0 -23 -7 -32.5t-26 -21.5q-20 -13 -23.5 -18t-3.5 -17v-12h-64z" />
    <glyph glyph-name="uni1EBB" unicode="&#x1ebb;" horiz-adv-x="281" 
d="M28 0zM161 502q0 25 -22 25q-20 0 -20 -25v-139h42v139zM161 252h92v-136q0 -125 -114 -125q-111 0 -111 125v386q0 127 111 127q114 0 114 -127v-209h-134v-177q0 -25 20 -25q22 0 22 26v135zM108 661v12q0 25 8.5 37t19.5 20q12 9 19 13.5t7 19.5v5q0 9 -12 9
q-14 0 -14 -9v-11h-68v14q0 46 81 46q83 0 83 -46v-9q0 -23 -7 -32.5t-26 -21.5q-20 -13 -23.5 -18t-3.5 -17v-12h-64z" />
    <glyph glyph-name="uni1EBC" unicode="&#x1ebc;" horiz-adv-x="282" 
d="M27 0zM34 0v823h226v-109h-117v-240h74v-109h-74v-256h122v-109h-231zM275 906q-24 -24 -63 -24q-18 0 -34.5 5t-31.5 10.5t-30.5 10.5t-31.5 5q-34 0 -55 -27h-2v81q8 9 24 16.5t39 7.5q18 0 34 -4.5t31 -10t30.5 -10t32.5 -4.5q20 0 32.5 5t22.5 21h2v-82z" />
    <glyph glyph-name="uni1EBD" unicode="&#x1ebd;" horiz-adv-x="281" 
d="M17 0zM161 502q0 25 -22 25q-20 0 -20 -25v-139h42v139zM161 252h92v-136q0 -125 -114 -125q-111 0 -111 125v386q0 127 111 127q114 0 114 -127v-209h-134v-177q0 -25 20 -25q22 0 22 26v135zM265 702q-24 -24 -63 -24q-18 0 -34.5 5t-31.5 10.5t-30.5 10.5t-31.5 5
q-34 0 -55 -27h-2v81q8 9 24 16.5t39 7.5q18 0 34 -4.5t31 -10t30.5 -10t32.5 -4.5q20 0 32.5 5t22.5 21h2v-82z" />
    <glyph glyph-name="uni1EBE" unicode="&#x1ebe;" horiz-adv-x="282" 
d="M2 0zM34 0v823h226v-109h-117v-240h74v-109h-74v-256h122v-109h-231zM267 900l109 161h125l-140 -161h-94zM210 834.792l-57 87.1982l-61 -87.1982h-90l97 128.798h115l91 -128.798h-95z" />
    <glyph glyph-name="uni1EBF" unicode="&#x1ebf;" horiz-adv-x="281" 
d="M0 0zM161 502q0 25 -22 25q-20 0 -20 -25v-139h42v139zM161 252h92v-136q0 -125 -114 -125q-111 0 -111 125v386q0 127 111 127q114 0 114 -127v-209h-134v-177q0 -25 20 -25q22 0 22 26v135zM197 656l-57 109l-61 -109h-90l97 161h115l91 -161h-95zM73 860l109 161h125
l-140 -161h-94z" />
    <glyph glyph-name="uni1EC0" unicode="&#x1ec0;" horiz-adv-x="282" 
d="M2 0zM34 0v823h226v-109h-117v-240h74v-109h-74v-256h122v-109h-231zM298 900l-140 161h125l109 -161h-94zM210 834.792l-57 87.1982l-61 -87.1982h-90l97 128.798h115l91 -128.798h-95z" />
    <glyph glyph-name="uni1EC1" unicode="&#x1ec1;" horiz-adv-x="281" 
d="M0 0zM161 502q0 25 -22 25q-20 0 -20 -25v-139h42v139zM161 252h92v-136q0 -125 -114 -125q-111 0 -111 125v386q0 127 111 127q114 0 114 -127v-209h-134v-177q0 -25 20 -25q22 0 22 26v135zM197 656l-57 109l-61 -109h-90l97 161h115l91 -161h-95zM114 860l-140 161
h125l109 -161h-94z" />
    <glyph glyph-name="uni1EC2" unicode="&#x1ec2;" horiz-adv-x="282" 
d="M2 0zM34 0v823h226v-109h-117v-240h74v-109h-74v-256h122v-109h-231zM286 875v12q0 25 8.5 37t19.5 20q12 9 19 13.5t7 19.5v5q0 9 -12 9q-14 0 -14 -9v-11h-68v14q0 46 81 46q83 0 83 -46v-9q0 -23 -7 -32.5t-26 -21.5q-20 -13 -23.5 -18t-3.5 -17v-12h-64zM210 834.792
l-57 87.1982l-61 -87.1982h-90l97 128.798h115l91 -128.798h-95z" />
    <glyph glyph-name="uni1EC3" unicode="&#x1ec3;" horiz-adv-x="281" 
d="M0 0zM161 502q0 25 -22 25q-20 0 -20 -25v-139h42v139zM161 252h92v-136q0 -125 -114 -125q-111 0 -111 125v386q0 127 111 127q114 0 114 -127v-209h-134v-177q0 -25 20 -25q22 0 22 26v135zM197 656l-57 109l-61 -109h-90l97 161h115l91 -161h-95zM109 865v12
q0 25 8.5 37t19.5 20q12 9 19 13.5t7 19.5v5q0 9 -12 9q-14 0 -14 -9v-11h-68v14q0 46 81 46q83 0 83 -46v-9q0 -23 -7 -32.5t-26 -21.5q-20 -13 -23.5 -18t-3.5 -17v-12h-64z" />
    <glyph glyph-name="uni1EC4" unicode="&#x1ec4;" horiz-adv-x="282" 
d="M2 0zM34 0v823h226v-109h-117v-240h74v-109h-74v-256h122v-109h-231zM277 1006q-24 -24 -63 -24q-18 0 -34.5 5t-31.5 10.5t-30.5 10.5t-31.5 5q-34 0 -55 -27h-2v81q8 9 24 16.5t39 7.5q18 0 34 -4.5t31 -10t30.5 -10t32.5 -4.5q20 0 32.5 5t22.5 21h2v-82zM210 834.792
l-57 87.1982l-61 -87.1982h-90l97 128.798h115l91 -128.798h-95z" />
    <glyph glyph-name="uni1EC5" unicode="&#x1ec5;" horiz-adv-x="281" 
d="M0 0zM161 502q0 25 -22 25q-20 0 -20 -25v-139h42v139zM161 252h92v-136q0 -125 -114 -125q-111 0 -111 125v386q0 127 111 127q114 0 114 -127v-209h-134v-177q0 -25 20 -25q22 0 22 26v135zM197 656l-57 109l-61 -109h-90l97 161h115l91 -161h-95zM265 906
q-24 -24 -63 -24q-18 0 -34.5 5t-31.5 10.5t-30.5 10.5t-31.5 5q-34 0 -55 -27h-2v81q8 9 24 16.5t39 7.5q18 0 34 -4.5t31 -10t30.5 -10t32.5 -4.5q20 0 32.5 5t22.5 21h2v-82z" />
    <glyph glyph-name="uni1EC6" unicode="&#x1ec6;" horiz-adv-x="282" 
d="M4 0zM34 0v823h226v-109h-117v-240h74v-109h-74v-256h122v-109h-231zM212 860l-57 109l-61 -109h-90l97 161h115l91 -161h-95zM102 -149v102h98v-102h-98z" />
    <glyph glyph-name="uni1EC7" unicode="&#x1ec7;" horiz-adv-x="281" 
d="M0 0zM161 502q0 25 -22 25q-20 0 -20 -25v-139h42v139zM161 252h92v-136q0 -125 -114 -125q-111 0 -111 125v386q0 127 111 127q114 0 114 -127v-209h-134v-177q0 -25 20 -25q22 0 22 26v135zM197 656l-57 109l-61 -109h-90l97 161h115l91 -161h-95zM91 -149v102h98v-102
h-98z" />
    <glyph glyph-name="uni1EC8" unicode="&#x1ec8;" horiz-adv-x="181" 
d="M18 0zM36 0v823h109v-823h-109zM58 865v12q0 25 8.5 37t19.5 20q12 9 19 13.5t7 19.5v5q0 9 -12 9q-14 0 -14 -9v-11h-68v14q0 46 81 46q83 0 83 -46v-9q0 -23 -7 -32.5t-26 -21.5q-20 -13 -23.5 -18t-3.5 -17v-12h-64z" />
    <glyph glyph-name="uni1EC9" unicode="&#x1ec9;" horiz-adv-x="176" 
d="M12 0zM36 0v619h98v-619h-98zM52 661v12q0 25 8.5 37t19.5 20q12 9 19 13.5t7 19.5v5q0 9 -12 9q-14 0 -14 -9v-11h-68v14q0 46 81 46q83 0 83 -46v-9q0 -23 -7 -32.5t-26 -21.5q-20 -13 -23.5 -18t-3.5 -17v-12h-64z" />
    <glyph glyph-name="uni1ECA" unicode="&#x1eca;" horiz-adv-x="181" 
d="M36 0zM36 0v823h109v-823h-109zM41 -149v102h98v-102h-98z" />
    <glyph glyph-name="uni1ECB" unicode="&#x1ecb;" horiz-adv-x="169" 
d="M35 0zM36 698v125h98v-125h-98zM36 0v619h98v-619h-98zM35 -149v102h98v-102h-98z" />
    <glyph glyph-name="uni1ECC" unicode="&#x1ecc;" horiz-adv-x="324" 
d="M28 0zM28 692q0 140 134 140t134 -140v-561q0 -140 -134 -140t-134 140v561zM187 692q0 31 -25 31t-25 -31v-561q0 -31 25 -31t25 31v561zM113 -149v102h98v-102h-98z" />
    <glyph glyph-name="uni1ECD" unicode="&#x1ecd;" horiz-adv-x="292" 
d="M28 0zM28 505q0 60 29 92t89 32t89 -32t29 -92v-391q0 -60 -29 -91.5t-89 -31.5t-89 31.5t-29 91.5v391zM168 501q0 27 -22 27t-22 -27v-383q0 -27 22 -27t22 27v383zM97 -149v102h98v-102h-98z" />
    <glyph glyph-name="uni1ECE" unicode="&#x1ece;" horiz-adv-x="324" 
d="M28 0zM28 692q0 140 134 140t134 -140v-561q0 -140 -134 -140t-134 140v561zM187 692q0 31 -25 31t-25 -31v-561q0 -31 25 -31t25 31v561zM130 865v12q0 25 8.5 37t19.5 20q12 9 19 13.5t7 19.5v5q0 9 -12 9q-14 0 -14 -9v-11h-68v14q0 46 81 46q83 0 83 -46v-9
q0 -23 -7 -32.5t-26 -21.5q-20 -13 -23.5 -18t-3.5 -17v-12h-64z" />
    <glyph glyph-name="uni1ECF" unicode="&#x1ecf;" horiz-adv-x="292" 
d="M28 0zM28 505q0 60 29 92t89 32t89 -32t29 -92v-391q0 -60 -29 -91.5t-89 -31.5t-89 31.5t-29 91.5v391zM168 501q0 27 -22 27t-22 -27v-383q0 -27 22 -27t22 27v383zM114 661v12q0 25 8.5 37t19.5 20q12 9 19 13.5t7 19.5v5q0 9 -12 9q-14 0 -14 -9v-11h-68v14
q0 46 81 46q83 0 83 -46v-9q0 -23 -7 -32.5t-26 -21.5q-20 -13 -23.5 -18t-3.5 -17v-12h-64z" />
    <glyph glyph-name="uni1ED0" unicode="&#x1ed0;" horiz-adv-x="324" 
d="M13 0zM28 692q0 140 134 140t134 -140v-561q0 -140 -134 -140t-134 140v561zM187 692q0 31 -25 31t-25 -31v-561q0 -31 25 -31t25 31v561zM278 900l109 161h125l-140 -161h-94zM221 834.792l-57 87.1982l-61 -87.1982h-90l97 128.798h115l91 -128.798h-95z" />
    <glyph glyph-name="uni1ED1" unicode="&#x1ed1;" horiz-adv-x="292" 
d="M0 0zM28 505q0 60 29 92t89 32t89 -32t29 -92v-391q0 -60 -29 -91.5t-89 -31.5t-89 31.5t-29 91.5v391zM168 501q0 27 -22 27t-22 -27v-383q0 -27 22 -27t22 27v383zM203 656l-57 109l-61 -109h-90l97 161h115l91 -161h-95zM79 860l109 161h125l-140 -161h-94z" />
    <glyph glyph-name="uni1ED2" unicode="&#x1ed2;" horiz-adv-x="324" 
d="M13 0zM28 692q0 140 134 140t134 -140v-561q0 -140 -134 -140t-134 140v561zM187 692q0 31 -25 31t-25 -31v-561q0 -31 25 -31t25 31v561zM310 900l-140 161h125l109 -161h-94zM221 834.792l-57 87.1982l-61 -87.1982h-90l97 128.798h115l91 -128.798h-95z" />
    <glyph glyph-name="uni1ED3" unicode="&#x1ed3;" horiz-adv-x="292" 
d="M0 0zM28 505q0 60 29 92t89 32t89 -32t29 -92v-391q0 -60 -29 -91.5t-89 -31.5t-89 31.5t-29 91.5v391zM168 501q0 27 -22 27t-22 -27v-383q0 -27 22 -27t22 27v383zM203 656l-57 109l-61 -109h-90l97 161h115l91 -161h-95zM119 860l-140 161h125l109 -161h-94z" />
    <glyph glyph-name="uni1ED4" unicode="&#x1ed4;" horiz-adv-x="324" 
d="M13 0zM28 692q0 140 134 140t134 -140v-561q0 -140 -134 -140t-134 140v561zM187 692q0 31 -25 31t-25 -31v-561q0 -31 25 -31t25 31v561zM296 875v12q0 25 8.5 37t19.5 20q12 9 19 13.5t7 19.5v5q0 9 -12 9q-14 0 -14 -9v-11h-68v14q0 46 81 46q83 0 83 -46v-9
q0 -23 -7 -32.5t-26 -21.5q-20 -13 -23.5 -18t-3.5 -17v-12h-64zM221 834.792l-57 87.1982l-61 -87.1982h-90l97 128.798h115l91 -128.798h-95z" />
    <glyph glyph-name="uni1ED5" unicode="&#x1ed5;" horiz-adv-x="292" 
d="M0 0zM28 505q0 60 29 92t89 32t89 -32t29 -92v-391q0 -60 -29 -91.5t-89 -31.5t-89 31.5t-29 91.5v391zM168 501q0 27 -22 27t-22 -27v-383q0 -27 22 -27t22 27v383zM203 656l-57 109l-61 -109h-90l97 161h115l91 -161h-95zM113 865v12q0 25 8.5 37t19.5 20q12 9 19 13.5
t7 19.5v5q0 9 -12 9q-14 0 -14 -9v-11h-68v14q0 46 81 46q83 0 83 -46v-9q0 -23 -7 -32.5t-26 -21.5q-20 -13 -23.5 -18t-3.5 -17v-12h-64z" />
    <glyph glyph-name="uni1ED6" unicode="&#x1ed6;" horiz-adv-x="324" 
d="M13 0zM28 692q0 140 134 140t134 -140v-561q0 -140 -134 -140t-134 140v561zM187 692q0 31 -25 31t-25 -31v-561q0 -31 25 -31t25 31v561zM286 1006q-24 -24 -63 -24q-18 0 -34.5 5t-31.5 10.5t-30.5 10.5t-31.5 5q-34 0 -55 -27h-2v81q8 9 24 16.5t39 7.5q18 0 34 -4.5
t31 -10t30.5 -10t32.5 -4.5q20 0 32.5 5t22.5 21h2v-82zM221 834.792l-57 87.1982l-61 -87.1982h-90l97 128.798h115l91 -128.798h-95z" />
    <glyph glyph-name="uni1ED7" unicode="&#x1ed7;" horiz-adv-x="292" 
d="M0 0zM28 505q0 60 29 92t89 32t89 -32t29 -92v-391q0 -60 -29 -91.5t-89 -31.5t-89 31.5t-29 91.5v391zM168 501q0 27 -22 27t-22 -27v-383q0 -27 22 -27t22 27v383zM203 656l-57 109l-61 -109h-90l97 161h115l91 -161h-95zM270 906q-24 -24 -63 -24q-18 0 -34.5 5
t-31.5 10.5t-30.5 10.5t-31.5 5q-34 0 -55 -27h-2v81q8 9 24 16.5t39 7.5q18 0 34 -4.5t31 -10t30.5 -10t32.5 -4.5q20 0 32.5 5t22.5 21h2v-82z" />
    <glyph glyph-name="uni1ED8" unicode="&#x1ed8;" horiz-adv-x="324" 
d="M11 0zM28 692q0 140 134 140t134 -140v-561q0 -140 -134 -140t-134 140v561zM187 692q0 31 -25 31t-25 -31v-561q0 -31 25 -31t25 31v561zM219 860l-57 109l-61 -109h-90l97 161h115l91 -161h-95zM113 -149v102h98v-102h-98z" />
    <glyph glyph-name="uni1ED9" unicode="&#x1ed9;" horiz-adv-x="292" 
d="M0 0zM28 505q0 60 29 92t89 32t89 -32t29 -92v-391q0 -60 -29 -91.5t-89 -31.5t-89 31.5t-29 91.5v391zM168 501q0 27 -22 27t-22 -27v-383q0 -27 22 -27t22 27v383zM203 656l-57 109l-61 -109h-90l97 161h115l91 -161h-95zM97 -149v102h98v-102h-98z" />
    <glyph glyph-name="uni1EDA" unicode="&#x1eda;" horiz-adv-x="364" 
d="M28 0zM157 832q26 0 43 -4.5t39 -4.5q17 0 24.5 6t7.5 23v70h93v-64q0 -45 -20 -69.5t-58 -32.5q10 -26 10 -64v-561q0 -140 -134 -140t-134 140v561q0 70 34 105t95 35zM187 692q0 31 -25 31t-25 -31v-561q0 -31 25 -31t25 31v561zM95 860l109 161h125l-140 -161h-94z
" />
    <glyph glyph-name="uni1EDB" unicode="&#x1edb;" horiz-adv-x="346" 
d="M28 0zM141 629q26 0 42 -5t38 -5q18 0 25 6t7 23v70h93v-64q0 -48 -22 -73t-65 -30q5 -23 5 -46v-391q0 -60 -29 -91.5t-89 -31.5t-89 31.5t-29 91.5v391q0 60 29.5 92t83.5 32zM168 501q0 27 -22 27t-22 -27v-383q0 -27 22 -27t22 27v383zM79 656l109 161h125l-140 -161
h-94z" />
    <glyph glyph-name="uni1EDC" unicode="&#x1edc;" horiz-adv-x="364" 
d="M0 0zM157 832q26 0 43 -4.5t39 -4.5q17 0 24.5 6t7.5 23v70h93v-64q0 -45 -20 -69.5t-58 -32.5q10 -26 10 -64v-561q0 -140 -134 -140t-134 140v561q0 70 34 105t95 35zM187 692q0 31 -25 31t-25 -31v-561q0 -31 25 -31t25 31v561zM135 860l-140 161h125l109 -161h-94z
" />
    <glyph glyph-name="uni1EDD" unicode="&#x1edd;" horiz-adv-x="346" 
d="M0 0zM141 629q26 0 42 -5t38 -5q18 0 25 6t7 23v70h93v-64q0 -48 -22 -73t-65 -30q5 -23 5 -46v-391q0 -60 -29 -91.5t-89 -31.5t-89 31.5t-29 91.5v391q0 60 29.5 92t83.5 32zM168 501q0 27 -22 27t-22 -27v-383q0 -27 22 -27t22 27v383zM120 656l-140 161h125l109 -161
h-94z" />
    <glyph glyph-name="uni1EDE" unicode="&#x1ede;" horiz-adv-x="364" 
d="M28 0zM157 832q26 0 43 -4.5t39 -4.5q17 0 24.5 6t7.5 23v70h93v-64q0 -45 -20 -69.5t-58 -32.5q10 -26 10 -64v-561q0 -140 -134 -140t-134 140v561q0 70 34 105t95 35zM187 692q0 31 -25 31t-25 -31v-561q0 -31 25 -31t25 31v561zM131 865v12q0 25 8.5 37t19.5 20
q12 9 19 13.5t7 19.5v5q0 9 -12 9q-14 0 -14 -9v-11h-68v14q0 46 81 46q83 0 83 -46v-9q0 -23 -7 -32.5t-26 -21.5q-20 -13 -23.5 -18t-3.5 -17v-12h-64z" />
    <glyph glyph-name="uni1EDF" unicode="&#x1edf;" horiz-adv-x="346" 
d="M28 0zM141 629q26 0 42 -5t38 -5q18 0 25 6t7 23v70h93v-64q0 -48 -22 -73t-65 -30q5 -23 5 -46v-391q0 -60 -29 -91.5t-89 -31.5t-89 31.5t-29 91.5v391q0 60 29.5 92t83.5 32zM168 501q0 27 -22 27t-22 -27v-383q0 -27 22 -27t22 27v383zM112 661v12q0 25 8.5 37
t19.5 20q12 9 19 13.5t7 19.5v5q0 9 -12 9q-14 0 -14 -9v-11h-68v14q0 46 81 46q83 0 83 -46v-9q0 -23 -7 -32.5t-26 -21.5q-20 -13 -23.5 -18t-3.5 -17v-12h-64z" />
    <glyph glyph-name="uni1EE0" unicode="&#x1ee0;" horiz-adv-x="364" 
d="M25 0zM157 832q26 0 43 -4.5t39 -4.5q17 0 24.5 6t7.5 23v70h93v-64q0 -45 -20 -69.5t-58 -32.5q10 -26 10 -64v-561q0 -140 -134 -140t-134 140v561q0 70 34 105t95 35zM187 692q0 31 -25 31t-25 -31v-561q0 -31 25 -31t25 31v561zM273 936q-24 -24 -63 -24
q-18 0 -34.5 5t-31.5 10.5t-30.5 10.5t-31.5 5q-34 0 -55 -27h-2v81q8 9 24 16.5t39 7.5q18 0 34 -4.5t31 -10t30.5 -10t32.5 -4.5q20 0 32.5 5t22.5 21h2v-82z" />
    <glyph glyph-name="uni1EE1" unicode="&#x1ee1;" horiz-adv-x="346" 
d="M19 0zM141 629q26 0 42 -5t38 -5q18 0 25 6t7 23v70h93v-64q0 -48 -22 -73t-65 -30q5 -23 5 -46v-391q0 -60 -29 -91.5t-89 -31.5t-89 31.5t-29 91.5v391q0 60 29.5 92t83.5 32zM168 501q0 27 -22 27t-22 -27v-383q0 -27 22 -27t22 27v383zM267 732q-24 -24 -63 -24
q-18 0 -34.5 5t-31.5 10.5t-30.5 10.5t-31.5 5q-34 0 -55 -27h-2v81q8 9 24 16.5t39 7.5q18 0 34 -4.5t31 -10t30.5 -10t32.5 -4.5q20 0 32.5 5t22.5 21h2v-82z" />
    <glyph glyph-name="uni1EE2" unicode="&#x1ee2;" horiz-adv-x="364" 
d="M28 0zM157 832q26 0 43 -4.5t39 -4.5q17 0 24.5 6t7.5 23v70h93v-64q0 -45 -20 -69.5t-58 -32.5q10 -26 10 -64v-561q0 -140 -134 -140t-134 140v561q0 70 34 105t95 35zM187 692q0 31 -25 31t-25 -31v-561q0 -31 25 -31t25 31v561zM113 -149v102h98v-102h-98z" />
    <glyph glyph-name="uni1EE3" unicode="&#x1ee3;" horiz-adv-x="346" 
d="M28 0zM141 629q26 0 42 -5t38 -5q18 0 25 6t7 23v70h93v-64q0 -48 -22 -73t-65 -30q5 -23 5 -46v-391q0 -60 -29 -91.5t-89 -31.5t-89 31.5t-29 91.5v391q0 60 29.5 92t83.5 32zM168 501q0 27 -22 27t-22 -27v-383q0 -27 22 -27t22 27v383zM96 -149v102h98v-102h-98z" />
    <glyph glyph-name="uni1EE4" unicode="&#x1ee4;" horiz-adv-x="329" 
d="M31 0zM190 823h108v-692q0 -140 -133 -140q-134 0 -134 140v692h109v-692q0 -31 25 -31t25 31v692zM115 -149v102h98v-102h-98z" />
    <glyph glyph-name="uni1EE5" unicode="&#x1ee5;" horiz-adv-x="302" 
d="M31 0zM185 0q-3 15 -3 33q-14 -20 -32.5 -29t-41.5 -9q-36 0 -56.5 28t-20.5 76v520h98v-504q0 -24 19 -24q13 0 22 10v518h98v-619h-83zM102 -149v102h98v-102h-98z" />
    <glyph glyph-name="uni1EE6" unicode="&#x1ee6;" horiz-adv-x="329" 
d="M31 0zM190 823h108v-692q0 -140 -133 -140q-134 0 -134 140v692h109v-692q0 -31 25 -31t25 31v692zM132 865v12q0 25 8.5 37t19.5 20q12 9 19 13.5t7 19.5v5q0 9 -12 9q-14 0 -14 -9v-11h-68v14q0 46 81 46q83 0 83 -46v-9q0 -23 -7 -32.5t-26 -21.5q-20 -13 -23.5 -18
t-3.5 -17v-12h-64z" />
    <glyph glyph-name="uni1EE7" unicode="&#x1ee7;" horiz-adv-x="302" 
d="M31 0zM185 0q-3 15 -3 33q-14 -20 -32.5 -29t-41.5 -9q-36 0 -56.5 28t-20.5 76v520h98v-504q0 -24 19 -24q13 0 22 10v518h98v-619h-83zM119 661v12q0 25 8.5 37t19.5 20q12 9 19 13.5t7 19.5v5q0 9 -12 9q-14 0 -14 -9v-11h-68v14q0 46 81 46q83 0 83 -46v-9
q0 -23 -7 -32.5t-26 -21.5q-20 -13 -23.5 -18t-3.5 -17v-12h-64z" />
    <glyph glyph-name="uni1EE8" unicode="&#x1ee8;" horiz-adv-x="421" 
d="M31 0zM190 823h108q17 0 23.5 6.5t6.5 22.5v70h93v-64q0 -56 -30 -80.5t-93 -24.5v-622q0 -140 -133 -140q-134 0 -134 140v692h109v-692q0 -31 25 -31t25 31v692zM100 860l109 161h125l-140 -161h-94z" />
    <glyph glyph-name="uni1EE9" unicode="&#x1ee9;" horiz-adv-x="391" 
d="M31 0zM185 0q-3 15 -3 33q-14 -20 -32.5 -29t-38.5 -9q-39 0 -59.5 28t-20.5 76v520h98v-504q0 -24 19 -24q13 0 22 10v518h98q17 0 23.5 6.5t6.5 22.5v70h93v-64q0 -56 -30 -80.5t-93 -24.5v-549h-83zM84 656l109 161h125l-140 -161h-94z" />
    <glyph glyph-name="uni1EEA" unicode="&#x1eea;" horiz-adv-x="421" 
d="M0 0zM190 823h108q17 0 23.5 6.5t6.5 22.5v70h93v-64q0 -56 -30 -80.5t-93 -24.5v-622q0 -140 -133 -140q-134 0 -134 140v692h109v-692q0 -31 25 -31t25 31v692zM140 860l-140 161h125l109 -161h-94z" />
    <glyph glyph-name="uni1EEB" unicode="&#x1eeb;" horiz-adv-x="391" 
d="M0 0zM185 0q-3 15 -3 33q-14 -20 -32.5 -29t-38.5 -9q-39 0 -59.5 28t-20.5 76v520h98v-504q0 -24 19 -24q13 0 22 10v518h98q17 0 23.5 6.5t6.5 22.5v70h93v-64q0 -56 -30 -80.5t-93 -24.5v-549h-83zM124 656l-140 161h125l109 -161h-94z" />
    <glyph glyph-name="uni1EEC" unicode="&#x1eec;" horiz-adv-x="421" 
d="M31 0zM190 823h108q17 0 23.5 6.5t6.5 22.5v70h93v-64q0 -56 -30 -80.5t-93 -24.5v-622q0 -140 -133 -140q-134 0 -134 140v692h109v-692q0 -31 25 -31t25 31v692zM133 865v12q0 25 8.5 37t19.5 20q12 9 19 13.5t7 19.5v5q0 9 -12 9q-14 0 -14 -9v-11h-68v14q0 46 81 46
q83 0 83 -46v-9q0 -23 -7 -32.5t-26 -21.5q-20 -13 -23.5 -18t-3.5 -17v-12h-64z" />
    <glyph glyph-name="uni1EED" unicode="&#x1eed;" horiz-adv-x="391" 
d="M31 0zM185 0q-3 15 -3 33q-14 -20 -32.5 -29t-38.5 -9q-39 0 -59.5 28t-20.5 76v520h98v-504q0 -24 19 -24q13 0 22 10v518h98q17 0 23.5 6.5t6.5 22.5v70h93v-64q0 -56 -30 -80.5t-93 -24.5v-549h-83zM118 661v12q0 25 8.5 37t19.5 20q12 9 19 13.5t7 19.5v5q0 9 -12 9
q-14 0 -14 -9v-11h-68v14q0 46 81 46q83 0 83 -46v-9q0 -23 -7 -32.5t-26 -21.5q-20 -13 -23.5 -18t-3.5 -17v-12h-64z" />
    <glyph glyph-name="uni1EEE" unicode="&#x1eee;" horiz-adv-x="421" 
d="M31 0zM190 823h108q17 0 23.5 6.5t6.5 22.5v70h93v-64q0 -56 -30 -80.5t-93 -24.5v-622q0 -140 -133 -140q-134 0 -134 140v692h109v-692q0 -31 25 -31t25 31v692zM290 906q-24 -24 -63 -24q-18 0 -34.5 5t-31.5 10.5t-30.5 10.5t-31.5 5q-34 0 -55 -27h-2v81
q8 9 24 16.5t39 7.5q18 0 34 -4.5t31 -10t30.5 -10t32.5 -4.5q20 0 32.5 5t22.5 21h2v-82z" />
    <glyph glyph-name="uni1EEF" unicode="&#x1eef;" horiz-adv-x="391" 
d="M27 0zM185 0q-3 15 -3 33q-14 -20 -32.5 -29t-38.5 -9q-39 0 -59.5 28t-20.5 76v520h98v-504q0 -24 19 -24q13 0 22 10v518h98q17 0 23.5 6.5t6.5 22.5v70h93v-64q0 -56 -30 -80.5t-93 -24.5v-549h-83zM275 702q-24 -24 -63 -24q-18 0 -34.5 5t-31.5 10.5t-30.5 10.5
t-31.5 5q-34 0 -55 -27h-2v81q8 9 24 16.5t39 7.5q18 0 34 -4.5t31 -10t30.5 -10t32.5 -4.5q20 0 32.5 5t22.5 21h2v-82z" />
    <glyph glyph-name="uni1EF0" unicode="&#x1ef0;" horiz-adv-x="421" 
d="M31 0zM190 823h108q17 0 23.5 6.5t6.5 22.5v70h93v-64q0 -56 -30 -80.5t-93 -24.5v-622q0 -140 -133 -140q-134 0 -134 140v692h109v-692q0 -31 25 -31t25 31v692zM118 -149v102h98v-102h-98z" />
    <glyph glyph-name="uni1EF1" unicode="&#x1ef1;" horiz-adv-x="391" 
d="M31 0zM185 0q-3 15 -3 33q-14 -20 -32.5 -29t-38.5 -9q-39 0 -59.5 28t-20.5 76v520h98v-504q0 -24 19 -24q13 0 22 10v518h98q17 0 23.5 6.5t6.5 22.5v70h93v-64q0 -56 -30 -80.5t-93 -24.5v-549h-83zM102 -149v102h98v-102h-98z" />
    <glyph glyph-name="Ygrave" unicode="&#x1ef2;" horiz-adv-x="336" 
d="M1 0zM111 0v351l-105 472h115q13 -76 21.5 -126.5t13.5 -85t8.5 -57t6.5 -43.5q3 21 6.5 43.5t9 57t14.5 85t23 126.5h106l-109 -472v-351h-110zM141 860l-140 161h125l109 -161h-94z" />
    <glyph glyph-name="ygrave" unicode="&#x1ef3;" horiz-adv-x="279" 
d="M0 0zM17 -43q8 -2 15.5 -2.5t18.5 -0.5q21 0 29 19t11 52l-83 594h102q7 -87 12 -148.5t9 -105.5t6 -76t3 -60q1 28 3.5 59.5t7 76t11 105.5t15.5 149h93l-81 -606q-5 -38 -13.5 -67.5t-23.5 -49.5t-38.5 -30t-58.5 -10q-9 0 -19.5 1t-18.5 3v97zM113 656l-140 161h125
l109 -161h-94z" />
    <glyph glyph-name="uni1EF6" unicode="&#x1ef6;" horiz-adv-x="336" 
d="M6 0zM111 0v351l-105 472h115q13 -76 21.5 -126.5t13.5 -85t8.5 -57t6.5 -43.5q3 21 6.5 43.5t9 57t14.5 85t23 126.5h106l-109 -472v-351h-110zM136 865v12q0 25 8.5 37t19.5 20q12 9 19 13.5t7 19.5v5q0 9 -12 9q-14 0 -14 -9v-11h-68v14q0 46 81 46q83 0 83 -46v-9
q0 -23 -7 -32.5t-26 -21.5q-20 -13 -23.5 -18t-3.5 -17v-12h-64z" />
    <glyph glyph-name="uni1EF7" unicode="&#x1ef7;" horiz-adv-x="279" 
d="M8 0zM17 -43q8 -2 15.5 -2.5t18.5 -0.5q21 0 29 19t11 52l-83 594h102q7 -87 12 -148.5t9 -105.5t6 -76t3 -60q1 28 3.5 59.5t7 76t11 105.5t15.5 149h93l-81 -606q-5 -38 -13.5 -67.5t-23.5 -49.5t-38.5 -30t-58.5 -10q-9 0 -19.5 1t-18.5 3v97zM107 661v12q0 25 8.5 37
t19.5 20q12 9 19 13.5t7 19.5v5q0 9 -12 9q-14 0 -14 -9v-11h-68v14q0 46 81 46q83 0 83 -46v-9q0 -23 -7 -32.5t-26 -21.5q-20 -13 -23.5 -18t-3.5 -17v-12h-64z" />
    <glyph glyph-name="endash" unicode="&#x2013;" horiz-adv-x="281" 
d="M10 373v83h262v-83h-262z" />
    <glyph glyph-name="emdash" unicode="&#x2014;" horiz-adv-x="446" 
d="M10 373v83h428v-83h-428z" />
    <glyph glyph-name="quoteleft" unicode="&#x2018;" horiz-adv-x="157" 
d="M28 645v114q0 29 18 51t58 22h13v-43h-13q-12 0 -16.5 -5t-4.5 -18v-18h46v-103h-101z" />
    <glyph glyph-name="quoteright" unicode="&#x2019;" horiz-adv-x="157" 
d="M40 636v43h13q12 0 16.5 5.5t4.5 17.5v18h-46v103h101v-113q0 -29 -17 -51.5t-59 -22.5h-13z" />
    <glyph glyph-name="quotesinglbase" unicode="&#x201a;" horiz-adv-x="168" 
d="M46 -62v43h13q12 0 16.5 5.5t4.5 18.5v17h-46v103h101v-113q0 -29 -18 -51.5t-58 -22.5h-13z" />
    <glyph glyph-name="quotedblleft" unicode="&#x201c;" horiz-adv-x="314" 
d="M28 645zM28 645v114q0 29 18 51t58 22h13v-43h-13q-12 0 -16.5 -5t-4.5 -18v-18h46v-103h-101zM185 645v114q0 29 18 51t58 22h13v-43h-13q-12 0 -16.5 -5t-4.5 -18v-18h46v-103h-101z" />
    <glyph glyph-name="quotedblright" unicode="&#x201d;" horiz-adv-x="314" 
d="M28 636zM40 636v43h13q12 0 16.5 5.5t4.5 17.5v18h-46v103h101v-113q0 -29 -17 -51.5t-59 -22.5h-13zM197 636v43h13q12 0 16.5 5.5t4.5 17.5v18h-46v103h101v-113q0 -29 -17 -51.5t-59 -22.5h-13z" />
    <glyph glyph-name="quotedblbase" unicode="&#x201e;" horiz-adv-x="325" 
d="M34 0zM46 -62v43h13q12 0 16.5 5.5t4.5 18.5v17h-46v103h101v-113q0 -29 -18 -51.5t-58 -22.5h-13zM203 -62v43h13q12 0 16.5 5.5t4.5 18.5v17h-46v103h101v-113q0 -29 -18 -51.5t-58 -22.5h-13z" />
    <glyph glyph-name="dagger" unicode="&#x2020;" horiz-adv-x="407" 
d="M166 195l10 408l-148 -8v77l145 -9l-9 160h78l-9 -160l146 10v-78l-148 8l9 -408h-74z" />
    <glyph glyph-name="daggerdbl" unicode="&#x2021;" horiz-adv-x="407" 
d="M164 0l9 160l-145 -8v76l148 -8l-18 192l18 191l-148 -8v77l145 -9l-9 160h78l-9 -160l146 10v-78l-148 8l18 -191l-18 -192l148 8v-78l-146 10l9 -160h-78z" />
    <glyph glyph-name="bullet" unicode="&#x2022;" horiz-adv-x="211" 
d="M106 380q-37 0 -57.5 26t-20.5 64t20.5 64t57.5 26q36 0 56.5 -26t20.5 -64t-20.5 -64t-56.5 -26z" />
    <glyph glyph-name="ellipsis" unicode="&#x2026;" horiz-adv-x="471" 
d="M28 0v125h101v-125h-101zM185 0v125h101v-125h-101zM342 0v125h101v-125h-101z" />
    <glyph glyph-name="perthousand" unicode="&#x2030;" horiz-adv-x="615" 
d="M28 0zM61 768q0 34 16.5 52t52.5 18q68 0 68 -70v-281q0 -70 -68 -70q-36 0 -52.5 18t-16.5 52v281zM144 769q0 15 -14 15q-15 0 -15 -15v-283q0 -15 15 -15q14 0 14 15v283zM28 0l367 823h61l-366 -823h-62zM285 336q0 34 16.5 52t52.5 18q68 0 68 -70v-281
q0 -70 -68 -70q-36 0 -52.5 18t-16.5 52v281zM368 337q0 15 -14 15q-15 0 -15 -15v-283q0 -15 15 -15q14 0 14 15v283zM450 336q0 34 16.5 52t52.5 18q68 0 68 -70v-281q0 -70 -68 -70q-36 0 -52.5 18t-16.5 52v281zM533 337q0 15 -14 15q-15 0 -15 -15v-283q0 -15 15 -15
q14 0 14 15v283z" />
    <glyph glyph-name="guilsinglleft" unicode="&#x2039;" horiz-adv-x="194" 
d="M16 276v115l162 100v-91l-110 -66l110 -70v-95z" />
    <glyph glyph-name="guilsinglright" unicode="&#x203a;" horiz-adv-x="194" 
d="M16 169v95l110 70l-110 66v91l162 -100v-115z" />
    <glyph glyph-name="fraction" unicode="&#x2044;" horiz-adv-x="169" 
d="M-129 0l367 823h61l-366 -823h-62z" />
    <glyph glyph-name="zerosuperior" unicode="&#x2070;" horiz-adv-x="195" 
d="M29 417zM29 768q0 34 16.5 52t52.5 18q68 0 68 -70v-281q0 -70 -68 -70q-36 0 -52.5 18t-16.5 52v281zM112 769q0 15 -14 15q-15 0 -15 -15v-283q0 -15 15 -15q14 0 14 15v283z" />
    <glyph glyph-name="foursuperior" unicode="&#x2074;" horiz-adv-x="191" 
d="M18 422zM102 553q0 31 0.5 53.5t1 39t1 28.5t0.5 21q-2 -9 -4.5 -20.5t-7 -28t-11 -39t-16.5 -54.5h36zM102 422v79h-84v47l84 285h50v-280h20v-52h-20v-79h-50z" />
    <glyph glyph-name="fivesuperior" unicode="&#x2075;" horiz-adv-x="189" 
d="M29 417zM108 621q0 14 -14 14q-16 0 -19 -20l-46 2l5 216h124v-54h-75l-4 -109q13 13 36 13q21 0 33.5 -14.5t12.5 -49.5v-133q0 -69 -65 -69q-67 0 -67 69v87h54v-86q0 -15 12 -15q13 0 13 15v134z" />
    <glyph glyph-name="sixsuperior" unicode="&#x2076;" horiz-adv-x="191" 
d="M29 417zM108 613q0 15 -12 15q-6 0 -8.5 -2.5t-4.5 -6.5v-132q0 -15 13 -15q12 0 12 15v126zM163 487q0 -32 -17 -51t-50 -19q-34 0 -50.5 19t-16.5 51v281q0 32 16.5 51t50.5 19q33 0 48.5 -19t15.5 -51v-71h-52v71q0 15 -12 15q-13 0 -13 -15v-100q5 4 12 8t20 4
q25 0 36.5 -14.5t11.5 -48.5v-130z" />
    <glyph glyph-name="sevensuperior" unicode="&#x2077;" horiz-adv-x="175" 
d="M20 422zM42 422q0 87 9 153t20 110.5t21 68t12 25.5h-84v54h135v-50q-33 -75 -45.5 -165t-13.5 -196h-54z" />
    <glyph glyph-name="eightsuperior" unicode="&#x2078;" horiz-adv-x="188" 
d="M27 417zM160 487q0 -70 -66 -70q-67 0 -67 70v100q0 18 7 30.5t18 17.5q-10 7 -15 17t-5 27v89q0 32 14 51t48 19q33 0 47.5 -19t14.5 -51v-89q0 -17 -5.5 -27t-15.5 -17q11 -5 18 -17.5t7 -30.5v-100zM106 591q0 6 -3 10.5t-9 4.5q-7 0 -10 -4.5t-3 -10.5v-104
q0 -15 13 -15q12 0 12 15v104zM106 768q0 15 -12 15q-13 0 -13 -15v-96q0 -15 13 -15q12 0 12 15v96z" />
    <glyph glyph-name="ninesuperior" unicode="&#x2079;" horiz-adv-x="190" 
d="M28 417zM106 768q0 15 -12 15t-12 -15v-116q0 -16 12 -16q6 0 8.5 3t3.5 6v123zM106 593q-5 -4 -12 -8t-19 -4q-25 0 -36 14.5t-11 49.5v123q0 32 16.5 51t49.5 19q34 0 50.5 -19t16.5 -51v-281q0 -32 -16.5 -51t-50.5 -19q-31 0 -48.5 19t-17.5 51v71h54v-71
q0 -15 12 -15t12 15v106z" />
    <glyph glyph-name="zeroinferior" unicode="&#x2080;" horiz-adv-x="195" 
d="M29 336q0 34 16.5 52t52.5 18q68 0 68 -70v-281q0 -70 -68 -70q-36 0 -52.5 18t-16.5 52v281zM112 337q0 15 -14 15q-15 0 -15 -15v-283q0 -15 15 -15q14 0 14 15v283z" />
    <glyph glyph-name="oneinferior" unicode="&#x2081;" horiz-adv-x="132" 
d="M45 -10v328h-23v53h10q18 0 18 20v10h49v-411h-54z" />
    <glyph glyph-name="twoinferior" unicode="&#x2082;" horiz-adv-x="186" 
d="M27 -10v75q0 18 1.5 32.5t6 28t12 28t20.5 33.5q20 30 29 53t9 52v44q0 15 -12 15t-12 -15v-73h-54v72q0 38 16 54.5t50 16.5q67 0 67 -71v-50q0 -54 -41 -116q-13 -20 -20.5 -34t-11.5 -25.5t-5 -22t-1 -22.5v-21h79v-54h-133z" />
    <glyph glyph-name="threeinferior" unicode="&#x2083;" horiz-adv-x="186" 
d="M106 158q0 16 -13 16h-21v51h24q10 0 10 16v95q0 15 -13 15q-12 0 -12 -15v-74h-53v73q0 38 15.5 54.5t49.5 16.5t49.5 -17t15.5 -55v-93q0 -29 -24 -42q25 -9 25 -43v-101q0 -32 -16 -51t-50 -19q-33 0 -50 19t-17 51v81h55v-81q0 -15 12 -15q13 0 13 15v103z" />
    <glyph glyph-name="fourinferior" unicode="&#x2084;" horiz-adv-x="191" 
d="M102 121q0 31 0.5 53.5t1 39t1 28.5t0.5 21q-2 -9 -4.5 -20.5t-7 -28t-11 -39t-16.5 -54.5h36zM102 -10v79h-84v47l84 285h50v-280h20v-52h-20v-79h-50z" />
    <glyph glyph-name="fiveinferior" unicode="&#x2085;" horiz-adv-x="189" 
d="M108 189q0 14 -14 14q-16 0 -19 -20l-46 2l5 216h124v-54h-75l-4 -109q13 13 36 13q21 0 33.5 -14.5t12.5 -49.5v-133q0 -69 -65 -69q-67 0 -67 69v87h54v-86q0 -15 12 -15q13 0 13 15v134z" />
    <glyph glyph-name="sixinferior" unicode="&#x2086;" horiz-adv-x="191" 
d="M108 181q0 15 -12 15q-6 0 -8.5 -2.5t-4.5 -6.5v-132q0 -15 13 -15q12 0 12 15v126zM163 55q0 -32 -17 -51t-50 -19q-34 0 -50.5 19t-16.5 51v281q0 32 16.5 51t50.5 19q33 0 48.5 -19t15.5 -51v-71h-52v71q0 15 -12 15q-13 0 -13 -15v-100q5 4 12 8t20 4
q25 0 36.5 -14.5t11.5 -48.5v-130z" />
    <glyph glyph-name="seveninferior" unicode="&#x2087;" horiz-adv-x="175" 
d="M42 -10q0 87 9 153t20 110.5t21 68t12 25.5h-84v54h135v-50q-33 -75 -45.5 -165t-13.5 -196h-54z" />
    <glyph glyph-name="eightinferior" unicode="&#x2088;" horiz-adv-x="188" 
d="M160 55q0 -70 -66 -70q-67 0 -67 70v100q0 18 7 30.5t18 17.5q-10 7 -15 17t-5 27v89q0 32 14 51t48 19q33 0 47.5 -19t14.5 -51v-89q0 -17 -5.5 -27t-15.5 -17q11 -5 18 -17.5t7 -30.5v-100zM106 159q0 6 -3 10.5t-9 4.5q-7 0 -10 -4.5t-3 -10.5v-104q0 -15 13 -15
q12 0 12 15v104zM106 336q0 15 -12 15q-13 0 -13 -15v-96q0 -15 13 -15q12 0 12 15v96z" />
    <glyph glyph-name="nineinferior" unicode="&#x2089;" horiz-adv-x="190" 
d="M106 336q0 15 -12 15t-12 -15v-116q0 -16 12 -16q6 0 8.5 3t3.5 6v123zM106 161q-5 -4 -12 -8t-19 -4q-25 0 -36 14.5t-11 49.5v123q0 32 16.5 51t49.5 19q34 0 50.5 -19t16.5 -51v-281q0 -32 -16.5 -51t-50.5 -19q-31 0 -48.5 19t-17.5 51v71h54v-71q0 -15 12 -15t12 15
v106z" />
    <glyph glyph-name="uni20A9" unicode="&#x20a9;" horiz-adv-x="537" 
d="M310 0l-33 427h-17l-36 -427h-114l-37 427h-64v83h57l-9 97h-48v83h41l-11 133h103l8 -133h67l12 133h87l10 -133h68l10 133h102l-13 -133h35v-83h-44l-10 -97h54v-83h-62l-43 -427h-113zM340 510h40l8 97h-55zM161 510h39l9 97h-54zM361 249l13 178h-27zM177 249l16 178
h-27z" />
    <glyph glyph-name="uni20AA" unicode="&#x20aa;" horiz-adv-x="545" 
d="M122 703v-703h-88v823h229q60 0 89 -31t29 -98v-500h-88v485q0 12 -6.5 18t-23.5 6h-141zM423 120v703h88v-823h-229q-60 0 -89 31t-29 98v500h88v-485q0 -12 6.5 -18t23.5 -6h141z" />
    <glyph glyph-name="dong" unicode="&#x20ab;" horiz-adv-x="305" 
d="M188 108q-3 15 -3 34q-9 -20 -24.5 -29.5t-46.5 -9.5q-39 0 -62.5 30t-23.5 87v295q0 60 22.5 87t67.5 27q34 0 55 -18v77h-111v84h111v51h98v-51h34v-84h-34v-580h-83zM15 0v72h273v-72h-273zM173 516q-7 13 -23 13q-24 0 -24 -24v-271q0 -26 24 -26q15 0 23 14v294z
" />
    <glyph glyph-name="Euro" unicode="&#x20ac;" horiz-adv-x="347" 
d="M330 131q0 -69 -32.5 -104.5t-104.5 -35.5t-105 35.5t-33 104.5v154h-48l12 82h36v105h-48l12 82h36v118q0 40 9 70.5t29.5 50t55 29.5t85.5 10q31 0 57.5 -1.5t48.5 -3.5l-17 -108q-20 3 -42.5 4.5t-42.5 1.5q-24 0 -39 -3t-22.5 -9.5t-10 -16.5t-2.5 -24v-118h132
l-13 -82h-119v-105h103l-14 -82h-89v-156q0 -31 29 -31q30 0 30 31v79h107v-77z" />
    <glyph glyph-name="uni20AD" unicode="&#x20ad;" horiz-adv-x="388" 
d="M241 0l-76 392v-392h-99v396h-54v83h54v344h99v-344l75 344h105l-93 -344h113v-83h-105l94 -396h-113z" />
    <glyph glyph-name="uni20AE" unicode="&#x20ae;" 
d="M198 399v-64l37 22l42 -72l-79 -46v-239h-109v176l-40 -23l-41 71l81 47v65l-40 -23l-41 71l81 47v283h-80v109h268v-109h-79v-219l37 22l42 -72z" />
    <glyph glyph-name="uni20B1" unicode="&#x20b1;" horiz-adv-x="397" 
d="M336 480q-2 -74 -36.5 -106.5t-107.5 -32.5h-16v-341h-109v480h-56v72h56v54h-56v72h56v145h124q74 0 109 -34.5t36 -110.5h48v-72h-48v-54h48v-72h-48zM176 552h53v54h-53v-54zM176 678h53v1q0 39 -38 39h-15v-40zM192 443q36 0 37 37h-53v-37h16z" />
    <glyph glyph-name="uni20B2" unicode="&#x20b2;" horiz-adv-x="325" 
d="M27 -50l20 94q-9 16 -14 37t-5 50v560q0 69 33 105t100 36q17 0 29 -2t23 -5l8 35h79l-20 -94q12 -32 12 -75v-145h-59l-32 -150h97v-401h-11l-35 33q-16 -21 -42.5 -29t-55.5 -8q-22 0 -39 4l-9 -45h-79zM137 466l52 246q-8 11 -26 11q-26 0 -26 -31v-226zM179 292
l-39 -180q6 -12 23 -12q30 0 30 31v161h-14z" />
    <glyph glyph-name="uni20B4" unicode="&#x20b4;" horiz-adv-x="345" 
d="M31 341v68h68l23 32h-91v68h143q13 19 18 33t5 33v122q0 26 -26 26t-26 -26v-151h-100v151q0 69 29 102t98 33q135 0 135 -135v-123q0 -35 -9 -65h19v-68h-51l-22 -32h73v-68h-125q-13 -17 -21 -30t-12.5 -23.5t-6.5 -21t-2 -22.5v-117q0 -27 27 -27q26 0 26 27v175h104
v-175q0 -66 -32 -101t-101 -35q-70 0 -101 35t-31 101v118q0 28 3.5 50.5t13.5 45.5h-28z" />
    <glyph glyph-name="uni20B8" unicode="&#x20b8;" horiz-adv-x="245" 
d="M75 0v572h-55v100h208v-100h-55v-572h-98zM20 724v99h208v-99h-208z" />
    <glyph glyph-name="uni20B9" unicode="&#x20b9;" horiz-adv-x="333" 
d="M319 823v-82h-55q9 -29 9 -67v-18h46v-82h-46v-35q0 -67 -27 -102t-81 -43l153 -394h-119l-144 391v92h74q37 0 37 45v46h-153v82h153v39q0 46 -35 46h-118v82h306z" />
    <glyph glyph-name="uni20BA" unicode="&#x20ba;" horiz-adv-x="361" 
d="M188 469v-64l54 32l42 -72l-96 -56v-200h24q26 0 26 31v97h99v-97q0 -140 -134 -140h-124v246l-23 -13l-41 71l64 37v65l-23 -13l-41 71l64 37v322h109v-258l54 32l42 -72z" />
    <glyph glyph-name="uni20BC" unicode="&#x20bc;" horiz-adv-x="421" 
d="M395 0h-95v471q0 21 -8 31.5t-31 15.5v-418h-101v418q-23 -5 -31 -15.5t-8 -31.5v-471h-95v463q0 37 4.5 65t18.5 47.5t39.5 31t68.5 15.5v201h107v-201q43 -4 68.5 -15.5t39.5 -31t18.5 -47.5t4.5 -65v-463z" />
    <glyph glyph-name="uni20BD" unicode="&#x20bd;" horiz-adv-x="349" 
d="M55 0v124h-42v83h42v116h-42v83h42v417h125q75 0 110 -33.5t35 -107.5v-219q0 -74 -34.5 -107t-109.5 -33h-17v-116h104v-83h-104v-124h-109zM218 690q0 39 -38 39h-16v-323h17q37 0 37 38v246z" />
    <glyph glyph-name="uni20BE" unicode="&#x20be;" horiz-adv-x="412" 
d="M153 490v228q-16 -4 -20 -11.5t-4 -20.5v-393q0 -34 11.5 -63t29 -52.5t38.5 -42t41 -31.5v-104h-229v109h114q-22 16 -41.5 34t-34.5 40.5t-23.5 49.5t-8.5 60v392q0 33 6 58.5t20 43t38.5 28t62.5 14.5v78h44v-75h27v75h44v-78q72 -9 99 -43.5t27 -100.5v-85h-101v86
q0 13 -4.5 20.5t-20.5 11.5v-228h-44v233h-27v-233h-44z" />
    <glyph glyph-name="litre" unicode="&#x2113;" horiz-adv-x="333" 
d="M180 860q57 0 82 -31t25 -92v-263q0 -51 -7 -90.5t-22.5 -70.5t-39.5 -54.5t-57 -42.5v-95q0 -14 14 -23t46 -9q13 0 36.5 3.5t52.5 17.5v-93q-19 -13 -53.5 -19.5t-66.5 -6.5q-68 0 -96.5 31.5t-28.5 96.5v56l-31 -9l-20 77q14 4 26.5 7.5t24.5 7.5v479q0 60 29 91.5
t86 31.5zM161 308q26 25 35 63t9 101v269q0 27 -22 27t-22 -27v-433z" />
    <glyph glyph-name="uni2116" unicode="&#x2116;" horiz-adv-x="614" 
d="M32 0zM221 0q-25 119 -41.5 200t-28 137t-18.5 94t-13 73q2 -73 2.5 -145t0.5 -147v-212h-91v823h125q21 -130 34.5 -215t22 -141t13.5 -91.5t10 -67.5q-2 66 -2.5 130t-0.5 128v257h91v-823h-104zM374.999 719.456q0 108.877 103.998 108.877
q103.999 0 103.999 -108.877v-344.244q0 -108.877 -103.999 -108.877q-103.998 0 -103.998 108.877v344.244zM498.197 716.254q0 22.416 -19.2002 22.416q-19.1992 0 -19.1992 -22.416v-337.84q0 -24.0166 19.1992 -24.0166q19.2002 0 19.2002 24.0166v337.84z" />
    <glyph glyph-name="uni2117" unicode="&#x2117;" horiz-adv-x="526" 
d="M498 221q0 -62 -14 -106t-43 -71.5t-73 -40t-105 -12.5t-105 12.5t-73 40t-43 71.5t-14 106v381q0 62 14 106t43 71.5t73 40t105 12.5q121 0 178 -53t57 -177v-381zM425 611q0 43 -8 72.5t-27 47t-50 25t-77 7.5q-47 0 -78 -7.5t-49.5 -25t-26.5 -47t-8 -72.5v-399
q0 -41 8 -69.5t27 -46.5t50 -26.5t77 -8.5t77 8.5t50 26.5t27 46.5t8 69.5v399zM287 582q0 24 -23 24h-15v-136h16q22 0 22 24v88zM180 157v518h84q91 0 91 -93v-86q0 -49 -22.5 -71t-67.5 -22h-16v-246h-69z" />
    <glyph glyph-name="trademark" unicode="&#x2122;" horiz-adv-x="492" 
d="M72 443v330h-48v50h162v-50h-48v-330h-66zM398 443v107q0 34 1 67t3 67q-2 -17 -4.5 -35t-6 -45t-9.5 -65.5t-15 -95.5h-56q-8 57 -13.5 95.5t-9.5 65.5t-6.5 45t-4.5 35q2 -34 3 -67.5t1 -66.5v-107h-60v380h87l31 -265q1 11 2 25t4 42t9 74.5t16 123.5h88v-380h-60z
" />
    <glyph glyph-name="onethird" unicode="&#x2153;" horiz-adv-x="484" 
d="M28 0zM90 422v328h-23v53h10q18 0 18 20v10h49v-411h-54zM28 0l367 823h61l-366 -823h-62zM392 158q0 16 -13 16h-21v51h24q10 0 10 16v95q0 15 -13 15q-12 0 -12 -15v-74h-53v73q0 38 15.5 54.5t49.5 16.5t49.5 -17t15.5 -55v-93q0 -29 -24 -42q25 -9 25 -43v-101
q0 -32 -16 -51t-50 -19q-33 0 -50 19t-17 51v81h55v-81q0 -15 12 -15q13 0 13 15v103z" />
    <glyph glyph-name="twothirds" unicode="&#x2154;" horiz-adv-x="484" 
d="M28 0zM38 422v75q0 18 1.5 32.5t6 28t12 28t20.5 33.5q20 30 29 53t9 52v44q0 15 -12 15t-12 -15v-73h-54v72q0 38 16 54.5t50 16.5q67 0 67 -71v-50q0 -54 -41 -116q-13 -20 -20.5 -34t-11.5 -25.5t-5 -22t-1 -22.5v-21h79v-54h-133zM28 0l367 823h61l-366 -823h-62z
M382 158q0 16 -13 16h-21v51h24q10 0 10 16v95q0 15 -13 15q-12 0 -12 -15v-74h-53v73q0 38 15.5 54.5t49.5 16.5t49.5 -17t15.5 -55v-93q0 -29 -24 -42q25 -9 25 -43v-101q0 -32 -16 -51t-50 -19q-33 0 -50 19t-17 51v81h55v-81q0 -15 12 -15q13 0 13 15v103z" />
    </font>
</defs>
</svg>
