<?xml version="1.0" standalone="no"?>
<!DOCTYPE svg PUBLIC "-//W3C//DTD SVG 1.1//EN" "http://www.w3.org/Graphics/SVG/1.1/DTD/svg11.dtd" >
<svg xmlns="http://www.w3.org/2000/svg" xmlns:xlink="http://www.w3.org/1999/xlink" version="1.1">
<metadata>
Created by FontForge 20170731 at Fri Jan  1 02:30:17 1904
 By Aleksey,,,
</metadata>
<defs>
<font id="Perpetua" horiz-adv-x="225" >
  <font-face 
    font-family="Perpetua"
    font-weight="500"
    font-stretch="normal"
    units-per-em="1000"
    panose-1="0 0 0 0 0 0 0 0 0 0"
    ascent="800"
    descent="-200"
    x-height="353"
    cap-height="573"
    bbox="-152 -303 1006 806"
    underline-thickness="50"
    underline-position="-155"
    unicode-range="U+0020-F002"
  />
<missing-glyph 
 />
    <glyph glyph-name=".notdef" 
 />
    <glyph glyph-name="glyph1" horiz-adv-x="0" 
 />
    <glyph glyph-name="glyph2" 
 />
    <glyph glyph-name="space" unicode=" " 
 />
    <glyph glyph-name="space" unicode="&#xa0;" 
 />
    <glyph glyph-name="exclam" unicode="!" horiz-adv-x="292" 
d="M146 83q20 -1 33.5 -14.5t13.5 -33.5q0 -19 -13.5 -33t-33.5 -14q-19 0 -33.5 14t-14.5 33q0 20 14.5 33.5t33.5 13.5v1zM155 138h-16l-26 358q0 3 -0.5 7t-0.5 9q-1 9 -1.5 19.5t-0.5 21.5q0 23 11 37t28 14q18 0 29.5 -14t11.5 -37q0 -5 -0.5 -11.5t-0.5 -12.5
q-1 -3 -1 -6t-1 -5q0 -7 -1 -13t-1 -10l-30 -357v0z" />
    <glyph glyph-name="quotedbl" unicode="&#x22;" horiz-adv-x="408" 
d="M132 359h-18l-27 158q-1 4 -2 10t-2 13q-1 9 -1.5 17.5t-0.5 13.5q0 20 11.5 33t30.5 13t30.5 -13t11.5 -33q0 -5 -0.5 -13.5t-1.5 -17.5q-1 -7 -2 -13t-2 -11l-27 -157v0zM293 359h-18l-27 158q-1 4 -2 10t-2 13q-1 9 -1.5 17.5t-0.5 13.5q0 20 11.5 33t30.5 13
t30.5 -13t11.5 -33q0 -5 -0.5 -13.5t-1.5 -17.5q-1 -7 -2 -13t-2 -11l-27 -157v0z" />
    <glyph glyph-name="numbersign" unicode="#" horiz-adv-x="668" 
d="M47 464h163l43 203h43l-43 -203h223l43 203h43l-43 -203h102v-43h-111l-43 -198h154v-43h-163l-43 -203h-43l43 203h-223l-43 -203h-43l43 203h-102v43h111l43 198h-154v43v0zM244 421l-43 -198h223l43 198h-223v0z" />
    <glyph glyph-name="dollar" unicode="$" horiz-adv-x="458" 
d="M227 538v-37q28 -2 52 -8.5t47 -20.5q3 -1 6 -3l6 -4l-15 -101h-17q0 1 0.5 3t0.5 5v4v4q0 42 -21 69.5t-59 32.5v-180q54 -37 83.5 -65t41.5 -54q7 -12 9.5 -25.5t2.5 -27.5q0 -11 -3 -26t-10 -30q-14 -29 -43.5 -53t-80.5 -26v-103h-17v103q-31 1 -56 7t-48 20
q-5 2 -9.5 5.5t-9.5 6.5l22 113h17q-1 -8 -1 -14.5v-12.5q0 -47 20 -73t65 -33v218q-21 13 -37.5 25.5t-29.5 25.5q-22 23 -32 47t-10 52q0 48 28.5 78.5t80.5 39.5v38h17v0zM227 219v-204q30 0 48 17t26 37q4 11 6 21t2 18q0 32 -20 58.5t-62 51.5v1zM210 314v169
q-29 -5 -46 -24.5t-17 -50.5q0 -22 8 -40.5t29 -35.5q5 -5 11.5 -9.5t14.5 -9.5v1z" />
    <glyph glyph-name="percent" unicode="%" horiz-adv-x="750" 
d="M721 156q0 -71 -35 -116t-88 -45t-88 45t-35 115t35 115.5t88 45.5t88 -45.5t35 -115.5v1zM668 156q0 65 -19.5 99.5t-50.5 34.5q-32 0 -51 -35t-19 -104q0 -63 19.5 -97t50.5 -34t50.5 34.5t19.5 100.5v1zM600 587l-416 -587h-34l416 587h34v0zM275 426
q0 -71 -35 -116.5t-88 -45.5t-88 45.5t-35 115.5t35 115.5t88 45.5t88 -45.5t35 -115.5v1zM222 426q0 65 -19.5 99.5t-50.5 34.5q-32 0 -51 -35t-19 -104q0 -63 19.5 -97t50.5 -34t50.5 34.5t19.5 100.5v1z" />
    <glyph glyph-name="ampersand" unicode="&#x26;" horiz-adv-x="615" 
d="M561 343v-17q-20 -1 -30.5 -2.5t-19.5 -7.5q-2 -2 -5 -4.5t-6 -5.5q-13 -13 -21 -28.5t-15 -34.5q-10 -23 -20.5 -50t-30.5 -57q36 -45 65.5 -77.5t51.5 -32.5q8 0 18.5 5t20.5 15l13 -10q-16 -25 -40.5 -37.5t-50.5 -12.5q-32 0 -54.5 17t-41.5 38l-10 12t-10 11
l-3.5 3.5l-3.5 3.5q-36 -44 -76 -64.5t-90 -20.5q-67 0 -113.5 41t-46.5 100q0 44 33 86t92 75q-32 30 -48 61t-16 65q0 57 38.5 94t97.5 37q48 0 81.5 -30.5t33.5 -73.5q0 -34 -24.5 -66t-78.5 -61q6 -5 11.5 -10t10.5 -10q11 -9 21 -19.5t20 -20.5q19 -21 39 -44.5
t45 -53.5q25 43 33.5 72.5t8.5 47.5q0 26 -9 37t-33 12v18h163v0zM111 163q0 -51 41 -92.5t91 -41.5q17 0 32.5 4.5t30.5 13.5q12 7 24 18t25 25q-13 16 -28.5 34.5t-32.5 36.5q-8 9 -17 18.5t-17 18.5l-40.5 40.5t-37.5 34.5q-29 -16 -48 -43.5t-22 -56.5q-1 -3 -1 -5.5
v-5.5v1zM152 447q0 -13 5 -26.5t14 -26.5q12 -18 29 -35.5t36 -32.5q34 20 50 47t16 61q0 36 -21 59t-55 23q-32 0 -53 -19.5t-21 -50.5v1z" />
    <glyph glyph-name="quotesingle" unicode="'" horiz-adv-x="180" 
d="M99 359h-18l-27 158q-1 4 -2 10t-2 13q-1 9 -1.5 17.5t-0.5 13.5q0 20 11.5 33t30.5 13t30.5 -13t11.5 -33q0 -5 -0.5 -13.5t-1.5 -17.5q-1 -7 -2 -13t-2 -11l-27 -157v0z" />
    <glyph glyph-name="parenleft" unicode="(" horiz-adv-x="313" 
d="M272 573l10 -13q-8 -10 -16 -19l-16 -18q-64 -78 -92.5 -160t-28.5 -185q0 -130 37 -217t112 -166q1 -2 2 -3l2 -2l-10 -13q-59 52 -103.5 110.5t-72.5 116.5q-20 43 -30.5 86t-10.5 83q0 29 6 60t16 62q28 78 80.5 152t114.5 125v1z" />
    <glyph glyph-name="parenright" unicode=")" horiz-adv-x="313" 
d="M42 -223l-11 13l16 18l16 18q64 78 92.5 159.5t28.5 184.5q0 125 -35 216t-118 173l11 14q59 -53 103.5 -111.5t71.5 -117.5q20 -43 30.5 -86t10.5 -83q0 -18 -2.5 -37t-6.5 -38q-18 -78 -62.5 -151t-95.5 -126q-12 -13 -24.5 -24.5t-24.5 -21.5v0z" />
    <glyph glyph-name="asterisk" unicode="*" horiz-adv-x="458" 
d="M239 393q18 5 32 17.5t27 27.5l4 4l4 4q14 16 30 28.5t36 12.5q14 0 24.5 -8.5t10.5 -19.5q0 -27 -21 -38t-52 -19q-10 -2 -20 -5t-21 -6t-22.5 -7.5t-21.5 -10.5q33 -16 55.5 -22t39.5 -10q13 -3 23.5 -7t20.5 -14q7 -7 11 -13.5t5 -12.5q1 -2 1 -4v-4q0 -12 -9 -20.5
t-21 -8.5q-19 0 -37.5 12.5t-35.5 28.5q-4 3 -7.5 6.5l-6.5 6.5q-12 12 -24 22.5t-25 18.5q0 -19 4 -37.5t8 -36.5q5 -17 8.5 -32t3.5 -27q0 -19 -11 -32.5t-25 -13.5t-24 13t-10 31q0 10 1.5 19.5t4.5 18.5q1 6 3 12l4 12q5 16 9 33.5t4 39.5q-15 -8 -27 -18t-22 -20
q-7 -7 -13 -13.5t-12 -12.5q-13 -12 -26.5 -20.5t-31.5 -8.5q-16 0 -25.5 8t-9.5 21q0 30 27.5 41t60.5 19q19 5 37.5 10.5t31.5 14.5q-13 8 -28 13.5t-31 9.5q-4 1 -8.5 2.5t-9.5 2.5q-31 8 -54.5 19.5t-23.5 38.5q0 14 8 22t21 8q23 0 42 -15.5t36 -33.5q5 -6 10.5 -12
t11.5 -11q9 -9 18 -15.5t18 -9.5q0 23 -3.5 39.5t-8.5 30.5q-1 2 -1.5 4.5t-1.5 5.5q-4 11 -6.5 23t-2.5 27q0 20 10 34.5t25 14.5q16 0 25.5 -13.5t9.5 -36.5q0 -10 -1.5 -19t-4.5 -17q-1 -6 -3 -11.5t-4 -11.5q-5 -15 -9 -32t-4 -38v1z" />
    <glyph glyph-name="plus" unicode="+" horiz-adv-x="667" 
d="M71 341h241v241h43v-241h241v-43h-241v-241h-43v241h-241v43v0z" />
    <glyph glyph-name="comma" unicode="," horiz-adv-x="292" 
d="M88 -172v17q39 20 54.5 45t15.5 67q0 12 -3.5 15t-14.5 3q-22 0 -37 13.5t-15 33.5t14.5 33.5t33.5 13.5q33 0 53.5 -27t20.5 -68q0 -52 -34 -92.5t-88 -53.5v0z" />
    <glyph glyph-name="hyphen" unicode="-" horiz-adv-x="313" 
d="M254 195v-38h-196v38h196v0z" />
    <glyph glyph-name="period" unicode="." horiz-adv-x="292" 
d="M146 70q20 -1 33.5 -14.5t13.5 -33.5q0 -19 -13.5 -33t-33.5 -14q-19 0 -33.5 14t-14.5 33q0 20 14.5 33.5t33.5 13.5v1z" />
    <glyph glyph-name="slash" unicode="/" horiz-adv-x="500" 
d="M373 595h46l-292 -607h-46l292 607v0z" />
    <glyph glyph-name="zero" unicode="0" horiz-adv-x="458" 
d="M427 288q0 -133 -48.5 -204t-107.5 -88q-10 -4 -21 -5.5t-21 -1.5q-8 0 -17 1t-17 3q-62 14 -113.5 86.5t-51.5 209.5q0 139 56.5 213t124.5 83q4 0 8.5 0.5t9.5 0.5t10 -0.5t11 -1.5q66 -9 121.5 -83t55.5 -214v1zM351 288v11v12q-3 93 -29 171t-93 78q-70 0 -96.5 -85
t-26.5 -188q0 -119 30 -196t93 -77q56 0 89 68t33 205v1z" />
    <glyph glyph-name="one" unicode="1" horiz-adv-x="458" 
d="M267 585v-507q0 -41 11 -52.5t48 -11.5v-14h-184v15q35 -1 47 10.5t12 51.5v394q0 12 -2 15.5t-6 3.5q-3 0 -10.5 -3t-18.5 -7q-10 -3 -22.5 -6t-26.5 -4v18q9 4 18.5 9t17.5 10q35 20 61.5 39.5t37.5 37.5l17 1v0z" />
    <glyph glyph-name="two" unicode="2" horiz-adv-x="458" 
d="M386 41v-41h-328v20q149 153 197 234t48 145q0 62 -28 97t-77 35q-37 0 -68.5 -24t-36.5 -80l-17 1q0 12 4.5 29.5t13.5 35.5q16 35 49.5 64t84.5 29q58 0 101.5 -44.5t43.5 -115.5q0 -79 -63 -168t-206 -218l282 1v0z" />
    <glyph glyph-name="three" unicode="3" horiz-adv-x="458" 
d="M106 493l-16 7q14 39 50.5 62.5t83.5 23.5q59 0 99 -36.5t40 -91.5q0 -13 -4 -32t-17 -38q-11 -17 -30.5 -33.5t-50.5 -29.5v-1q60 -17 93.5 -58.5t33.5 -100.5q0 -79 -50 -127.5t-130 -48.5q-32 0 -57 7t-49 23q-9 7 -18 14.5t-19 17.5l12 13q19 -16 35 -26t32 -15
q11 -4 22.5 -5.5t23.5 -1.5q49 0 88 31t39 91q0 13 -3 29t-9 32q-14 35 -44.5 64.5t-82.5 29.5q-5 0 -13.5 -0.5t-17.5 -0.5q-2 0 -4 -0.5t-4 -0.5q-5 0 -10 -0.5t-9 -0.5v18q104 17 140 57t36 87q0 42 -28 71t-70 29q-29 0 -53.5 -15.5t-38.5 -44.5v1z" />
    <glyph glyph-name="four" unicode="4" horiz-adv-x="458" 
d="M302 189v-197h-60v197h-236v17l279 381h17v-352h141v-46h-141v0zM242 236v243h-2l-178 -244l180 1v0z" />
    <glyph glyph-name="five" unicode="5" horiz-adv-x="458" 
d="M156 519l-6 -203q12 1 24 1.5t22 0.5q83 0 125 -40.5t52 -88.5q1 -8 2 -15.5t1 -15.5q0 -73 -50 -121t-125 -48q-49 0 -86.5 19.5t-68.5 61.5l15 10q23 -29 51 -43.5t60 -14.5q55 0 92.5 36.5t37.5 90.5v2.5v3.5q-2 43 -36.5 79.5t-108.5 36.5q-9 0 -18.5 -0.5
t-19.5 -2.5l9 305h243v-54h-215v0z" />
    <glyph glyph-name="six" unicode="6" horiz-adv-x="458" 
d="M411 588v-17q-128 -24 -204.5 -106t-87.5 -207q6 5 11.5 10t11.5 10q29 22 58 32.5t60 10.5q68 0 112 -46t44 -117q0 -72 -51 -120.5t-128 -48.5q-84 0 -139 63t-55 161q0 151 104 255t264 119v1zM347 141q0 61 -32 98.5t-85 37.5q-9 0 -18.5 -1.5t-18.5 -4.5
q-19 -5 -37.5 -16t-36.5 -27q-1 -106 36.5 -160t91.5 -54q44 0 72 35.5t28 90.5v1z" />
    <glyph glyph-name="seven" unicode="7" horiz-adv-x="458" 
d="M33 445l31 147h17q1 -2 1.5 -3.5t0.5 -2.5q2 -3 3.5 -5.5t4.5 -4.5q4 -2 9.5 -3t12.5 -1l316 1v-20l-197 -561h-72l222 525h-251q-14 -1 -24.5 -4t-19.5 -13q-8 -8 -16.5 -21.5t-20.5 -34.5l-17 1v0z" />
    <glyph glyph-name="eight" unicode="8" horiz-adv-x="458" 
d="M74 445q0 62 43 101.5t111 39.5q64 0 106.5 -37.5t42.5 -93.5q0 -13 -3 -27t-9 -28q-11 -21 -31.5 -42t-55.5 -40q59 -40 86 -83.5t27 -92.5q0 -65 -49 -109t-120 -44q-72 0 -118 39t-46 100q0 43 24 77t76 67q6 3 12 6.5t13 7.5q-53 28 -81 69t-28 89v1zM114 141
q0 -53 33 -89t82 -36q44 0 73.5 28t29.5 71q0 44 -34.5 82.5t-96.5 71.5q-43 -20 -65 -52.5t-22 -76.5v1zM128 477q0 -16 4.5 -29.5t13.5 -27.5q15 -21 43 -43t71 -47q39 20 52 49.5t13 63.5q0 54 -28.5 87.5t-75.5 33.5q-40 0 -66.5 -25t-26.5 -63v1z" />
    <glyph glyph-name="nine" unicode="9" horiz-adv-x="458" 
d="M48 -10v17q123 16 203.5 101.5t89.5 209.5q-5 -5 -10 -9l-10 -8q-29 -23 -59 -34.5t-63 -11.5q-67 0 -111.5 46t-44.5 116q0 72 52 120.5t128 48.5q84 0 138.5 -63t54.5 -161q0 -156 -108 -257.5t-260 -114.5v0zM112 436q0 -63 32.5 -100.5t85.5 -37.5q9 0 18.5 1.5
t18.5 4.5q19 5 38 16.5t36 27.5q1 111 -38 161.5t-90 50.5q-44 0 -72.5 -35t-28.5 -90v1z" />
    <glyph glyph-name="colon" unicode=":" horiz-adv-x="292" 
d="M146 70q20 -1 33.5 -14.5t13.5 -33.5q0 -19 -13.5 -33t-33.5 -14q-19 0 -33.5 14t-14.5 33q0 20 14.5 33.5t33.5 13.5v1zM146 328q20 -1 33.5 -14.5t13.5 -33.5q0 -19 -13.5 -33.5t-33.5 -14.5q-19 0 -33.5 14.5t-14.5 33.5q0 20 14.5 33.5t33.5 13.5v1z" />
    <glyph glyph-name="semicolon" unicode=";" horiz-adv-x="292" 
d="M88 -172v17q39 19 54.5 44.5t15.5 67.5q0 12 -3.5 15t-14.5 3q-22 0 -37 13.5t-15 33.5t14.5 33.5t33.5 13.5q33 0 53.5 -27t20.5 -68q0 -52 -34 -92.5t-88 -53.5v0zM146 328q20 -1 33.5 -14.5t13.5 -33.5q0 -19 -13.5 -33.5t-33.5 -14.5q-19 0 -33.5 14.5t-14.5 33.5
q0 20 14.5 33.5t33.5 13.5v1z" />
    <glyph glyph-name="less" unicode="&#x3c;" horiz-adv-x="667" 
d="M71 302v38l525 221v-47l-468 -193l468 -193v-47l-525 221v0z" />
    <glyph glyph-name="equal" unicode="=" horiz-adv-x="667" 
d="M71 231h525v-43h-525v43v0zM71 457h525v-43h-525v43v0z" />
    <glyph glyph-name="greater" unicode="&#x3e;" horiz-adv-x="667" 
d="M596 302l-525 -221v47l468 193l-468 193v47l525 -221v-38v0z" />
    <glyph glyph-name="question" unicode="?" horiz-adv-x="313" 
d="M139 83q20 -1 33.5 -14.5t13.5 -33.5q0 -19 -13.5 -33t-33.5 -14q-19 0 -33.5 14t-14.5 33q0 20 14.5 33.5t33.5 13.5v1zM140 119h-19v111q0 38 21 63t47 45q2 2 4.5 4t4.5 4q23 18 40.5 38.5t17.5 50.5q0 35 -29 56.5t-76 21.5q-16 0 -28.5 -2t-24.5 -7
q-10 -5 -20.5 -12t-22.5 -17v24q20 28 46 43t56 15q53 0 89.5 -45.5t36.5 -111.5q0 -57 -22.5 -85t-48.5 -49q-2 -1 -4 -2.5t-3 -2.5q-25 -19 -45 -42.5t-20 -69.5v-30v0z" />
    <glyph glyph-name="at" unicode="@" horiz-adv-x="921" 
d="M683 464l-99 -344q-3 -11 -4 -19t-1 -15q0 -24 13 -35t32 -11q16 0 34 6.5t36 18.5q52 34 96 110.5t44 180.5q0 140 -88.5 225.5t-231.5 85.5q-191 0 -299 -133.5t-122 -293.5q-1 -12 -1.5 -23.5t-0.5 -23.5v-2.5v-3.5q2 -142 100.5 -260.5t286.5 -118.5q133 0 241 75
t153 196l27 1q-48 -135 -163 -216.5t-259 -81.5q-187 0 -306 122.5t-119 314.5q0 200 133 336.5t329 136.5q155 0 249.5 -91t94.5 -248q0 -135 -70 -229.5t-154 -112.5q-8 -2 -16.5 -3t-17.5 -1q-41 0 -61 18t-20 51q0 11 3 26.5l9 46.5l-2 3q-48 -64 -88 -98t-78 -40
q-5 -1 -9 -1.5t-9 -0.5q-43 0 -69 30.5t-26 81.5v8.5t1 8.5q5 82 54.5 158t108.5 120q28 22 55.5 34.5t49.5 12.5q36 0 55.5 -15t29.5 -53l2 1l11 56l66 9v0zM380 66q13 -1 27 4t28 14q41 26 78.5 80.5t57.5 113.5q8 23 12 46t4 44q0 36 -18 56t-52 20q-13 0 -26 -5.5
t-27 -14.5q-37 -27 -71 -78t-54 -108q-9 -27 -14.5 -53.5t-5.5 -50.5q0 -31 16.5 -50t44.5 -19v1z" />
    <glyph glyph-name="A" unicode="A" horiz-adv-x="594" 
d="M415 73l-52 159h-185l-39 -115q-6 -20 -10.5 -36t-4.5 -29q1 -16 11 -25.5t35 -10.5v-16h-148v17q36 4 52 22.5t27 50.5q2 3 3.5 7.5t2.5 8.5l158 473h59l166 -493q1 -4 2 -7t2 -5q11 -33 27 -45.5t51 -12.5v-16h-202v17q23 -1 36 7.5t13 25.5q0 5 -1 10.5t-3 11.5v1z
M350 267l-79 243h-2l-80 -243h161v0z" />
    <glyph glyph-name="B" unicode="B" horiz-adv-x="510" 
d="M100 108v357q0 54 -14.5 72t-50.5 18v18h216q104 -1 151.5 -43.5t47.5 -97.5q0 -47 -28 -78.5t-87 -51.5v-1q66 -14 107 -59t41 -103q0 -64 -51.5 -101.5t-132.5 -37.5h-264v17q36 -1 50.5 18.5t14.5 71.5v1zM176 286v-168q0 -59 12.5 -78t46.5 -19l47 1q44 -1 78.5 29
t34.5 93t-44.5 102t-120.5 39l-54 1v0zM176 308h59q63 -1 99 32t36 87t-33.5 88.5t-103.5 34.5l-57 1v-243v0z" />
    <glyph glyph-name="C" unicode="C" horiz-adv-x="615" 
d="M564 410h-17q-21 80 -66.5 117t-119.5 37q-103 0 -157.5 -74t-54.5 -184q0 -129 60.5 -207t157.5 -78q68 0 118 31.5t82 94.5l15 -13q-28 -69 -92 -108.5t-147 -39.5h-8h-9q-99 6 -182 76t-83 208q0 137 84 226.5t212 89.5q27 0 50.5 -3.5t43.5 -8.5q20 -4 36.5 -8
t29.5 -4q11 0 19 4.5t12 13.5l16 1v-171v0z" />
    <glyph glyph-name="D" unicode="D" horiz-adv-x="667" 
d="M96 108v357q0 51 -14.5 70.5t-50.5 19.5v18h265q164 -1 243.5 -93t79.5 -204q0 -108 -73.5 -192t-242.5 -84h-272v17q35 -1 50 18t15 72v1zM172 551v-423q0 -68 16.5 -87.5t56.5 -19.5l59 1q107 -1 167 67.5t60 185.5v1.5v1.5q-1 102 -58 187t-192 85l-109 1v0z" />
    <glyph glyph-name="E" unicode="E" horiz-adv-x="510" 
d="M414 356v-139h-17q-1 1 -1.5 3t-0.5 4q-8 31 -22 39t-56 8l-142 1v-205q0 -22 9 -31t33 -9l100 1q52 -1 77.5 6t44.5 39q4 7 8.5 15t8.5 18l17 1l-26 -107h-413v17q34 -1 49.5 15.5t15.5 73.5v359q0 52 -14 71t-51 19v18h413v-96h-11q-10 46 -29.5 56.5t-66.5 10.5
l-165 1v-245h160q29 -1 42.5 8.5t19.5 46.5l17 1v0z" />
    <glyph glyph-name="F" unicode="F" horiz-adv-x="458" 
d="M176 277v-169q0 -53 14.5 -72.5t50.5 -19.5v-16h-206v17q36 -1 50.5 18t14.5 72v358q0 53 -14.5 71.5t-50.5 18.5v18h393v-102h-13q-10 52 -28 62.5t-65 10.5l-146 1v-240h149q32 -1 46 16t18 51l16 1v-161h-16q-1 30 -16.5 47t-45.5 17l-151 1v0z" />
    <glyph glyph-name="G" unicode="G" horiz-adv-x="656" 
d="M555 154v-154q-12 -3 -33.5 -5.5t-44.5 -4.5q-26 -2 -49 -3t-33 -1q-167 0 -243 73.5t-89 162.5q-2 12 -3 23.5t-1 23.5q0 140 82 221.5t180 93.5q8 1 16.5 1.5t16.5 0.5q30 0 52 -4t40 -9q10 -3 19.5 -6t18.5 -5q6 -1 12.5 -2t13.5 -1q14 0 21 4.5t11 14.5l18 1v-169
h-16q-9 65 -52 101.5t-93 47.5q-11 3 -22.5 4t-22.5 1q-88 0 -147.5 -71t-59.5 -189q0 -126 67 -209t169 -83q6 0 12.5 0.5t13.5 0.5q26 4 48 17t22 43v63q0 52 -14 73t-49 21l-22 1v17h232v-17q-42 -1 -56.5 -20.5t-14.5 -57.5v1z" />
    <glyph glyph-name="H" unicode="H" horiz-adv-x="667" 
d="M489 274h-312v-166q0 -53 14.5 -72.5t51.5 -19.5v-16h-207v17q33 -1 49 16t16 74v358q0 50 -13.5 70t-51.5 20v18h207v-17q-34 -1 -50 -19t-16 -73v-162h312v163q0 52 -13.5 71t-50.5 19v18h205v-17q-37 -1 -51 -21t-14 -71v-356q0 -52 14 -72t51 -20v-16h-205v17
q34 -1 49 16t15 74v167v0z" />
    <glyph glyph-name="I" unicode="I" horiz-adv-x="260" 
d="M168 465v-357q0 -53 14.5 -72.5t50.5 -19.5v-16h-206v17q35 -1 50 17t15 73v358q0 53 -14 71.5t-51 18.5v18h206v-17q-36 -1 -50.5 -20.5t-14.5 -71.5v1z" />
    <glyph glyph-name="J" unicode="J" horiz-adv-x="323" 
d="M217 465v-529q0 -78 -38 -114t-84 -43q-5 0 -10.5 -0.5t-10.5 -0.5q-31 0 -54 12.5t-39 38.5l13 10q11 -14 23.5 -20t28.5 -6q8 0 16.5 2t17.5 6q23 11 42 41.5t19 91.5v511q0 51 -14 70.5t-52 19.5v18h207v-17q-37 -1 -51 -21t-14 -71v1z" />
    <glyph glyph-name="K" unicode="K" horiz-adv-x="615" 
d="M104 108v357q0 55 -15 72.5t-50 17.5v18h205v-17q-34 -1 -49 -20t-15 -72v-172l187 184q10 9 16.5 16.5t9.5 15.5q2 3 3 7t1 8q0 14 -8 21t-28 11v18h216v-17h-28q-16 -1 -34.5 -7.5t-37.5 -18.5q-13 -7 -25.5 -17t-23.5 -21l-178 -175l237 -240q20 -22 34 -33.5
t26 -17.5q10 -5 21 -7t26 -3v-16h-136l-278 281v-173q0 -57 15.5 -74.5t48.5 -17.5v-16h-205v17q33 -1 49 16t16 74v1z" />
    <glyph glyph-name="L" unicode="L" horiz-adv-x="500" 
d="M493 125l-35 -125h-415v17q35 -1 50 20.5t15 74.5v361q0 49 -15 65.5t-50 16.5v18h205v-17q-36 -1 -50 -23t-14 -68v-382q0 -35 14.5 -45.5t50.5 -10.5l114 1q46 -1 67.5 12.5t37.5 59.5q2 5 4 11t4 13l17 1v0z" />
    <glyph glyph-name="M" unicode="M" horiz-adv-x="771" 
d="M707 573v-17q-34 -2 -49.5 -22t-15.5 -55v-3t1 -3v-3.5v-3.5l29 -352q5 -53 18 -73.5t53 -24.5v-16h-206v17q32 4 46 20t14 50v4v4q-1 1 -1 3v4l-28 371h-2l-196 -473h-15l-192 473h-2l-32 -353v-5v-4q-1 -2 -1 -4v-4q0 -36 18 -57.5t57 -29.5v-16h-178v17q44 5 56.5 31
t16.5 73l35 395q-2 1 -4.5 3.5l-4.5 4.5q-14 13 -29.5 20.5t-36.5 10.5v18h145l183 -451l186 451h135v0z" />
    <glyph glyph-name="N" unicode="N" horiz-adv-x="667" 
d="M555 466v-466h-17l-404 498h-2v-402q0 -44 18 -62t57 -18v-16h-174v17q36 -1 53.5 17t17.5 80v336q0 47 -17 74t-68 31v18h147l358 -446h2v335q0 55 -16 74t-54 19v18h173v-17q-42 -1 -58 -21t-16 -70v1z" />
    <glyph glyph-name="O" unicode="O" horiz-adv-x="729" 
d="M59 289q0 127 88 212t219 85q128 0 216 -86.5t88 -211.5q0 -127 -89 -214.5t-217 -87.5t-216.5 87.5t-88.5 214.5v1zM147 288q0 -126 59.5 -203.5t156.5 -77.5q108 0 163.5 86t55.5 190q0 135 -62.5 208t-151.5 73q-101 0 -161 -76t-60 -201v1z" />
    <glyph glyph-name="P" unicode="P" horiz-adv-x="500" 
d="M179 268v-160q0 -54 14.5 -73t50.5 -19v-16h-206v17q30 -1 47.5 15t17.5 73v360q0 52 -14.5 71t-50.5 19v18h209q112 -1 164 -48t57 -103q1 -3 1 -6.5v-6.5q0 -71 -52 -109.5t-150 -38.5h-6h-6q-15 0 -32.5 1.5t-43.5 4.5v1zM179 551v-257q8 -4 15 -6t14 -3q9 -1 19 -1.5
t23 -0.5q64 0 101.5 33t37.5 91q0 9 -1 19t-4 20q-9 39 -40 71.5t-94 32.5l-71 1v0z" />
    <glyph glyph-name="Q" unicode="Q" horiz-adv-x="719" 
d="M663 287q0 -105 -67.5 -189t-177.5 -105q12 -10 29 -31.5t37 -45.5q28 -31 62.5 -57t76.5 -26q5 0 12 1t15 2q7 1 13.5 2.5t11.5 3.5l6 -16q-23 -11 -47 -15t-48 -4q-78 0 -126 30.5t-81 66.5q-16 17 -29.5 33t-26.5 30q-8 8 -16.5 15t-17.5 11q-9 2 -18 4.5t-18 4.5
q-76 28 -139.5 102.5t-63.5 181.5q0 113 82.5 206.5t221.5 93.5q131 0 220 -86.5t89 -213.5v1zM575 282q0 141 -60 206.5t-132 74.5q-6 0 -11.5 0.5t-11.5 0.5q-101 0 -161.5 -76t-60.5 -203q0 -123 59.5 -200.5t156.5 -77.5q100 0 160.5 74.5t60.5 199.5v1z" />
    <glyph glyph-name="R" unicode="R" horiz-adv-x="594" 
d="M175 265v-157q0 -53 15 -72.5t50 -19.5v-16h-206v17q33 -1 49 15.5t16 74.5v360q0 55 -15 71.5t-50 16.5v18h235q97 -1 144 -47.5t47 -103.5q0 -47 -27.5 -84.5t-90.5 -56.5q32 -21 56.5 -53t45.5 -67q8 -13 15.5 -26t15.5 -25q23 -38 48 -65t57 -29v-16h-117
q-3 2 -5.5 5.5t-5.5 7.5q-36 46 -62 90t-50 79q-25 37 -52.5 59.5t-66.5 22.5l-46 1v0zM175 551v-262h70q73 -1 104 40.5t31 90.5q0 57 -39.5 93.5t-105.5 36.5l-60 1v0z" />
    <glyph glyph-name="S" unicode="S" horiz-adv-x="417" 
d="M356 581v-134h-17q-6 60 -42.5 87.5t-77.5 29.5h-3.5h-3.5q-45 0 -74 -23t-29 -63q0 -47 33 -77t77 -56q7 -5 15 -10t16 -9q23 -14 45.5 -29.5t41.5 -34.5q20 -20 30.5 -39t15.5 -37q2 -10 3 -19t1 -19q0 -67 -47.5 -114.5t-115.5 -47.5q-23 0 -43.5 4.5t-37.5 9.5
q-17 6 -30 10.5t-20 4.5t-12.5 -5.5t-9.5 -15.5h-17v155h17q1 -57 27.5 -88t58.5 -44q14 -5 27.5 -7.5t24.5 -2.5q52 0 83.5 28t31.5 74q0 47 -38.5 80t-84.5 62q-8 5 -16.5 10t-16.5 11q-18 11 -34 22.5t-28 23.5q-26 26 -37.5 56t-11.5 64q0 66 43 107t113 41
q23 0 40 -3.5t31 -7.5q13 -4 23 -7.5t18 -3.5q5 0 7.5 1.5t5.5 6.5q0 2 0.5 4t1.5 4l16 1v0z" />
    <glyph glyph-name="T" unicode="T" horiz-adv-x="563" 
d="M318 545v-440q0 -53 12.5 -71t49.5 -18v-16h-203v17q31 -1 48 15t17 75v438h-83q-58 -1 -85.5 -19.5t-31.5 -63.5l-17 1v131h17q6 -6 13.5 -10t17.5 -7q10 -2 23.5 -3.5t31.5 -1.5l300 1q38 -1 58 4t33 16l18 1v-131h-11q-8 35 -30.5 58t-90.5 23l-87 1v0z" />
    <glyph glyph-name="U" unicode="U" horiz-adv-x="667" 
d="M488 0v80q-41 -49 -87.5 -71.5t-103.5 -22.5q-104 0 -149.5 61t-45.5 135v283q0 56 -15.5 73t-49.5 17v18h207v-17q-35 -1 -50.5 -18.5t-15.5 -72.5v-289q0 -67 36.5 -109.5t109.5 -42.5q50 0 92 24.5t72 70.5v346q0 49 -13 69t-48 21v18h202v-17q-36 -1 -50.5 -20.5
t-14.5 -71.5v-356q0 -57 16 -74.5t49 -17.5v-16h-141v0z" />
    <glyph glyph-name="V" unicode="V" horiz-adv-x="594" 
d="M476 444l-169 -452h-16l-177 465q-5 12 -9.5 23t-8.5 20q-14 28 -30 41t-47 14v18h208v-17q-23 -1 -36.5 -10.5t-13.5 -29.5q0 -6 1.5 -13t4.5 -15l140 -369l133 357q5 10 7 20.5t1 18.5q0 19 -12 29.5t-39 10.5v18h167v-18q-32 -1 -57 -27t-47 -85v1z" />
    <glyph glyph-name="W" unicode="W" horiz-adv-x="917" 
d="M795 440l-161 -448h-18l-156 423l-152 -423h-16l-175 473q-9 22 -16 37.5t-14 25.5q-14 19 -28.5 23t-38.5 4v18h212v-17q-25 -4 -37.5 -12.5t-12.5 -25.5q0 -7 1.5 -14.5t5.5 -17.5l134 -363l122 333l-13 37q-13 36 -31 49t-49 13v18h210v-17q-28 -1 -42 -9t-14 -27
q0 -7 2 -15.5t6 -19.5l134 -362l117 321q7 17 10.5 33t3.5 29q0 24 -13.5 37t-43.5 13v17h174v-17q-26 -3 -44.5 -18t-35.5 -49q-5 -11 -10.5 -23t-10.5 -27v1z" />
    <glyph glyph-name="X" unicode="X" horiz-adv-x="615" 
d="M340 311l146 -199q23 -33 39 -51.5t31 -27.5q10 -7 20.5 -11t23.5 -6v-16h-230v17q22 0 33 11t11 29q0 11 -5 25t-16 28l-101 140l-110 -143q-13 -17 -19.5 -31.5t-6.5 -26.5q1 -13 11.5 -22t33.5 -11v-16h-183v17q11 -1 21 0.5t20 6.5q14 6 29 20t34 38l151 194
l-138 191q-36 48 -58 65.5t-41 21.5q-4 0 -8.5 0.5t-9.5 0.5v18h220v-17q-21 -1 -31.5 -9t-10.5 -22q1 -7 4.5 -16.5t10.5 -19.5l109 -150l107 135q12 14 18.5 28t6.5 24q0 14 -11 21.5t-35 7.5v18h183v-17q-25 -1 -41.5 -6t-30.5 -18q-8 -7 -16.5 -16.5t-18.5 -22.5
l-142 -182v0z" />
    <glyph glyph-name="Y" unicode="Y" horiz-adv-x="563" 
d="M318 288v-180q0 -53 13 -72.5t50 -19.5v-16h-209v17q33 -1 51.5 14t18.5 76v181l-122 190q-14 20 -24.5 34.5t-20.5 22.5q-12 11 -25 15t-32 5v18h224v-17q-31 -1 -45 -8t-14 -20q0 -6 3 -14t9 -16l113 -173l91 144q10 14 15 28.5t5 26.5q0 14 -9 22.5t-29 8.5v18h157
v-17q-21 -2 -34.5 -7t-25.5 -18q-7 -7 -14.5 -17t-16.5 -24l-129 -202v0z" />
    <glyph glyph-name="Z" unicode="Z" horiz-adv-x="563" 
d="M532 138l-21 -138h-480v15l377 530h-247q-55 -1 -78.5 -15.5t-35.5 -55.5l-16 1l9 98h466v-18l-375 -527h216q72 -1 110.5 25t57.5 84l17 1v0z" />
    <glyph glyph-name="bracketleft" unicode="[" horiz-adv-x="260" 
d="M68 573h159v-18h-30q-1 -1 -2 -1h-3q-14 -1 -27.5 -9.5t-19.5 -21.5q-2 -4 -3.5 -8.5t-2.5 -11.5q0 -2 -0.5 -4.5t-0.5 -5.5q0 -2 -0.5 -5.5t-0.5 -6.5v-9v-6v-560q0 -8 0.5 -17.5t1.5 -19.5q3 -23 19.5 -37t38.5 -14h30v-18h-159v773v0z" />
    <glyph glyph-name="backslash" unicode="\" horiz-adv-x="500" 
d="M127 595l292 -607h-46l-292 607h46v0z" />
    <glyph glyph-name="bracketright" unicode="]" horiz-adv-x="260" 
d="M192 -200h-159v18h30h4t5 1q13 2 25 10t18 20q2 5 3.5 11.5t2.5 18.5q0 2 0.5 5.5t0.5 6.5q1 5 1 9v6v561q0 7 -0.5 16t-2.5 20q-3 23 -19 37t-38 14l-30 1v18h159v-773v0z" />
    <glyph glyph-name="asciicircum" unicode="^" horiz-adv-x="469" 
d="M243 677l208 -350h-45l-171 286l-171 -286h-46l210 350h15v0z" />
    <glyph glyph-name="underscore" unicode="_" horiz-adv-x="500" 
d="M-9 -75h518v-50h-518v50v0z" />
    <glyph glyph-name="grave" unicode="`" horiz-adv-x="333" 
d="M144 628l65 -200h-19l-101 200h55v0z" />
    <glyph glyph-name="a" unicode="a" horiz-adv-x="365" 
d="M294 234v-152q0 -32 4 -44t16 -12q6 0 9.5 3.5t7.5 10.5q1 4 3 9t4 11l17 1q-2 -34 -20.5 -53t-48.5 -19q-22 0 -36.5 11.5t-23.5 37.5q-12 -13 -22.5 -22t-20.5 -15q-12 -6 -24.5 -9t-27.5 -3q-41 0 -71 27t-30 66q0 48 34.5 69t76.5 33q6 2 12.5 3.5t13.5 3.5
q17 5 32 10t27 12v27q0 37 -20.5 61t-58.5 24q-30 0 -56.5 -19t-37.5 -57l-18 6q11 49 47 78.5t84 29.5q6 0 11.5 -0.5t11.5 -1.5q39 -6 72 -35.5t33 -92.5v1zM226 72v120q-15 -7 -29 -12t-26 -9q-32 -11 -52 -26.5t-20 -53.5q0 -27 16 -46t38 -19q7 0 15 2t17 6
q12 5 23.5 14.5t17.5 22.5v1z" />
    <glyph glyph-name="b" unicode="b" horiz-adv-x="448" 
d="M130 628v-317q19 20 45 33.5t53 17.5q6 0 11 0.5t10 0.5q69 0 116.5 -50t47.5 -123q0 -12 -2 -25t-5 -26q-16 -54 -70 -98.5t-164 -44.5q-22 0 -48 2t-62 8v532q0 40 -10 50t-52 10l-1 18l114 12h17v0zM130 285v-202q0 -36 11.5 -53t48.5 -17q59 0 104 39t45 130
q0 66 -30 103t-66 46q-5 2 -11 2.5t-11 0.5q-24 0 -44 -9.5t-39 -30.5q-2 -2 -4 -4.5t-4 -5.5v1z" />
    <glyph glyph-name="c" unicode="c" horiz-adv-x="385" 
d="M359 364v-125h-17q-11 47 -43 75.5t-76 28.5q-52 0 -85.5 -41t-33.5 -106q0 -73 39.5 -125.5t93.5 -52.5q12 0 25 2.5t26 7.5q22 8 43 24t38 40v-25q-28 -40 -68 -59t-88 -19q-79 0 -128.5 49.5t-49.5 128.5q0 82 53.5 139t129.5 57q20 0 35.5 -3t27.5 -7l21 -7t16 -3
t13.5 5t10.5 15l17 1v0z" />
    <glyph glyph-name="d" unicode="d" horiz-adv-x="458" 
d="M383 628v-559q0 -30 12.5 -41.5t46.5 -11.5v-16h-206q-95 0 -143 45t-59 100q-2 9 -3 19t-1 19q0 75 48.5 127.5t117.5 52.5q5 0 10 -0.5t11 -0.5q23 -3 46.5 -13.5t51.5 -28.5v218q0 37 -10.5 48.5t-36.5 11.5l-20 1v17l118 12h17v0zM315 70v213q-16 21 -37 36t-43 20
q-5 1 -11 2t-12 1q-48 0 -78 -39.5t-30 -104.5q0 -7 0.5 -15t1.5 -15q6 -58 41 -105.5t112 -47.5q30 0 43 13t13 41v1z" />
    <glyph glyph-name="e" unicode="e" horiz-adv-x="406" 
d="M367 216h-260q-1 -81 25.5 -124t58.5 -60q15 -9 30 -12.5t27 -3.5q18 0 32 3.5t28 10.5q14 9 29.5 23.5t35.5 36.5v-25q-3 -5 -5.5 -8t-5.5 -7q-30 -33 -61.5 -47t-73.5 -14q-83 0 -137 51.5t-54 131.5t51.5 135.5t126.5 55.5q60 0 107 -41t46 -100v-3.5v-3.5v1zM107 233
h193v1v2v1v2q0 48 -24.5 72.5t-54.5 29.5q-4 0 -8 0.5t-8 0.5q-44 0 -69.5 -30t-28.5 -80v1z" />
    <glyph glyph-name="f" unicode="f" horiz-adv-x="260" 
d="M147 327v-257q0 -31 13 -42.5t38 -11.5l17 1v-17h-201v17h16q27 -1 38 10t11 36v264h-49v17q9 3 15.5 5.5t12.5 5.5q2 1 4.5 2.5t5.5 2.5q3 2 5.5 3.5t5.5 3.5v71q0 9 0.5 18.5t2.5 19.5q8 57 43 104t106 47q29 0 55.5 -7.5t44.5 -21.5l-34 -88h-17v3t1 3v4v3
q-1 43 -20 63t-48 20t-47.5 -21t-18.5 -62v-170h88v-26h-88v0z" />
    <glyph glyph-name="g" unicode="g" horiz-adv-x="417" 
d="M405 360v-40h-94q11 -14 18.5 -27t12.5 -25q4 -13 6.5 -26t2.5 -26q0 -52 -38 -94.5t-94 -45.5q-3 0 -6.5 -0.5t-6.5 -0.5q-24 -4 -47 -15t-37 -24q-9 -7 -13.5 -13.5t-4.5 -12.5t1 -9l2 -6l2 -2l2 -2q8 -10 33 -16.5t57 -12.5q11 -2 23 -4t23 -4q40 -8 75.5 -18.5
t52.5 -27.5q5 -5 9.5 -10t7.5 -10q6 -10 9 -20.5t3 -22.5q0 -62 -63 -105t-155 -43q-77 0 -125.5 29.5t-48.5 78.5q0 19 10 37.5t35 36.5q13 10 30.5 19t39.5 18v2q-36 8 -56.5 25t-20.5 40q0 30 28.5 53.5t80.5 42.5v3q-53 13 -82 48.5t-29 84.5q0 64 43 106t107 42
q10 0 22 -0.5t25 -1.5t25 -1.5t21 -0.5l114 1v0zM367 -186q0 24 -20.5 41t-80.5 32q-21 5 -47.5 10t-59.5 11q-49 -14 -76 -35.5t-27 -48.5q0 -38 51 -63.5t127 -25.5q59 0 96 22t37 57v0zM112 223q0 -59 24 -94t63 -35t63.5 33.5t24.5 94.5q0 54 -24 87.5t-63 33.5
q-40 0 -64 -33.5t-24 -87.5v1z" />
    <glyph glyph-name="h" unicode="h" horiz-adv-x="438" 
d="M375 241v-156q0 -41 11 -55t46 -14v-16h-184v17q36 -1 47.5 10.5t11.5 45.5v176q0 34 -19.5 55t-51.5 21q-21 0 -38 -7t-34 -23q-8 -7 -15.5 -16.5t-15.5 -20.5v-193q0 -29 13 -39t46 -10v-16h-190v17q40 0 51.5 12t11.5 55v462q0 34 -12.5 43t-50.5 9v18l114 12h17v-335
q16 18 30.5 31t28.5 22q16 9 31.5 13t33.5 4q44 0 81 -30t37 -93v1z" />
    <glyph glyph-name="i" unicode="i" horiz-adv-x="229" 
d="M149 364v-298q0 -27 11 -38.5t48 -11.5v-16h-194v17q41 -1 54 8t13 40v218q0 36 -14 44t-53 8v18l118 11h17v0zM116 547q18 -1 30.5 -13.5t12.5 -30.5t-12.5 -31t-30.5 -13t-31 13t-13 31t13 30.5t31 12.5v1z" />
    <glyph glyph-name="j" unicode="j" horiz-adv-x="229" 
d="M155 364v-420q0 -91 -45.5 -137t-140.5 -46h-4h-4l-1 17q66 -1 96.5 34.5t30.5 121.5v357q0 25 -12.5 34.5t-54.5 9.5v18l118 11h17v0zM116 547q18 -1 30.5 -13.5t12.5 -30.5t-12.5 -31t-30.5 -13t-31 13t-13 31t13 30.5t31 12.5v1z" />
    <glyph glyph-name="k" unicode="k" horiz-adv-x="438" 
d="M206 209l147 -147q12 -13 21.5 -21t18.5 -13q11 -6 22 -8.5t25 -3.5v-16h-116l-184 180v-113q0 -32 12.5 -41.5t46.5 -9.5v-16h-190v17q41 0 52 12t11 55v467q0 30 -11.5 38.5t-51.5 8.5v18l114 12h17v-448l95 87q13 11 20 22.5t7 20.5q0 11 -10 17.5t-33 7.5v18h193v-17
h-17q-25 -1 -49 -11t-48 -33l-92 -83v0z" />
    <glyph glyph-name="l" unicode="l" horiz-adv-x="240" 
d="M88 84v467q0 25 -10 36t-38 11l-23 1v17l122 12h17v-561q0 -29 11.5 -40t43.5 -11l9 1v-17h-197v17h18q27 -1 37 13t10 53v1z" />
    <glyph glyph-name="m" unicode="m" horiz-adv-x="719" 
d="M637 244v-178q0 -28 12 -39t48 -11v-16h-188v17q38 -1 49 11.5t11 55.5v169q0 34 -21 53t-56 19q-28 0 -52.5 -16.5t-47.5 -51.5v-189q0 -29 11.5 -40.5t47.5 -11.5v-16h-186v17q36 -1 47.5 9.5t11.5 57.5v165q0 39 -23 57.5t-52 18.5q-30 0 -57.5 -19t-44.5 -49v-192
q0 -28 13 -39t47 -11v-15h-188v17q32 -1 46 7.5t14 48.5v211q0 28 -12.5 39.5t-36.5 11.5l-22 1v17l122 11h17v-74h2q19 29 48 48t60 24q5 0 9.5 0.5t8.5 0.5q35 0 66.5 -19.5t44.5 -60.5q29 40 62 60t69 20q8 0 17 -1t18 -4q32 -8 58.5 -35t26.5 -80v1z" />
    <glyph glyph-name="n" unicode="n" horiz-adv-x="458" 
d="M385 237v-160q0 -35 11.5 -48t48.5 -13v-16h-189v17q36 -1 48.5 8.5t12.5 34.5v186q0 39 -22 58t-49 22h-4h-4q-13 0 -25.5 -4t-24.5 -13q-13 -8 -25.5 -21t-25.5 -31v-172q0 -41 10 -55t50 -14v-16h-187v17q35 -1 47 9t12 58v200q0 31 -11.5 41t-47.5 10v18l110 11h17
v-71l12.5 12.5l12.5 12.5q25 23 50.5 34t52.5 11h2.5h3.5q43 -2 78.5 -33.5t35.5 -93.5v1z" />
    <glyph glyph-name="o" unicode="o" horiz-adv-x="458" 
d="M423 176q0 -81 -55.5 -134t-138.5 -53t-138.5 53t-55.5 133q0 81 55.5 134.5t138.5 53.5t138.5 -53.5t55.5 -134.5v1zM349 176q0 66 -29 116.5t-91 50.5q-56 0 -88 -45.5t-32 -122.5q0 -68 29.5 -117.5t90.5 -49.5q63 0 91.5 51.5t28.5 115.5v1z" />
    <glyph glyph-name="p" unicode="p" horiz-adv-x="458" 
d="M71 -212v493q0 35 -11 44.5t-51 9.5v18l113 11h17v-60q17 16 32 27t30 19q14 7 29 10t32 3q69 0 114.5 -52.5t45.5 -132.5q0 -82 -50 -135.5t-126 -53.5q-13 0 -24.5 2t-23.5 6q-14 3 -28 11.5t-31 21.5v-232q0 -32 11 -45.5t48 -13.5v-17h-189v17q36 0 49 10t13 39v0z
M139 278v-222q15 -16 33.5 -26.5t38.5 -15.5q7 -1 13.5 -2t12.5 -1q47 0 79 44.5t32 110.5q0 71 -31.5 117.5t-81.5 46.5q-16 0 -30.5 -4.5t-27.5 -13.5q-9 -6 -18.5 -15t-19.5 -20v1z" />
    <glyph glyph-name="q" unicode="q" horiz-adv-x="448" 
d="M378 348v-558q0 -30 12.5 -40.5t48.5 -10.5v-17h-187v17q32 0 45 10t13 40v228q-9 -6 -17 -10t-17 -7q-16 -5 -33 -8t-38 -3q-78 0 -127 48t-49 127q0 74 53 131t187 57q9 0 21.5 -0.5t25.5 -0.5q5 -1 11 -1t11 -1q14 0 24.5 -1t15.5 -1v1zM310 39v284q-8 1 -14.5 2
t-12.5 1q-5 1 -10 1h-10q-74 0 -117 -42t-43 -114q0 -9 1 -19t3 -20q8 -44 38 -80.5t87 -36.5q7 0 13 0.5t12 1.5q13 3 26 8t27 13v1z" />
    <glyph glyph-name="r" unicode="r" horiz-adv-x="344" 
d="M148 261v-194q0 -30 12 -40.5t47 -10.5v-16h-187v17q41 -1 50.5 13t9.5 54v194q0 38 -14 47.5t-59 9.5v18l124 11h17v-77q50 42 76.5 59t44.5 17q7 0 14 -1.5t15 -4.5q10 -4 19 -9.5t17 -12.5l-27 -62q-5 2 -10 4.5t-10 4.5q-17 9 -33.5 15t-30.5 6q-3 0 -6.5 -0.5
t-7.5 -0.5q-13 -4 -27.5 -13.5t-33.5 -28.5v1z" />
    <glyph glyph-name="s" unicode="s" horiz-adv-x="313" 
d="M262 255h-20q-5 43 -30.5 65.5t-57.5 22.5q-26 0 -42.5 -13t-16.5 -35q0 -28 21.5 -44t49.5 -29q6 -3 11.5 -5.5t10.5 -4.5q35 -17 64 -41t29 -74q0 -44 -33 -76t-79 -32q-15 0 -28.5 4t-24.5 8q-12 5 -21.5 9t-15.5 4q-10 0 -16 -7t-7 -16h-17v121h17q9 -45 33 -68.5
t52 -31.5q7 -2 14.5 -3t14.5 -1q26 0 44 17.5t18 43.5q0 34 -25.5 51.5t-57.5 31.5q-3 2 -5.5 3t-5.5 2q-35 16 -64.5 37.5t-29.5 66.5q0 41 32 71.5t76 30.5q14 0 23.5 -2.5t17.5 -5.5q2 -2 4.5 -3t5.5 -2q5 -1 10 -2.5t11 -1.5q7 0 12 4t9 13l17 1v-109v0z" />
    <glyph glyph-name="t" unicode="t" horiz-adv-x="292" 
d="M151 474v-119h123v-26h-123v-228q0 -38 17.5 -56.5t46.5 -18.5q15 0 27.5 5t24.5 15q4 3 7.5 6.5t6.5 7.5l11 -12q-23 -30 -50 -44.5t-57 -14.5q-45 0 -73.5 28t-28.5 74v238h-67v17q36 17 66 49t52 78l17 1v0z" />
    <glyph glyph-name="u" unicode="u" horiz-adv-x="458" 
d="M385 364v-297q0 -30 12.5 -40.5t48.5 -10.5v-16l-129 -7v65h-2q-26 -35 -57 -52t-67 -17q-52 0 -84 34.5t-32 83.5v182q0 25 -12.5 35.5t-50.5 10.5v18l114 11h17v-253q0 -38 22 -59.5t58 -21.5q26 0 49 14.5t45 43.5v192q0 36 -11.5 45t-57.5 10v18l120 11h17v0z" />
    <glyph glyph-name="v" unicode="v" horiz-adv-x="417" 
d="M160 275l79 -189l69 179q5 12 7.5 22t2.5 18q0 14 -10 21t-35 9v18h130v-17q-25 -3 -37 -10t-22 -24q-2 -4 -4.5 -8.5t-4.5 -9.5l-114 -292h-17l-113 278q-6 13 -10.5 23t-9.5 17q-10 15 -21.5 19.5t-33.5 5.5v18h171v-17q-17 -2 -26 -9.5t-9 -21.5q0 -7 2 -14.5t6 -16.5
v1z" />
    <glyph glyph-name="w" unicode="w" horiz-adv-x="667" 
d="M157 284l80 -198l83 213q-3 4 -5.5 8.5t-4.5 7.5q-8 11 -17 15t-25 5v18h171v-17q-25 -2 -35.5 -9t-10.5 -20q0 -4 2 -10t4 -13l79 -198l73 185q5 10 7 19t2 16q0 14 -10.5 21t-34.5 8v18h138v-17q-27 -1 -41 -6.5t-26 -25.5q-3 -6 -7 -14.5t-8 -19.5l-110 -278h-17
l-113 279l-111 -279h-17l-124 305q-7 16 -21.5 27t-43.5 11v18h172v-17q-19 -2 -28.5 -6.5t-8.5 -16.5q0 -5 2 -12.5t6 -17.5v1z" />
    <glyph glyph-name="x" unicode="x" horiz-adv-x="458" 
d="M256 199l107 -140q17 -23 35.5 -33t43.5 -10v-16h-186v17q14 1 20.5 6.5t6.5 12.5q-1 5 -3.5 11t-7.5 13l-62 86l-63 -79q-7 -9 -10 -16.5t-3 -14.5q0 -8 6 -13.5t19 -6.5v-16h-144v17q18 -1 30 0.5t24 7.5q11 6 22.5 17.5t28.5 31.5l77 92l-84 110q-11 13 -20 23t-17 17
q-13 10 -27 14t-34 5v18h195v-17q-16 -2 -23.5 -7.5t-7.5 -14.5q0 -6 3.5 -14t10.5 -18l47 -65l48 59q2 1 3.5 3t3.5 4q6 9 9 17t2 15q0 9 -6.5 14.5t-20.5 5.5v18h140v-17q-17 -3 -29.5 -6.5t-23.5 -11.5q-11 -7 -23 -19t-28 -31l-59 -69v0z" />
    <glyph glyph-name="y" unicode="y" horiz-adv-x="417" 
d="M161 282l85 -200l62 187q4 10 6 19.5t2 16.5q-1 14 -9 21.5t-27 8.5v18h125v-17q-28 -1 -47 -20.5t-34 -63.5l-141 -416q-18 -53 -44.5 -85.5t-53.5 -40.5q-5 -2 -9.5 -2.5t-9.5 -0.5q-4 0 -8 0.5t-7 1.5q-7 1 -13.5 4.5t-15.5 8.5l23 61q6 -3 11 -4.5t10 -2.5
q3 0 6 -0.5t7 -0.5q32 0 53 20t37 67l46 128l-127 293l-4 8l-4 8q-11 20 -24.5 27.5t-39.5 8.5v18h170v-17q-14 -3 -22.5 -11t-7.5 -21q0 -5 1 -11t4 -12v1z" />
    <glyph glyph-name="z" unicode="z" horiz-adv-x="365" 
d="M336 353v-17l-225 -319h110q53 -1 79.5 19t27.5 71l17 1l-9 -108h-306v17l225 319h-99q-46 -1 -75 -24t-34 -63l-17 1l9 103h297v0z" />
    <glyph glyph-name="braceleft" unicode="{" horiz-adv-x="480" 
d="M140 176v22q52 7 84 38.5t32 74.5q0 8 -1 16t-2 17q-2 8 -3.5 16t-3.5 16q-4 17 -7.5 37t-3.5 43q0 68 47.5 120t122.5 66l4 -17q-52 -13 -81.5 -42.5t-29.5 -70.5q0 -15 2.5 -33.5t6.5 -37.5q1 -3 1.5 -5.5t0.5 -4.5q4 -22 7 -41.5t3 -33.5q0 -55 -36.5 -99t-102.5 -71
q66 -27 102.5 -71t36.5 -99q0 -13 -3 -32.5t-7 -41.5t-7.5 -43t-3.5 -38q0 -41 29.5 -70.5t81.5 -41.5l-4 -18q-75 14 -122.5 66t-47.5 120q0 24 3.5 43.5t7.5 36.5q2 9 4 19t4 19q1 7 1.5 13t0.5 13q0 44 -32 75.5t-84 38.5v1z" />
    <glyph glyph-name="bar" unicode="|" horiz-adv-x="496" 
d="M226 595h44v-831h-44v831v0z" />
    <glyph glyph-name="braceright" unicode="}" horiz-adv-x="480" 
d="M340 198v-22q-52 -8 -84 -39.5t-32 -75.5q0 -7 0.5 -13t1.5 -13q2 -9 4 -19t5 -19q4 -17 7 -36.5t3 -43.5q0 -68 -47.5 -120t-122.5 -66l-4 18q53 12 82 41.5t29 70.5q0 17 -3 38t-7 43t-7.5 41.5t-3.5 32.5q0 55 36.5 99t102.5 71q-66 27 -102.5 71t-36.5 99
q0 14 3.5 33.5t7.5 41.5q0 2 0.5 4.5t1.5 5.5q3 19 5.5 37.5t2.5 33.5q0 41 -29 70.5t-82 41.5l4 19q75 -15 122.5 -67t47.5 -120q0 -23 -3 -43t-7 -37l-4 -16l-4 -16q-1 -9 -2 -17t-1 -16q0 -43 32 -74.5t84 -39.5v1z" />
    <glyph glyph-name="asciitilde" unicode="~" horiz-adv-x="667" 
d="M572 392h23q-1 -63 -35 -102t-87 -39q-25 0 -62 12.5t-76 27.5q-2 1 -5 2t-5 2q-42 17 -79.5 31t-60.5 14q-36 0 -59 -22t-31 -66l-23 1v2v2q0 56 33 95.5t88 39.5q26 0 63.5 -13t76.5 -29l4 -2t4 -1q41 -18 79 -32t63 -14q37 0 61 23.5t28 66.5v1z" />
    <glyph glyph-name="glyph98" unicode="&#xa1;" horiz-adv-x="292" 
d="M137 182h16l26 -358q0 -4 0.5 -8t0.5 -9q1 -9 1.5 -19.5t0.5 -21.5q0 -23 -11 -37t-28 -14q-18 0 -29.5 14t-11.5 37q0 5 0.5 11.5t0.5 12.5q1 3 1 6t1 5q0 7 1 13t1 10l30 358v0zM146 237q-19 -1 -33 13t-14 33q0 20 14 34t33 14q20 0 34 -14t14 -34q0 -19 -14 -33
t-34 -14v1z" />
    <glyph glyph-name="cent" unicode="&#xa2;" horiz-adv-x="417" 
d="M331 517l-51 -159l14 -3.5t11 -3.5q7 -3 12.5 -5t10.5 -3h2.5h2.5q8 0 14 5t11 15l17 1v-125h-17q-9 37 -30 62.5t-54 35.5l-93 -288q17 -16 35.5 -23.5t37.5 -7.5q15 0 30 3.5t31 10.5q18 9 35.5 23.5t34.5 36.5v-25q-29 -40 -68.5 -59t-87.5 -19q-18 0 -34 2.5t-30 7.5
l-43 -133h-17l45 139q-48 21 -73.5 63t-25.5 99q0 80 53 138t129 58h8t8 -1q3 0 7 -0.5t8 -1.5l50 157h17v0zM168 61l90 281q-3 -1 -5.5 -0.5t-5.5 0.5q-3 1 -5.5 1h-5.5q-52 0 -84 -42t-32 -107q0 -38 13 -73.5t35 -60.5v1z" />
    <glyph glyph-name="sterling" unicode="&#xa3;" horiz-adv-x="458" 
d="M322 219v-22h-108q-2 -29 -5.5 -47t-9.5 -34l-4 -10t-5 -10q18 -4 33 -9t29 -10q34 -12 59.5 -22.5t48.5 -11.5h2h2q23 0 38.5 19.5t17.5 59.5l16 1q1 -6 1.5 -10.5t0.5 -9.5q0 -46 -35.5 -80t-79.5 -34q-15 0 -32.5 3.5t-35.5 9.5q-23 9 -46 22t-40 29
q-13 -22 -33 -37.5t-41 -22.5q-6 -2 -12 -3t-12 -1q-22 0 -35 8.5t-13 24.5q0 4 0.5 7.5t2.5 7.5q8 22 38.5 41t74.5 18h3h3h2.5h2.5q3 12 4.5 24t1.5 24q0 13 -1.5 26t-4.5 26l-106 1v22h106q-1 1 -1.5 3.5t-0.5 4.5q-4 14 -7 34t-5 41q-2 13 -2.5 24.5t-0.5 22.5
q0 66 37 107.5t96 41.5q41 0 70.5 -19t51.5 -59l-16 -7l-10 14t-10 13q-15 18 -30 26t-34 8q-37 0 -58 -29t-21 -80q0 -24 1 -42t2 -34v-3.5v-3.5q1 -14 1.5 -29.5t0.5 -34.5l108 1v0zM139 67q-5 1 -9 2t-8 1q-3 1 -5.5 1h-5.5h-4h-4q-21 -2 -39 -13t-21 -24q-1 -1 -1 -2.5
v-2.5q0 -9 6.5 -15t16.5 -6q3 0 5.5 0.5t5.5 0.5q18 4 35.5 19t27.5 38v1z" />
    <glyph glyph-name="Idieresis" unicode="&#xa4;" horiz-adv-x="678" 
d="M477 488l60 60l30 -30l-60 -60q18 -22 30 -49t16 -55q2 -9 2.5 -17.5t0.5 -17.5q0 -41 -14 -77.5t-35 -60.5l60 -59l-30 -30l-61 61q-25 -25 -61.5 -38t-75.5 -13q-42 0 -76 13.5t-62 35.5l-60 -59l-30 30l60 60q-23 27 -36 63t-13 74q0 43 14 77.5t35 60.5l-60 61l30 30
l60 -60q32 24 66 36t72 12q42 0 76 -13t62 -36v1zM339 493q-72 -1 -122.5 -51.5t-50.5 -122.5t50.5 -122.5t122.5 -50.5t122.5 50.5t50.5 122.5t-50.5 122.5t-122.5 50.5v1z" />
    <glyph glyph-name="ae" unicode="&#xa5;" horiz-adv-x="563" 
d="M318 288v-102h221v-28h-221v-50q0 -53 13 -72.5t50 -19.5v-16h-209v17q33 -1 51.5 14t18.5 76v51h-221v28h221v102h-221v28h219l-104 162q-14 21 -25 35.5t-21 23.5q-12 10 -25 13.5t-31 4.5v18h224v-17q-31 -1 -45.5 -7.5t-13.5 -20.5q0 -6 3 -13.5t9 -16.5l95 -148h4
l73 120q9 13 14.5 27t4.5 26q0 14 -8.5 23t-28.5 9v18h157v-17q-21 -2 -34.5 -7.5t-25.5 -17.5q-7 -7 -14.5 -17t-16.5 -24l-111 -174h219v-28h-221v0z" />
    <glyph glyph-name="brokenbar" unicode="&#xa6;" 
 />
    <glyph glyph-name="section" unicode="&#xa7;" horiz-adv-x="417" 
d="M314 268q26 -26 36.5 -53t10.5 -57q0 -20 -4.5 -38t-14.5 -36q-9 -16 -23 -33t-33 -35q22 -24 34.5 -43t18.5 -36q2 -8 3 -16t1 -17q0 -56 -39.5 -91.5t-102.5 -35.5q-49 0 -85.5 28t-36.5 65q0 19 10 30.5t26 11.5q14 0 22.5 -9.5t8.5 -24.5q0 -6 -1.5 -12.5t-3.5 -11.5
q-3 -6 -4.5 -10.5t-1.5 -8.5q0 -17 19 -27.5t49 -10.5q44 0 70.5 20t26.5 54q0 37 -34.5 71t-76.5 66q-5 5 -11 9.5t-11 8.5q-13 10 -25 20.5t-22 20.5q-22 22 -35.5 39t-20.5 33q-5 13 -7 25.5t-2 27.5q0 29 9 53.5t28 48.5q8 10 18 20.5t22 20.5q-23 21 -38.5 48t-18.5 56
v4.5v5.5q0 54 38 88.5t99 34.5q53 0 89.5 -27.5t36.5 -66.5q0 -17 -10 -29t-25 -12q-14 0 -23.5 10t-9.5 24q0 6 1.5 11.5t3.5 11.5q2 5 3.5 10.5t1.5 11.5q0 16 -20 26t-51 10q-40 0 -66.5 -19.5t-26.5 -51.5q0 -26 16.5 -50t42.5 -47q17 -15 37 -31t41 -32
q16 -13 31.5 -26.5t29.5 -27.5v1zM146 320q-8 -7 -14.5 -13.5t-11.5 -12.5q-14 -16 -20 -32t-6 -35q0 -17 7 -33t19 -31q24 -29 64 -60t89 -74q19 19 30.5 34t16.5 30q2 6 3 13t1 14q0 6 -0.5 11.5t-2.5 10.5q-7 28 -44 63.5t-131 113.5v1z" />
    <glyph glyph-name="dieresis" unicode="&#xa8;" horiz-adv-x="333" 
d="M90 568q17 -1 29.5 -13.5t12.5 -29.5t-12.5 -29.5t-29.5 -12.5t-29.5 12.5t-12.5 29.5t12.5 29.5t29.5 12.5v1zM244 568q17 -1 29.5 -13.5t12.5 -29.5t-12.5 -29.5t-29.5 -12.5t-29.5 12.5t-12.5 29.5t12.5 29.5t29.5 12.5v1z" />
    <glyph glyph-name="copyright" unicode="&#xa9;" horiz-adv-x="760" 
d="M379 670q143 -1 244.5 -102t101.5 -244t-101.5 -244t-244.5 -101t-244 101t-101 244t101 244t244 101v1zM379 644q-132 -1 -225.5 -94.5t-93.5 -225.5t93.5 -226t225.5 -94t226 94t94 226t-94 225.5t-226 93.5v1zM534 555l9 -145h-15q-16 63 -54 91t-85 28
q-66 0 -107 -55t-41 -143t42 -139.5t115 -51.5q37 0 66.5 14t57.5 45q5 6 10.5 12.5t10.5 13.5l10 -6q-31 -54 -74 -81t-96 -27q-90 0 -149 61.5t-59 154.5q0 94 61 158.5t149 64.5q23 0 40 -4t30 -8q10 -4 19 -7.5t17 -4.5q2 -1 4 -1h4q8 0 13.5 7.5t6.5 21.5l15 1v0z" />
    <glyph glyph-name="ellipsis" unicode="&#xaa;" horiz-adv-x="240" 
d="M217 408h17q0 -20 -13.5 -32.5t-35.5 -12.5q-14 0 -24.5 6t-15.5 18q-4 -3 -7.5 -6t-6.5 -5q-10 -7 -21 -10t-24 -3q-28 0 -48 16.5t-20 39.5q0 30 25 42t58 21q3 1 6.5 2t7.5 2q7 2 15 4t15 5v22q0 19 -13.5 31t-34.5 12q-23 0 -36 -11.5t-23 -32.5l-17 1q8 31 32 50
t57 19q5 0 10.5 -0.5t10.5 -1.5q24 -5 44 -22.5t20 -52.5v-92q0 -17 2 -23.5t7 -6.5t8 5t5 15v1zM145 408v72q-7 -3 -14 -5t-13 -4q-26 -9 -37.5 -19t-11.5 -30q0 -16 9.5 -27t23.5 -11q12 0 23.5 6.5t19.5 16.5v1z" />
    <glyph glyph-name="ydieresis" unicode="&#xab;" horiz-adv-x="417" 
d="M106 162l129 -183h-20l-189 183l189 183h20l-129 -183v0zM267 162l129 -183h-20l-189 183l189 183h20l-129 -183v0z" />
    <glyph glyph-name="emdash" unicode="&#xac;" 
 />
    <glyph glyph-name="uni00AD" unicode="&#xad;" horiz-adv-x="500" 
 />
    <glyph glyph-name="registered" unicode="&#xae;" horiz-adv-x="760" 
d="M379 670q143 -1 244.5 -102t101.5 -244t-101.5 -244t-244.5 -101t-244 101t-101 244t101 244t244 101v1zM379 644q-132 -1 -225.5 -94.5t-93.5 -225.5t93.5 -226t225.5 -94t226 94t94 226t-94 225.5t-226 93.5v1zM301 312v-107q0 -43 11 -56.5t53 -13.5l-3 -16h-180l4 17
q39 -1 48.5 10.5t9.5 57.5v258q0 37 -10.5 50t-42.5 13l-8 1l3 15h164q81 -1 114.5 -34.5t33.5 -74.5q0 -43 -29 -71t-80 -33l94 -128q10 -15 18.5 -25t16.5 -17q12 -12 26 -17t35 -6l-3 -16h-96l-144 193l-17 5l-18 -5v0zM301 337h21q55 -1 84 26.5t29 73.5q0 38 -24 60
t-68 22q-5 0 -9.5 -0.5t-8.5 -0.5q-6 -1 -11.5 -2.5t-12.5 -4.5v-174v0z" />
    <glyph glyph-name="glyph263" unicode="&#xaf;" 
 />
    <glyph glyph-name="glyph264" unicode="&#xb0;" 
 />
    <glyph glyph-name="mu" unicode="&#xb1;" horiz-adv-x="667" 
d="M71 25h525v-43h-525v43v0zM71 419h241v241h43v-241h241v-43h-241v-241h-43v241h-241v43v0z" />
    <glyph glyph-name="uni00B2" unicode="&#xb2;" 
 />
    <glyph glyph-name="uni00B3" unicode="&#xb3;" 
 />
    <glyph glyph-name="acute" unicode="&#xb4;" horiz-adv-x="333" 
d="M189 628h55l-101 -200h-19l65 200v0z" />
    <glyph glyph-name="oslash" unicode="&#xb5;" horiz-adv-x="510" 
d="M126 30v-8.5v-6.5q-1 -4 -1 -7.5v-6.5q0 -34 4 -54t8 -33q2 -6 4 -10.5t4 -8.5q2 -7 3.5 -14t1.5 -17q0 -17 -11 -28t-28 -11q-16 0 -28.5 11t-12.5 27q0 7 1 13t3 11q2 8 5 16t7 20q5 20 10 56t5 103v282h68v-253q0 -38 22 -59.5t58 -21.5q26 0 49 14.5t45 43.5v276h68
v-297q0 -30 12.5 -40.5t48.5 -10.5v-16l-129 -7v65h-2q-26 -35 -57 -52t-68 -17q-27 0 -50 10t-40 30v1z" />
    <glyph glyph-name="paragraph" unicode="&#xb6;" horiz-adv-x="453" 
d="M351 634h-89v-851h-29v523q-130 -3 -179 48.5t-49 120.5v6.5v7.5q5 64 53.5 117.5t156.5 53.5l234 1l-4 -17q-41 -5 -53 -18.5t-12 -57.5v-785h-29v851v0z" />
    <glyph glyph-name="glyph265" unicode="&#xb7;" 
 />
    <glyph glyph-name="glyph121" unicode="&#xb8;" horiz-adv-x="333" 
d="M197 8l-17 -62q31 -6 49.5 -26t18.5 -47q0 -37 -32.5 -60t-96.5 -23h-6h-7v19q47 1 69 15.5t22 40.5q0 16 -11 26t-37 16l31 101h17v0z" />
    <glyph glyph-name="uni00B9" unicode="&#xb9;" 
 />
    <glyph glyph-name="Agrave" unicode="&#xba;" horiz-adv-x="292" 
d="M18 475q0 49 35.5 80t92.5 31t93 -31t36 -81q0 -49 -36 -80t-93 -31t-92.5 31t-35.5 80v1zM72 475q0 -47 19.5 -72.5t54.5 -25.5t55 25.5t20 71.5q0 47 -20 72.5t-55 25.5t-54.5 -25.5t-19.5 -72.5v1z" />
    <glyph glyph-name="Ydieresis" unicode="&#xbb;" horiz-adv-x="417" 
d="M149 162l-128 183h20l188 -183l-188 -183h-20l128 183v0zM311 162l-128 183h20l188 -183l-188 -183h-20l128 183v0z" />
    <glyph glyph-name="onequarter" unicode="&#xbc;" 
 />
    <glyph glyph-name="glyph243" unicode="&#xbd;" horiz-adv-x="750" 
d="M600 587l-420 -587h-30l416 587h34v0zM522 218h-21q2 41 29.5 69.5t66.5 28.5q38 0 64.5 -26.5t26.5 -64.5q0 -7 -0.5 -13.5t-2.5 -12.5q-8 -33 -40.5 -70t-103.5 -93v-1h155v-35h-205v26q86 70 115.5 114t29.5 72t-15.5 43.5t-41.5 15.5q-25 0 -39.5 -13.5t-17.5 -40.5
v1zM128 319v194v0.5v0.5q0 5 -1.5 9t-4.5 4t-7 -1.5t-11 -3.5q-5 -2 -11.5 -3t-14.5 -2v20q15 6 28.5 12.5t24.5 13.5q10 6 18 12.5t13 13.5l13 1v-269v-3.5v-2.5q0 -14 6.5 -17t28.5 -3v-21h-116v22q25 -1 29.5 2.5t4.5 19.5v1z" />
    <glyph glyph-name="threequarters" unicode="&#xbe;" 
 />
    <glyph glyph-name="oe" unicode="&#xbf;" horiz-adv-x="313" 
d="M173 204h19v-111q0 -40 -21 -65t-46 -44q-3 -2 -5.5 -4t-4.5 -4q-23 -18 -40.5 -38.5t-17.5 -50.5q0 -35 29 -56.5t76 -21.5q16 0 28.5 2t24.5 7q10 5 20.5 12t22.5 17v-23q-19 -29 -45.5 -44t-56.5 -15q-53 0 -89.5 45.5t-36.5 111.5q0 57 22.5 84.5t49.5 48.5
q1 1 3 2.5t3 2.5q25 19 45 42.5t20 69.5v32v0zM174 240q-19 -1 -33 13t-14 33q0 20 14 34t33 14q20 0 34 -14t14 -34q0 -19 -14 -33t-34 -14v1z" />
    <glyph glyph-name="currency" unicode="&#xc0;" horiz-adv-x="594" 
d="M415 73l-52 159h-185l-39 -115q-6 -20 -10.5 -36t-4.5 -29q1 -16 11 -25.5t35 -10.5v-16h-148v17q36 4 52 22.5t27 50.5q2 3 3.5 7.5t2.5 8.5l158 473h59l166 -493q1 -4 2 -7t2 -5q11 -33 27 -45.5t51 -12.5v-16h-202v17q23 -1 36 7.5t13 25.5q0 5 -1 10.5t-3 11.5v1z
M350 267l-79 243h-2l-80 -243h161v0zM275 806l65 -200h-19l-101 200h55v0z" />
    <glyph glyph-name="breve" unicode="&#xc1;" horiz-adv-x="594" 
d="M415 73l-52 159h-185l-39 -115q-6 -20 -10.5 -36t-4.5 -29q1 -16 11 -25.5t35 -10.5v-16h-148v17q36 4 52 22.5t27 50.5q2 3 3.5 7.5t2.5 8.5l158 473h59l166 -493q1 -4 2 -7t2 -5q11 -33 27 -45.5t51 -12.5v-16h-202v17q23 -1 36 7.5t13 25.5q0 5 -1 10.5t-3 11.5v1z
M350 267l-79 243h-2l-80 -243h161v0zM320 806h55l-101 -200h-19l65 200v0z" />
    <glyph glyph-name="tilde" unicode="&#xc2;" horiz-adv-x="594" 
d="M415 73l-52 159h-185l-39 -115q-6 -20 -10.5 -36t-4.5 -29q1 -16 11 -25.5t35 -10.5v-16h-148v17q36 4 52 22.5t27 50.5q2 3 3.5 7.5t2.5 8.5l158 473h59l166 -493q1 -4 2 -7t2 -5q11 -33 27 -45.5t51 -12.5v-16h-202v17q23 -1 36 7.5t13 25.5q0 5 -1 10.5t-3 11.5v1z
M350 267l-79 243h-2l-80 -243h161v0zM311 806l102 -196h-22l-96 130l-92 -130h-20l103 196h25v0z" />
    <glyph glyph-name="guilsinglleft" unicode="&#xc3;" horiz-adv-x="594" 
d="M415 73l-52 159h-185l-39 -115q-6 -20 -10.5 -36t-4.5 -29q1 -16 11 -25.5t35 -10.5v-16h-148v17q36 4 52 22.5t27 50.5q2 3 3.5 7.5t2.5 8.5l158 473h59l166 -493q1 -4 2 -7t2 -5q11 -33 27 -45.5t51 -12.5v-16h-202v17q23 -1 36 7.5t13 25.5q0 5 -1 10.5t-3 11.5v1z
M350 267l-79 243h-2l-80 -243h161v0zM426 728h18q-1 -36 -23.5 -61t-54.5 -25q-24 0 -45.5 7.5t-41.5 17.5q-19 9 -36 16.5t-32 7.5q-16 0 -26 -11t-15 -35l-19 1q1 33 26 58.5t56 25.5q21 0 40.5 -7t38.5 -16l3 -1.5l3 -1.5q18 -7 35.5 -13.5t34.5 -6.5q15 0 25.5 12
t12.5 31v1z" />
    <glyph glyph-name="Adieresis" unicode="&#xc4;" horiz-adv-x="594" 
d="M415 73l-52 159h-185l-39 -115q-6 -20 -10.5 -36t-4.5 -29q1 -16 11 -25.5t35 -10.5v-16h-148v17q36 4 52 22.5t27 50.5q2 3 3.5 7.5t2.5 8.5l158 473h59l166 -493q1 -4 2 -7t2 -5q11 -33 27 -45.5t51 -12.5v-16h-202v17q23 -1 36 7.5t13 25.5q0 5 -1 10.5t-3 11.5v1z
M350 267l-79 243h-2l-80 -243h161v0zM221 746q17 -1 29.5 -13.5t12.5 -29.5t-12.5 -29.5t-29.5 -12.5t-29.5 12.5t-12.5 29.5t12.5 29.5t29.5 12.5v1zM375 746q17 -1 29.5 -13.5t12.5 -29.5t-12.5 -29.5t-29.5 -12.5t-29.5 12.5t-12.5 29.5t12.5 29.5t29.5 12.5v1z" />
    <glyph glyph-name="Aring" unicode="&#xc5;" horiz-adv-x="594" 
d="M415 73l-52 159h-185l-39 -115q-6 -20 -10.5 -36t-4.5 -29q1 -16 11 -25.5t35 -10.5v-16h-148v17q36 4 52 22.5t27 50.5q2 3 3.5 7.5t2.5 8.5l158 473h59l166 -493q1 -4 2 -7t2 -5q11 -33 27 -45.5t51 -12.5v-16h-202v17q23 -1 36 7.5t13 25.5q0 5 -1 10.5t-3 11.5v1z
M350 267l-79 243h-2l-80 -243h161v0zM298 781q37 -1 62.5 -26.5t25.5 -62.5t-25.5 -62.5t-62.5 -25.5t-62.5 25.5t-25.5 62.5t25.5 62.5t62.5 25.5v1zM298 757q-26 -1 -45 -20t-19 -45t19 -45t45 -19t45 19t19 45t-19 45t-45 19v1z" />
    <glyph glyph-name="Oslash" unicode="&#xc6;" horiz-adv-x="771" 
d="M687 354v-140h-17q-6 32 -20.5 44.5t-43.5 12.5l-140 1v-189q0 -32 12 -44t44 -12l55 1q71 -1 97 8.5t43 52.5q2 3 3.5 7t2.5 8l17 1l-25 -105h-389v17q33 -1 48.5 16t15.5 75v164h-138l-79 -145q-11 -21 -17 -37.5t-6 -30.5q0 -16 11.5 -27t36.5 -16v-16h-184v17
q23 0 39 5t31 20q12 13 26 35t33 57l239 439h333v-98h-12q-10 40 -30.5 54.5t-51.5 14.5l-155 1v-245h129q40 -1 54 9t21 44l17 1v0zM390 300v228h-2l-121 -228h123v0z" />
    <glyph glyph-name="Ccedilla" unicode="&#xc7;" horiz-adv-x="615" 
d="M284 -93l25 80q-94 11 -171 81.5t-77 201.5q0 137 84 226.5t212 89.5q27 0 50.5 -3.5t43.5 -8.5q20 -4 36.5 -8t29.5 -4q11 0 19 4.5t12 13.5l16 1v-171h-17q-21 80 -66.5 117t-119.5 37q-103 0 -157.5 -74t-54.5 -184q0 -129 60.5 -207t157.5 -78q68 0 118 31.5t82 94.5
l15 -13q-28 -67 -91.5 -107t-153.5 -40h-2.5h-2.5h-3h-3l-11 -41q31 -6 49.5 -26t18.5 -47q0 -37 -32.5 -60t-96.5 -23h-6h-7v19q47 1 69 15.5t22 40.5q0 16 -11 26t-37 16v0z" />
    <glyph glyph-name="ring" unicode="&#xc8;" horiz-adv-x="510" 
d="M414 356v-139h-17q-1 1 -1.5 3t-0.5 4q-8 31 -22 39t-56 8l-142 1v-205q0 -22 9 -31t33 -9l100 1q52 -1 77.5 6t44.5 39q4 7 8.5 15t8.5 18l17 1l-26 -107h-413v17q34 -1 49.5 15.5t15.5 73.5v359q0 52 -14 71t-51 19v18h413v-96h-11q-10 46 -29.5 56.5t-66.5 10.5
l-165 1v-245h160q29 -1 42.5 8.5t19.5 46.5l17 1v0zM233 806l65 -200h-19l-101 200h55v0z" />
    <glyph glyph-name="Eacute" unicode="&#xc9;" horiz-adv-x="510" 
d="M414 356v-139h-17q-1 1 -1.5 3t-0.5 4q-8 31 -22 39t-56 8l-142 1v-205q0 -22 9 -31t33 -9l100 1q52 -1 77.5 6t44.5 39q4 7 8.5 15t8.5 18l17 1l-26 -107h-413v17q34 -1 49.5 15.5t15.5 73.5v359q0 52 -14 71t-51 19v18h413v-96h-11q-10 46 -29.5 56.5t-66.5 10.5
l-165 1v-245h160q29 -1 42.5 8.5t19.5 46.5l17 1v0zM278 806h55l-101 -200h-19l65 200v0z" />
    <glyph glyph-name="macron" unicode="&#xca;" horiz-adv-x="510" 
d="M414 356v-139h-17q-1 1 -1.5 3t-0.5 4q-8 31 -22 39t-56 8l-142 1v-205q0 -22 9 -31t33 -9l100 1q52 -1 77.5 6t44.5 39q4 7 8.5 15t8.5 18l17 1l-26 -107h-413v17q34 -1 49.5 15.5t15.5 73.5v359q0 52 -14 71t-51 19v18h413v-96h-11q-10 46 -29.5 56.5t-66.5 10.5
l-165 1v-245h160q29 -1 42.5 8.5t19.5 46.5l17 1v0zM269 806l102 -196h-22l-96 130l-92 -130h-20l103 196h25v0z" />
    <glyph glyph-name="dotaccent" unicode="&#xcb;" horiz-adv-x="510" 
d="M414 356v-139h-17q-1 1 -1.5 3t-0.5 4q-8 31 -22 39t-56 8l-142 1v-205q0 -22 9 -31t33 -9l100 1q52 -1 77.5 6t44.5 39q4 7 8.5 15t8.5 18l17 1l-26 -107h-413v17q34 -1 49.5 15.5t15.5 73.5v359q0 52 -14 71t-51 19v18h413v-96h-11q-10 46 -29.5 56.5t-66.5 10.5
l-165 1v-245h160q29 -1 42.5 8.5t19.5 46.5l17 1v0zM179 746q17 -1 29.5 -13.5t12.5 -29.5t-12.5 -29.5t-29.5 -12.5t-29.5 12.5t-12.5 29.5t12.5 29.5t29.5 12.5v1zM333 746q17 -1 29.5 -13.5t12.5 -29.5t-12.5 -29.5t-29.5 -12.5t-29.5 12.5t-12.5 29.5t12.5 29.5
t29.5 12.5v1z" />
    <glyph glyph-name="caron" unicode="&#xcc;" horiz-adv-x="260" 
d="M168 465v-357q0 -53 14.5 -72.5t50.5 -19.5v-16h-206v17q35 -1 50 17t15 73v358q0 53 -14 71.5t-51 18.5v18h206v-17q-36 -1 -50.5 -20.5t-14.5 -71.5v1zM108 806l65 -200h-19l-101 200h55v0z" />
    <glyph glyph-name="cedilla" unicode="&#xcd;" horiz-adv-x="260" 
d="M168 465v-357q0 -53 14.5 -72.5t50.5 -19.5v-16h-206v17q35 -1 50 17t15 73v358q0 53 -14 71.5t-51 18.5v18h206v-17q-36 -1 -50.5 -20.5t-14.5 -71.5v1zM153 806h55l-101 -200h-19l65 200v0z" />
    <glyph glyph-name="hungarumlaut" unicode="&#xce;" horiz-adv-x="260" 
d="M168 465v-357q0 -53 14.5 -72.5t50.5 -19.5v-16h-206v17q35 -1 50 17t15 73v358q0 53 -14 71.5t-51 18.5v18h206v-17q-36 -1 -50.5 -20.5t-14.5 -71.5v1zM144 806l102 -196h-22l-96 130l-92 -130h-20l103 196h25v0z" />
    <glyph glyph-name="ogonek" unicode="&#xcf;" horiz-adv-x="260" 
d="M168 465v-357q0 -53 14.5 -72.5t50.5 -19.5v-16h-206v17q35 -1 50 17t15 73v358q0 53 -14 71.5t-51 18.5v18h206v-17q-36 -1 -50.5 -20.5t-14.5 -71.5v1zM54 746q17 -1 29.5 -13.5t12.5 -29.5t-12.5 -29.5t-29.5 -12.5t-29.5 12.5t-12.5 29.5t12.5 29.5t29.5 12.5v1z
M208 746q17 -1 29.5 -13.5t12.5 -29.5t-12.5 -29.5t-29.5 -12.5t-29.5 12.5t-12.5 29.5t12.5 29.5t29.5 12.5v1z" />
    <glyph glyph-name="glyph232" unicode="&#xd0;" horiz-adv-x="667" 
d="M96 267h-65v28h65v170q0 51 -14.5 70.5t-50.5 19.5v18h271q152 -1 234.5 -92.5t82.5 -204.5q0 -108 -74.5 -192t-243.5 -84h-270v17q35 -1 50 18t15 72v160v0zM172 269v-141q0 -66 15 -89t58 -23l59 1q107 -1 167 68.5t60 189.5v8v9q-4 98 -62 180.5t-188 82.5l-109 1
v-259h176v-28h-176v0z" />
    <glyph glyph-name="Ntilde" unicode="&#xd1;" horiz-adv-x="667" 
d="M555 466v-466h-17l-404 498h-2v-402q0 -44 18 -62t57 -18v-16h-174v17q36 -1 53.5 17t17.5 80v336q0 47 -17 74t-68 31v18h147l358 -446h2v335q0 55 -16 74t-54 19v18h173v-17q-42 -1 -58 -21t-16 -70v1zM462 728h18q-1 -36 -23.5 -61t-54.5 -25q-24 0 -45.5 7.5
t-41.5 17.5q-19 9 -36 16.5t-32 7.5q-16 0 -26 -11t-15 -35l-19 1q1 33 26 58.5t56 25.5q21 0 40.5 -7t38.5 -16l3 -1.5l3 -1.5q18 -7 35.5 -13.5t34.5 -6.5q15 0 25.5 12t12.5 31v1z" />
    <glyph glyph-name="scaron" unicode="&#xd2;" 
 />
    <glyph glyph-name="Lslash" unicode="&#xd3;" horiz-adv-x="729" 
d="M59 289q0 127 88 212t219 85q128 0 216 -86.5t88 -211.5q0 -127 -89 -214.5t-217 -87.5t-216.5 87.5t-88.5 214.5v1zM147 288q0 -126 59.5 -203.5t156.5 -77.5q108 0 163.5 86t55.5 190q0 135 -62.5 208t-151.5 73q-101 0 -161 -76t-60 -201v1zM387 806h55l-101 -200h-19
l65 200v0z" />
    <glyph glyph-name="lslash" unicode="&#xd4;" horiz-adv-x="729" 
d="M59 289q0 127 88 212t219 85q128 0 216 -86.5t88 -211.5q0 -127 -89 -214.5t-217 -87.5t-216.5 87.5t-88.5 214.5v1zM147 288q0 -126 59.5 -203.5t156.5 -77.5q108 0 163.5 86t55.5 190q0 135 -62.5 208t-151.5 73q-101 0 -161 -76t-60 -201v1zM378 806l102 -196h-22
l-96 130l-92 -130h-20l103 196h25v0z" />
    <glyph glyph-name="guilsinglright" unicode="&#xd5;" horiz-adv-x="729" 
d="M59 289q0 127 88 212t219 85q128 0 216 -86.5t88 -211.5q0 -127 -89 -214.5t-217 -87.5t-216.5 87.5t-88.5 214.5v1zM147 288q0 -126 59.5 -203.5t156.5 -77.5q108 0 163.5 86t55.5 190q0 135 -62.5 208t-151.5 73q-101 0 -161 -76t-60 -201v1zM493 728h18
q-1 -36 -23.5 -61t-54.5 -25q-24 0 -45.5 7.5t-41.5 17.5q-19 9 -36 16.5t-32 7.5q-16 0 -26 -11t-15 -35l-19 1q1 33 26 58.5t56 25.5q21 0 40.5 -7t38.5 -16l3 -1.5l3 -1.5q18 -7 35.5 -13.5t34.5 -6.5q15 0 25.5 12t12.5 31v1z" />
    <glyph glyph-name="Odieresis" unicode="&#xd6;" horiz-adv-x="729" 
d="M59 289q0 127 88 212t219 85q128 0 216 -86.5t88 -211.5q0 -127 -89 -214.5t-217 -87.5t-216.5 87.5t-88.5 214.5v1zM147 288q0 -126 59.5 -203.5t156.5 -77.5q108 0 163.5 86t55.5 190q0 135 -62.5 208t-151.5 73q-101 0 -161 -76t-60 -201v1zM288 746q17 -1 29.5 -13.5
t12.5 -29.5t-12.5 -29.5t-29.5 -12.5t-29.5 12.5t-12.5 29.5t12.5 29.5t29.5 12.5v1zM442 746q17 -1 29.5 -13.5t12.5 -29.5t-12.5 -29.5t-29.5 -12.5t-29.5 12.5t-12.5 29.5t12.5 29.5t29.5 12.5v1z" />
    <glyph glyph-name="multiply" unicode="&#xd7;" 
 />
    <glyph glyph-name="plusminus" unicode="&#xd8;" horiz-adv-x="729" 
d="M167 55l-80 -90l-12 12l80 90q-45 40 -70.5 98.5t-25.5 122.5q0 128 88 213t219 85h8.5h8.5q48 -3 94 -20.5t80 -45.5l58 67l12 -14l-56 -63q47 -42 73 -99.5t26 -122.5q0 -127 -89 -214.5t-217 -87.5q-61 0 -109 19t-88 49v1zM537 471l-338 -380q26 -40 67.5 -62
t96.5 -22q108 0 163.5 86.5t55.5 194.5q0 52 -10 92t-22 66q-4 7 -7 13t-6 11v1zM189 106l337 381q-25 35 -62 54t-77 22q-5 1 -9.5 1h-9.5q-101 0 -161 -77t-60 -205q0 -49 11 -94.5t31 -82.5v1z" />
    <glyph glyph-name="Thorn" unicode="&#xd9;" horiz-adv-x="667" 
d="M488 0v80q-41 -49 -87.5 -71.5t-103.5 -22.5q-104 0 -149.5 61t-45.5 135v283q0 56 -15.5 73t-49.5 17v18h207v-17q-35 -1 -50.5 -18.5t-15.5 -72.5v-289q0 -67 36.5 -109.5t109.5 -42.5q50 0 92 24.5t72 70.5v346q0 49 -13 69t-48 21v18h202v-17q-36 -1 -50.5 -20.5
t-14.5 -71.5v-356q0 -57 16 -74.5t49 -17.5v-16h-141v0zM311 806l65 -200h-19l-101 200h55v0z" />
    <glyph glyph-name="Eth" unicode="&#xda;" horiz-adv-x="667" 
d="M488 0v80q-41 -49 -87.5 -71.5t-103.5 -22.5q-104 0 -149.5 61t-45.5 135v283q0 56 -15.5 73t-49.5 17v18h207v-17q-35 -1 -50.5 -18.5t-15.5 -72.5v-289q0 -67 36.5 -109.5t109.5 -42.5q50 0 92 24.5t72 70.5v346q0 49 -13 69t-48 21v18h202v-17q-36 -1 -50.5 -20.5
t-14.5 -71.5v-356q0 -57 16 -74.5t49 -17.5v-16h-141v0zM356 806h55l-101 -200h-19l65 200v0z" />
    <glyph glyph-name="eth" unicode="&#xdb;" horiz-adv-x="667" 
d="M488 0v80q-41 -49 -87.5 -71.5t-103.5 -22.5q-104 0 -149.5 61t-45.5 135v283q0 56 -15.5 73t-49.5 17v18h207v-17q-35 -1 -50.5 -18.5t-15.5 -72.5v-289q0 -67 36.5 -109.5t109.5 -42.5q50 0 92 24.5t72 70.5v346q0 49 -13 69t-48 21v18h202v-17q-36 -1 -50.5 -20.5
t-14.5 -71.5v-356q0 -57 16 -74.5t49 -17.5v-16h-141v0zM347 806l102 -196h-22l-96 130l-92 -130h-20l103 196h25v0z" />
    <glyph glyph-name="Udieresis" unicode="&#xdc;" horiz-adv-x="667" 
d="M488 0v80q-41 -49 -87.5 -71.5t-103.5 -22.5q-104 0 -149.5 61t-45.5 135v283q0 56 -15.5 73t-49.5 17v18h207v-17q-35 -1 -50.5 -18.5t-15.5 -72.5v-289q0 -67 36.5 -109.5t109.5 -42.5q50 0 92 24.5t72 70.5v346q0 49 -13 69t-48 21v18h202v-17q-36 -1 -50.5 -20.5
t-14.5 -71.5v-356q0 -57 16 -74.5t49 -17.5v-16h-141v0zM257 746q17 -1 29.5 -13.5t12.5 -29.5t-12.5 -29.5t-29.5 -12.5t-29.5 12.5t-12.5 29.5t12.5 29.5t29.5 12.5v1zM411 746q17 -1 29.5 -13.5t12.5 -29.5t-12.5 -29.5t-29.5 -12.5t-29.5 12.5t-12.5 29.5t12.5 29.5
t29.5 12.5v1z" />
    <glyph glyph-name="Yacute" unicode="&#xdd;" 
 />
    <glyph glyph-name="glyph236" unicode="&#xde;" horiz-adv-x="500" 
d="M103 106v359q0 52 -14.5 71t-50.5 19v18h206v-17q-30 -1 -47.5 -17t-17.5 -73v-24h68q112 -1 164 -48t57 -103q1 -3 1 -6.5v-6.5q0 -71 -52 -109.5t-150 -38.5h-6h-6q-15 0 -32.5 1.5t-43.5 4.5v-28q0 -54 14.5 -73t50.5 -19v-16h-206v17q30 -1 47.5 15t17.5 73v1z
M179 420v-257q8 -4 15 -6t14 -3q9 -1 19 -1.5t23 -0.5q64 0 101.5 33t37.5 91q0 9 -1 19t-4 20q-9 39 -40 71.5t-94 32.5l-71 1v0z" />
    <glyph glyph-name="germandbls" unicode="&#xdf;" horiz-adv-x="458" 
d="M134 432v-375q0 -23 11 -31t41 -10v-16h-180v17q40 -1 50 11t10 48v339q0 112 51 162.5t123 50.5q62 0 100 -31.5t54 -69.5q5 -13 7.5 -26t2.5 -24q0 -51 -31 -86t-94 -55v-1q71 -12 109 -54.5t38 -110.5q0 -79 -44 -126t-119 -47h-9.5t-8.5 1q-4 0 -8.5 0.5t-9.5 1.5
l-11 71h18q8 -27 20 -41.5t28 -14.5q33 0 51.5 38.5t18.5 105.5q0 92 -33.5 129.5t-102.5 37.5v18q65 5 89.5 34.5t24.5 98.5q0 74 -28 102t-72 28q-55 0 -75.5 -40.5t-20.5 -135.5v1z" />
    <glyph glyph-name="agrave" unicode="&#xe0;" horiz-adv-x="365" 
d="M294 234v-152q0 -32 4 -44t16 -12q6 0 9.5 3.5t7.5 10.5q1 4 3 9t4 11l17 1q-2 -34 -20.5 -53t-48.5 -19q-22 0 -36.5 11.5t-23.5 37.5q-12 -13 -22.5 -22t-20.5 -15q-12 -6 -24.5 -9t-27.5 -3q-41 0 -71 27t-30 66q0 48 34.5 69t76.5 33q6 2 12.5 3.5t13.5 3.5
q17 5 32 10t27 12v27q0 37 -20.5 61t-58.5 24q-30 0 -56.5 -19t-37.5 -57l-18 6q11 49 47 78.5t84 29.5q6 0 11.5 -0.5t11.5 -1.5q39 -6 72 -35.5t33 -92.5v1zM226 72v120q-15 -7 -29 -12t-26 -9q-32 -11 -52 -26.5t-20 -53.5q0 -27 16 -46t38 -19q7 0 15 2t17 6
q12 5 23.5 14.5t17.5 22.5v1zM160 628l65 -200h-19l-101 200h55v0z" />
    <glyph glyph-name="aacute" unicode="&#xe1;" horiz-adv-x="365" 
d="M294 234v-152q0 -32 4 -44t16 -12q6 0 9.5 3.5t7.5 10.5q1 4 3 9t4 11l17 1q-2 -34 -20.5 -53t-48.5 -19q-22 0 -36.5 11.5t-23.5 37.5q-12 -13 -22.5 -22t-20.5 -15q-12 -6 -24.5 -9t-27.5 -3q-41 0 -71 27t-30 66q0 48 34.5 69t76.5 33q6 2 12.5 3.5t13.5 3.5
q17 5 32 10t27 12v27q0 37 -20.5 61t-58.5 24q-30 0 -56.5 -19t-37.5 -57l-18 6q11 49 47 78.5t84 29.5q6 0 11.5 -0.5t11.5 -1.5q39 -6 72 -35.5t33 -92.5v1zM226 72v120q-15 -7 -29 -12t-26 -9q-32 -11 -52 -26.5t-20 -53.5q0 -27 16 -46t38 -19q7 0 15 2t17 6
q12 5 23.5 14.5t17.5 22.5v1zM205 628h55l-101 -200h-19l65 200v0z" />
    <glyph glyph-name="acircumflex" unicode="&#xe2;" horiz-adv-x="365" 
d="M294 234v-152q0 -32 4 -44t16 -12q6 0 9.5 3.5t7.5 10.5q1 4 3 9t4 11l17 1q-2 -34 -20.5 -53t-48.5 -19q-22 0 -36.5 11.5t-23.5 37.5q-12 -13 -22.5 -22t-20.5 -15q-12 -6 -24.5 -9t-27.5 -3q-41 0 -71 27t-30 66q0 48 34.5 69t76.5 33q6 2 12.5 3.5t13.5 3.5
q17 5 32 10t27 12v27q0 37 -20.5 61t-58.5 24q-30 0 -56.5 -19t-37.5 -57l-18 6q11 49 47 78.5t84 29.5q6 0 11.5 -0.5t11.5 -1.5q39 -6 72 -35.5t33 -92.5v1zM226 72v120q-15 -7 -29 -12t-26 -9q-32 -11 -52 -26.5t-20 -53.5q0 -27 16 -46t38 -19q7 0 15 2t17 6
q12 5 23.5 14.5t17.5 22.5v1zM196 628l102 -196h-22l-96 130l-92 -130h-20l103 196h25v0z" />
    <glyph glyph-name="atilde" unicode="&#xe3;" horiz-adv-x="365" 
d="M294 234v-152q0 -32 4 -44t16 -12q6 0 9.5 3.5t7.5 10.5q1 4 3 9t4 11l17 1q-2 -34 -20.5 -53t-48.5 -19q-22 0 -36.5 11.5t-23.5 37.5q-12 -13 -22.5 -22t-20.5 -15q-12 -6 -24.5 -9t-27.5 -3q-41 0 -71 27t-30 66q0 48 34.5 69t76.5 33q6 2 12.5 3.5t13.5 3.5
q17 5 32 10t27 12v27q0 37 -20.5 61t-58.5 24q-30 0 -56.5 -19t-37.5 -57l-18 6q11 49 47 78.5t84 29.5q6 0 11.5 -0.5t11.5 -1.5q39 -6 72 -35.5t33 -92.5v1zM226 72v120q-15 -7 -29 -12t-26 -9q-32 -11 -52 -26.5t-20 -53.5q0 -27 16 -46t38 -19q7 0 15 2t17 6
q12 5 23.5 14.5t17.5 22.5v1zM311 550h18q-1 -36 -23.5 -61t-54.5 -25q-24 0 -45.5 7.5t-41.5 17.5q-19 9 -36 16.5t-32 7.5q-16 0 -26 -11t-15 -35l-19 1q1 33 26 58.5t56 25.5q21 0 40.5 -7t38.5 -16l3 -1.5l3 -1.5q18 -7 35.5 -13.5t34.5 -6.5q15 0 25.5 12t12.5 31v1z
" />
    <glyph glyph-name="adieresis" unicode="&#xe4;" horiz-adv-x="365" 
d="M294 234v-152q0 -32 4 -44t16 -12q6 0 9.5 3.5t7.5 10.5q1 4 3 9t4 11l17 1q-2 -34 -20.5 -53t-48.5 -19q-22 0 -36.5 11.5t-23.5 37.5q-12 -13 -22.5 -22t-20.5 -15q-12 -6 -24.5 -9t-27.5 -3q-41 0 -71 27t-30 66q0 48 34.5 69t76.5 33q6 2 12.5 3.5t13.5 3.5
q17 5 32 10t27 12v27q0 37 -20.5 61t-58.5 24q-30 0 -56.5 -19t-37.5 -57l-18 6q11 49 47 78.5t84 29.5q6 0 11.5 -0.5t11.5 -1.5q39 -6 72 -35.5t33 -92.5v1zM226 72v120q-15 -7 -29 -12t-26 -9q-32 -11 -52 -26.5t-20 -53.5q0 -27 16 -46t38 -19q7 0 15 2t17 6
q12 5 23.5 14.5t17.5 22.5v1zM106 568q17 -1 29.5 -13.5t12.5 -29.5t-12.5 -29.5t-29.5 -12.5t-29.5 12.5t-12.5 29.5t12.5 29.5t29.5 12.5v1zM260 568q17 -1 29.5 -13.5t12.5 -29.5t-12.5 -29.5t-29.5 -12.5t-29.5 12.5t-12.5 29.5t12.5 29.5t29.5 12.5v1z" />
    <glyph glyph-name="aring" unicode="&#xe5;" horiz-adv-x="365" 
d="M294 234v-152q0 -32 4 -44t16 -12q6 0 9.5 3.5t7.5 10.5q1 4 3 9t4 11l17 1q-2 -34 -20.5 -53t-48.5 -19q-22 0 -36.5 11.5t-23.5 37.5q-12 -13 -22.5 -22t-20.5 -15q-12 -6 -24.5 -9t-27.5 -3q-41 0 -71 27t-30 66q0 48 34.5 69t76.5 33q6 2 12.5 3.5t13.5 3.5
q17 5 32 10t27 12v27q0 37 -20.5 61t-58.5 24q-30 0 -56.5 -19t-37.5 -57l-18 6q11 49 47 78.5t84 29.5q6 0 11.5 -0.5t11.5 -1.5q39 -6 72 -35.5t33 -92.5v1zM226 72v120q-15 -7 -29 -12t-26 -9q-32 -11 -52 -26.5t-20 -53.5q0 -27 16 -46t38 -19q7 0 15 2t17 6
q12 5 23.5 14.5t17.5 22.5v1zM183 603q37 -1 62.5 -26.5t25.5 -62.5t-25.5 -62.5t-62.5 -25.5t-62.5 25.5t-25.5 62.5t25.5 62.5t62.5 25.5v1zM183 579q-26 -1 -45 -20t-19 -45t19 -45t45 -19t45 19t19 45t-19 45t-45 19v1z" />
    <glyph glyph-name="Otilde" unicode="&#xe6;" horiz-adv-x="615" 
d="M56 252h-17q9 49 48.5 80t94.5 31q35 0 62 -13.5t48 -41.5q14 13 26.5 22.5t25.5 16.5q17 8 34.5 12t38.5 4h8t8 -1q51 -4 93.5 -40t42.5 -107l-256 1q-1 -10 -1.5 -18.5t-0.5 -16.5q1 -66 25.5 -101.5t54.5 -50.5q15 -7 29.5 -10t25.5 -3q28 0 51.5 9.5t46.5 30.5
q8 7 16 16t16 20v-26q-23 -37 -62 -57t-86 -20q-52 0 -93.5 18.5t-72.5 57.5q-28 -40 -58.5 -58t-67.5 -18q-45 0 -74 26.5t-29 69.5q0 11 2 20t6 17q3 6 8 12.5t12 13.5q18 18 41 25t48 11l12 2t13 3q16 3 33 9t32 16v20q0 40 -23 65t-61 25q-9 0 -21.5 -2.5t-25.5 -9.5
q-16 -8 -30 -22.5t-23 -38.5v1zM240 102v90q-4 -4 -9.5 -6t-12.5 -5q-10 -3 -21 -6t-22 -8q-27 -9 -50 -26t-23 -50q0 -27 18.5 -46t43.5 -19q6 0 14.5 1.5t16.5 5.5q17 8 31 24t14 44v1zM314 233h189q0 51 -27 79t-59 31q-2 1 -4.5 1h-5.5q-41 0 -67 -31.5t-26 -80.5v1z
" />
    <glyph glyph-name="ccedilla" unicode="&#xe7;" horiz-adv-x="385" 
d="M164 -93l26 83q-69 7 -112 55.5t-43 121.5q0 82 53.5 139t129.5 57q20 0 35.5 -3t27.5 -7l21 -7t16 -3t13.5 5t10.5 15l17 1v-125h-17q-11 47 -43 75.5t-76 28.5q-52 0 -85.5 -41t-33.5 -106q0 -73 39.5 -125.5t93.5 -52.5q12 0 25 2.5t26 7.5q22 8 43 24t38 40v-25
q-28 -40 -67.5 -59t-94.5 -19l-12 -43q31 -6 49.5 -26t18.5 -47q0 -37 -32.5 -60t-96.5 -23h-6h-7v19q47 1 69 15.5t22 40.5q0 16 -11 26t-37 16v0z" />
    <glyph glyph-name="egrave" unicode="&#xe8;" horiz-adv-x="406" 
d="M367 216h-260q-1 -81 25.5 -124t58.5 -60q15 -9 30 -12.5t27 -3.5q18 0 32 3.5t28 10.5q14 9 29.5 23.5t35.5 36.5v-25q-3 -5 -5.5 -8t-5.5 -7q-30 -33 -61.5 -47t-73.5 -14q-83 0 -137 51.5t-54 131.5t51.5 135.5t126.5 55.5q60 0 107 -41t46 -100v-3.5v-3.5v1zM107 233
h193v1v2v1v2q0 48 -24.5 72.5t-54.5 29.5q-4 0 -8 0.5t-8 0.5q-44 0 -69.5 -30t-28.5 -80v1zM181 628l65 -200h-19l-101 200h55v0z" />
    <glyph glyph-name="eacute" unicode="&#xe9;" horiz-adv-x="406" 
d="M367 216h-260q-1 -81 25.5 -124t58.5 -60q15 -9 30 -12.5t27 -3.5q18 0 32 3.5t28 10.5q14 9 29.5 23.5t35.5 36.5v-25q-3 -5 -5.5 -8t-5.5 -7q-30 -33 -61.5 -47t-73.5 -14q-83 0 -137 51.5t-54 131.5t51.5 135.5t126.5 55.5q60 0 107 -41t46 -100v-3.5v-3.5v1zM107 233
h193v1v2v1v2q0 48 -24.5 72.5t-54.5 29.5q-4 0 -8 0.5t-8 0.5q-44 0 -69.5 -30t-28.5 -80v1zM226 628h55l-101 -200h-19l65 200v0z" />
    <glyph glyph-name="ecircumflex" unicode="&#xea;" horiz-adv-x="406" 
d="M367 216h-260q-1 -81 25.5 -124t58.5 -60q15 -9 30 -12.5t27 -3.5q18 0 32 3.5t28 10.5q14 9 29.5 23.5t35.5 36.5v-25q-3 -5 -5.5 -8t-5.5 -7q-30 -33 -61.5 -47t-73.5 -14q-83 0 -137 51.5t-54 131.5t51.5 135.5t126.5 55.5q60 0 107 -41t46 -100v-3.5v-3.5v1zM107 233
h193v1v2v1v2q0 48 -24.5 72.5t-54.5 29.5q-4 0 -8 0.5t-8 0.5q-44 0 -69.5 -30t-28.5 -80v1zM217 628l102 -196h-22l-96 130l-92 -130h-20l103 196h25v0z" />
    <glyph glyph-name="edieresis" unicode="&#xeb;" horiz-adv-x="406" 
d="M367 216h-260q-1 -81 25.5 -124t58.5 -60q15 -9 30 -12.5t27 -3.5q18 0 32 3.5t28 10.5q14 9 29.5 23.5t35.5 36.5v-25q-3 -5 -5.5 -8t-5.5 -7q-30 -33 -61.5 -47t-73.5 -14q-83 0 -137 51.5t-54 131.5t51.5 135.5t126.5 55.5q60 0 107 -41t46 -100v-3.5v-3.5v1zM107 233
h193v1v2v1v2q0 48 -24.5 72.5t-54.5 29.5q-4 0 -8 0.5t-8 0.5q-44 0 -69.5 -30t-28.5 -80v1zM127 568q17 -1 29.5 -13.5t12.5 -29.5t-12.5 -29.5t-29.5 -12.5t-29.5 12.5t-12.5 29.5t12.5 29.5t29.5 12.5v1zM281 568q17 -1 29.5 -13.5t12.5 -29.5t-12.5 -29.5t-29.5 -12.5
t-29.5 12.5t-12.5 29.5t12.5 29.5t29.5 12.5v1z" />
    <glyph glyph-name="igrave" unicode="&#xec;" horiz-adv-x="229" 
d="M81 66v217q0 36 -14 44t-53 8v18l118 11h17v-298q0 -27 11 -38.5t48 -11.5v-16h-194v17q41 -1 54 8t13 40v1zM92 628l65 -200h-19l-101 200h55v0z" />
    <glyph glyph-name="iacute" unicode="&#xed;" horiz-adv-x="229" 
d="M81 66v217q0 36 -14 44t-53 8v18l118 11h17v-298q0 -27 11 -38.5t48 -11.5v-16h-194v17q41 -1 54 8t13 40v1zM137 628h55l-101 -200h-19l65 200v0z" />
    <glyph glyph-name="icircumflex" unicode="&#xee;" horiz-adv-x="229" 
d="M81 66v217q0 36 -14 44t-53 8v18l118 11h17v-298q0 -27 11 -38.5t48 -11.5v-16h-194v17q41 -1 54 8t13 40v1zM128 628l102 -196h-22l-96 130l-92 -130h-20l103 196h25v0z" />
    <glyph glyph-name="idieresis" unicode="&#xef;" horiz-adv-x="229" 
d="M81 66v217q0 36 -14 44t-53 8v18l118 11h17v-298q0 -27 11 -38.5t48 -11.5v-16h-194v17q41 -1 54 8t13 40v1zM38 568q17 -1 29.5 -13.5t12.5 -29.5t-12.5 -29.5t-29.5 -12.5t-29 12.5t-12 29.5t12 29.5t29 12.5v1zM192 568q17 -1 29.5 -13.5t12.5 -29.5t-12.5 -29.5
t-29.5 -12.5t-29.5 12.5t-12.5 29.5t12.5 29.5t29.5 12.5v1z" />
    <glyph glyph-name="glyph233" unicode="&#xf0;" horiz-adv-x="463" 
d="M393 611l-91 -60q24 -27 42.5 -56t32.5 -58q33 -71 42 -135t9 -91q0 -106 -54 -164t-144 -58q-82 0 -137 52.5t-55 133.5q0 80 54 134t132 54q27 0 49.5 -6t43.5 -18q4 -3 9 -6.5t10 -7.5q-5 25 -11.5 53t-16.5 56q-8 23 -19 46t-26 45l-108 -70l-11 16l108 70
q-15 19 -34.5 36.5t-44.5 31.5l27 19q26 -14 47.5 -30t40.5 -34l94 63l11 -16v0zM111 176q0 -77 32.5 -122.5t87.5 -45.5q56 0 88 46t32 128q0 74 -32 117.5t-88 43.5t-88 -45t-32 -123v1z" />
    <glyph glyph-name="ntilde" unicode="&#xf1;" horiz-adv-x="458" 
d="M385 237v-160q0 -35 11.5 -48t48.5 -13v-16h-189v17q36 -1 48.5 8.5t12.5 34.5v186q0 39 -22 58t-49 22h-4h-4q-13 0 -25.5 -4t-24.5 -13q-13 -8 -25.5 -21t-25.5 -31v-172q0 -41 10 -55t50 -14v-16h-187v17q35 -1 47 9t12 58v200q0 31 -11.5 41t-47.5 10v18l110 11h17
v-71l12.5 12.5l12.5 12.5q25 23 50.5 34t52.5 11h2.5h3.5q43 -2 78.5 -33.5t35.5 -93.5v1zM358 550h18q-1 -36 -23.5 -61t-54.5 -25q-24 0 -45.5 7.5t-41.5 17.5q-19 9 -36 16.5t-32 7.5q-16 0 -26 -11t-15 -35l-19 1q1 33 26 58.5t56 25.5q21 0 40.5 -7t38.5 -16l3 -1.5
l3 -1.5q18 -7 35.5 -13.5t34.5 -6.5q15 0 25.5 12t12.5 31v1z" />
    <glyph glyph-name="ograve" unicode="&#xf2;" horiz-adv-x="458" 
d="M423 176q0 -81 -55.5 -134t-138.5 -53t-138.5 53t-55.5 133q0 81 55.5 134.5t138.5 53.5t138.5 -53.5t55.5 -134.5v1zM349 176q0 66 -29 116.5t-91 50.5q-56 0 -88 -45.5t-32 -122.5q0 -68 29.5 -117.5t90.5 -49.5q63 0 91.5 51.5t28.5 115.5v1zM207 628l65 -200h-19
l-101 200h55v0z" />
    <glyph glyph-name="oacute" unicode="&#xf3;" horiz-adv-x="458" 
d="M423 176q0 -81 -55.5 -134t-138.5 -53t-138.5 53t-55.5 133q0 81 55.5 134.5t138.5 53.5t138.5 -53.5t55.5 -134.5v1zM349 176q0 66 -29 116.5t-91 50.5q-56 0 -88 -45.5t-32 -122.5q0 -68 29.5 -117.5t90.5 -49.5q63 0 91.5 51.5t28.5 115.5v1zM252 628h55l-101 -200
h-19l65 200v0z" />
    <glyph glyph-name="ocircumflex" unicode="&#xf4;" horiz-adv-x="458" 
d="M423 176q0 -81 -55.5 -134t-138.5 -53t-138.5 53t-55.5 133q0 81 55.5 134.5t138.5 53.5t138.5 -53.5t55.5 -134.5v1zM349 176q0 66 -29 116.5t-91 50.5q-56 0 -88 -45.5t-32 -122.5q0 -68 29.5 -117.5t90.5 -49.5q63 0 91.5 51.5t28.5 115.5v1zM243 628l102 -196h-22
l-96 130l-92 -130h-20l103 196h25v0z" />
    <glyph glyph-name="otilde" unicode="&#xf5;" horiz-adv-x="458" 
d="M423 176q0 -81 -55.5 -134t-138.5 -53t-138.5 53t-55.5 133q0 81 55.5 134.5t138.5 53.5t138.5 -53.5t55.5 -134.5v1zM349 176q0 66 -29 116.5t-91 50.5q-56 0 -88 -45.5t-32 -122.5q0 -68 29.5 -117.5t90.5 -49.5q63 0 91.5 51.5t28.5 115.5v1zM358 550h18
q-1 -36 -23.5 -61t-54.5 -25q-24 0 -45.5 7.5t-41.5 17.5q-19 9 -36 16.5t-32 7.5q-16 0 -26 -11t-15 -35l-19 1q1 33 26 58.5t56 25.5q21 0 40.5 -7t38.5 -16l3 -1.5l3 -1.5q18 -7 35.5 -13.5t34.5 -6.5q15 0 25.5 12t12.5 31v1z" />
    <glyph glyph-name="odieresis" unicode="&#xf6;" horiz-adv-x="458" 
d="M423 176q0 -81 -55.5 -134t-138.5 -53t-138.5 53t-55.5 133q0 81 55.5 134.5t138.5 53.5t138.5 -53.5t55.5 -134.5v1zM349 176q0 66 -29 116.5t-91 50.5q-56 0 -88 -45.5t-32 -122.5q0 -68 29.5 -117.5t90.5 -49.5q63 0 91.5 51.5t28.5 115.5v1zM153 568
q17 -1 29.5 -13.5t12.5 -29.5t-12.5 -29.5t-29.5 -12.5t-29.5 12.5t-12.5 29.5t12.5 29.5t29.5 12.5v1zM307 568q17 -1 29.5 -13.5t12.5 -29.5t-12.5 -29.5t-29.5 -12.5t-29.5 12.5t-12.5 29.5t12.5 29.5t29.5 12.5v1z" />
    <glyph glyph-name="Aacute" unicode="&#xf7;" 
 />
    <glyph glyph-name="OE" unicode="&#xf8;" horiz-adv-x="458" 
d="M349 328l47 52l12 -11l-48 -52q33 -28 48 -64.5t15 -77.5q0 -80 -55.5 -133t-138.5 -53q-36 0 -66.5 10t-57.5 30l-55 -61l-13 10l55 62q-26 24 -41.5 59.5t-15.5 75.5q0 81 55.5 134.5t138.5 53.5q27 0 51.5 -6t49.5 -19q4 -2 9 -5l10 -6v1zM327 279l-192 -216
q15 -25 37.5 -40t56.5 -15q63 0 91.5 51.5t28.5 115.5q0 33 -6 60t-16 43v1zM127 79l192 214q-14 22 -36.5 36t-53.5 14q-56 0 -88 -45.5t-32 -122.5q0 -30 5 -54.5t13 -42.5v1z" />
    <glyph glyph-name="ugrave" unicode="&#xf9;" horiz-adv-x="458" 
d="M385 364v-297q0 -30 12.5 -40.5t48.5 -10.5v-16l-129 -7v65h-2q-26 -35 -57 -52t-67 -17q-52 0 -84 34.5t-32 83.5v182q0 25 -12.5 35.5t-50.5 10.5v18l114 11h17v-253q0 -38 22 -59.5t58 -21.5q26 0 49 14.5t45 43.5v192q0 36 -11.5 45t-57.5 10v18l120 11h17v0z
M207 628l65 -200h-19l-101 200h55v0z" />
    <glyph glyph-name="uacute" unicode="&#xfa;" horiz-adv-x="458" 
d="M385 364v-297q0 -30 12.5 -40.5t48.5 -10.5v-16l-129 -7v65h-2q-26 -35 -57 -52t-67 -17q-52 0 -84 34.5t-32 83.5v182q0 25 -12.5 35.5t-50.5 10.5v18l114 11h17v-253q0 -38 22 -59.5t58 -21.5q26 0 49 14.5t45 43.5v192q0 36 -11.5 45t-57.5 10v18l120 11h17v0z
M252 628h55l-101 -200h-19l65 200v0z" />
    <glyph glyph-name="ucircumflex" unicode="&#xfb;" horiz-adv-x="458" 
d="M385 364v-297q0 -30 12.5 -40.5t48.5 -10.5v-16l-129 -7v65h-2q-26 -35 -57 -52t-67 -17q-52 0 -84 34.5t-32 83.5v182q0 25 -12.5 35.5t-50.5 10.5v18l114 11h17v-253q0 -38 22 -59.5t58 -21.5q26 0 49 14.5t45 43.5v192q0 36 -11.5 45t-57.5 10v18l120 11h17v0z
M243 628l102 -196h-22l-96 130l-92 -130h-20l103 196h25v0z" />
    <glyph glyph-name="udieresis" unicode="&#xfc;" horiz-adv-x="458" 
d="M385 364v-297q0 -30 12.5 -40.5t48.5 -10.5v-16l-129 -7v65h-2q-26 -35 -57 -52t-67 -17q-52 0 -84 34.5t-32 83.5v182q0 25 -12.5 35.5t-50.5 10.5v18l114 11h17v-253q0 -38 22 -59.5t58 -21.5q26 0 49 14.5t45 43.5v192q0 36 -11.5 45t-57.5 10v18l120 11h17v0z
M153 568q17 -1 29.5 -13.5t12.5 -29.5t-12.5 -29.5t-29.5 -12.5t-29.5 12.5t-12.5 29.5t12.5 29.5t29.5 12.5v1zM307 568q17 -1 29.5 -13.5t12.5 -29.5t-12.5 -29.5t-29.5 -12.5t-29.5 12.5t-12.5 29.5t12.5 29.5t29.5 12.5v1z" />
    <glyph glyph-name="yacute" unicode="&#xfd;" 
 />
    <glyph glyph-name="glyph237" unicode="&#xfe;" horiz-adv-x="458" 
d="M139 628v-324q17 16 32 27t30 19q14 7 29 10t32 3q69 0 114.5 -52.5t45.5 -132.5q0 -82 -50 -135.5t-126 -53.5q-13 0 -24.5 2t-23.5 6q-14 3 -28 11.5t-31 21.5v-232q0 -32 11 -45.5t48 -13.5v-17h-189v17q36 0 49 10t13 39v750q0 40 -10 50t-53 10v18l114 12h17v0z
M139 278v-222q15 -16 33.5 -26.5t38.5 -15.5q7 -1 13.5 -2t12.5 -1q47 0 79 44.5t32 110.5q0 71 -31.5 117.5t-81.5 46.5q-16 0 -30.5 -4.5t-27.5 -13.5q-9 -6 -18.5 -15t-19.5 -20v1z" />
    <glyph glyph-name="Egrave" unicode="&#xff;" horiz-adv-x="417" 
d="M161 282l85 -200l62 187q4 10 6 19.5t2 16.5q-1 14 -9 21.5t-27 8.5v18h125v-17q-28 -1 -47 -20.5t-34 -63.5l-141 -416q-18 -53 -44.5 -85.5t-53.5 -40.5q-5 -2 -9.5 -2.5t-9.5 -0.5q-4 0 -8 0.5t-7 1.5q-7 1 -13.5 4.5t-15.5 8.5l23 61q6 -3 11 -4.5t10 -2.5
q3 0 6 -0.5t7 -0.5q32 0 53 20t37 67l46 128l-127 293l-4 8l-4 8q-11 20 -24.5 27.5t-39.5 8.5v18h170v-17q-14 -3 -22.5 -11t-7.5 -21q0 -5 1 -11t4 -12v1zM132 568q17 -1 29.5 -13.5t12.5 -29.5t-12.5 -29.5t-29.5 -12.5t-29.5 12.5t-12.5 29.5t12.5 29.5t29.5 12.5v1z
M286 568q17 -1 29.5 -13.5t12.5 -29.5t-12.5 -29.5t-29.5 -12.5t-29.5 12.5t-12.5 29.5t12.5 29.5t29.5 12.5v1z" />
    <glyph glyph-name="Abreve" unicode="&#x102;" 
 />
    <glyph glyph-name="abreve" unicode="&#x103;" 
 />
    <glyph glyph-name="Aogonek" unicode="&#x104;" 
 />
    <glyph glyph-name="aogonek" unicode="&#x105;" 
 />
    <glyph glyph-name="Cacute" unicode="&#x106;" 
 />
    <glyph glyph-name="cacute" unicode="&#x107;" 
 />
    <glyph glyph-name="Ccaron" unicode="&#x10c;" 
 />
    <glyph glyph-name="ccaron" unicode="&#x10d;" 
 />
    <glyph glyph-name="Dcaron" unicode="&#x10e;" 
 />
    <glyph glyph-name="dcaron" unicode="&#x10f;" 
 />
    <glyph glyph-name="Dcroat" unicode="&#x110;" 
 />
    <glyph glyph-name="dcroat" unicode="&#x111;" 
 />
    <glyph glyph-name="Eogonek" unicode="&#x118;" 
 />
    <glyph glyph-name="eogonek" unicode="&#x119;" 
 />
    <glyph glyph-name="Ecaron" unicode="&#x11a;" 
 />
    <glyph glyph-name="ecaron" unicode="&#x11b;" 
 />
    <glyph glyph-name="Gbreve" unicode="&#x11e;" 
 />
    <glyph glyph-name="gbreve" unicode="&#x11f;" 
 />
    <glyph glyph-name="Idotaccent" unicode="&#x130;" 
 />
    <glyph glyph-name="thorn" unicode="&#x131;" horiz-adv-x="229" 
d="M81 66v217q0 36 -14 44t-53 8v18l118 11h17v-298q0 -27 11 -38.5t48 -11.5v-16h-194v17q41 -1 54 8t13 40v1z" />
    <glyph glyph-name="Lacute" unicode="&#x139;" 
 />
    <glyph glyph-name="lacute" unicode="&#x13a;" 
 />
    <glyph glyph-name="Lcaron" unicode="&#x13d;" 
 />
    <glyph glyph-name="lcaron" unicode="&#x13e;" 
 />
    <glyph glyph-name="Ldot" unicode="&#x13f;" 
 />
    <glyph glyph-name="ldot" unicode="&#x140;" 
 />
    <glyph glyph-name="glyph225" unicode="&#x141;" horiz-adv-x="500" 
d="M493 125l-35 -125h-415v17q35 -1 50 20.5t15 74.5v82l-77 -73v40l77 73v239q0 49 -15 65.5t-50 16.5v18h205v-17q-36 -1 -50 -23t-14 -68v-171l156 149v-40l-156 -150v-170q0 -35 14.5 -45.5t50.5 -10.5l114 1q46 -1 67.5 12.5t37.5 59.5q2 5 4 11t4 13l17 1v0z" />
    <glyph glyph-name="glyph226" unicode="&#x142;" horiz-adv-x="240" 
d="M156 628v-260h2l82 101v-35l-84 -101v-266q0 -29 11.5 -40t43.5 -11l9 1v-17h-197v17h18q27 -1 37 13t10 53v179h-2l-86 -106v35l88 105v255q0 25 -10 36t-38 11l-23 1v17l122 12h17v0z" />
    <glyph glyph-name="Nacute" unicode="&#x143;" 
 />
    <glyph glyph-name="nacute" unicode="&#x144;" 
 />
    <glyph glyph-name="Ncaron" unicode="&#x147;" 
 />
    <glyph glyph-name="ncaron" unicode="&#x148;" 
 />
    <glyph glyph-name="Ohungarumlaut" unicode="&#x150;" 
 />
    <glyph glyph-name="ohungarumlaut" unicode="&#x151;" 
 />
    <glyph glyph-name="fi" unicode="&#x152;" horiz-adv-x="917" 
d="M832 357v-138h-16q-6 29 -20 41.5t-46 12.5l-151 1v-191q0 -32 12.5 -44t46.5 -12l63 1q65 -1 98.5 15t47.5 65l16 1l-25 -109h-390q-17 0 -31.5 -0.5t-26.5 -0.5t-22 -0.5t-18 -0.5q-127 0 -217.5 83.5t-90.5 207.5q0 17 2.5 35t7.5 36q23 81 99 149t212 68
q17 0 37.5 -0.5t42.5 -1.5t41.5 -2t32.5 -1l321 1v-95h-14q-4 39 -28 52.5t-67 13.5l-150 1v-243h158q26 -1 38 11t21 43l16 1v0zM523 94v379q0 58 -35.5 70t-96.5 12q-109 0 -175 -72.5t-66 -196.5q0 -114 59.5 -190.5t183.5 -76.5q42 0 73 6t41 16q9 9 12.5 21t3.5 31v1z
" />
    <glyph glyph-name="fl" unicode="&#x153;" horiz-adv-x="719" 
d="M684 216h-261v-5v-4v-4v-4q0 -70 24.5 -109.5t54.5 -58.5q18 -11 35 -16t28 -5q14 0 27 3.5t26 10.5q17 10 35 26t36 39v-25q-12 -15 -23.5 -26.5t-22.5 -19.5q-22 -17 -45.5 -23t-55.5 -6q-50 0 -86.5 17t-68.5 54q-35 -40 -73 -55.5t-82 -15.5q-83 0 -139 53t-56 133
q0 79 55.5 133.5t134.5 54.5q48 0 89.5 -19t70.5 -55q27 37 63.5 55.5t78.5 18.5q62 0 109 -42t46 -102v-0.5v-1.5v-1.5v-0.5v1zM349 176q0 65 -27 116.5t-91 51.5q-58 0 -85.5 -43.5t-32.5 -95.5q-1 -8 -1.5 -15.5t-0.5 -14.5t0.5 -14.5t1.5 -15.5q5 -51 32.5 -94t85.5 -43
q50 0 84 41t34 126v1zM424 233h192q-4 53 -28 81.5t-67 28.5t-68 -29.5t-29 -81.5v1z" />
    <glyph glyph-name="Racute" unicode="&#x154;" 
 />
    <glyph glyph-name="racute" unicode="&#x155;" 
 />
    <glyph glyph-name="Rcaron" unicode="&#x158;" 
 />
    <glyph glyph-name="rcaron" unicode="&#x159;" 
 />
    <glyph glyph-name="Sacute" unicode="&#x15a;" 
 />
    <glyph glyph-name="sacute" unicode="&#x15b;" 
 />
    <glyph glyph-name="Scedilla" unicode="&#x15e;" 
 />
    <glyph glyph-name="scedilla" unicode="&#x15f;" 
 />
    <glyph glyph-name="glyph227" unicode="&#x160;" horiz-adv-x="417" 
d="M356 581v-134h-17q-6 60 -42.5 87.5t-77.5 29.5h-3.5h-3.5q-45 0 -74 -23t-29 -63q0 -47 33 -77t77 -56q7 -5 15 -10t16 -9q23 -14 45.5 -29.5t41.5 -34.5q20 -20 30.5 -39t15.5 -37q2 -10 3 -19t1 -19q0 -67 -47.5 -114.5t-115.5 -47.5q-23 0 -43.5 4.5t-37.5 9.5
q-17 6 -30 10.5t-20 4.5t-12.5 -5.5t-9.5 -15.5h-17v155h17q1 -57 27.5 -88t58.5 -44q14 -5 27.5 -7.5t24.5 -2.5q52 0 83.5 28t31.5 74q0 47 -38.5 80t-84.5 62q-8 5 -16.5 10t-16.5 11q-18 11 -34 22.5t-28 23.5q-26 26 -37.5 56t-11.5 64q0 66 43 107t113 41
q23 0 40 -3.5t31 -7.5q13 -4 23 -7.5t18 -3.5q5 0 7.5 1.5t5.5 6.5q0 2 0.5 4t1.5 4l16 1v0zM196 610l-102 196h22l96 -130l92 130h20l-103 -196h-25v0z" />
    <glyph glyph-name="glyph228" unicode="&#x161;" horiz-adv-x="313" 
d="M262 255h-20q-5 43 -30.5 65.5t-57.5 22.5q-26 0 -42.5 -13t-16.5 -35q0 -28 21.5 -44t49.5 -29q6 -3 11.5 -5.5t10.5 -4.5q35 -17 64 -41t29 -74q0 -44 -33 -76t-79 -32q-15 0 -28.5 4t-24.5 8q-12 5 -21.5 9t-15.5 4q-10 0 -16 -7t-7 -16h-17v121h17q9 -45 33 -68.5
t52 -31.5q7 -2 14.5 -3t14.5 -1q26 0 44 17.5t18 43.5q0 34 -25.5 51.5t-57.5 31.5q-3 2 -5.5 3t-5.5 2q-35 16 -64.5 37.5t-29.5 66.5q0 41 32 71.5t76 30.5q14 0 23.5 -2.5t17.5 -5.5q2 -2 4.5 -3t5.5 -2q5 -1 10 -2.5t11 -1.5q7 0 12 4t9 13l17 1v-109v0zM144 432
l-102 196h22l96 -130l92 130h20l-103 -196h-25v0z" />
    <glyph glyph-name="uni0162" unicode="&#x162;" 
 />
    <glyph glyph-name="uni0163" unicode="&#x163;" 
 />
    <glyph glyph-name="Tcaron" unicode="&#x164;" 
 />
    <glyph glyph-name="tcaron" unicode="&#x165;" 
 />
    <glyph glyph-name="Uring" unicode="&#x16e;" 
 />
    <glyph glyph-name="uring" unicode="&#x16f;" 
 />
    <glyph glyph-name="Uhungarumlaut" unicode="&#x170;" 
 />
    <glyph glyph-name="uhungarumlaut" unicode="&#x171;" 
 />
    <glyph glyph-name="Iacute" unicode="&#x178;" horiz-adv-x="563" 
d="M318 288v-180q0 -53 13 -72.5t50 -19.5v-16h-209v17q33 -1 51.5 14t18.5 76v181l-122 190q-14 20 -24.5 34.5t-20.5 22.5q-12 11 -25 15t-32 5v18h224v-17q-31 -1 -45 -8t-14 -20q0 -6 3 -14t9 -16l113 -173l91 144q10 14 15 28.5t5 26.5q0 14 -9 22.5t-29 8.5v18h157
v-17q-21 -2 -34.5 -7t-25.5 -18q-7 -7 -14.5 -17t-16.5 -24l-129 -202v0zM205 746q17 -1 29.5 -13.5t12.5 -29.5t-12.5 -29.5t-29.5 -12.5t-29.5 12.5t-12.5 29.5t12.5 29.5t29.5 12.5v1zM359 746q17 -1 29.5 -13.5t12.5 -29.5t-12.5 -29.5t-29.5 -12.5t-29.5 12.5
t-12.5 29.5t12.5 29.5t29.5 12.5v1z" />
    <glyph glyph-name="Zacute" unicode="&#x179;" 
 />
    <glyph glyph-name="zacute" unicode="&#x17a;" 
 />
    <glyph glyph-name="Zdotaccent" unicode="&#x17b;" 
 />
    <glyph glyph-name="zdotaccent" unicode="&#x17c;" 
 />
    <glyph glyph-name="Zcaron" unicode="&#x17d;" 
 />
    <glyph glyph-name="zcaron" unicode="&#x17e;" 
 />
    <glyph glyph-name="quotedblright" unicode="&#x192;" horiz-adv-x="625" 
d="M467 329v-27h-73l-66 -355q-15 -82 -47 -127.5t-67 -66.5q-29 -18 -56.5 -23t-45.5 -5q-35 0 -65.5 6t-48.5 17l15 74h17q10 -41 32 -59t53 -18h7.5t7.5 1q23 3 44 12.5t34 22.5q29 28 44 76t26 107l62 338h-69v27h74l31 143q14 65 57 106t105 41h9.5t8.5 -1q11 -1 23 -4
t27 -8l3 13h20l-18 -90h-20q-7 35 -22 52.5t-42 17.5q-37 0 -61.5 -34t-35.5 -84l-32 -152h69v0z" />
    <glyph glyph-name="uni02BA" unicode="&#x2ba;" horiz-adv-x="333" 
d="M119 628h55l-101 -200h-19l65 200v0zM222 628h55l-101 -200h-19l65 200v0z" />
    <glyph glyph-name="arrowright" unicode="&#x2c6;" horiz-adv-x="333" 
d="M295 550h18q-1 -36 -23.5 -61t-54.5 -25q-24 0 -45.5 7.5t-41.5 17.5q-19 9 -36 16.5t-32 7.5q-16 0 -26 -11t-15 -35l-19 1q1 33 26 58.5t56 25.5q21 0 40.5 -7t38.5 -16l3 -1.5l3 -1.5q18 -7 35.5 -13.5t34.5 -6.5q15 0 25.5 12t12.5 31v1z" />
    <glyph glyph-name="glyph224" unicode="&#x2c7;" horiz-adv-x="333" 
d="M154 432l-102 196h22l96 -130l92 130h20l-103 -196h-25v0z" />
    <glyph glyph-name="house" unicode="&#x2c9;" horiz-adv-x="333" 
d="M20 531h293v-43h-293v43v0z" />
    <glyph glyph-name="endash" unicode="&#x2d8;" horiz-adv-x="333" 
d="M290 586v-5v-4q0 -57 -27.5 -89t-60.5 -42q-9 -3 -18 -4.5t-17 -1.5q-4 0 -8.5 0.5t-8.5 0.5q-40 7 -74 42.5t-33 91.5v2.5v2.5v2.5v2.5l20 1q11 -43 36.5 -64t66.5 -21q42 0 68 21t36 63l20 1v0z" />
    <glyph glyph-name="sfthyphen" unicode="&#x2d9;" horiz-adv-x="333" 
d="M167 568q17 -1 29.5 -13.5t12.5 -29.5t-12.5 -29.5t-29.5 -12.5t-29.5 12.5t-12.5 29.5t12.5 29.5t29.5 12.5v1z" />
    <glyph glyph-name="filledbox" unicode="&#x2da;" horiz-adv-x="333" 
d="M167 603q37 -1 62.5 -26.5t25.5 -62.5t-25.5 -62.5t-62.5 -25.5t-62.5 25.5t-25.5 62.5t25.5 62.5t62.5 25.5v1zM167 579q-26 -1 -45 -20t-19 -45t19 -45t45 -19t45 19t19 45t-19 45t-45 19v1z" />
    <glyph glyph-name="glyph223" unicode="&#x2db;" horiz-adv-x="333" 
d="M140 7h23q-10 -20 -14 -36.5t-4 -32.5q0 -28 17.5 -44t48.5 -16q8 0 15.5 1t15.5 3q9 3 18 7t19 11l13 -13q-6 -6 -12 -11.5t-12 -9.5q-22 -16 -43.5 -23.5t-46.5 -7.5q-37 0 -59 20.5t-22 55.5q0 11 2 21.5t6 20.5q5 13 14 26.5t21 26.5v1z" />
    <glyph glyph-name="onehalf" unicode="&#x2dc;" horiz-adv-x="333" 
d="M180 628l102 -196h-22l-96 130l-92 -130h-20l103 196h25v0z" />
    <glyph glyph-name="Gamma" unicode="&#x393;" 
 />
    <glyph glyph-name="Theta" unicode="&#x398;" 
 />
    <glyph glyph-name="exclamdown" unicode="&#x3a3;" 
 />
    <glyph glyph-name="Phi" unicode="&#x3a6;" 
 />
    <glyph glyph-name="Atilde" unicode="&#x3a9;" 
 />
    <glyph glyph-name="alpha" unicode="&#x3b1;" 
 />
    <glyph glyph-name="delta" unicode="&#x3b4;" 
 />
    <glyph glyph-name="epsilon" unicode="&#x3b5;" 
 />
    <glyph glyph-name="guillemotleft" unicode="&#x3c0;" 
 />
    <glyph glyph-name="sigma" unicode="&#x3c3;" 
 />
    <glyph glyph-name="tau" unicode="&#x3c4;" 
 />
    <glyph glyph-name="phi" unicode="&#x3c6;" 
 />
    <glyph glyph-name="glyph259" unicode="&#x2013;" horiz-adv-x="500" 
d="M-6 199h512v-22h-512v22v0z" />
    <glyph glyph-name="periodcentered" unicode="&#x2014;" horiz-adv-x="1000" 
d="M-6 199h1012v-22h-1012v22v0z" />
    <glyph glyph-name="underscoredbl" unicode="&#x2017;" 
 />
    <glyph glyph-name="Acircumflex" unicode="&#x2018;" horiz-adv-x="292" 
d="M208 628v-17q-34 -21 -48 -46.5t-14 -60.5q0 -12 7 -16t16 -7q2 0 3 -0.5t3 -0.5q10 -3 19 -10.5t9 -28.5q0 -19 -12 -30.5t-31 -11.5q-28 0 -44.5 20.5t-16.5 54.5q0 56 30 97t79 56v1z" />
    <glyph glyph-name="Ecircumflex" unicode="&#x2019;" horiz-adv-x="292" 
d="M84 400v17q34 19 48 45t14 60q0 12 -7 16t-16 7q-2 0 -3 0.5t-2 0.5q-11 3 -20 10.5t-9 28.5q0 19 12 30.5t31 11.5q28 0 44.5 -20.5t16.5 -54.5q0 -55 -29.5 -96.5t-79.5 -56.5v1z" />
    <glyph glyph-name="Ugrave" unicode="&#x201a;" 
 />
    <glyph glyph-name="quotedblbase" unicode="&#x201c;" horiz-adv-x="313" 
d="M131 628v-17q-39 -20 -54.5 -45.5t-15.5 -67.5q0 -12 3.5 -15t14.5 -3q22 0 37 -14t15 -34q0 -19 -14 -33t-34 -14q-33 0 -53.5 27t-20.5 69q0 52 34 92.5t88 53.5v1zM290 628v-17q-37 -20 -53.5 -45.5t-16.5 -67.5q0 -12 3.5 -15t14.5 -3q22 0 37 -14t15 -34
q0 -19 -14 -33t-34 -14q-33 0 -53.5 27t-20.5 69q0 52 34 92.5t88 53.5v1z" />
    <glyph glyph-name="perthousand" unicode="&#x201d;" horiz-adv-x="313" 
d="M23 386v17q38 19 54 44t16 67q0 12 -3.5 15t-14.5 3q-22 0 -37 14t-15 34t14.5 33.5t33.5 13.5q33 0 53.5 -27t20.5 -69q0 -52 -34 -92.5t-88 -53.5v1zM182 386v17q38 18 54 43.5t16 67.5q0 12 -3.5 15t-14.5 3q-22 0 -37 14t-15 34t14.5 33.5t33.5 13.5q33 0 53.5 -27
t20.5 -69q0 -52 -34 -92.5t-88 -53.5v1z" />
    <glyph glyph-name="dotlessi" unicode="&#x201e;" horiz-adv-x="313" 
d="M18 -172v17q39 20 54.5 45t15.5 67q0 12 -3.5 15t-14.5 3q-22 0 -37 13.5t-15 33.5t14.5 33.5t33.5 13.5q33 0 53.5 -27t20.5 -68q0 -52 -34 -92.5t-88 -53.5v0zM171 -172v17q38 19 54 44.5t16 67.5q0 12 -3.5 15t-14.5 3q-22 0 -37 13.5t-15 33.5t14.5 33.5t33.5 13.5
q33 0 53.5 -27t20.5 -68q0 -52 -34 -92.5t-88 -53.5v0z" />
    <glyph glyph-name="dagger" unicode="&#x2020;" horiz-adv-x="417" 
d="M252 226q-17 -73 -24 -180.5t-10 -221.5q0 -12 -0.5 -23.5t-0.5 -23.5h-19q0 34 -1 70.5t-2 73.5q-4 91 -11.5 175.5t-19.5 128.5q19 24 27 53.5t8 66.5q-29 0 -47 -4t-30 -9q-5 -2 -9.5 -4t-8.5 -4q-7 -2 -13.5 -3.5t-14.5 -1.5q-19 0 -29 9.5t-10 26.5q0 16 10 25.5
t26 9.5q4 0 7.5 -0.5t6.5 -0.5q10 -2 19.5 -5.5t19.5 -6.5q15 -6 32.5 -10t40.5 -4q0 14 -2 29.5t-5 31.5q-2 8 -4 16.5t-3 16.5q-6 23 -10.5 42t-4.5 28q0 21 10 33t28 12t29 -11.5t11 -29.5q0 -14 -5 -33.5t-11 -41.5q-4 -13 -7.5 -27t-5.5 -28q-2 -9 -3 -19t-1 -19
q26 0 44 4t32 9q8 2 15.5 4.5t14.5 4.5q5 2 10.5 2.5t10.5 0.5q18 0 28 -9t10 -25q0 -14 -10 -25t-24 -11h-5.5t-4.5 1q-11 1 -22 4.5t-24 8.5q-15 5 -33.5 9t-41.5 4q0 -40 10.5 -71.5t26.5 -48.5v1z" />
    <glyph glyph-name="Uacute" unicode="&#x2021;" horiz-adv-x="417" 
d="M246 531q0 -18 -3 -31.5t-7 -26.5q-1 -4 -2.5 -7.5t-2.5 -7.5q-4 -14 -8.5 -30t-5.5 -38q18 0 35.5 3.5t32.5 7.5q16 4 29 7.5t23 3.5q15 0 25 -9t10 -23t-11 -23t-28 -9h-3.5h-2.5q-10 1 -20.5 4.5t-22.5 8.5q-13 4 -29.5 8t-37.5 4v-4.5v-4.5q0 -12 2 -22.5t6 -20.5
q4 -11 11 -22.5t16 -24.5q-16 -28 -23.5 -46.5t-9.5 -35.5q0 -4 -0.5 -8.5t-0.5 -8.5q0 -23 5.5 -44t17.5 -42q2 -4 4.5 -8t5.5 -8q-15 -29 -23 -49.5t-10 -37.5q-1 -2 -1 -4.5v-4.5q23 0 39.5 3.5t28.5 7.5q8 3 15 5l14 4q4 1 8.5 1.5t8.5 0.5q18 0 29 -8.5t11 -22.5
q0 -13 -11 -22.5t-25 -9.5q-10 0 -24.5 3.5t-29.5 8.5q-6 2 -12 3.5t-13 2.5q-10 3 -20 4.5t-19 1.5q0 -24 4 -40t10 -31q0 -1 0.5 -2.5t0.5 -2.5q5 -13 8.5 -26.5t3.5 -32.5q0 -22 -10 -35t-27 -13q-16 0 -26.5 12t-10.5 31q0 18 3.5 31t8.5 26l2 4l2 4q5 14 10 31.5
t5 43.5q-17 -1 -33.5 -4t-31.5 -7q-16 -5 -30 -8.5t-26 -3.5q-16 0 -26 9.5t-10 23.5q0 13 10.5 21t29.5 8q4 0 8 -0.5t9 -1.5q6 -2 13.5 -4t15.5 -5q13 -4 30 -7.5t41 -3.5q-2 22 -6 39t-12 33q-4 6 -7.5 12t-8.5 12q10 14 17.5 31.5t11.5 36.5q3 9 4 19t1 19q0 7 -0.5 13
t-1.5 11q-3 14 -10.5 29.5t-21.5 41.5q10 17 17 29.5t11 24.5q3 9 4.5 18t1.5 19v2v2v2v2q-23 0 -38 -3.5t-28 -7.5q-2 -1 -4.5 -2t-4.5 -2q-10 -3 -19.5 -5.5t-22.5 -2.5q-16 0 -27 9t-11 23t10 22.5t25 8.5q9 0 17 -1.5t16 -4.5q4 -1 8 -2.5t8 -3.5q13 -4 27.5 -7.5
t32.5 -3.5h3h3h2.5h2.5q0 14 -4 31t-9 35q0 1 -0.5 2.5t-0.5 3.5q-6 19 -10.5 37t-4.5 32q0 17 11.5 29t26.5 12q17 0 26.5 -11t9.5 -31v1z" />
    <glyph glyph-name="glyph262" unicode="&#x2022;" horiz-adv-x="350" 
d="M175 442q47 -1 79.5 -33.5t32.5 -79.5q0 -46 -32.5 -79t-79.5 -33q-46 0 -79 33t-33 79q0 47 33 79.5t79 32.5v1z" />
    <glyph glyph-name="fraction" unicode="&#x2026;" horiz-adv-x="1000" 
d="M166 70q20 -1 34 -14.5t14 -33.5q0 -19 -14 -33t-34 -14q-19 0 -33 14t-14 33q0 20 14 33.5t33 13.5v1zM500 70q20 -1 33.5 -14.5t13.5 -33.5q0 -19 -13.5 -33t-33.5 -14q-19 0 -33.5 14t-14.5 33q0 20 14.5 33.5t33.5 13.5v1zM832 70q20 -1 34 -14.5t14 -33.5
q0 -19 -14 -33t-34 -14q-19 0 -33 14t-14 33q0 20 14 33.5t33 13.5v1z" />
    <glyph glyph-name="circumflex" unicode="&#x2030;" horiz-adv-x="990" 
d="M662 156q0 -71 -35 -116t-88 -45t-88 45t-35 115t35 115.5t88 45.5t88 -45.5t35 -115.5v1zM539 21q31 -1 50.5 33.5t19.5 100.5t-19.5 100.5t-50.5 34.5q-32 0 -51 -35t-19 -104q0 -63 19.5 -97t50.5 -34v1zM961 156q0 -71 -35 -116t-88 -45t-88 45t-35 115t35 115.5
t88 45.5t88 -45.5t35 -115.5v1zM838 21q31 -1 50.5 33.5t19.5 100.5t-19.5 100.5t-50.5 34.5q-32 0 -51 -35t-19 -104q0 -63 19.5 -97t50.5 -34v1zM570 587l-416 -587h-34l416 587h34v0zM275 426q0 -71 -35 -116.5t-88 -45.5t-88 45.5t-35 115.5t35 115.5t88 45.5t88 -45.5
t35 -115.5v1zM152 291q31 -1 50.5 33.5t19.5 100.5t-19.5 100.5t-50.5 34.5q-32 0 -51 -35t-19 -104q0 -63 19.5 -97t50.5 -34v1z" />
    <glyph glyph-name="Igrave" unicode="&#x2039;" horiz-adv-x="260" 
d="M108 162l129 -183h-21l-188 183l188 183h21l-129 -183v0z" />
    <glyph glyph-name="Oacute" unicode="&#x203a;" horiz-adv-x="260" 
d="M152 162l-129 183h21l188 -183l-188 -183h-21l129 183v0z" />
    <glyph glyph-name="exclamdbl" unicode="&#x203c;" 
 />
    <glyph glyph-name="uni207F" unicode="&#x207f;" 
 />
    <glyph glyph-name="franc" unicode="&#x20a3;" 
 />
    <glyph glyph-name="peseta" unicode="&#x20a7;" 
 />
    <glyph glyph-name="trademark" unicode="&#x2122;" horiz-adv-x="980" 
d="M134 268v17h15q27 -1 35 14.5t8 58.5v281h-56q-33 -1 -47.5 -18t-16.5 -49l-17 1v90h334v-90h-17q-5 40 -19.5 52.5t-55.5 12.5l-45 1v-271q0 -52 9.5 -68t39.5 -16l9 1v-17h-176v0zM419 663h118l143 -306l141 306h113v-16h-15q-25 -2 -34 -12t-9 -36v-237q0 -52 9.5 -64
t47.5 -14v-16h-169v17q37 -1 47 13t10 63v243h-2l-150 -336h-8l-155 330h-2v-261q0 -35 9 -44t47 -9v-16h-141v17q36 -1 47 8t11 47v252q0 30 -11.5 40.5t-46.5 13.5v17v0z" />
    <glyph glyph-name="arrowleft" unicode="&#x2190;" 
 />
    <glyph glyph-name="arrowup" unicode="&#x2191;" 
 />
    <glyph glyph-name="glyph257" unicode="&#x2192;" horiz-adv-x="500" 
 />
    <glyph glyph-name="arrowdown" unicode="&#x2193;" 
 />
    <glyph glyph-name="arrowboth" unicode="&#x2194;" 
 />
    <glyph glyph-name="arrowupdn" unicode="&#x2195;" 
 />
    <glyph glyph-name="arrowupdnbse" unicode="&#x21a8;" 
 />
    <glyph glyph-name="questiondown" unicode="&#x2202;" 
 />
    <glyph glyph-name="quoteright" unicode="&#x2206;" 
 />
    <glyph glyph-name="florin" unicode="&#x220f;" 
 />
    <glyph glyph-name="minus" unicode="&#x2212;" 
 />
    <glyph glyph-name="Icircumflex" unicode="&#x2215;" horiz-adv-x="146" 
d="M298 587l-420 -587h-30l416 587h34v0z" />
    <glyph glyph-name="Ucircumflex" unicode="&#x2219;" horiz-adv-x="292" 
d="M146 346q20 -1 33.5 -14.5t13.5 -33.5q0 -19 -13.5 -33.5t-33.5 -14.5q-19 0 -33.5 14.5t-14.5 33.5q0 20 14.5 33.5t33.5 13.5v1z" />
    <glyph glyph-name="quotedblleft" unicode="&#x221a;" 
 />
    <glyph glyph-name="yen" unicode="&#x221e;" 
 />
    <glyph glyph-name="orthogonal" unicode="&#x221f;" 
 />
    <glyph glyph-name="intersection" unicode="&#x2229;" 
 />
    <glyph glyph-name="guillemotright" unicode="&#x222b;" 
 />
    <glyph glyph-name="quoteleft" unicode="&#x2248;" 
 />
    <glyph glyph-name="AE" unicode="&#x2260;" 
 />
    <glyph glyph-name="equivalence" unicode="&#x2261;" 
 />
    <glyph glyph-name="ordfeminine" unicode="&#x2264;" 
 />
    <glyph glyph-name="ordmasculine" unicode="&#x2265;" 
 />
    <glyph glyph-name="glyph258" unicode="&#x2302;" 
 />
    <glyph glyph-name="revlogicalnot" unicode="&#x2310;" 
 />
    <glyph glyph-name="integraltp" unicode="&#x2320;" 
 />
    <glyph glyph-name="integralbt" unicode="&#x2321;" 
 />
    <glyph glyph-name="SF100000" unicode="&#x2500;" 
 />
    <glyph glyph-name="SF110000" unicode="&#x2502;" 
 />
    <glyph glyph-name="SF010000" unicode="&#x250c;" 
 />
    <glyph glyph-name="SF030000" unicode="&#x2510;" 
 />
    <glyph glyph-name="SF020000" unicode="&#x2514;" 
 />
    <glyph glyph-name="SF040000" unicode="&#x2518;" 
 />
    <glyph glyph-name="SF080000" unicode="&#x251c;" 
 />
    <glyph glyph-name="SF090000" unicode="&#x2524;" 
 />
    <glyph glyph-name="SF060000" unicode="&#x252c;" 
 />
    <glyph glyph-name="SF070000" unicode="&#x2534;" 
 />
    <glyph glyph-name="SF050000" unicode="&#x253c;" 
 />
    <glyph glyph-name="SF430000" unicode="&#x2550;" 
 />
    <glyph glyph-name="SF240000" unicode="&#x2551;" 
 />
    <glyph glyph-name="SF510000" unicode="&#x2552;" 
 />
    <glyph glyph-name="SF520000" unicode="&#x2553;" 
 />
    <glyph glyph-name="SF390000" unicode="&#x2554;" 
 />
    <glyph glyph-name="SF220000" unicode="&#x2555;" 
 />
    <glyph glyph-name="SF210000" unicode="&#x2556;" 
 />
    <glyph glyph-name="SF250000" unicode="&#x2557;" 
 />
    <glyph glyph-name="SF500000" unicode="&#x2558;" 
 />
    <glyph glyph-name="SF490000" unicode="&#x2559;" 
 />
    <glyph glyph-name="SF380000" unicode="&#x255a;" 
 />
    <glyph glyph-name="SF280000" unicode="&#x255b;" 
 />
    <glyph glyph-name="SF270000" unicode="&#x255c;" 
 />
    <glyph glyph-name="SF260000" unicode="&#x255d;" 
 />
    <glyph glyph-name="SF360000" unicode="&#x255e;" 
 />
    <glyph glyph-name="SF370000" unicode="&#x255f;" 
 />
    <glyph glyph-name="SF420000" unicode="&#x2560;" 
 />
    <glyph glyph-name="SF190000" unicode="&#x2561;" 
 />
    <glyph glyph-name="SF200000" unicode="&#x2562;" 
 />
    <glyph glyph-name="SF230000" unicode="&#x2563;" 
 />
    <glyph glyph-name="SF470000" unicode="&#x2564;" 
 />
    <glyph glyph-name="SF480000" unicode="&#x2565;" 
 />
    <glyph glyph-name="SF410000" unicode="&#x2566;" 
 />
    <glyph glyph-name="SF450000" unicode="&#x2567;" 
 />
    <glyph glyph-name="SF460000" unicode="&#x2568;" 
 />
    <glyph glyph-name="SF400000" unicode="&#x2569;" 
 />
    <glyph glyph-name="SF540000" unicode="&#x256a;" 
 />
    <glyph glyph-name="SF530000" unicode="&#x256b;" 
 />
    <glyph glyph-name="SF440000" unicode="&#x256c;" 
 />
    <glyph glyph-name="upblock" unicode="&#x2580;" 
 />
    <glyph glyph-name="dnblock" unicode="&#x2584;" 
 />
    <glyph glyph-name="block" unicode="&#x2588;" 
 />
    <glyph glyph-name="lfblock" unicode="&#x258c;" 
 />
    <glyph glyph-name="rtblock" unicode="&#x2590;" 
 />
    <glyph glyph-name="ltshade" unicode="&#x2591;" 
 />
    <glyph glyph-name="shade" unicode="&#x2592;" 
 />
    <glyph glyph-name="dkshade" unicode="&#x2593;" 
 />
    <glyph glyph-name="glyph261" unicode="&#x25a0;" horiz-adv-x="500" 
 />
    <glyph glyph-name="filledrect" unicode="&#x25ac;" 
 />
    <glyph glyph-name="triagup" unicode="&#x25b2;" 
 />
    <glyph glyph-name="triagrt" unicode="&#x25ba;" 
 />
    <glyph glyph-name="triagdn" unicode="&#x25bc;" 
 />
    <glyph glyph-name="triaglf" unicode="&#x25c4;" 
 />
    <glyph glyph-name="Edieresis" unicode="&#x25ca;" 
 />
    <glyph glyph-name="circle" unicode="&#x25cb;" 
 />
    <glyph glyph-name="invbullet" unicode="&#x25d8;" 
 />
    <glyph glyph-name="invcircle" unicode="&#x25d9;" 
 />
    <glyph glyph-name="smileface" unicode="&#x263a;" 
 />
    <glyph glyph-name="invsmileface" unicode="&#x263b;" 
 />
    <glyph glyph-name="sun" unicode="&#x263c;" 
 />
    <glyph glyph-name="female" unicode="&#x2640;" 
 />
    <glyph glyph-name="male" unicode="&#x2642;" 
 />
    <glyph glyph-name="spade" unicode="&#x2660;" 
 />
    <glyph glyph-name="club" unicode="&#x2663;" 
 />
    <glyph glyph-name="heart" unicode="&#x2665;" 
 />
    <glyph glyph-name="diamond" unicode="&#x2666;" 
 />
    <glyph glyph-name="musicalnote" unicode="&#x266a;" 
 />
    <glyph glyph-name="musicalnotedbl" unicode="&#x266b;" 
 />
    <glyph glyph-name="Scaron" unicode="&#xf000;" 
 />
    <glyph glyph-name="Ocircumflex" unicode="&#xf001;" horiz-adv-x="458" 
d="M139 327v-263q0 -28 12.5 -38t46.5 -10v-16h-185v17q33 -1 45.5 8.5t12.5 42.5v259h-49v17q16 6 25.5 10.5t17.5 9.5q1 0 2 0.5t2 1.5l0.5 0.5t1.5 0.5q5 124 53 192t130 68h8h8q28 -2 56 -9t52 -19l-37 -91l-15 5q0 1 0.5 3t0.5 4v4v4q0 40 -24 60.5t-56 20.5
q-57 0 -82.5 -44t-25.5 -106v-106h140q21 -1 38 0.5t33 5.5q3 1 6.5 2t6.5 2l20 1v-308q0 -23 12 -31.5t44 -8.5v-16h-180v17q27 -1 41.5 8t14.5 32v215q0 36 -7 45t-39 9l-130 1v0z" />
    <glyph glyph-name="Ograve" unicode="&#xf002;" horiz-adv-x="458" 
d="M137 327v-261q0 -28 13 -39t44 -11v-16h-179v17q29 -1 41.5 7.5t12.5 35.5v267h-49v17q5 1 10.5 3.5t10.5 4.5l15 7.5t13 7.5v78q0 82 44 132t117 50q8 0 15.5 -0.5t14.5 -1.5q14 -3 28.5 -8.5t33.5 -14.5q4 1 8 3l8 4t7.5 4t6.5 4q5 3 8.5 5.5t6.5 4.5l16 1v-556
q0 -30 9 -43t47 -13v-16h-182v17q37 -1 47.5 9t10.5 62v412q0 55 -22.5 82t-66.5 27q-40 0 -64.5 -27t-24.5 -74v-155h120v-26h-120v0z" />
    <glyph glyph-name="degree" horiz-adv-x="399" 
d="M199 677q62 -1 106 -45t44 -106t-44 -106t-106 -44t-106 44t-44 106t44 106t106 44v1zM199 637q-46 -1 -78 -33t-32 -78t32 -78t78 -32t78 32t32 78t-32 78t-78 32v1z" />
    <glyph glyph-name="bullet" horiz-adv-x="350" 
d="M175 442q47 -1 79.5 -33.5t32.5 -79.5q0 -46 -32.5 -79t-79.5 -33q-46 0 -79 33t-33 79q0 47 33 79.5t79 32.5v1z" />
    <glyph glyph-name="daggerdbl" horiz-adv-x="500" 
d="M-6 199h512v-22h-512v22v0z" />
    </font>
</defs>
</svg>
