<?xml version="1.0" standalone="no"?>
<!DOCTYPE svg PUBLIC "-//W3C//DTD SVG 1.1//EN" "http://www.w3.org/Graphics/SVG/1.1/DTD/svg11.dtd" >
<svg xmlns="http://www.w3.org/2000/svg" xmlns:xlink="http://www.w3.org/1999/xlink" version="1.1">
<metadata>
Created by FontForge 20170731 at Sun Jan 11 20:33:20 2015
 By Aleksey,,,
Copyright (C) 1996 The Monotype Corporation. Rockwell(R) Trademark of The Monotype Corporation registered in the US Pat &#38; TM Off. and elsewhere. All rights reserved.
</metadata>
<defs>
<font id="Rockwell-Bold" horiz-adv-x="625" >
  <font-face 
    font-family="Rockwell"
    font-weight="700"
    font-stretch="normal"
    units-per-em="1000"
    panose-1="2 0 8 5 5 0 0 2 0 3"
    ascent="800"
    descent="-200"
    x-height="473"
    cap-height="679"
    bbox="-43 -224 1138 943"
    underline-thickness="50"
    underline-position="-200"
    unicode-range="U+0020-2122"
  />
<missing-glyph horiz-adv-x="250" 
 />
    <glyph glyph-name=".notdef" horiz-adv-x="250" 
 />
    <glyph glyph-name=".null" horiz-adv-x="0" 
 />
    <glyph glyph-name="nonmarkingreturn" horiz-adv-x="333" 
 />
    <glyph glyph-name="space" unicode=" " horiz-adv-x="250" 
 />
    <glyph glyph-name="exclam" unicode="!" horiz-adv-x="354" 
d="M261 164v-164h-161v164h161zM251 493l-38 -256h-71l-42 256v186h151v-186z" />
    <glyph glyph-name="quotedbl" unicode="&#x22;" horiz-adv-x="552" 
d="M147 366l-51 187q-11 39 -11 66q0 28 21.5 50t52.5 22q30 0 51 -21.5t21 -46.5q0 -20 -12 -70l-48 -187h-24zM382 366l-50 187q-11 46 -11 67q0 26 21.5 48.5t52.5 22.5t51.5 -22t20.5 -45q0 -13 -14 -71l-47 -187h-24z" />
    <glyph glyph-name="numbersign" unicode="#" horiz-adv-x="667" 
d="M157 407h-122v109h145l38 181h113l-37 -181h152l38 181h112l-38 -181h74v-109h-96l-26 -131h122v-109h-145l-38 -181h-113l38 181h-153l-38 -181h-113l37 181h-72v109h95zM396 276l27 131h-153l-26 -131h152z" />
    <glyph glyph-name="dollar" unicode="$" horiz-adv-x="562" 
d="M300 566v-162q101 -46 133 -69q81 -59 81 -158q0 -81 -59 -133.5t-155 -54.5v-85h-69v85q-96 14 -138 63.5t-49 137.5h121l-1 -7q0 -32 16.5 -58.5t50.5 -35.5v207q-89 42 -132.5 86.5t-43.5 110.5q0 68 48.5 115.5t127.5 54.5v25h69v-25q90 -9 138 -57t47 -123h-120
q-9 76 -65 83zM300 85h5q38 0 65 23.5t27 57.5q0 64 -97 101v-182zM231 435v130q-55 -11 -55 -57q0 -25 13 -40t42 -33z" />
    <glyph glyph-name="percent" unicode="%" horiz-adv-x="927" 
d="M754 679l-492 -679h-87l491 679h88zM182 328q-69 0 -106.5 46t-37.5 135t37 135.5t107 46.5q69 0 106.5 -46.5t37.5 -135.5t-37.5 -135t-106.5 -46zM181 390q41 0 41 119q0 120 -40 120t-40 -119q0 -120 39 -120zM745 -8q-69 0 -106.5 46t-37.5 135t37 135t107 46
q69 0 106.5 -46t37.5 -135t-37.5 -135t-106.5 -46zM744 54q41 0 41 118q0 120 -40 120t-40 -119t39 -119z" />
    <glyph glyph-name="ampersand" unicode="&#x26;" horiz-adv-x="802" 
d="M560 0l-62 75q-95 -86 -219 -86q-108 0 -175 60.5t-67 147.5q0 73 46.5 123t140.5 96q-53 63 -53 124q0 69 51.5 109.5t133.5 40.5q81 0 131.5 -40t50.5 -99q0 -94 -118 -154l97 -123q54 74 83 142h161v-109h-83q-37 -78 -82 -128l56 -70h109v-109h-201zM423 170
l-130 163q-101 -42 -101 -114q0 -42 32.5 -72.5t82.5 -30.5q57 0 116 54zM352 482q66 29 66 69q0 23 -16.5 36t-39.5 13q-22 0 -38.5 -11.5t-16.5 -31.5q0 -18 45 -75z" />
    <glyph glyph-name="quotesingle" unicode="'" horiz-adv-x="281" 
d="M130 366l-51 187q-11 39 -11 64q0 30 21 52t52 22q30 0 51.5 -21t21.5 -47q0 -22 -12 -70l-49 -187h-23z" />
    <glyph glyph-name="parenleft" unicode="(" horiz-adv-x="344" 
d="M316 688v-97q-67 -36 -91 -120.5t-24 -233.5t24 -233.5t91 -120.5v-96q-119 43 -194.5 160.5t-75.5 290.5t75 290t195 160z" />
    <glyph glyph-name="parenright" unicode=")" horiz-adv-x="344" 
d="M26 -213v99q68 36 92 120.5t24 233.5t-24 233.5t-92 120.5v98q120 -44 195.5 -161t75.5 -291q0 -166 -70 -282t-201 -171z" />
    <glyph glyph-name="asterisk" unicode="*" horiz-adv-x="573" 
d="M533 453l-75 -28q-30 8 -51 8q-29 0 -81 -14q27 -31 49 -48.5t55 -29.5l50 -68l-97 -69l-51 69q-2 50 -47 117q-41 -66 -41 -117l-47 -69l-99 69l49 68q30 10 51.5 28t49.5 50q-69 12 -82 12q-24 0 -46 -6l-82 28l39 114l82 -27q17 -24 39 -38.5t63 -34.5q-9 84 -36 129
v83h121v-83q-36 -52 -36 -123v-6q7 4 23.5 12t25.5 13t21.5 13t21.5 16.5t15 18.5l79 27z" />
    <glyph glyph-name="plus" unicode="+" horiz-adv-x="667" 
d="M269 270h-211v127h211v212h129v-212h211v-127h-211v-211h-129v211z" />
    <glyph glyph-name="comma" unicode="," horiz-adv-x="354" 
d="M96 164h163v-152q0 -98 -35.5 -144.5t-127.5 -46.5v74q42 5 61 28t19 68v9h-80v164z" />
    <glyph glyph-name="hyphen" unicode="-" horiz-adv-x="344" 
d="M306 302v-132h-273v132h273z" />
    <glyph glyph-name="period" unicode="." horiz-adv-x="354" 
d="M259 164v-164h-163v164h163z" />
    <glyph glyph-name="slash" unicode="/" 
d="M172 -9h-139l361 700h138z" />
    <glyph glyph-name="zero" unicode="0" horiz-adv-x="552" 
d="M278 -9q-113 0 -173 89.5t-60 260.5t60.5 260.5t172.5 89.5q113 0 173.5 -89.5t60.5 -260.5t-60.5 -260.5t-173.5 -89.5zM277 101q80 0 80 240t-78 240q-79 0 -79 -240t77 -240z" />
    <glyph glyph-name="one" unicode="1" horiz-adv-x="552" 
d="M446 109v-109h-332v109h93v461h-99v109h250v-570h88z" />
    <glyph glyph-name="two" unicode="2" horiz-adv-x="552" 
d="M375 109v88h110l-6 -197h-435q0 33 0.5 49.5t7 54.5t18.5 66t38 66t63 72q10 9 33 30.5t31 29t25.5 24.5t23.5 25l16.5 22t14 24t7 23.5t3.5 26.5q0 32 -19 52.5t-46 20.5q-42 0 -60.5 -35.5t-21.5 -108.5l-125 6q2 73 12 105q20 65 74 101t133 36q95 0 151.5 -52.5
t56.5 -134.5q0 -103 -95 -171q-10 -7 -35 -25t-34 -25t-29 -22t-28 -23t-23 -22t-21.5 -24t-15.5 -24t-13.5 -28t-7.5 -30h197z" />
    <glyph glyph-name="three" unicode="3" horiz-adv-x="552" 
d="M226 301v114q55 1 83 24.5t28 65.5q0 34 -20 55t-52 21q-34 0 -53 -21.5t-19 -62.5v-6l-128 10q4 91 60.5 140.5t149.5 49.5q98 0 154.5 -48.5t56.5 -130.5q0 -105 -103 -154q126 -40 126 -162q0 -94 -64 -150t-168 -56q-213 0 -233 218l131 10q1 -57 24.5 -87.5
t65.5 -30.5q38 0 63.5 27.5t25.5 73.5t-25.5 73.5t-72.5 27.5q-4 0 -15 -0.5t-15 -0.5z" />
    <glyph glyph-name="four" unicode="4" horiz-adv-x="552" 
d="M429 186v-86h57v-100h-273v100h76v86h-250q-16 51 -36 88l292 417h134v-410h66v-95h-66zM289 517l-169 -236h169v236z" />
    <glyph glyph-name="five" unicode="5" horiz-adv-x="552" 
d="M360 570h-175l-9 -162q52 37 115 37q94 0 152 -61.5t58 -159.5q0 -105 -62 -169t-175 -64q-98 0 -156 49.5t-72 141.5l129 16q8 -50 28 -73.5t61 -23.5q44 0 68 29t24 83q0 122 -89 122q-48 0 -81 -54l-109 54l20 344h381v-160h-99z" />
    <glyph glyph-name="six" unicode="6" horiz-adv-x="552" 
d="M490 510l-117 -10q-20 87 -80 87q-46 0 -73 -53.5t-28 -142.5q48 44 120 44q82 0 133.5 -55.5t51.5 -155.5q0 -110 -53.5 -171.5t-153.5 -61.5q-125 0 -185 85t-60 258q0 357 254 357q169 0 191 -181zM192 295q1 -100 23.5 -147t71.5 -47q34 0 54 29t20 86q0 53 -24 81
t-60 28q-42 0 -85 -30z" />
    <glyph glyph-name="seven" unicode="7" horiz-adv-x="552" 
d="M492 679v-83q-56 -70 -105.5 -218.5t-50.5 -268.5h86v-109h-328v109h86q6 101 54.5 234.5t116.5 230.5h-173v-96h-110v201h424z" />
    <glyph glyph-name="eight" unicode="8" horiz-adv-x="552" 
d="M516 189q0 -92 -62 -144.5t-178 -52.5q-113 0 -175 54.5t-62 144.5q0 120 122 166q-99 55 -99 156q0 80 58 129t159 49t158.5 -48.5t57.5 -127.5q0 -102 -98 -158q119 -45 119 -168zM359 495q0 42 -22.5 67t-58.5 25t-58 -25t-22 -68q0 -40 22.5 -65t57.5 -25
q36 0 58.5 25t22.5 66zM370 202q0 47 -25.5 77.5t-65.5 30.5t-65.5 -29.5t-25.5 -78.5q0 -48 25 -77t66 -29t66 29t25 77z" />
    <glyph glyph-name="nine" unicode="9" horiz-adv-x="552" 
d="M55 174l116 11q11 -44 29 -65.5t49 -21.5q47 0 71.5 48t31.5 146q-59 -43 -127 -43q-78 0 -129.5 58t-51.5 154q0 103 58 167t159 64q122 0 179.5 -87.5t57.5 -262.5q0 -174 -63.5 -262.5t-186.5 -88.5q-83 0 -134 46.5t-59 136.5zM352 389v7q0 85 -26.5 135.5
t-73.5 50.5q-31 0 -51.5 -29t-20.5 -83q0 -52 22.5 -81.5t63.5 -29.5q40 0 86 30z" />
    <glyph glyph-name="colon" unicode=":" horiz-adv-x="354" 
d="M260 164v-164h-163v164h163zM260 473v-164h-163v164h163z" />
    <glyph glyph-name="semicolon" unicode=";" horiz-adv-x="354" 
d="M96 164h163v-152q0 -99 -35 -145t-128 -46v74q41 5 60 28t19 68v9h-79v164zM259 478v-164h-163v164h163z" />
    <glyph glyph-name="less" unicode="&#x3c;" horiz-adv-x="667" 
d="M233 334l376 -148v-138l-551 228v115l551 229v-138z" />
    <glyph glyph-name="equal" unicode="=" horiz-adv-x="667" 
d="M609 389h-551v127h551v-127zM609 153h-551v127h551v-127z" />
    <glyph glyph-name="greater" unicode="&#x3e;" horiz-adv-x="667" 
d="M434 334l-376 148v138l551 -228v-115l-551 -229v138z" />
    <glyph glyph-name="question" unicode="?" horiz-adv-x="563" 
d="M329 164v-164h-163v164h163zM27 485v5q0 93 66.5 147t178.5 54t175 -54.5t63 -144.5q0 -84 -54 -135.5t-135 -51.5q-3 0 -11 0.5t-11 0.5l-16 -71h-70l-14 180q29 -9 51 -9q46 0 75.5 24.5t29.5 65.5q0 39 -26 65t-67 26t-63.5 -22.5t-22.5 -59.5q0 -12 2 -20h-151z" />
    <glyph glyph-name="at" unicode="@" horiz-adv-x="979" 
d="M400 0q-82 0 -133.5 57t-51.5 152q0 123 74.5 221.5t187.5 98.5q89 0 130 -66l12 54h129l-74 -350q-7 -33 -7 -43q0 -23 19 -23q46 0 109 77t63 179q0 123 -89 202.5t-241 79.5q-119 0 -208 -45.5t-139 -130.5q-62 -105 -62 -233q0 -158 108.5 -254.5t303.5 -96.5
q233 0 337 130h104q-52 -106 -162.5 -162.5t-269.5 -56.5q-241 0 -375.5 120.5t-134.5 324.5q0 191 116 330q137 163 385 163q186 0 300.5 -105t114.5 -268q0 -143 -93.5 -249t-227.5 -106q-77 0 -91 56q-58 -56 -134 -56zM339 199q0 -49 25.5 -79t63.5 -30q68 0 110 75
t42 165q0 47 -24 79t-67 32q-65 0 -107.5 -70t-42.5 -172z" />
    <glyph glyph-name="A" unicode="A" horiz-adv-x="698" 
d="M476 564l142 -449h82v-115h-334v115h87l-33 116h-176l-36 -116h91v-115h-301v115h84l133 449h-91v115h443v-115h-91zM336 536l-61 -205h118z" />
    <glyph glyph-name="B" unicode="B" horiz-adv-x="698" 
d="M343 0h-310v115h84v449h-84v115h310q72 0 113 -4t72 -20q42 -21 67 -63t25 -91q0 -99 -96 -140q122 -45 122 -163q0 -81 -59 -137q-41 -38 -96 -49.5t-148 -11.5zM364 296h-70v-181h49q61 0 91 17t30 73q0 43 -26 67t-74 24zM337 564h-43v-153h49q48 0 74.5 16t26.5 63
q0 46 -28 60t-79 14z" />
    <glyph glyph-name="C" unicode="C" horiz-adv-x="781" 
d="M598 626v53h115v-239h-115q-49 129 -169 129q-93 0 -147.5 -64t-54.5 -167q0 -99 53.5 -160t138.5 -61q68 0 119 45.5t70 129.5l133 -64q-76 -235 -335 -235q-174 0 -271.5 95t-97.5 252q0 156 100 253t258 97q120 0 203 -64z" />
    <glyph glyph-name="D" unicode="D" horiz-adv-x="802" 
d="M33 679h322q84 0 138 -7.5t105 -34.5q76 -41 120 -120t44 -179q0 -92 -37.5 -167.5t-100.5 -117.5q-37 -25 -82.5 -37t-76.5 -14t-89 -2h-343v115h103v449h-103v115zM355 564h-42v-449h42q98 0 144 32q78 54 78 190q0 85 -32.5 140.5t-94.5 75.5q-36 11 -95 11z" />
    <glyph glyph-name="E" unicode="E" horiz-adv-x="667" 
d="M631 216v-216h-598v115h82v449h-82v115h598v-215h-129v100h-210v-156h169v-115h-169v-178h210v101h129z" />
    <glyph glyph-name="F" unicode="F" horiz-adv-x="646" 
d="M406 115v-115h-378v115h97v449h-97v115h608v-209h-129v94h-205v-157h147v-115h-147v-177h104z" />
    <glyph glyph-name="G" unicode="G" horiz-adv-x="844" 
d="M621 623v56h115v-241h-115q-20 62 -73 96.5t-115 34.5q-84 0 -139.5 -59t-55.5 -157q0 -112 56.5 -175.5t143.5 -63.5q59 0 100.5 29.5t57.5 84.5h-120v115h319v-11q0 -164 -102 -251.5t-267 -87.5q-175 0 -276.5 96.5t-101.5 251.5q0 154 100.5 251.5t258.5 97.5
q138 0 214 -67z" />
    <glyph glyph-name="H" unicode="H" horiz-adv-x="760" 
d="M359 115v-115h-328v115h85v449h-85v115h328v-115h-71v-149h185v149h-69v115h326v-115h-85v-449h85v-115h-326v115h69v185h-185v-185h71z" />
    <glyph glyph-name="I" unicode="I" horiz-adv-x="427" 
d="M404 115v-115h-384v115h103v449h-103v115h384v-115h-104v-449h104z" />
    <glyph glyph-name="J" unicode="J" horiz-adv-x="406" 
d="M394 564h-91v-551q0 -108 -53.5 -165t-148.5 -57q-45 0 -102 12v123q26 -8 50 -8q47 0 62 26t15 75v545h-101v115h369v-115z" />
    <glyph glyph-name="K" unicode="K" horiz-adv-x="781" 
d="M367 115v-115h-347v115h92v449h-92v115h354v-115h-85v-449h78zM784 115v-115h-364v115h79l-206 242l222 207h-81v115h332v-115h-84l-191 -187l223 -262h70z" />
    <glyph glyph-name="L" unicode="L" horiz-adv-x="646" 
d="M635 325v-325h-607v115h97v449h-97v115h373v-115h-99v-449h200v210h133z" />
    <glyph glyph-name="M" unicode="M" horiz-adv-x="1042" 
d="M314 115v-115h-287v115h88v449h-88v115h340l150 -398l150 398h347v-115h-88v-449h88v-115h-342v115h82v449h-16l-211 -564h-73l-213 564h-16v-449h89z" />
    <glyph glyph-name="N" unicode="N" horiz-adv-x="792" 
d="M328 115v-115h-298v115h91v449h-91v115h285l250 -424v309h-88v115h305v-115h-96v-569h-151l-293 504v-384h86z" />
    <glyph glyph-name="O" unicode="O" horiz-adv-x="854" 
d="M427 690q174 0 275.5 -99.5t101.5 -249.5t-101 -249t-276 -99t-276.5 99.5t-101.5 248.5q0 150 101.5 249.5t276.5 99.5zM427 566q-81 0 -134.5 -60t-53.5 -168q0 -102 54 -163t134 -61t133.5 61t53.5 166t-53.5 165t-133.5 60z" />
    <glyph glyph-name="P" unicode="P" horiz-adv-x="667" 
d="M293 246v-131h94v-115h-358v115h87v449h-87v115h358q124 0 192.5 -58t68.5 -158q0 -80 -45.5 -135.5t-125.5 -72.5q-42 -9 -120 -9h-64zM361 564h-68v-203h26q72 0 108 21.5t36 79.5q0 46 -26.5 74t-75.5 28z" />
    <glyph glyph-name="Q" unicode="Q" horiz-adv-x="854" 
d="M347 -83q-51 0 -100 -41l-44 68q40 45 113 56q-123 31 -195 123t-72 216q0 150 102 250.5t276 100.5t275.5 -100.5t101.5 -250.5q0 -96 -44 -174t-123 -125q-63 -38 -167 -50q16 -6 45.5 -18t45 -17.5t39.5 -10.5t47 -5q21 0 28 1l-41 -111h-18q-52 0 -140 44t-129 44z
M427 566q-81 0 -134.5 -60.5t-53.5 -169.5q0 -102 53.5 -162.5t134.5 -60.5t134 60.5t53 169.5q0 102 -53.5 162.5t-133.5 60.5z" />
    <glyph glyph-name="R" unicode="R" horiz-adv-x="729" 
d="M533 320l110 -205h88v-115h-207l-153 298h-78v-183h85v-115h-355v115h93v449h-93v115h410q108 0 163 -53.5t55 -136.5q0 -116 -118 -169zM370 564h-77v-157h60q113 0 113 79q0 36 -24 57t-72 21z" />
    <glyph glyph-name="S" unicode="S" horiz-adv-x="531" 
d="M463 473h-115q-6 48 -33 74t-65 26q-29 0 -48.5 -15.5t-19.5 -39.5q0 -30 30 -50.5t112 -57.5q19 -8 29 -13q143 -65 143 -203q0 -96 -56 -149t-141 -53q-90 0 -138 66v-58h-115v231h115q3 -60 32 -91t73 -31q32 0 53.5 21t21.5 51q0 34 -31 60t-75 46t-88 44t-75 67
t-31 102q0 84 53 135t128 51q82 0 126 -63v56h115v-206z" />
    <glyph glyph-name="T" unicode="T" horiz-adv-x="677" 
d="M531 115v-115h-381v115h102v449h-103v-158h-115v273h615v-273h-115v158h-105v-449h102z" />
    <glyph glyph-name="U" unicode="U" horiz-adv-x="677" 
d="M95 257v307h-80v115h324v-115h-67v-307q0 -31 0.5 -44.5t4.5 -38t13 -36t26.5 -21t43.5 -9.5q56 0 78 35q8 12 11.5 33.5t4 36t0.5 53.5v298h-66v115h270v-115h-83v-339q0 -41 -1 -60t-9.5 -47.5t-26.5 -51.5q-60 -75 -197 -75q-92 0 -152 34.5t-82 98.5q-12 34 -12 133z
" />
    <glyph glyph-name="V" unicode="V" horiz-adv-x="698" 
d="M618 564l-195 -568h-141l-202 568h-81v115h347v-115h-88l114 -340l115 340h-87v115h301v-115h-83z" />
    <glyph glyph-name="W" unicode="W" horiz-adv-x="990" 
d="M495 305l-101 -309h-129l-194 568h-72v115h306v-115h-70l110 -326l104 326h-62v115h244v-115h-63l112 -326l107 326h-68v115h272v-115h-74l-188 -568h-126z" />
    <glyph glyph-name="X" unicode="X" horiz-adv-x="740" 
d="M311 110v-110h-313v115h100l165 234l-165 215h-93v115h349v-108h-65l101 -127l92 127h-62v108h302v-115h-95l-161 -222l178 -227h98v-115h-360v110h67l-106 139l-101 -139h69z" />
    <glyph glyph-name="Y" unicode="Y" horiz-adv-x="698" 
d="M537 115v-115h-367v115h95v183l-184 266h-83v115h340v-115h-67l99 -166l102 166h-70v115h299v-115h-83l-176 -266v-183h95z" />
    <glyph glyph-name="Z" unicode="Z" horiz-adv-x="646" 
d="M599 245v-245h-549v115l322 449h-189v-123h-115v238h525v-102l-332 -462h223v130h115z" />
    <glyph glyph-name="bracketleft" unicode="[" horiz-adv-x="417" 
d="M386 -103v-100h-276v882h276v-100h-125v-682h125z" />
    <glyph glyph-name="backslash" unicode="\" 
d="M452 -9l-360 700h139l360 -700h-139z" />
    <glyph glyph-name="bracketright" unicode="]" horiz-adv-x="417" 
d="M31 679h273v-882h-273v100h122v682h-122v100z" />
    <glyph glyph-name="asciicircum" unicode="^" horiz-adv-x="583" 
d="M292 577l-96 -239h-140l184 390h108l179 -390h-138z" />
    <glyph glyph-name="underscore" unicode="_" horiz-adv-x="500" 
d="M511 -125h-518v50h518v-50z" />
    <glyph glyph-name="grave" unicode="`" horiz-adv-x="333" 
d="M8 689h183l75 -155h-80z" />
    <glyph glyph-name="a" unicode="a" horiz-adv-x="583" 
d="M342 0v37q-63 -44 -129 -44q-72 0 -122 41.5t-50 106.5q0 68 53.5 114.5t138.5 46.5q45 0 109 -25v28q0 37 -25 60.5t-65 23.5q-46 0 -86 -38l-122 21q56 111 229 111q165 0 207 -95q13 -31 13 -106v-173h76v-109h-227zM342 136v39q-53 33 -87 33q-29 0 -48.5 -16
t-19.5 -42t17 -44.5t44 -18.5q40 0 94 49z" />
    <glyph glyph-name="b" unicode="b" 
d="M94 109v461h-80v109h233v-259q59 64 134 64q90 0 147.5 -68t57.5 -178q0 -113 -57 -178.5t-144 -65.5q-78 0 -138 60v-54h-233v109h80zM431 241q0 59 -24 90.5t-67 31.5t-68.5 -33t-25.5 -95q0 -58 25.5 -91t67.5 -33t67 33.5t25 96.5z" />
    <glyph glyph-name="c" unicode="c" horiz-adv-x="562" 
d="M415 434v38h103v-191h-108q-36 79 -114 79q-49 0 -79 -32.5t-30 -88.5q0 -63 30 -97.5t78 -34.5q34 0 66.5 20.5t53.5 56.5l117 -52q-64 -142 -229 -142q-123 0 -197 67.5t-74 179.5q0 108 69.5 176t170.5 68q74 0 143 -47z" />
    <glyph glyph-name="d" unicode="d" 
d="M379 0v56q-64 -62 -136 -62q-88 0 -146.5 70.5t-58.5 174.5q0 105 59.5 175t145.5 70q82 0 136 -63v149h-73v109h227v-570h75v-109h-229zM381 237q0 61 -26.5 93.5t-69.5 32.5t-67.5 -33.5t-24.5 -91.5t25.5 -92.5t67.5 -34.5q43 0 69 32.5t26 93.5z" />
    <glyph glyph-name="e" unicode="e" horiz-adv-x="573" 
d="M415 143l117 -38q-74 -116 -231 -116q-123 0 -194 65.5t-71 173.5q0 111 72.5 184t183.5 73q109 0 177.5 -73t68.5 -192q0 -1 -0.5 -7.5t-0.5 -7.5h-352q5 -57 31 -82q36 -36 89 -36q33 0 57 14t53 42zM188 289h198q-6 45 -33.5 70t-68.5 25q-82 0 -96 -95z" />
    <glyph glyph-name="f" unicode="f" horiz-adv-x="354" 
d="M249 364v-255h73v-109h-293v109h69v255h-64v109h64v43q0 79 48 127t135 48q110 0 158 -66l-110 -86q-17 51 -42 51q-38 0 -38 -66v-51h73v-109h-73z" />
    <glyph glyph-name="g" unicode="g" 
d="M530 364v-350q0 -234 -247 -234q-142 0 -211 51l73 100q56 -34 117 -34q117 0 117 126v36q-75 -64 -143 -64q-83 0 -140.5 68t-57.5 174q0 107 59.5 175t145.5 68q83 0 136 -65v58h229v-109h-78zM381 235q0 57 -26 90.5t-70 33.5t-68 -33t-24 -89q0 -55 25 -88t67 -33
q41 0 68.5 31.5t27.5 87.5z" />
    <glyph glyph-name="h" unicode="h" 
d="M321 109v-109h-294v109h72v461h-72v109h227v-244q72 48 134 48q92 0 128 -71q17 -32 17 -102v-201h69v-109h-220v303q0 29 -10 44t-38 15q-32 0 -80 -31v-222h67z" />
    <glyph glyph-name="i" unicode="i" horiz-adv-x="354" 
d="M114 109v255h-72v109h223v-364h70v-109h-293v109h72zM107 608q0 34 25 59t59 25t59 -25t25 -59t-24.5 -59t-59.5 -25t-59.5 25t-24.5 59z" />
    <glyph glyph-name="j" unicode="j" horiz-adv-x="354" 
d="M112 0v364h-73v109h224v-491q0 -101 -51 -145.5t-165 -44.5q-45 0 -54 1v122q16 -2 29 -2q32 0 51.5 5.5t27.5 19.5t9.5 26t1.5 36zM101 605q0 34 24 58t58 24q35 0 59 -24t24 -58t-24.5 -58.5t-58.5 -24.5t-58 24.5t-24 58.5z" />
    <glyph glyph-name="k" unicode="k" horiz-adv-x="646" 
d="M319 104v-104h-284v109h73v461h-73v109h228v-429l161 133h-100v89h286v-95h-48l-138 -118l126 -150h66v-109h-146l-207 250v-146h56z" />
    <glyph glyph-name="l" unicode="l" horiz-adv-x="354" 
d="M330 109v-109h-293v109h72v461h-72v109h227v-570h66z" />
    <glyph glyph-name="m" unicode="m" horiz-adv-x="990" 
d="M581 319v-210h87v-109h-238v273q0 79 -62 79q-47 0 -109 -33v-210h86v-109h-325v109h88v255h-88v109h239v-39q78 45 151 45q99 0 144 -64q91 64 190 64q92 0 132 -51q19 -24 24 -55t5 -84v-180h94v-109h-245v277q0 75 -64 75q-48 0 -109 -33z" />
    <glyph glyph-name="n" unicode="n" 
d="M260 473v-44q69 51 139 51q61 0 99 -37q44 -42 44 -146v-188h71v-109h-222v286q0 21 -2 33t-12.5 23t-30.5 11q-40 0 -86 -31v-213h73v-109h-296v109h72v255h-72v109h223z" />
    <glyph glyph-name="o" unicode="o" horiz-adv-x="573" 
d="M286 -11q-109 0 -179 68t-70 180q0 113 70 180.5t179 67.5t178.5 -68t69.5 -180q0 -113 -69.5 -180.5t-178.5 -67.5zM285 106q45 0 69.5 34.5t24.5 99.5q0 60 -25 94t-69 34t-68.5 -34t-24.5 -99q0 -61 25 -95t68 -34z" />
    <glyph glyph-name="p" unicode="p" 
d="M245 473v-60q37 34 67.5 50.5t73.5 16.5q87 0 144.5 -70t57.5 -178t-56.5 -175t-147.5 -67q-75 0 -139 59v-153h95v-109h-325v109h80v468h-67v109h217zM433 235q0 60 -25 92t-68 32t-69.5 -32t-26.5 -94q0 -59 27.5 -92.5t69.5 -33.5q43 0 67.5 33.5t24.5 94.5z" />
    <glyph glyph-name="q" unicode="q" 
d="M530 364v-468h82v-109h-325v109h92v153q-64 -59 -137 -59q-91 0 -147 69t-56 175t58 176t143 70q75 0 139 -67v60h233v-109h-82zM194 237q0 -62 24.5 -96t67.5 -34q42 0 68.5 34t26.5 97q0 56 -25.5 88.5t-68.5 32.5q-42 0 -67.5 -32t-25.5 -90z" />
    <glyph glyph-name="r" unicode="r" horiz-adv-x="448" 
d="M266 167v-58h94v-109h-333v109h88v255h-83v109h220v-120q16 58 61.5 92.5t103.5 34.5h25v-143h-17q-79 0 -119 -44.5t-40 -125.5z" />
    <glyph glyph-name="s" unicode="s" horiz-adv-x="510" 
d="M333 457v15h110v-136h-109q-15 50 -103 50q-31 0 -48.5 -10.5t-17.5 -27.5t21.5 -24.5t79.5 -16.5l10.5 -1.5t10 -1.5t11.5 -2q89 -15 132.5 -52.5t43.5 -102.5q0 -71 -50.5 -114.5t-139.5 -43.5q-81 0 -116 35v-24h-110v164h110q2 -34 31 -54t73 -20q36 0 57 13t21 33
q0 26 -35 35.5t-97 20t-102 32.5q-75 40 -75 117q0 59 48 99t126 40q65 0 118 -23z" />
    <glyph glyph-name="t" unicode="t" horiz-adv-x="344" 
d="M79 116v248h-60v109h60v74l151 108v-182h87v-109h-87v-205q0 -14 0.5 -20t4 -14t12 -11t23.5 -3q17 0 47 11v-105q-57 -23 -115 -23q-69 0 -101 40q-22 26 -22 82z" />
    <glyph glyph-name="u" unicode="u" 
d="M380 0v40q-69 -47 -137 -47q-66 0 -105.5 38.5t-39.5 108.5v224h-72v109h223v-295q0 -20 2 -31t13 -20.5t33 -9.5q38 0 83 34v213h-72v109h223v-364h77v-109h-228z" />
    <glyph glyph-name="v" unicode="v" horiz-adv-x="573" 
d="M508 364l-154 -371h-128l-160 371h-68v109h286v-109h-58l74 -215l87 215h-62v109h250v-109h-67z" />
    <glyph glyph-name="w" unicode="w" horiz-adv-x="812" 
d="M407 271l-91 -278h-132l-124 371h-60v109h257v-109h-51l58 -176l96 285h125l94 -285l58 176h-53v109h228v-109h-59l-122 -371h-131z" />
    <glyph glyph-name="x" unicode="x" horiz-adv-x="562" 
d="M271 133l-99 -133h-146v109h68l103 122l-103 133h-68v109h181l85 -130l94 130h142v-109h-63l-95 -114l111 -141h63v-109h-181z" />
    <glyph glyph-name="y" unicode="y" horiz-adv-x="594" 
d="M515 364l-227 -577h-165v109h91l31 84l-172 384h-68v109h283v-109h-56l79 -213l84 213h-61v109h248v-109h-67z" />
    <glyph glyph-name="z" unicode="z" horiz-adv-x="531" 
d="M493 177v-177h-458v99l278 279h-152v-73h-103v168h435v-98l-277 -280h178v82h99z" />
    <glyph glyph-name="braceleft" unicode="{" horiz-adv-x="385" 
d="M363 -102v-109h-26q-73 0 -104 10q-93 30 -95 130q0 17 -0.5 47t-1 43t-1.5 36t-3 32.5t-6 26t-9.5 23t-13.5 16t-18.5 13.5t-24 7.5t-31.5 4.5v111q62 3 83 34t23 105q3 113 6 133q12 74 72 99q45 19 124 19h26v-109h-6q-68 0 -81.5 -17.5t-14.5 -94.5v-13
q-2 -92 -18 -135.5t-71 -76.5q52 -29 70.5 -76t18.5 -134q0 -85 14 -105t81 -20h7z" />
    <glyph glyph-name="bar" unicode="|" 
d="M377 -213h-129v892h129v-892z" />
    <glyph glyph-name="braceright" unicode="}" horiz-adv-x="385" 
d="M22 679h26q70 0 104 -11q93 -30 95 -130q0 -17 0.5 -47t1 -43t1.5 -36t3 -32.5t6 -26t9.5 -23t13.5 -16t18.5 -13.5t24 -7.5t31.5 -4.5v-111q-63 -4 -83.5 -35.5t-22.5 -103.5q-3 -113 -7 -135q-12 -73 -73 -97q-45 -18 -122 -18h-26v109h7q60 0 75 13t18 55q1 20 2 62.5
t3.5 64t10.5 52t27 51.5t49 38q-52 32 -71 75t-19 136q0 87 -14 106t-82 19h-6v109z" />
    <glyph glyph-name="asciitilde" unicode="~" horiz-adv-x="583" 
d="M417 382q70 0 134 69v-131q-24 -26 -64.5 -45.5t-78.5 -19.5q-46 0 -124 33.5t-119 33.5q-68 0 -133 -68v126q61 66 147 66q53 0 131 -32t107 -32z" />
    <glyph glyph-name="nbspace" unicode="&#xa0;" horiz-adv-x="250" 
 />
    <glyph glyph-name="exclamdown" unicode="&#xa1;" horiz-adv-x="354" 
d="M261 480v-164h-161v164h161zM100 -192v184l42 256h71l38 -256v-184h-151z" />
    <glyph glyph-name="cent" unicode="&#xa2;" horiz-adv-x="562" 
d="M520 278h-103q-26 46 -67 64l-83 -233q9 -3 27 -3q81 0 123 74l116 -52q-24 -64 -85 -103.5t-148 -39.5q-37 0 -74 8l-75 -215h-66l85 234q-139 66 -139 218q0 109 70.5 179t174.5 70q30 0 56 -7l79 214h63l-85 -238q22 -12 43 -28v52h88v-194zM216 146l73 207
q-49 -4 -76 -38t-27 -85t30 -84z" />
    <glyph glyph-name="sterling" unicode="&#xa3;" horiz-adv-x="573" 
d="M170 -9q-49 0 -81.5 32.5t-32.5 83.5q0 48 31 80t77 32q33 0 75 -20q0 36 -18 88h-149v100h98q-47 96 -47 147q0 70 57 113.5t150 43.5q84 0 133.5 -44.5t56.5 -129.5l-118 -14q-2 46 -19 70t-56 24q-30 0 -49 -17t-19 -39q0 -19 8 -40.5t26.5 -58t27.5 -55.5h126v-100
h-103q2 -28 2 -46q0 -49 -13 -88q41 -18 75 -18q61 0 69 84l70 -14v-19q0 -91 -37 -143t-102 -52q-69 0 -129 54q-51 -54 -109 -54zM221 104q-36 43 -64 43q-15 0 -26 -11.5t-11 -29.5q0 -19 13 -31t30 -12q41 0 58 41z" />
    <glyph glyph-name="currency" unicode="&#xa4;" horiz-adv-x="667" 
d="M69 159l67 67q-32 58 -32 118t32 113l-67 68l82 84l68 -69q57 33 115 33t118 -33l67 69l83 -84l-67 -68q32 -56 32 -117t-32 -114l67 -67l-83 -83l-67 66q-60 -33 -120 -33t-113 33l-66 -66zM335 456q-48 0 -81 -33.5t-33 -81.5t33 -81.5t81 -33.5q47 0 81 33.5t34 81.5
q0 47 -34 81t-81 34z" />
    <glyph glyph-name="yen" unicode="&#xa5;" horiz-adv-x="698" 
d="M4 298h261l-55 80h-206v69h159l-82 117h-83v115h340v-115h-67l99 -166l102 166h-70v115h299v-115h-83l-78 -117h155v-69h-201l-52 -80h253v-68h-253v-115h95v-115h-367v115h95v115h-261v68z" />
    <glyph glyph-name="brokenbar" unicode="&#xa6;" 
d="M377 -213h-129v381h129v-381zM377 299h-129v380h129v-380z" />
    <glyph glyph-name="section" unicode="&#xa7;" horiz-adv-x="521" 
d="M46 514q0 78 57 125.5t153 47.5q100 0 155.5 -50t56.5 -132h-129q-8 81 -87 81q-32 0 -51 -15.5t-19 -36.5q0 -20 15 -39.5t36 -28.5q52 -22 79 -34.5t63 -31t54 -33t36.5 -33.5t25.5 -40.5t7 -46.5q0 -86 -100 -152q76 -47 76 -135q0 -76 -57.5 -125.5t-150.5 -49.5
t-151 51.5t-61 134.5h129q2 -41 26 -63t60 -22q32 0 50.5 18t18.5 41q0 27 -32.5 50t-78.5 42t-92 41.5t-78.5 60.5t-32.5 88q0 97 101 148q-79 57 -79 139zM297 290l-104 47q-45 -29 -45 -72q0 -27 20.5 -46t64.5 -39l95 -43q46 35 46 78q0 40 -77 75z" />
    <glyph glyph-name="dieresis" unicode="&#xa8;" horiz-adv-x="333" 
d="M347 610q0 -29 -21 -50t-50 -21t-49.5 20.5t-20.5 50.5q0 29 20.5 49.5t49.5 20.5t50 -20.5t21 -49.5zM124 610q0 -29 -20.5 -50t-49.5 -21t-50 21t-21 50t21 49.5t50 20.5t49.5 -20.5t20.5 -49.5z" />
    <glyph glyph-name="copyright" unicode="&#xa9;" horiz-adv-x="740" 
d="M461 301l79 -27q-19 -62 -61.5 -94t-103.5 -32q-85 0 -137 55t-52 150q0 97 51.5 154.5t138.5 57.5q120 0 164 -120l-80 -19q-25 67 -82 67q-52 0 -79 -35t-27 -102t26 -103t71 -36q68 0 92 84zM744 356q0 -155 -109.5 -264t-264.5 -109t-264.5 109t-109.5 264
t109.5 264.5t264.5 109.5t264.5 -109.5t109.5 -264.5zM670 356q0 124 -88 213t-212 89t-212 -88.5t-88 -213.5t88 -213t212 -88t212 88.5t88 212.5z" />
    <glyph glyph-name="ordfeminine" unicode="&#xaa;" horiz-adv-x="396" 
d="M238 399v22q-41 -26 -84 -26q-47 0 -79.5 24.5t-32.5 63.5q0 41 35 68.5t90 27.5q29 0 71 -14v17q0 22 -16 36t-43 14q-31 0 -56 -23l-79 13q38 68 151 68q142 0 142 -101v-125h49v-65h-148zM238 481v23q-36 20 -57 20q-19 0 -31.5 -9.5t-12.5 -25.5t11 -27t29 -11
q25 0 61 30z" />
    <glyph glyph-name="guillemotleft" unicode="&#xab;" horiz-adv-x="542" 
d="M152 236l110 -236h-144l-113 236l113 236h144zM427 236l109 -236h-144l-113 236l113 236h144z" />
    <glyph glyph-name="logicalnot" unicode="&#xac;" horiz-adv-x="667" 
d="M481 393h-423v127h552v-365h-129v238z" />
    <glyph glyph-name="sfthyphen" unicode="&#xad;" horiz-adv-x="344" 
d="M306 302v-132h-273v132h273z" />
    <glyph glyph-name="registered" unicode="&#xae;" horiz-adv-x="740" 
d="M201 553h188q65 0 99.5 -30t34.5 -82q0 -42 -28 -73t-79 -38q20 -8 35 -22.5t21.5 -24.5t27.5 -47l47 -79h-100l-33 64q-24 47 -45.5 69.5t-34.5 26t-37 3.5h-15v-163h-81v396zM355 491h-73v-109h65q43 0 66.5 11.5t23.5 43.5q0 54 -82 54zM744 356q0 -155 -109.5 -264
t-264.5 -109t-264.5 109t-109.5 264t109.5 264.5t264.5 109.5t264.5 -109.5t109.5 -264.5zM672 356q0 125 -88 213.5t-213 88.5t-213 -89t-88 -213t88.5 -212.5t212.5 -88.5q125 0 213 88t88 213z" />
    <glyph glyph-name="macron" unicode="&#xaf;" horiz-adv-x="333" 
d="M411 643v-100h-454v100h454z" />
    <glyph glyph-name="degree" unicode="&#xb0;" horiz-adv-x="396" 
d="M198 691q70 0 119.5 -49t49.5 -119t-49.5 -119t-119.5 -49t-119.5 49t-49.5 119t49.5 119t119.5 49zM198 629q-44 0 -74.5 -31.5t-30.5 -74.5q0 -44 31 -75t74 -31t74 31t31 75t-31 75t-74 31z" />
    <glyph glyph-name="plusminus" unicode="&#xb1;" horiz-adv-x="667" 
d="M269 362h-211v127h211v212h129v-212h211v-127h-211v-212h-129v212zM609 -33h-551v127h551v-127z" />
    <glyph glyph-name="twosuperior" unicode="&#xb2;" horiz-adv-x="333" 
d="M219 394v45h77l-4 -107h-268q-1 9 -1 24q0 76 79 140q5 4 17 13.5t16 13t13 11t12.5 11l9.5 9.5t8.5 10.5t5.5 10t4 11t1 11.5q0 15 -9 24t-23 9q-23 0 -31.5 -18t-10.5 -54l-86 3q3 131 135 131q59 0 94 -29t35 -71q0 -53 -60 -91q-6 -4 -22.5 -14.5t-21.5 -13.5
t-17.5 -11.5t-17 -12.5t-13 -11.5t-12 -13.5t-7.5 -13.5t-7 -16.5h104z" />
    <glyph glyph-name="threesuperior" unicode="&#xb3;" horiz-adv-x="333" 
d="M154 486h-24v64q65 0 65 43q0 17 -9.5 26.5t-26.5 9.5q-37 0 -37 -41v-6l-87 6q3 51 37.5 77t92.5 26q60 0 94.5 -26t34.5 -68q0 -53 -55 -79q70 -23 70 -83q0 -49 -39.5 -78.5t-104.5 -29.5q-133 0 -143 117l89 6q0 -61 47 -61q20 0 33.5 13.5t13.5 35.5q0 48 -51 48z
" />
    <glyph glyph-name="acute" unicode="&#xb4;" horiz-adv-x="333" 
d="M326 690l-178 -155h-80l74 155h184z" />
    <glyph glyph-name="mu" unicode="&#xb5;" horiz-adv-x="615" 
d="M407 252v220h139v-472h-128v63q-40 -75 -104 -75q-28 0 -50 13t-32 26.5t-22 35.5v-275h-136v684h136v-192q0 -94 20.5 -138t76.5 -44q46 0 73 38.5t27 115.5z" />
    <glyph glyph-name="paragraph" unicode="&#xb6;" horiz-adv-x="552" 
d="M381 552h-70v-764h-121v490q-92 7 -141.5 60t-49.5 138q0 70 34 120.5t94 70.5q34 12 133 12h291v-127h-55v-764h-115v764z" />
    <glyph glyph-name="periodcentered" unicode="&#xb7;" horiz-adv-x="365" 
d="M264 480v-164h-163v164h163z" />
    <glyph glyph-name="cedilla" unicode="&#xb8;" horiz-adv-x="333" 
d="M10 -201v50q103 0 103 39q0 30 -59 35l18 89h88l-5 -25q43 -7 67 -32t24 -57q0 -54 -48 -77t-142 -23q-7 0 -23.5 0.5t-22.5 0.5z" />
    <glyph glyph-name="onesuperior" unicode="&#xb9;" horiz-adv-x="333" 
d="M273 394v-62h-207v62h56v229h-60v62h159v-291h52z" />
    <glyph glyph-name="ordmasculine" unicode="&#xba;" horiz-adv-x="375" 
d="M187 392q-69 0 -115.5 40.5t-46.5 109.5t46 109t116 40q69 0 115 -40.5t46 -109.5t-45.5 -109t-115.5 -40zM186 464q29 0 45.5 20t16.5 58t-16.5 57.5t-45.5 19.5q-60 0 -60 -77q0 -38 16 -58t44 -20z" />
    <glyph glyph-name="guillemotright" unicode="&#xbb;" horiz-adv-x="542" 
d="M151 472l113 -236l-113 -236h-144l110 236l-110 236h144zM424 472l113 -236l-113 -236h-144l110 236l-110 236h144z" />
    <glyph glyph-name="onequarter" unicode="&#xbc;" horiz-adv-x="927" 
d="M302 394v-62h-207v62h56v229h-60v62h159v-291h52zM753 679l-492 -679h-87l491 679h88zM825 57h34v-57h-172v57h43v38h-146q-15 37 -22 48l174 216h89v-210h39v-54h-39v-38zM730 252l-85 -103h85v103z" />
    <glyph glyph-name="onehalf" unicode="&#xbd;" horiz-adv-x="927" 
d="M302 394v-62h-207v62h56v229h-60v62h159v-291h52zM753 679l-492 -679h-87l491 679h88zM781 62v45h77l-4 -107h-268q-1 9 -1 24q0 76 79 140q5 4 17 13.5t16 13t13 11t12.5 11l9.5 9.5t8.5 10.5t5.5 10t4 11t1 11.5q0 15 -9 24t-23 9q-22 0 -31 -18.5t-11 -54.5l-86 4
q0 47 14 72q33 59 121 59q59 0 94 -29t35 -71q0 -53 -60 -91q-5 -3 -18.5 -11.5t-18 -11t-15.5 -9.5t-14.5 -10t-12 -9.5t-11.5 -10t-8.5 -9.5t-8.5 -11t-6 -11.5t-5 -13.5h104z" />
    <glyph glyph-name="threequarters" unicode="&#xbe;" horiz-adv-x="927" 
d="M753 679l-491 -679h-88l492 679h87zM825 57h34v-57h-172v57h44v38h-146q-10 26 -23 48l175 216h88v-210h39v-54h-39v-38zM731 252l-85 -103h85v103zM189 486h-24v64q65 0 65 43q0 17 -10 26.5t-26 9.5q-37 0 -37 -41v-6l-87 6q3 51 37.5 77t92.5 26q60 0 94.5 -26
t34.5 -68q0 -53 -55 -79q70 -23 70 -83q0 -49 -39.5 -78.5t-104.5 -29.5q-132 0 -143 117l89 6q0 -61 47 -61q20 0 33.5 13.5t13.5 35.5q0 48 -51 48z" />
    <glyph glyph-name="questiondown" unicode="&#xbf;" horiz-adv-x="563" 
d="M527 -7v-4q0 -92 -66.5 -145.5t-177.5 -53.5q-112 0 -175 53.5t-63 143.5q0 84 54 135t132 51q3 0 12 -0.5t12 -0.5l16 70h70l14 -178q-32 10 -51 10q-46 0 -75 -25.5t-29 -66.5q0 -40 25.5 -65.5t66.5 -25.5t63.5 23t22.5 59q0 12 -2 20h151zM384 480v-164h-163v164h163
z" />
    <glyph glyph-name="Agrave" unicode="&#xc0;" horiz-adv-x="698" 
d="M618 115h82v-115h-334v115h87l-33 116h-176l-36 -116h91v-115h-301v115h84l133 449h-91v115h443v-115h-91zM275 331h118l-57 205zM387 924l119 -203h-104l-210 203h195z" />
    <glyph glyph-name="Aacute" unicode="&#xc1;" horiz-adv-x="698" 
d="M618 115h82v-115h-334v115h87l-33 116h-176l-36 -116h91v-115h-301v115h84l133 449h-91v115h443v-115h-91zM275 331h118l-57 205zM295 721h-103l119 202h195z" />
    <glyph glyph-name="Acircumflex" unicode="&#xc2;" horiz-adv-x="698" 
d="M618 115h82v-115h-334v115h87l-33 116h-176l-36 -116h91v-115h-301v115h84l133 449h-91v115h443v-115h-91zM275 331h118l-57 205zM228 728h-99l125 181h188l125 -181h-96l-125 114z" />
    <glyph glyph-name="Atilde" unicode="&#xc3;" horiz-adv-x="698" 
d="M618 115h82v-115h-334v115h87l-33 116h-176l-34 -116h89v-115h-301v115h84l133 449h-91v115h443v-115h-91zM275 331h118l-57 205zM259 807q-46 0 -49 -63h-81q2 81 36.5 125.5t93.5 44.5q45 0 104 -30.5t76 -30.5q24 0 34.5 16t15.5 45h78q0 -2 0.5 -5t0.5 -5
q0 -67 -35 -114t-91 -47q-48 0 -104.5 32t-78.5 32z" />
    <glyph glyph-name="Adieresis" unicode="&#xc4;" horiz-adv-x="698" 
d="M618 115h82v-115h-334v115h87l-33 116h-176l-36 -116h91v-115h-301v115h84l133 449h-91v115h443v-115h-91zM275 331h118l-57 205zM296 806q0 -34 -25 -59t-59 -25t-59 25t-25 59t25 59t59 25t59 -25t25 -59zM570 806q0 -35 -24.5 -59.5t-59.5 -24.5t-59.5 24.5
t-24.5 59.5t24.5 59.5t59.5 24.5t59.5 -24.5t24.5 -59.5z" />
    <glyph glyph-name="Aring" unicode="&#xc5;" horiz-adv-x="698" 
d="M124 679h180q-41 15 -65.5 50t-24.5 78q0 56 39.5 96t95.5 40t95.5 -40t39.5 -96q0 -43 -24 -77.5t-67 -50.5h174v-115h-91l142 -449h82v-115h-334v115h87l-33 116h-176l-36 -116h91v-115h-301v115h84l133 449h-91v115zM275 331h118l-57 205zM425 807q0 32 -22.5 54.5
t-53.5 22.5q-32 0 -54.5 -22.5t-22.5 -54.5t23 -54.5t54 -22.5t53.5 22.5t22.5 54.5z" />
    <glyph glyph-name="AE" unicode="&#xc6;" horiz-adv-x="990" 
d="M280 115v-115h-283v115h72l194 449h-101v115h792v-215h-129v100h-204v-155h164v-115h-164v-179h204v103h129v-218h-587v115h77v179h-164l-79 -179h79zM400 575l-77 -181h121v181h-44z" />
    <glyph glyph-name="Ccedilla" unicode="&#xc7;" horiz-adv-x="802" 
d="M610 626v53h115v-240h-115q-67 130 -178 130q-84 0 -138.5 -65t-54.5 -167q0 -100 53.5 -161.5t138.5 -61.5q68 0 119 47t70 129l133 -64q-35 -110 -112.5 -169t-190.5 -66l-4 -25q42 -7 66 -31.5t24 -57.5q0 -54 -48 -77t-142 -23q-7 0 -23 0.5t-22 0.5v50q102 0 102 40
q0 29 -58 34l18 89q-135 17 -211 89q-103 98 -103 260q0 156 99 253t258 97q121 0 204 -64z" />
    <glyph glyph-name="Egrave" unicode="&#xc8;" horiz-adv-x="667" 
d="M631 0h-598v115h82v449h-82v115h598v-215h-129v100h-210v-156h169v-115h-169v-178h210v101h129v-216zM370 924l119 -203h-103l-210 203h194z" />
    <glyph glyph-name="Eacute" unicode="&#xc9;" horiz-adv-x="667" 
d="M631 0h-598v115h82v449h-82v115h598v-215h-129v100h-210v-156h169v-115h-169v-178h210v101h129v-216zM331 721h-103l119 202h194z" />
    <glyph glyph-name="Ecircumflex" unicode="&#xca;" horiz-adv-x="667" 
d="M631 0h-598v115h80v449h-80v115h598v-215h-129v100h-212v-156h171v-115h-171v-178h212v101h129v-216zM211 728h-99l125 181h188l127 -181h-98l-125 114z" />
    <glyph glyph-name="Edieresis" unicode="&#xcb;" horiz-adv-x="667" 
d="M631 0h-598v115h82v449h-82v115h598v-215h-129v100h-210v-156h169v-115h-169v-178h210v101h129v-216zM279 806q0 -34 -24.5 -59t-59.5 -25t-59.5 25t-24.5 59t24.5 59t59.5 25t59.5 -24.5t24.5 -59.5zM553 806q0 -35 -24.5 -59.5t-59.5 -24.5t-59.5 24.5t-24.5 59.5
t24.5 59.5t59.5 24.5t59.5 -24.5t24.5 -59.5z" />
    <glyph glyph-name="Igrave" unicode="&#xcc;" horiz-adv-x="427" 
d="M404 0h-384v115h103v449h-103v115h384v-115h-104v-449h104v-115zM250 924l119 -203h-103l-211 203h195z" />
    <glyph glyph-name="Iacute" unicode="&#xcd;" horiz-adv-x="427" 
d="M404 0h-384v115h103v449h-103v115h384v-115h-104v-449h104v-115zM159 721h-104l119 202h195z" />
    <glyph glyph-name="Icircumflex" unicode="&#xce;" horiz-adv-x="479" 
d="M431 0h-384v115h103v449h-103v115h384v-115h-104v-449h104v-115zM118 728h-99l125 181h188l127 -181h-98l-125 114z" />
    <glyph glyph-name="Idieresis" unicode="&#xcf;" horiz-adv-x="490" 
d="M436 0h-384v115h103v449h-103v115h384v-115h-104v-449h104v-115zM191 806q0 -34 -24.5 -59t-59.5 -25t-59.5 25t-24.5 59t24.5 59t59.5 25t59.5 -25t24.5 -59zM465 806q0 -35 -24.5 -59.5t-59.5 -24.5t-59.5 24.5t-24.5 59.5t24.5 59.5t59.5 24.5t59.5 -24.5t24.5 -59.5z
" />
    <glyph glyph-name="Ntilde" unicode="&#xd1;" horiz-adv-x="792" 
d="M328 0h-298v115h91v449h-91v115h285l250 -424v309h-88v115h305v-115h-96v-569h-151l-293 504v-384h86v-115zM316 807q-46 0 -49 -63h-81q2 81 36.5 125.5t93.5 44.5q45 0 104 -30.5t76 -30.5q24 0 34.5 16t15.5 45h80v-10q0 -67 -35 -114t-91 -47q-48 0 -105 32t-79 32z
" />
    <glyph glyph-name="Ograve" unicode="&#xd2;" horiz-adv-x="854" 
d="M427 690q174 0 275.5 -99.5t101.5 -249.5t-101 -249t-276 -99t-276.5 99.5t-101.5 248.5q0 150 101.5 249.5t276.5 99.5zM427 566q-81 0 -134.5 -60t-53.5 -168q0 -102 54 -163t134 -61t133.5 61t53.5 166t-53.5 165t-133.5 60zM464 924l119 -203h-103l-210 203h194z" />
    <glyph glyph-name="Oacute" unicode="&#xd3;" horiz-adv-x="854" 
d="M427 690q174 0 275.5 -99.5t101.5 -249.5t-101 -249t-276 -99t-276.5 99.5t-101.5 248.5q0 150 101.5 249.5t276.5 99.5zM427 566q-81 0 -134.5 -60t-53.5 -168q0 -102 54 -163t134 -61t133.5 61t53.5 166t-53.5 165t-133.5 60zM410 721h-104l119 202h195z" />
    <glyph glyph-name="Ocircumflex" unicode="&#xd4;" horiz-adv-x="854" 
d="M427 690q174 0 275.5 -99.5t101.5 -249.5t-101 -249t-276 -99t-276.5 99.5t-101.5 248.5q0 150 101.5 249.5t276.5 99.5zM427 566q-81 0 -134.5 -60t-53.5 -168q0 -102 54 -163t134 -61t133.5 61t53.5 166t-53.5 165t-133.5 60zM316 728h-99l125 181h188l127 -181h-98
l-125 114z" />
    <glyph glyph-name="Otilde" unicode="&#xd5;" horiz-adv-x="854" 
d="M427 690q174 0 275.5 -99.5t101.5 -249.5t-101 -249t-276 -99t-276.5 99.5t-101.5 248.5q0 150 101.5 249.5t276.5 99.5zM427 566q-81 0 -134.5 -60t-53.5 -168q0 -102 54 -163t134 -61t133.5 61t53.5 166t-53.5 165t-133.5 60zM336 807q-45 0 -48 -63h-81q2 81 36 125.5
t93 44.5q45 0 104 -30.5t76 -30.5q24 0 34.5 16t15.5 45h80q0 -2 0.5 -5t0.5 -5q0 -67 -35 -114t-91 -47q-48 0 -105.5 32t-79.5 32z" />
    <glyph glyph-name="Odieresis" unicode="&#xd6;" horiz-adv-x="854" 
d="M427 690q174 0 275.5 -99.5t101.5 -249.5t-101 -249t-276 -99t-276.5 99.5t-101.5 248.5q0 150 101.5 249.5t276.5 99.5zM427 566q-81 0 -134.5 -60t-53.5 -168q0 -102 54 -163t134 -61t133.5 61t53.5 166t-53.5 165t-133.5 60zM374 806q0 -35 -24.5 -59.5t-59.5 -24.5
q-34 0 -59 25t-25 59t25 59t59 25q35 0 59.5 -24.5t24.5 -59.5zM648 806q0 -34 -25 -59t-59 -25q-35 0 -59.5 24.5t-24.5 59.5t24.5 59.5t59.5 24.5t59.5 -24.5t24.5 -59.5z" />
    <glyph glyph-name="multiply" unicode="&#xd7;" horiz-adv-x="667" 
d="M72 161l172 171l-174 175l90 89l174 -174l174 174l90 -90l-174 -174l172 -171l-89 -90l-173 172l-172 -172z" />
    <glyph glyph-name="Oslash" unicode="&#xd8;" horiz-adv-x="854" 
d="M145 -32l-57 38l69 79q-110 101 -110 256q0 149 102 249t276 100q127 0 214 -53l59 67l54 -42l-58 -67q108 -102 108 -254q0 -149 -101.5 -248.5t-275.5 -99.5q-129 0 -214 51zM266 210l274 314q-49 42 -115 42q-80 0 -134 -60t-54 -163q0 -76 29 -133zM584 470
l-274 -313q54 -43 114 -43q81 0 134.5 61t53.5 166q0 78 -28 129z" />
    <glyph glyph-name="Ugrave" unicode="&#xd9;" horiz-adv-x="677" 
d="M374 924l120 -203h-106l-208 203h194zM95 564h-80v115h324v-115h-67v-307q0 -31 0.5 -44.5t4.5 -38t13 -36t26.5 -21t43.5 -9.5q56 0 78 35q8 12 11.5 33.5t4 36t0.5 53.5v298h-66v115h270v-115h-83v-339q0 -41 -1 -60t-9.5 -47.5t-26.5 -51.5q-60 -75 -197 -75
q-92 0 -152 34.5t-82 98.5q-12 34 -12 133v307z" />
    <glyph glyph-name="Uacute" unicode="&#xda;" horiz-adv-x="677" 
d="M328 721h-104l120 202h194zM95 564h-80v115h324v-115h-67v-307q0 -31 0.5 -44.5t4.5 -38t13 -36t26.5 -21t43.5 -9.5q56 0 78 35q8 12 11.5 33.5t4 36t0.5 53.5v298h-66v115h270v-115h-83v-339q0 -41 -1 -60t-9.5 -47.5t-26.5 -51.5q-60 -75 -197 -75q-92 0 -152 34.5
t-82 98.5q-12 34 -12 133v307z" />
    <glyph glyph-name="Ucircumflex" unicode="&#xdb;" horiz-adv-x="677" 
d="M216 728h-99l125 181h188l127 -181h-98l-125 114zM95 564h-80v115h324v-115h-67v-307q0 -31 0.5 -44.5t4.5 -38t13 -36t26.5 -21t43.5 -9.5q56 0 78 35q8 12 11.5 33.5t4 36t0.5 53.5v298h-66v115h270v-115h-83v-339q0 -41 -1 -60t-9.5 -47.5t-26.5 -51.5
q-60 -75 -197 -75q-92 0 -152 34.5t-82 98.5q-12 34 -12 133v307z" />
    <glyph glyph-name="Udieresis" unicode="&#xdc;" horiz-adv-x="677" 
d="M284 806q0 -34 -25 -59t-59 -25t-59 25t-25 59t25 59t59 25q35 0 59.5 -24.5t24.5 -59.5zM558 806q0 -35 -24.5 -59.5t-59.5 -24.5t-59.5 24.5t-24.5 59.5t24.5 59.5t59.5 24.5t59.5 -24.5t24.5 -59.5zM95 564h-80v115h324v-115h-67v-307q0 -31 0.5 -44.5t4.5 -38t13 -36
t26.5 -21t43.5 -9.5q56 0 78 35q8 12 11.5 33.5t4 36t0.5 53.5v298h-66v115h270v-115h-83v-339q0 -41 -1 -60t-9.5 -47.5t-26.5 -51.5q-60 -75 -197 -75q-92 0 -152 34.5t-82 98.5q-12 34 -12 133v307z" />
    <glyph glyph-name="germandbls" unicode="&#xdf;" horiz-adv-x="646" 
d="M596 199q0 -93 -48.5 -149.5t-136.5 -56.5q-37 0 -74 15v101q14 -6 30 -6q37 0 57 25t20 72q0 121 -107 125v110q35 1 56 22t21 52q0 34 -23.5 56t-56.5 22q-24 0 -40 -9.5t-24.5 -21.5t-12.5 -36t-4.5 -39.5t-0.5 -45.5v-326h36v-109h-265v109h78v342q0 64 10.5 104
t45.5 74q65 62 174 62q110 0 171 -45t61 -119q0 -97 -104 -140q137 -45 137 -188z" />
    <glyph glyph-name="agrave" unicode="&#xe0;" horiz-adv-x="583" 
d="M342 0v37q-63 -44 -129 -44q-73 0 -122.5 41.5t-49.5 106.5q0 68 53.5 114.5t138.5 46.5q45 0 109 -25v28q0 37 -25 60.5t-65 23.5q-46 0 -86 -38l-122 21q29 58 85 84.5t146 26.5q218 0 218 -166v-208h76v-109h-227zM342 136v39q-53 33 -87 33q-29 0 -48.5 -16
t-19.5 -42t17 -44.5t44 -18.5q40 0 94 49zM360 689l74 -155h-80l-178 155h184z" />
    <glyph glyph-name="aacute" unicode="&#xe1;" horiz-adv-x="583" 
d="M342 0v37q-63 -44 -129 -44q-73 0 -122.5 41.5t-49.5 106.5q0 68 53.5 114.5t138.5 46.5q45 0 109 -25v28q0 37 -25 60.5t-65 23.5q-46 0 -86 -38l-122 21q29 58 85 84.5t146 26.5q218 0 218 -166v-208h76v-109h-227zM342 136v39q-53 33 -87 33q-29 0 -48.5 -16
t-19.5 -42t17 -44.5t44 -18.5q40 0 94 49zM257 535h-81l75 155h183z" />
    <glyph glyph-name="acircumflex" unicode="&#xe2;" horiz-adv-x="583" 
d="M342 0v37q-63 -44 -129 -44q-73 0 -122.5 41.5t-49.5 106.5q0 68 53.5 114.5t138.5 46.5q45 0 109 -25v28q0 37 -25 60.5t-65 23.5q-46 0 -86 -38l-122 21q29 58 85 84.5t146 26.5q218 0 218 -166v-208h76v-109h-227zM342 136v39q-53 33 -87 33q-29 0 -48.5 -16
t-19.5 -42t17 -44.5t44 -18.5q40 0 94 49zM177 520h-87l117 180h148l119 -180h-86l-108 107z" />
    <glyph glyph-name="atilde" unicode="&#xe3;" horiz-adv-x="583" 
d="M342 0v37q-63 -44 -129 -44q-73 0 -122.5 41.5t-49.5 106.5q0 68 53.5 114.5t138.5 46.5q45 0 109 -25v28q0 37 -25 60.5t-65 23.5q-46 0 -86 -38l-122 21q29 58 85 84.5t146 26.5q218 0 218 -166v-208h76v-109h-227zM342 136v39q-53 33 -87 33q-29 0 -48.5 -16
t-19.5 -42t17 -44.5t44 -18.5q40 0 94 49zM384 629q15 0 28.5 15.5t14.5 40.5h66v-11q0 -61 -31 -103.5t-81 -42.5q-29 0 -82 28t-72 28q-17 0 -28 -13.5t-12 -39.5h-73v2q0 72 34 113.5t77 41.5q32 0 86.5 -29.5t72.5 -29.5z" />
    <glyph glyph-name="adieresis" unicode="&#xe4;" horiz-adv-x="583" 
d="M342 0v37q-63 -44 -129 -44q-73 0 -122.5 41.5t-49.5 106.5q0 68 53.5 114.5t138.5 46.5q45 0 109 -25v28q0 37 -25 60.5t-65 23.5q-46 0 -86 -38l-122 21q29 58 85 84.5t146 26.5q218 0 218 -166v-208h76v-109h-227zM342 136v39q-53 33 -87 33q-29 0 -48.5 -16
t-19.5 -42t17 -44.5t44 -18.5q40 0 94 49zM469 610q0 -29 -20.5 -50t-49.5 -21t-50 20.5t-21 50.5q0 29 21 49.5t50 20.5t49.5 -20.5t20.5 -49.5zM247 610q0 -29 -20.5 -50t-49.5 -21t-50 21t-21 50t21 49.5t50 20.5t49.5 -20.5t20.5 -49.5z" />
    <glyph glyph-name="aring" unicode="&#xe5;" horiz-adv-x="583" 
d="M342 0v37q-63 -44 -129 -44q-73 0 -122.5 41.5t-49.5 106.5q0 68 53.5 114.5t138.5 46.5q45 0 109 -25v28q0 37 -25 60.5t-65 23.5q-46 0 -86 -38l-122 21q29 58 85 84.5t146 26.5q218 0 218 -166v-208h76v-109h-227zM342 136v39q-53 33 -87 33q-29 0 -48.5 -16
t-19.5 -42t17 -44.5t44 -18.5q40 0 94 49zM391 619q0 -43 -30 -73.5t-73 -30.5t-73 30.5t-30 73.5q0 42 30 72.5t73 30.5t73 -30.5t30 -72.5zM341 619q0 22 -15.5 37.5t-37.5 15.5t-37.5 -15.5t-15.5 -37.5t15.5 -37.5t37.5 -15.5t37.5 15.5t15.5 37.5z" />
    <glyph glyph-name="ae" unicode="&#xe6;" horiz-adv-x="885" 
d="M219 -12q-67 0 -113 43t-46 111q0 71 50 115t130 44q56 0 114 -24v17q0 43 -25 67.5t-65 24.5q-44 0 -87 -35l-119 23q59 110 230 110q104 0 168 -46q59 46 146 46q117 0 184 -72.5t67 -187.5q0 -2 -0.5 -9t-0.5 -8h-346q4 -53 35 -84.5t76 -31.5q57 0 111 54l117 -36
q-35 -58 -95.5 -88.5t-136.5 -30.5q-141 0 -213 98q-50 -52 -92 -76t-89 -24zM506 291h193q-8 45 -35 68.5t-65 23.5q-37 0 -62.5 -24.5t-30.5 -67.5zM354 140v35q-54 36 -86 36q-26 0 -46.5 -18.5t-20.5 -47.5q0 -25 15 -40.5t35 -15.5q47 0 103 51z" />
    <glyph glyph-name="ccedilla" unicode="&#xe7;" horiz-adv-x="562" 
d="M414 434v38h103v-192h-108q-36 79 -114 79q-49 0 -79 -32t-30 -88q0 -64 30.5 -98t78.5 -34q34 0 66.5 19.5t52.5 55.5l117 -51q-62 -137 -212 -143l-7 -29q84 -26 84 -88q0 -51 -46 -73t-139 -22q-6 0 -19 0.5t-18 0.5v50q31 1 44.5 2t28.5 4t20 9t5 17q0 32 -58 35
l24 100q-96 16 -151.5 80.5t-55.5 161.5q0 109 71 176.5t170 67.5q72 0 142 -46z" />
    <glyph glyph-name="egrave" unicode="&#xe8;" horiz-adv-x="573" 
d="M537 205h-352q10 -115 116 -115q62 0 115 53l116 -38q-74 -116 -231 -116q-124 0 -194.5 65.5t-70.5 173.5q0 111 72.5 184t183.5 73q109 0 177.5 -73t68.5 -192q0 -1 -0.5 -7.5t-0.5 -7.5zM188 289h198q-6 45 -33.5 70t-68.5 25q-82 0 -96 -95zM341 689l75 -155h-81
l-177 155h183z" />
    <glyph glyph-name="eacute" unicode="&#xe9;" horiz-adv-x="573" 
d="M537 205h-352q10 -115 116 -115q61 0 114 53l117 -38q-74 -116 -231 -116q-124 0 -194.5 65.5t-70.5 173.5q0 111 72.5 184t183.5 73q109 0 177.5 -73t68.5 -192q0 -1 -0.5 -7.5t-0.5 -7.5zM188 289h198q-6 45 -33.5 70t-68.5 25q-82 0 -96 -95zM269 535h-80l75 155h182z
" />
    <glyph glyph-name="ecircumflex" unicode="&#xea;" horiz-adv-x="573" 
d="M537 205h-352q10 -115 116 -115q61 0 114 53l117 -38q-74 -116 -231 -116q-124 0 -194.5 65.5t-70.5 173.5q0 111 72.5 184t183.5 73q109 0 177.5 -73t68.5 -192q0 -1 -0.5 -7.5t-0.5 -7.5zM188 289h198q-6 45 -33.5 70t-68.5 25q-82 0 -96 -95zM183 520h-88l118 180h147
l119 -180h-86l-108 107z" />
    <glyph glyph-name="edieresis" unicode="&#xeb;" horiz-adv-x="573" 
d="M537 205h-352q10 -115 116 -115q61 0 114 53l117 -38q-74 -116 -231 -116q-124 0 -194.5 65.5t-70.5 173.5q0 111 72.5 184t183.5 73q109 0 177.5 -73t68.5 -192q0 -1 -0.5 -7.5t-0.5 -7.5zM188 289h198q-6 45 -33.5 70t-68.5 25q-82 0 -96 -95zM469 610q0 -29 -21 -50
t-50 -21t-49.5 21t-20.5 50t20.5 49.5t49.5 20.5t50 -20.5t21 -49.5zM246 610q0 -30 -20.5 -50.5t-49.5 -20.5t-50 21t-21 50t21 49.5t50 20.5t49.5 -20.5t20.5 -49.5z" />
    <glyph glyph-name="igrave" unicode="&#xec;" horiz-adv-x="354" 
d="M115 364h-72v109h223v-364h70v-109h-293v109h72v255zM223 689l75 -155h-80l-178 155h183z" />
    <glyph glyph-name="iacute" unicode="&#xed;" horiz-adv-x="354" 
d="M115 364h-72v109h223v-364h70v-109h-293v109h72v255zM141 535h-80l74 155h183z" />
    <glyph glyph-name="icircumflex" unicode="&#xee;" horiz-adv-x="448" 
d="M162 364h-72v109h223v-364h71v-109h-294v109h72v255zM133 520h-88l116 180h149l119 -180h-86l-108 107z" />
    <glyph glyph-name="idieresis" unicode="&#xef;" horiz-adv-x="427" 
d="M152 364h-72v109h223v-364h70v-109h-293v109h72v255zM409 610q0 -29 -21 -50t-50 -21t-49.5 20.5t-20.5 50.5q0 29 20.5 49.5t49.5 20.5t50 -20.5t21 -49.5zM186 610q0 -29 -20.5 -50t-49.5 -21t-50 21t-21 50t21 49.5t50 20.5t49.5 -20.5t20.5 -49.5z" />
    <glyph glyph-name="ntilde" unicode="&#xf1;" 
d="M260 322v-213h73v-109h-296v109h72v255h-72v109h223v-44q69 51 139 51q61 0 99 -37q44 -42 44 -146v-188h71v-109h-222v286q0 21 -1.5 33t-12 23t-31.5 11q-40 0 -86 -31zM404 629q15 0 28 15t14 41h70v-11q0 -60 -32 -103t-82 -43q-29 0 -82.5 28t-72.5 28
q-17 0 -28 -13.5t-12 -39.5h-73v2q0 72 34 113.5t77 41.5q32 0 86.5 -29.5t72.5 -29.5z" />
    <glyph glyph-name="ograve" unicode="&#xf2;" horiz-adv-x="573" 
d="M286 -11q-109 0 -179 68t-70 180q0 113 70 180.5t179 67.5t178.5 -68t69.5 -180q0 -113 -69.5 -180.5t-178.5 -67.5zM285 106q45 0 69.5 34.5t24.5 99.5q0 60 -25 94t-69 34t-68.5 -34t-24.5 -99q0 -61 25 -95t68 -34zM340 689l75 -155h-81l-177 155h183z" />
    <glyph glyph-name="oacute" unicode="&#xf3;" horiz-adv-x="573" 
d="M286 -11q-109 0 -179 68t-70 180q0 113 70 180.5t179 67.5t178.5 -68t69.5 -180q0 -113 -69.5 -180.5t-178.5 -67.5zM285 106q45 0 69.5 34.5t24.5 99.5q0 60 -25 94t-69 34t-68.5 -34t-24.5 -99q0 -61 25 -95t68 -34zM237 535h-80l74 155h184z" />
    <glyph glyph-name="ocircumflex" unicode="&#xf4;" horiz-adv-x="573" 
d="M286 -11q-109 0 -179 68t-70 180q0 113 70 180.5t179 67.5t178.5 -68t69.5 -180q0 -113 -69.5 -180.5t-178.5 -67.5zM285 106q45 0 69.5 34.5t24.5 99.5q0 60 -25 94t-69 34t-68.5 -34t-24.5 -99q0 -61 25 -95t68 -34zM181 520h-87l117 180h148l119 -180h-86l-108 107z
" />
    <glyph glyph-name="otilde" unicode="&#xf5;" horiz-adv-x="573" 
d="M286 -11q-109 0 -179 68t-70 180q0 113 70 180.5t179 67.5t178.5 -68t69.5 -180q0 -113 -69.5 -180.5t-178.5 -67.5zM285 106q45 0 69.5 34.5t24.5 99.5q0 60 -25 94t-69 34t-68.5 -34t-24.5 -99q0 -61 25 -95t68 -34zM365 629q15 0 28 15t14 41h69q0 -2 0.5 -5.5
t0.5 -5.5q0 -60 -32 -103t-82 -43q-29 0 -83 28t-73 28q-38 0 -39 -53h-73v2q0 72 33.5 113.5t77.5 41.5q32 0 86.5 -29.5t72.5 -29.5z" />
    <glyph glyph-name="odieresis" unicode="&#xf6;" horiz-adv-x="573" 
d="M286 -11q-109 0 -179 68t-70 180q0 113 70 180.5t179 67.5t178.5 -68t69.5 -180q0 -113 -69.5 -180.5t-178.5 -67.5zM285 106q45 0 69.5 34.5t24.5 99.5q0 60 -25 94t-69 34t-68.5 -34t-24.5 -99q0 -61 25 -95t68 -34zM467 610q0 -29 -20.5 -50t-49.5 -21t-50 21t-21 50
t21 49.5t50 20.5t49.5 -20.5t20.5 -49.5zM245 610q0 -29 -20.5 -50t-49.5 -21t-50 21t-21 50t21 49.5t50 20.5t49.5 -20.5t20.5 -49.5z" />
    <glyph glyph-name="divide" unicode="&#xf7;" horiz-adv-x="667" 
d="M332 614q31 0 52.5 -21.5t21.5 -52.5t-21.5 -53t-52.5 -22t-53 22t-22 53q0 30 22 52t53 22zM333 207q31 0 53 -22t22 -53t-22 -53t-53 -22t-52.5 22t-21.5 53t21.5 53t52.5 22zM609 274h-551v120h551v-120z" />
    <glyph glyph-name="oslash" unicode="&#xf8;" horiz-adv-x="573" 
d="M91 -43l-47 39l58 68q-62 65 -62 172q0 112 71.5 180.5t176.5 68.5q77 0 141 -39l60 70l46 -41l-58 -67q62 -65 62 -172q0 -112 -72 -179.5t-177 -67.5q-80 0 -140 38zM204 183l140 164q-23 21 -55 21q-44 0 -69 -35t-25 -91q0 -32 9 -59zM375 289l-140 -163
q23 -20 55 -20q44 0 69 34.5t25 91.5q0 32 -9 57z" />
    <glyph glyph-name="ugrave" unicode="&#xf9;" 
d="M380 151v213h-72v109h223v-364h77v-109h-228v40q-69 -47 -137 -47q-66 0 -105.5 38.5t-39.5 108.5v224h-72v109h223v-295q0 -20 2 -31t13 -20.5t33 -9.5q38 0 83 34zM336 689l74 -155h-80l-177 155h183z" />
    <glyph glyph-name="uacute" unicode="&#xfa;" 
d="M380 151v213h-72v109h223v-364h77v-109h-228v40q-69 -47 -137 -47q-66 0 -105.5 38.5t-39.5 108.5v224h-72v109h223v-295q0 -20 2 -31t13 -20.5t33 -9.5q38 0 83 34zM268 535h-80l74 155h184z" />
    <glyph glyph-name="ucircumflex" unicode="&#xfb;" 
d="M380 151v213h-72v109h223v-364h77v-109h-228v40q-69 -47 -137 -47q-66 0 -105.5 38.5t-39.5 108.5v224h-72v109h223v-295q0 -20 2 -31t13 -20.5t33 -9.5q38 0 83 34zM213 520h-88l118 180h147l119 -180h-86l-108 107z" />
    <glyph glyph-name="udieresis" unicode="&#xfc;" 
d="M380 151v213h-72v109h223v-364h77v-109h-228v40q-69 -47 -137 -47q-66 0 -105.5 38.5t-39.5 108.5v224h-72v109h223v-295q0 -20 2 -31t13 -20.5t33 -9.5q38 0 83 34zM499 610q0 -29 -21 -50t-50 -21t-49.5 21t-20.5 50t20.5 49.5t49.5 20.5t50 -20.5t21 -49.5zM276 610
q0 -30 -20.5 -50.5t-49.5 -20.5t-50 21t-21 50t21 49.5t50 20.5t49.5 -20.5t20.5 -49.5z" />
    <glyph glyph-name="ydieresis" unicode="&#xff;" horiz-adv-x="594" 
d="M288 -213h-165v109h91l31 84l-172 384h-68v109h283v-109h-56l79 -213l84 213h-61v109h248v-109h-67zM483 610q0 -29 -21 -50t-50 -21t-49.5 20.5t-20.5 50.5q0 29 20.5 49.5t49.5 20.5t50 -20.5t21 -49.5zM261 610q0 -29 -21 -50t-50 -21t-49.5 21t-20.5 50t20.5 49.5
t49.5 20.5t50 -20.5t21 -49.5z" />
    <glyph glyph-name="Gbreve" unicode="&#x11e;" horiz-adv-x="844" 
d="M736 679v-241h-115q-20 62 -73 96.5t-115 34.5q-84 0 -139.5 -59t-55.5 -157q0 -112 56.5 -175.5t143.5 -63.5q59 0 100.5 29.5t57.5 84.5h-120v115h319v-11q0 -164 -102 -251.5t-267 -87.5q-175 0 -276.5 96.5t-101.5 251.5q0 154 100.5 251.5t258.5 97.5q138 0 214 -67
v56h115zM521 914h120q-18 -94 -82 -144.5t-140 -50.5q-77 0 -139.5 51t-79.5 144h120q10 -37 37.5 -57.5t62.5 -20.5t63 20.5t38 57.5z" />
    <glyph glyph-name="gbreve" unicode="&#x11f;" 
d="M379 415v58h229v-109h-78v-350q0 -234 -247 -234q-142 0 -211 51l73 100q56 -34 117 -34q117 0 117 126v36q-75 -64 -143 -64q-83 0 -140.5 68t-57.5 174q0 107 59.5 175t145.5 68q83 0 136 -65zM381 235q0 57 -26 90.5t-70 33.5t-68 -33t-24 -89q0 -55 25 -88t67 -33
q41 0 68.5 31.5t27.5 87.5zM121 699h105q20 -64 84 -64q65 0 85 64h105q-7 -77 -63 -129t-127 -52t-126.5 52t-62.5 129z" />
    <glyph glyph-name="Idotaccent" unicode="&#x130;" horiz-adv-x="490" 
d="M436 0h-384v115h103v449h-103v115h384v-115h-104v-449h104v-115zM327 812q0 -34 -24.5 -59t-59.5 -25t-59.5 25t-24.5 59t24.5 59t59.5 25t59.5 -25t24.5 -59z" />
    <glyph glyph-name="dotlessi" unicode="&#x131;" horiz-adv-x="354" 
d="M115 109v255h-72v109h223v-364h70v-109h-293v109h72z" />
    <glyph glyph-name="OE" unicode="&#x152;" horiz-adv-x="1010" 
d="M846 115v102h129v-217h-526q-107 0 -154 11q-36 9 -70 24q-85 39 -131 117t-46 184q0 181 111 273q55 46 122 58t188 12h506v-216h-129v101h-197v-156h157v-115h-157v-178h197zM472 114v450q-67 0 -101.5 -4.5t-57.5 -20.5q-80 -58 -80 -198q0 -116 66 -182
q27 -27 64.5 -36t108.5 -9z" />
    <glyph glyph-name="oe" unicode="&#x153;" horiz-adv-x="1010" 
d="M302 -11q-127 0 -199.5 71.5t-72.5 174.5q0 107 74.5 178t200.5 71q115 0 204 -71q71 71 194 71q118 0 195 -75t77 -179q0 -2 -0.5 -12t-0.5 -12h-390q5 -54 43.5 -84.5t94.5 -30.5q80 0 129 54l118 -36q-25 -54 -91 -86.5t-156 -32.5q-141 0 -213 67q-87 -68 -207 -68z
M589 290h233q-10 45 -43.5 69t-76.5 24t-75.5 -26t-37.5 -67zM428 240q0 63 -34 103t-86 40q-53 0 -88 -41.5t-35 -102.5q0 -63 35 -106t88 -43t86.5 42.5t33.5 107.5z" />
    <glyph glyph-name="Scedilla" unicode="&#x15e;" horiz-adv-x="531" 
d="M462 473h-115q-6 48 -33 74t-65 26q-29 0 -48.5 -15.5t-19.5 -39.5q0 -30 30 -50.5t112 -57.5q19 -8 29 -13q143 -65 143 -203q0 -90 -49.5 -142.5t-134.5 -59.5l-5 -26q43 -7 67 -32t24 -57q0 -54 -47.5 -77t-142.5 -23q-7 0 -23.5 0.5t-22.5 0.5v50q103 0 103 40
q0 29 -58 34l20 103q-37 15 -66 53v-58h-115v231h115q3 -60 32 -91.5t73 -31.5q32 0 53.5 21.5t21.5 51.5q0 34 -31 60t-75 46t-88 44t-75 67t-31 102q0 84 53 135t128 51q83 0 126 -63v56h115v-206z" />
    <glyph glyph-name="scedilla" unicode="&#x15f;" horiz-adv-x="510" 
d="M333 457v15h110v-136h-109q-15 50 -103 50q-31 0 -48.5 -10.5t-17.5 -27.5t21.5 -24.5t79.5 -16.5l10.5 -1.5t10 -1.5t11.5 -2q89 -15 132.5 -52.5t43.5 -102.5q0 -66 -44.5 -108.5t-124.5 -48.5l-7 -31q84 -26 84 -88q0 -51 -46 -73t-139 -22q-6 0 -19 0.5t-18 0.5v50
q31 1 44.5 2t28.5 4t20 9t5 17q0 32 -58 35l25 101q-35 7 -57 29v-24h-110v164h110q2 -34 31 -54t73 -20q36 0 57 13t21 33q0 26 -35 35.5t-97 20t-102 32.5q-75 40 -75 117q0 59 48 99t126 40q65 0 118 -23z" />
    <glyph glyph-name="Scaron" unicode="&#x160;" horiz-adv-x="531" 
d="M162 58v-58h-115v231h114q3 -60 32 -91t73 -31q32 0 53.5 21t21.5 51q0 34 -31 60t-75 46t-88 44t-75 67t-31 102q0 84 53 135t128 51q82 0 126 -63v56h115v-206h-115q-6 48 -33 74t-65 26q-29 0 -48.5 -15.5t-19.5 -39.5q0 -30 30 -50.5t112 -57.5q19 -8 29 -13
q143 -65 143 -203q0 -96 -56 -149t-141 -53q-89 0 -137 66zM173 727l-125 180h99l118 -113l125 113h98l-127 -180h-188z" />
    <glyph glyph-name="scaron" unicode="&#x161;" horiz-adv-x="510" 
d="M168 21v-23h-110v164h110q2 -33 30.5 -52.5t73.5 -19.5q36 0 57 13t21 33q0 26 -35 35.5t-97 20t-102 32.5q-75 40 -75 117q0 59 48 99t126 40q65 0 118 -23v15h110v-136h-109q-15 50 -103 50q-31 0 -48.5 -10t-17.5 -27t24 -25t90 -19q13 -2 19 -3q89 -15 132.5 -52.5
t43.5 -101.5q0 -70 -48.5 -112.5t-137.5 -42.5q-70 0 -120 28zM449 702l-119 -180h-146l-119 180h86l106 -107l107 107h85z" />
    <glyph glyph-name="tcaron" unicode="&#x165;" horiz-adv-x="698" 
d="M79 116v248h-60v109h60v74l151 108v-182h87v-109h-87v-205q0 -14 0.5 -20t4 -14t12 -11t23.5 -3q17 0 47 11v-105q-57 -23 -115 -23q-69 0 -101 40q-22 26 -22 82zM448 679h163v-153q0 -99 -35.5 -145t-127.5 -46v74q80 10 80 96v10h-80v164z" />
    <glyph glyph-name="Ydieresis" unicode="&#x178;" horiz-adv-x="698" 
d="M537 0h-367v115h95v183l-184 266h-83v115h340v-115h-67l99 -166l102 166h-70v115h299v-115h-83l-176 -266v-183h95v-115zM307 806q0 -34 -24.5 -59t-59.5 -25t-59.5 25t-24.5 59t24.5 59t59.5 25t59.5 -24.5t24.5 -59.5zM581 806q0 -35 -24.5 -59.5t-59.5 -24.5
t-59.5 24.5t-24.5 59.5t24.5 59.5t59.5 24.5t59.5 -24.5t24.5 -59.5z" />
    <glyph glyph-name="uni018f" unicode="&#x18f;" horiz-adv-x="854" 
d="M724 408q-24 0 -25.5 -8.5t12.5 -21.5t29 -27.5t25 -27.5t0 -21.5t-45 -8.5q-51 0 -478 1q12 -83 63 -131.5t122 -48.5q80 0 133.5 61t53.5 166q0 106 -51.5 167t-131.5 61q-121 0 -192 -97h-114v207h114v-53q83 64 188 64q174 0 275.5 -99.5t101.5 -249.5t-101 -249
t-276 -99t-276.5 99.5t-101.5 248.5q0 35 6 67h669z" />
    <glyph glyph-name="florin" unicode="&#x192;" horiz-adv-x="563" 
d="M168 -11l73 426h-99l18 103h99l8 44q14 80 30 108q35 58 132 58q69 0 137 -20l-27 -110q-46 13 -78 13q-22 0 -34.5 -10t-16.5 -21t-8 -34l-6 -28h102l-18 -103h-100l-84 -477q-14 -78 -47 -113t-114 -35q-78 0 -137 19l28 108q52 -10 83 -10q22 0 34 11t15.5 24.5
t9.5 46.5z" />
    <glyph glyph-name="uni0259" unicode="&#x259;" horiz-adv-x="573" 
d="M192 330l-109 48q16 38 76.5 72.5t126.5 34.5q109 0 178.5 -68t69.5 -180q0 -113 -69.5 -180.5t-178.5 -67.5t-179 68t-70 180v52h337q-19 79 -88 79q-42 0 -62 -8.5t-32 -29.5zM285 106q78 0 92 99h-183q6 -47 30 -73t61 -26z" />
    <glyph glyph-name="circumflex" unicode="&#x2c6;" horiz-adv-x="333" 
d="M165 627l-102 -107h-88l118 180h147l119 -180h-86z" />
    <glyph glyph-name="tilde" unicode="&#x2dc;" horiz-adv-x="333" 
d="M89 584q-17 0 -28 -13.5t-12 -39.5h-73v2q0 72 33.5 113.5t77.5 41.5q32 0 86.5 -29.5t72.5 -29.5q15 0 28 15t14 41h70v-11q0 -60 -32 -103t-82 -43q-29 0 -82.5 28t-72.5 28z" />
    <glyph glyph-name="endash" unicode="&#x2013;" horiz-adv-x="500" 
d="M506 189h-512v122h512v-122z" />
    <glyph glyph-name="emdash" unicode="&#x2014;" horiz-adv-x="1000" 
d="M1006 189h-1012v122h1012v-122z" />
    <glyph glyph-name="quoteleft" unicode="&#x2018;" horiz-adv-x="354" 
d="M265 335h-163v152q0 99 35 145.5t128 46.5v-75q-45 -6 -62.5 -30.5t-17.5 -74.5h80v-164z" />
    <glyph glyph-name="quoteright" unicode="&#x2019;" horiz-adv-x="354" 
d="M104 679h163v-153q0 -99 -35.5 -145t-127.5 -46v74q80 10 80 96v10h-80v164z" />
    <glyph glyph-name="quotesinglbase" unicode="&#x201a;" horiz-adv-x="354" 
d="M96 163h163v-153q0 -99 -35.5 -145t-127.5 -46v74q42 5 61 28t19 68v10h-80v164z" />
    <glyph glyph-name="quotedblleft" unicode="&#x201c;" horiz-adv-x="594" 
d="M260 335h-163v152q0 99 35 145.5t128 46.5v-75q-45 -6 -62.5 -30.5t-17.5 -74.5h80v-164zM510 335h-163v152q0 99 35 145.5t128 46.5v-75q-45 -6 -62.5 -30.5t-17.5 -74.5h80v-164z" />
    <glyph glyph-name="quotedblright" unicode="&#x201d;" horiz-adv-x="594" 
d="M102 677h163v-153q0 -98 -35.5 -144t-127.5 -46v73q41 5 60.5 28t19.5 69v9h-80v164zM349 677h163v-153q0 -98 -35 -144t-128 -46v73q80 10 80 97v9h-80v164z" />
    <glyph glyph-name="quotedblbase" unicode="&#x201e;" horiz-adv-x="594" 
d="M87 164h163v-152q0 -99 -35.5 -145t-127.5 -46v74q42 5 61 28t19 68v9h-80v164zM333 164h163v-152q0 -99 -35.5 -145t-127.5 -46v74q42 5 61 28t19 68v9h-80v164z" />
    <glyph glyph-name="dagger" unicode="&#x2020;" horiz-adv-x="490" 
d="M212 377h-12q-70 0 -103 -26h-92v121h92q6 -4 13 -7t12.5 -5.5t14 -4.5t13 -3t15 -2.5t14.5 -2t16.5 -2t16.5 -1.5q2 14 2 19q0 71 -35 115v99h133v-99q-35 -45 -35 -118q0 -1 0.5 -7.5t0.5 -8.5q2 0 18 2t19.5 2.5t16 2t17.5 3t14.5 4.5t16.5 6.5t14 7.5h92v-121h-92
q-36 28 -116 26q3 -78 34 -123v-106l-34 -353h-66l-33 353v106q31 44 33 123z" />
    <glyph glyph-name="daggerdbl" unicode="&#x2021;" horiz-adv-x="490" 
d="M372 104h95v-121h-95q-45 27 -93 27q0 -69 32 -116v-100h-133v100q32 49 32 116q-51 0 -94 -27h-95v121h95q29 -24 94 -26q1 5 1 21q0 81 -49 136q49 55 49 137q0 16 -1 21q-65 -2 -94 -26h-95v120h95q42 -26 94 -26q-2 28 -3.5 39.5t-8.5 33.5t-20 42v101h133v-101
q-33 -51 -33 -107q0 -1 0.5 -4t0.5 -4q49 0 93 26h95v-120h-95q-30 24 -93 26q-2 -10 -2 -21q0 -79 49 -137q-49 -56 -49 -136q0 -11 2 -21q66 2 93 26z" />
    <glyph glyph-name="bullet" unicode="&#x2022;" horiz-adv-x="354" 
d="M178 480q57 0 98 -40.5t41 -98.5t-41 -99t-98 -41q-58 0 -99 41t-41 99t41 98.5t99 40.5z" />
    <glyph glyph-name="ellipsis" unicode="&#x2026;" horiz-adv-x="1000" 
d="M249 164v-164h-163v164h163zM582 164v-164h-163v164h163zM915 164v-164h-163v164h163z" />
    <glyph glyph-name="perthousand" unicode="&#x2030;" horiz-adv-x="1167" 
d="M348 514q0 -85 -41.5 -131.5t-117.5 -46.5t-117.5 46.5t-41.5 131.5t41.5 131t117.5 46t117.5 -46t41.5 -131zM231 510q0 56 -9 82.5t-35 26.5q-40 0 -40 -100q0 -58 9 -84.5t34 -26.5q41 0 41 102zM764 168q0 -85 -41.5 -131t-117.5 -46t-117.5 46.5t-41.5 130.5
t41.5 131t117.5 47t117.5 -47t41.5 -131zM647 165q0 56 -9 82.5t-35 26.5q-40 0 -40 -100q0 -58 8.5 -84.5t33.5 -26.5q42 0 42 102zM683 679l-491 -679h-88l492 679h87zM1138 168q0 -85 -41.5 -131t-117.5 -46t-117.5 46.5t-41.5 130.5t41.5 131t117.5 47t117.5 -47
t41.5 -131zM1021 165q0 56 -9 82.5t-35 26.5q-40 0 -40 -100q0 -58 8.5 -84.5t33.5 -26.5q42 0 42 102z" />
    <glyph glyph-name="guilsinglleft" unicode="&#x2039;" horiz-adv-x="271" 
d="M152 236l110 -236h-144l-113 236l113 236h144z" />
    <glyph glyph-name="guilsinglright" unicode="&#x203a;" horiz-adv-x="271" 
d="M149 472l113 -236l-113 -236h-144l110 236l-110 236h144z" />
    <glyph glyph-name="trademark" unicode="&#x2122;" horiz-adv-x="1000" 
d="M311 608v-330h-81v330h-124v69h325v-69h-120zM555 596v-318h-76v399h127l72 -275l73 275h127v-399h-77v318l-87 -318h-73z" />
    </font>
</defs>
</svg>
