<svg data-name="Group 5543" xmlns="http://www.w3.org/2000/svg" width="200.801" height="200.801"><g data-name="Group 5542" fill="#ff6b6b"><path data-name="Rectangle 748" d="M98.644 0h3.512v14.634h-3.512z"/><path data-name="Rectangle 749" d="M48.679 14.329l3.041-1.756 7.317 12.673-3.041 1.756z"/><path data-name="Rectangle 750" d="M12.573 51.721l1.756-3.041 12.673 7.317-1.756 3.041z"/><path data-name="Rectangle 751" d="M0 102.156v-3.512h14.634v3.512z"/><path data-name="Rectangle 752" d="M14.329 152.121l-1.756-3.041 12.673-7.317 1.756 3.041z"/><path data-name="Rectangle 753" d="M51.721 188.227l-3.041-1.756 7.317-12.673 3.041 1.756z"/><path data-name="Rectangle 754" d="M102.156 200.801h-3.512v-14.634h3.512z"/><path data-name="Rectangle 755" d="M152.121 186.471l-3.041 1.756-7.317-12.673 3.041-1.756z"/><path data-name="Rectangle 756" d="M188.227 149.08l-1.756 3.041-12.673-7.317 1.756-3.041z"/><path data-name="Rectangle 757" d="M200.801 98.644v3.512h-14.634v-3.512z"/><path data-name="Rectangle 758" d="M186.471 48.679l1.756 3.041-12.673 7.317-1.756-3.041z"/><path data-name="Rectangle 759" d="M149.08 12.573l3.041 1.756-7.317 12.673-3.041-1.756z"/></g><path data-name="Rectangle 760" fill="#ffc7c7" d="M89.107.634l1.597-.169.852 8.072-1.597.168z"/><path data-name="Rectangle 761" fill="#ffc7c7" d="M78.741 2.361l1.57-.334 1.687 7.935-1.57.334z"/><path data-name="Rectangle 762" fill="#ffc7c7" d="M68.611 5.162l1.526-.496 2.507 7.715-1.526.496z"/><path data-name="Rectangle 763" fill="#ffc7c7" d="M58.831 9.007l1.467-.653 3.302 7.414-1.467.653z"/><path data-name="Rectangle 764" fill="#ffc7c7" d="M40.737 19.647l1.298-.943 4.769 6.562-1.299.944z"/><path data-name="Rectangle 765" fill="#ffc7c7" d="M32.623 26.325l1.193-1.074 5.426 6.027-1.192 1.074z"/><path data-name="Rectangle 766" fill="#ffc7c7" d="M25.251 33.816l1.074-1.193 6.027 5.427-1.074 1.193z"/><path data-name="Rectangle 767" fill="#ffc7c7" d="M18.703 42.036l.944-1.298 6.562 4.77-.943 1.298z"/><path data-name="Rectangle 768" fill="#ffc7c7" d="M8.354 60.297l.653-1.466 7.41 3.3-.652 1.465z"/><path data-name="Rectangle 769" fill="#ffc7c7" d="M4.666 70.138l.496-1.526 7.714 2.506-.495 1.527z"/><path data-name="Rectangle 770" fill="#ffc7c7" d="M2.027 80.311l.334-1.57 7.934 1.687-.333 1.57z"/><path data-name="Rectangle 771" fill="#ffc7c7" d="M.466 90.704l.169-1.597 8.071.852-.169 1.597z"/><path data-name="Rectangle 772" fill="#ffc7c7" d="M.634 111.693l-.169-1.597 8.072-.852.168 1.597z"/><path data-name="Rectangle 773" fill="#ffc7c7" d="M2.361 122.06l-.334-1.57 7.934-1.687.334 1.57z"/><path data-name="Rectangle 774" fill="#ffc7c7" d="M5.162 132.189l-.496-1.526 7.715-2.507.496 1.526z"/><path data-name="Rectangle 775" fill="#ffc7c7" d="M9.007 141.97l-.653-1.466 7.41-3.3.654 1.467z"/><path data-name="Rectangle 776" fill="#ffc7c7" d="M19.646 160.063l-.944-1.298 6.563-4.77.944 1.298z"/><path data-name="Rectangle 777" fill="#ffc7c7" d="M26.325 168.178l-1.074-1.193 6.027-5.426 1.074 1.192z"/><path data-name="Rectangle 778" fill="#ffc7c7" d="M33.816 175.549l-1.193-1.074 5.427-6.027 1.193 1.074z"/><path data-name="Rectangle 779" fill="#ffc7c7" d="M42.036 182.098l-1.298-.944 4.77-6.562 1.298.943z"/><path data-name="Rectangle 780" fill="#ffc7c7" d="M60.297 192.447l-1.466-.653 3.3-7.41 1.465.652z"/><path data-name="Rectangle 781" fill="#ffc7c7" d="M70.138 196.135l-1.526-.496 2.506-7.714 1.527.495z"/><path data-name="Rectangle 782" fill="#ffc7c7" d="M80.311 198.773l-1.57-.334 1.687-7.934 1.57.333z"/><path data-name="Rectangle 783" fill="#ffc7c7" d="M90.704 200.334l-1.597-.169.852-8.071 1.597.169z"/><path data-name="Rectangle 784" fill="#ffc7c7" d="M111.693 200.167l-1.597.169-.852-8.072 1.597-.168z"/><path data-name="Rectangle 785" fill="#ffc7c7" d="M122.06 198.44l-1.57.334-1.687-7.935 1.57-.334z"/><path data-name="Rectangle 786" fill="#ffc7c7" d="M132.189 195.639l-1.526.496-2.507-7.715 1.526-.496z"/><path data-name="Rectangle 787" fill="#ffc7c7" d="M141.97 191.794l-1.467.653-3.302-7.414 1.467-.653z"/><path data-name="Rectangle 788" fill="#ffc7c7" d="M160.063 181.154l-1.298.944-4.77-6.563 1.298-.944z"/><path data-name="Rectangle 789" fill="#ffc7c7" d="M168.178 174.475l-1.193 1.074-5.426-6.027 1.192-1.074z"/><path data-name="Rectangle 790" fill="#ffc7c7" d="M175.549 166.985l-1.074 1.193-6.028-5.428 1.074-1.193z"/><path data-name="Rectangle 791" fill="#ffc7c7" d="M182.098 158.765l-.943 1.298-6.563-4.768.943-1.298z"/><path data-name="Rectangle 792" fill="#ffc7c7" d="M192.447 140.504l-.653 1.467-7.415-3.302.654-1.467z"/><path data-name="Rectangle 793" fill="#ffc7c7" d="M196.135 130.662l-.496 1.526-7.715-2.506.496-1.527z"/><path data-name="Rectangle 794" fill="#ffc7c7" d="M198.773 120.489l-.334 1.57-7.933-1.688.333-1.57z"/><path data-name="Rectangle 795" fill="#ffc7c7" d="M200.334 110.097l-.169 1.597-8.071-.852.169-1.597z"/><path data-name="Rectangle 796" fill="#ffc7c7" d="M200.167 89.107l.169 1.597-8.072.852-.168-1.597z"/><path data-name="Rectangle 797" fill="#ffc7c7" d="M198.44 78.741l.334 1.57-7.935 1.687-.334-1.57z"/><path data-name="Rectangle 798" fill="#ffc7c7" d="M195.639 68.611l.496 1.526-7.715 2.507-.496-1.526z"/><path data-name="Rectangle 799" fill="#ffc7c7" d="M191.794 58.83l.653 1.467-7.414 3.302-.653-1.467z"/><path data-name="Rectangle 800" fill="#ffc7c7" d="M181.154 40.737l.943 1.298-6.562 4.768-.944-1.298z"/><path data-name="Rectangle 801" fill="#ffc7c7" d="M174.475 32.623l1.074 1.193-6.028 5.428-1.074-1.193z"/><path data-name="Rectangle 802" fill="#ffc7c7" d="M166.985 25.251l1.193 1.074-5.427 6.027-1.193-1.074z"/><path data-name="Rectangle 803" fill="#ffc7c7" d="M158.765 18.703l1.298.943-4.768 6.563-1.298-.943z"/><path data-name="Rectangle 804" fill="#ffc7c7" d="M140.504 8.354l1.466.653-3.3 7.41-1.466-.652z"/><path data-name="Rectangle 805" fill="#ffc7c7" d="M130.662 4.666l1.526.496-2.506 7.715-1.527-.496z"/><path data-name="Rectangle 806" fill="#ffc7c7" d="M120.49 2.027l1.57.334-1.687 7.934-1.57-.333z"/><path data-name="Rectangle 807" fill="#ffc7c7" d="M110.097.466l1.597.169-.852 8.071-1.597-.169z"/></svg>