<svg xmlns="http://www.w3.org/2000/svg" width="17.999" height="17.999"><g data-name="48px_time-clock" transform="translate(-1 -1)"><circle data-name="Ellipse 72" cx="8" cy="8" r="8" transform="translate(2 2)" fill="#e2edf9"/><path data-name="Path 11391" d="M10 19a9 9 0 119-9 9.01 9.01 0 01-9 9zm0-16.435A7.435 7.435 0 1017.434 10 7.443 7.443 0 0010 2.565z" fill="#425577"/><path data-name="Path 11392" d="M6.478 14.695a.391.391 0 01-.3-.639l3.522-4.3a.393.393 0 01.606.5l-3.522 4.3a.391.391 0 01-.3.144z" fill="#425577"/><circle data-name="Ellipse 73" cx="1" cy="1" r="1" transform="translate(9 9)" fill="#425577"/><path data-name="Path 11393" d="M13.521 10.391H9.999a.391.391 0 01-.321-.178l-3.13-4.7a.391.391 0 01.651-.434l3.01 4.534h3.312a.392.392 0 110 .783z" fill="#425577"/><path data-name="Path 11394" d="M9.999 4.913a.391.391 0 01-.391-.391v-.783a.392.392 0 11.783 0v.783a.391.391 0 01-.392.391z" fill="#b3b3b3"/><path data-name="Path 11395" d="M15.086 9.999a.391.391 0 01.391-.391h.783a.392.392 0 010 .783h-.783a.391.391 0 01-.391-.392z" fill="#b3b3b3"/><path data-name="Path 11396" d="M9.999 15.086a.391.391 0 01.391.391v.783a.392.392 0 01-.783 0v-.783a.391.391 0 01.392-.391z" fill="#b3b3b3"/><path data-name="Path 11397" d="M4.913 9.999a.391.391 0 01-.391.391h-.783a.392.392 0 110-.783h.783a.391.391 0 01.391.392z" fill="#b3b3b3"/></g></svg>