<svg xmlns="http://www.w3.org/2000/svg" width="20.881" height="16.959"><path data-name="Icon awesome-twitter" d="M18.735 4.226c.013.185.013.371.013.556A12.093 12.093 0 016.572 16.959 12.094 12.094 0 010 15.038a8.853 8.853 0 001.033.053 8.571 8.571 0 005.313-1.828 4.287 4.287 0 01-4-2.968 5.4 5.4 0 00.808.066 4.526 4.526 0 001.126-.142 4.28 4.28 0 01-3.432-4.2v-.057a4.31 4.31 0 001.934.543A4.286 4.286 0 011.457.781a12.164 12.164 0 008.824 4.478 4.831 4.831 0 01-.106-.98 4.284 4.284 0 017.406-2.928A8.426 8.426 0 0020.3.319a4.268 4.268 0 01-1.881 2.358 8.579 8.579 0 002.464-.662 9.2 9.2 0 01-2.146 2.213z" fill="#fff"/></svg>