<svg xmlns="http://www.w3.org/2000/svg" width="22.183" height="16.183"><g data-name="Icon feather-youtube" fill="none" stroke="#d89696" stroke-linecap="round" stroke-linejoin="round" stroke-width="2"><path data-name="Path 7898" d="M20.761 3.22a2.55 2.55 0 00-1.78-1.835A66.063 66.063 0 0011.092 1s-6.312 0-7.891.422a2.55 2.55 0 00-1.78 1.835 26.6 26.6 0 00-.42 4.853A26.6 26.6 0 001.423 13a2.55 2.55 0 001.778 1.761c1.578.422 7.889.422 7.889.422s6.312 0 7.889-.422a2.55 2.55 0 001.78-1.835 26.6 26.6 0 00.422-4.816 26.6 26.6 0 00-.422-4.89z"/><path data-name="Path 7899" d="M9.028 11.11l5.275-3-5.275-3z"/></g></svg>