<svg xmlns="http://www.w3.org/2000/svg" width="35.002" height="25.19"><g data-name="Icon feather-youtube" fill="none" stroke="#fff" stroke-linecap="round" stroke-linejoin="round" stroke-width="2"><path data-name="Path 7898" d="M33.311 4.63a4.17 4.17 0 00-2.91-3C27.821 1 17.501 1 17.501 1s-10.32 0-12.9.69a4.17 4.17 0 00-2.91 3 43.5 43.5 0 00-.69 7.935 43.5 43.5 0 00.69 7.995 4.17 4.17 0 002.91 2.88c2.58.69 12.9.69 12.9.69s10.32 0 12.9-.69a4.17 4.17 0 002.91-3 43.5 43.5 0 00.69-7.875 43.5 43.5 0 00-.69-8z"/><path data-name="Path 7899" d="M14.126 17.53l8.625-4.905-8.625-4.9z"/></g></svg>