<?xml version="1.0" standalone="no"?>
<!DOCTYPE svg PUBLIC "-//W3C//DTD SVG 1.1//EN" "http://www.w3.org/Graphics/SVG/1.1/DTD/svg11.dtd" >
<svg xmlns="http://www.w3.org/2000/svg" xmlns:xlink="http://www.w3.org/1999/xlink" version="1.1">
<metadata>
Created by FontForge 20170731 at Sun Jan 11 20:30:34 2015
 By Aleksey,,,
Copyright (C) 1996 The Monotype Corporation. Rockwell(R) Trademark of The Monotype Corporation registered in the US Pat &#38; TM Off. and elsewhere. All rights reserved.
</metadata>
<defs>
<font id="Rockwell" horiz-adv-x="292" >
  <font-face 
    font-family="Rockwell"
    font-weight="400"
    font-stretch="normal"
    units-per-em="1000"
    panose-1="2 0 5 3 4 0 0 2 0 3"
    ascent="800"
    descent="-200"
    x-height="472"
    cap-height="679"
    bbox="-59 -223 1057 884"
    underline-thickness="50"
    underline-position="-200"
    unicode-range="U+0020-2122"
  />
<missing-glyph horiz-adv-x="250" 
 />
    <glyph glyph-name=".notdef" horiz-adv-x="250" 
 />
    <glyph glyph-name=".null" horiz-adv-x="0" 
 />
    <glyph glyph-name="nonmarkingreturn" horiz-adv-x="333" 
 />
    <glyph glyph-name="space" unicode=" " horiz-adv-x="250" 
 />
    <glyph glyph-name="exclam" unicode="!" 
d="M195 679v-207l-24 -288h-50l-25 288v207h99zM206 120v-120h-120v120h120z" />
    <glyph glyph-name="quotedbl" unicode="&#x22;" horiz-adv-x="406" 
d="M149 549l-26 -144h-22l-26 144q-10 54 -10 81q0 60 47 60q21 0 35 -14.5t14 -38.5q0 -26 -12 -88zM332 548l-28 -143h-23l-27 142q-12 60 -12 84q0 59 50 59q22 0 35.5 -14.5t13.5 -38.5q0 -39 -9 -89z" />
    <glyph glyph-name="numbersign" unicode="#" horiz-adv-x="668" 
d="M239 689h72l-40 -191h193l40 191h72l-40 -191h91v-72h-106l-36 -172h142v-72h-157l-39 -191h-72l40 191h-194l-39 -191h-72l39 191h-90v72h105l36 172h-141v72h156zM414 254l35 172h-193l-36 -172h194z" />
    <glyph glyph-name="dollar" unicode="$" horiz-adv-x="542" 
d="M304 -86h-74v76q-92 5 -145.5 61t-53.5 140v14h89q4 -64 30.5 -95t79.5 -40v224q-185 37 -185 188q0 81 48 132t137 60v31h74v-31q86 -11 125.5 -61.5t39.5 -141.5v-12h-84v11q0 104 -81 123v-217q101 -19 148.5 -60t47.5 -123q0 -88 -51.5 -140.5t-144.5 -62.5v-76z
M230 393v204q-43 -7 -66 -33.5t-23 -66.5q0 -44 22.5 -67t66.5 -37zM304 278v-207q104 19 104 108q0 45 -25.5 66t-78.5 33z" />
    <glyph glyph-name="percent" unicode="%" horiz-adv-x="969" 
d="M788 679l-535 -679h-74l539 679h70zM80 508q0 87 39 134.5t106 47.5q68 0 106.5 -47.5t38.5 -134.5t-39 -134.5t-106 -47.5t-106 47.5t-39 134.5zM151 508q0 -135 74 -135t74 135t-74 135t-74 -135zM598 171q0 87 39 134.5t106 47.5q68 0 107 -47.5t39 -134.5
t-39.5 -134.5t-106.5 -47.5t-106 47.5t-39 134.5zM669 171q0 -135 74 -135q75 0 75 135t-75 135q-74 0 -74 -135z" />
    <glyph glyph-name="ampersand" unicode="&#x26;" horiz-adv-x="677" 
d="M500 0l-45 60q-88 -70 -181 -70q-106 0 -174 65t-68 163q0 137 154 204q-47 62 -47 118q0 64 49 107t117 43t115.5 -41.5t47.5 -103.5q0 -58 -36.5 -92t-106.5 -63l138 -187q36 63 52 157h140v-85h-72q-24 -90 -68 -144l36 -46h104v-85h-155zM402 128l-164 231
q-107 -47 -107 -136q0 -60 45 -105t108 -45q65 0 118 55zM276 454q51 21 75.5 42t24.5 51q0 26 -18.5 45t-50.5 19t-52 -19t-20 -49q0 -13 6 -27.5t12 -25t23 -36.5z" />
    <glyph glyph-name="quotesingle" unicode="'" horiz-adv-x="177" 
d="M124 549l-26 -145h-21l-27 145q-10 50 -10 81q0 60 46 60q22 0 36 -14t14 -38q0 -23 -12 -89z" />
    <glyph glyph-name="parenleft" unicode="(" horiz-adv-x="375" 
d="M347 692v-76q-47 -26 -84 -73q-49 -61 -66 -130.5t-17 -175.5q0 -138 35.5 -229t131.5 -149v-76q-77 34 -136 99q-69 75 -99.5 160.5t-30.5 195.5q0 163 72 282.5t194 171.5z" />
    <glyph glyph-name="parenright" unicode=")" horiz-adv-x="375" 
d="M28 -217v76q97 61 132 150t35 228q0 91 -11.5 153t-44.5 115q-47 75 -111 111v76q128 -60 197 -177t69 -278q0 -160 -65.5 -271.5t-200.5 -182.5z" />
    <glyph glyph-name="asterisk" unicode="*" horiz-adv-x="521" 
d="M216 607v83h88v-83q-29 -59 -30 -120q63 22 105 66l81 26l27 -86l-80 -27q-24 3 -30 3q-51 0 -90 -11q45 -57 92 -77l49 -69l-72 -52l-52 69q-6 61 -44 113q-38 -53 -44 -113l-51 -69l-73 52l49 69q47 20 92 77q-39 11 -90 11q-6 0 -30 -3l-80 27l27 86l81 -26
q41 -43 105 -66q-1 59 -30 120z" />
    <glyph glyph-name="plus" unicode="+" horiz-adv-x="667" 
d="M295 301h-229v77h229v229h77v-229h229v-77h-229v-229h-77v229z" />
    <glyph glyph-name="comma" unicode="," 
d="M145 -12l-1 12h-58v120h120v-104q0 -75 -23.5 -111.5t-96.5 -39.5v51q59 9 59 72z" />
    <glyph glyph-name="hyphen" unicode="-" horiz-adv-x="354" 
d="M324 188h-293v94h293v-94z" />
    <glyph glyph-name="period" unicode="." 
d="M206 120v-120h-120v120h120z" />
    <glyph glyph-name="slash" unicode="/" horiz-adv-x="438" 
d="M86 -11h-81l347 704h81z" />
    <glyph glyph-name="zero" unicode="0" horiz-adv-x="542" 
d="M36 340q0 168 63 259t172 91q110 0 172.5 -91t62.5 -259t-63 -259t-172 -91q-110 0 -172.5 91t-62.5 259zM135 340q0 -138 33 -204.5t103 -66.5t103 66.5t33 204.5t-33 204.5t-103 66.5t-103 -66.5t-33 -204.5z" />
    <glyph glyph-name="one" unicode="1" horiz-adv-x="542" 
d="M144 0v85h93v512h-93v81h186v-593h88v-85h-274z" />
    <glyph glyph-name="two" unicode="2" horiz-adv-x="542" 
d="M394 88l4 155h83l-7 -243h-434v7q0 87 44.5 167t122.5 137q108 79 130 102q41 41 41 90q0 48 -31.5 78t-82.5 30q-61 0 -88.5 -36t-27.5 -112v-11v-14.5v-11.5h-92v28q0 117 54.5 176.5t152.5 59.5q99 0 155 -51.5t56 -132.5q0 -25 -4.5 -46t-18.5 -43t-23 -35t-37 -36
t-40 -32.5t-52 -38.5t-54 -39q-90 -67 -107 -148h256z" />
    <glyph glyph-name="three" unicode="3" horiz-adv-x="542" 
d="M232 313h-28v83q34 0 52.5 1t45.5 7t40.5 16t24 30.5t10.5 49.5q0 48 -28 79.5t-78 31.5q-108 0 -113 -137h-94q1 106 53.5 161t145.5 55q98 0 152 -49t54 -130q0 -52 -26.5 -93t-69.5 -60q127 -41 127 -163q0 -95 -65 -150t-170 -55q-110 0 -171 61t-61 166v13h90
q2 -78 42 -119.5t108 -41.5q60 0 95.5 33.5t35.5 86.5q0 58 -44 91t-128 33z" />
    <glyph glyph-name="four" unicode="4" horiz-adv-x="542" 
d="M229 85h73v96h-230q-13 48 -43 78l283 426h78v-419h109v-85h-109v-96h62v-85h-223v85zM302 532l-179 -266h179v266z" />
    <glyph glyph-name="five" unicode="5" horiz-adv-x="542" 
d="M374 592h-207l-16 -200q59 49 139 49q94 0 151 -62.5t57 -160.5q0 -101 -62.5 -165t-170.5 -64q-102 0 -162 59t-67 169h88q9 -71 46 -110t96 -39q60 0 98 41t38 108t-35.5 106t-91.5 39q-78 0 -136 -83q-35 33 -71 50l28 348h362v-179h-84v94z" />
    <glyph glyph-name="six" unicode="6" horiz-adv-x="542" 
d="M482 479h-83q-8 61 -41.5 96.5t-80.5 35.5q-63 0 -99.5 -65t-38.5 -189q70 76 159 76q79 0 134.5 -58.5t55.5 -153.5q0 -99 -56.5 -165t-149.5 -66q-107 0 -170 89t-63 256q0 169 64 262t175 93q85 0 137.5 -56.5t56.5 -154.5zM143 255q23 -186 135 -186q55 0 88.5 41
t33.5 104q0 59 -31 94t-82 35q-74 0 -144 -88z" />
    <glyph glyph-name="seven" unicode="7" horiz-adv-x="542" 
d="M377 85v-85h-268v85h90q7 127 58.5 268t119.5 239h-234v-92h-84v177h424v-68q-67 -78 -126 -240.5t-59 -277.5v-6h79z" />
    <glyph glyph-name="eight" unicode="8" horiz-adv-x="542" 
d="M54 512q0 81 58.5 129t154.5 48q101 0 160.5 -48t59.5 -129q0 -98 -100 -157q121 -47 121 -168q0 -89 -62.5 -143.5t-169.5 -54.5q-116 0 -179.5 53.5t-63.5 144.5q0 121 121 168q-100 59 -100 157zM146 503q0 -51 34 -80.5t94 -29.5q55 0 88 29.5t33 80.5t-33 79t-95 28
q-56 0 -88.5 -28.5t-32.5 -78.5zM132 191q0 -54 37.5 -88.5t100.5 -34.5t101 34.5t38 88.5q0 55 -37.5 89t-104.5 34q-62 0 -98.5 -34t-36.5 -89z" />
    <glyph glyph-name="nine" unicode="9" horiz-adv-x="542" 
d="M51 201h82q8 -61 42 -96.5t81 -35.5q63 0 99.5 64.5t38.5 188.5q-69 -75 -159 -75q-79 0 -134 58t-55 153q0 99 56 165t148 66q108 0 171 -89t63 -256q0 -169 -63.5 -261.5t-175.5 -92.5q-85 0 -137.5 56.5t-56.5 154.5zM390 425q-23 185 -135 185q-55 0 -88 -41
t-33 -104q0 -58 30.5 -93t81.5 -35q74 0 144 88z" />
    <glyph glyph-name="colon" unicode=":" 
d="M206 120v-120h-120v120h120zM206 472v-120h-120v120h120z" />
    <glyph glyph-name="semicolon" unicode=";" 
d="M145 -12l-1 12h-58v120h120v-104q0 -75 -23.5 -111.5t-96.5 -39.5v51q59 9 59 72zM206 472v-120h-120v120h120z" />
    <glyph glyph-name="less" unicode="&#x3c;" horiz-adv-x="667" 
d="M171 340l430 -176v-83l-535 224v69l535 225v-83z" />
    <glyph glyph-name="equal" unicode="=" horiz-adv-x="667" 
d="M601 416h-535v77h535v-77zM601 186h-535v77h535v-77z" />
    <glyph glyph-name="greater" unicode="&#x3e;" horiz-adv-x="667" 
d="M496 340l-430 176v83l535 -225v-69l-535 -224v83z" />
    <glyph glyph-name="question" unicode="?" horiz-adv-x="469" 
d="M265 315h-16l-12 -132h-50l-12 216q23 -5 46 -5q58 0 89.5 29.5t31.5 79.5t-30 79t-79 29q-52 0 -81 -31t-29 -83v-25h-93v22q0 92 55.5 144t145.5 52q97 0 152 -52t55 -141q0 -82 -50.5 -132t-122.5 -50zM272 120v-120h-120v120h120z" />
    <glyph glyph-name="at" unicode="@" horiz-adv-x="1010" 
d="M419 -13q-75 0 -126.5 62t-51.5 156q0 117 78 214.5t176 97.5q93 0 148 -90l16 76h88l-70 -328q-15 -73 -15 -76q0 -14 10 -23.5t23 -9.5q54 0 122.5 81t68.5 191q0 132 -100.5 219.5t-250.5 87.5q-178 0 -292.5 -120.5t-114.5 -300.5q0 -176 111 -275t310 -99
q119 0 207.5 39t136.5 108h88q-30 -62 -107 -121q-129 -98 -324 -98q-234 0 -363.5 118.5t-129.5 320.5q0 204 126 350q131 150 357 150q186 0 301.5 -110t115.5 -271q0 -136 -91 -242.5t-204 -106.5q-28 0 -47 6.5t-28 19t-12.5 24.5t-5.5 30q-69 -80 -150 -80zM333 197
q0 -61 30.5 -99.5t72.5 -38.5q67 0 123 74t56 172q0 64 -31.5 102t-81.5 38q-71 0 -120 -78.5t-49 -169.5z" />
    <glyph glyph-name="A" unicode="A" horiz-adv-x="698" 
d="M440 85h84l-51 155h-243l-53 -155h83v-85h-268v85h82l186 517h-83v77h347v-77h-84l190 -517h76v-85h-266v85zM349 602l-94 -285h193l-90 285h-9z" />
    <glyph glyph-name="B" unicode="B" horiz-adv-x="583" 
d="M253 0h-231v85h83v509h-83v85h226q102 0 137 -10q37 -11 65 -36q57 -51 57 -129q0 -47 -22 -85t-63 -58q57 -20 88 -64.5t31 -103.5q0 -69 -41.5 -117.5t-113.5 -65.5q-41 -10 -133 -10zM272 594h-64v-197h64q65 0 98 22.5t33 77.5q0 51 -32.5 74t-98.5 23zM266 312h-58
v-227h39q72 0 93 3q46 7 71.5 36.5t25.5 75.5t-30 76q-23 23 -53.5 29.5t-87.5 6.5z" />
    <glyph glyph-name="C" unicode="C" horiz-adv-x="760" 
d="M606 617v62h88v-218h-88q-30 66 -89.5 102.5t-129.5 36.5q-101 0 -166.5 -72.5t-65.5 -185.5q0 -114 69 -188t166 -74q79 0 143.5 51t90.5 145l89 -49q-30 -112 -119 -174.5t-210 -62.5q-152 0 -246.5 98.5t-94.5 250.5q0 159 93.5 255t245.5 96q132 0 224 -73z" />
    <glyph glyph-name="D" unicode="D" horiz-adv-x="729" 
d="M13 0v85h92v509h-92v85h263q70 0 104 -2q136 -7 217.5 -96t81.5 -234q0 -156 -80 -246q-56 -62 -132.5 -81.5t-206.5 -19.5h-247zM266 594h-58v-509h53q97 0 153.5 13t97.5 57q63 67 63 188q0 104 -55 175q-39 49 -94 62.5t-160 13.5z" />
    <glyph glyph-name="E" unicode="E" horiz-adv-x="625" 
d="M27 0v85h88v509h-88v85h565v-204h-84v119h-290v-202h252v-85h-252v-222h290v124h84v-209h-565z" />
    <glyph glyph-name="F" unicode="F" horiz-adv-x="552" 
d="M18 0v85h86v509h-86v85h527v-204h-84v119h-254v-201h219v-85h-219v-223h87v-85h-276z" />
    <glyph glyph-name="G" unicode="G" horiz-adv-x="802" 
d="M629 604v75h88v-223h-88q-29 63 -91 103.5t-138 40.5q-108 0 -174 -73.5t-66 -184.5q0 -119 72 -191t178 -72q83 0 145 45.5t74 118.5h-123v85h248v-23q0 -142 -93 -229t-248 -87q-163 0 -258 89q-107 102 -107 264q0 151 93.5 249.5t249.5 98.5q139 0 238 -86z" />
    <glyph glyph-name="H" unicode="H" horiz-adv-x="708" 
d="M27 0v85h77v509h-77v85h260v-85h-80v-194h295v194h-79v85h259v-85h-77v-509h77v-85h-259v85h79v230h-295v-230h80v-85h-260z" />
    <glyph glyph-name="I" unicode="I" horiz-adv-x="313" 
d="M31 0v85h74v509h-74v85h250v-85h-73v-509h73v-85h-250z" />
    <glyph glyph-name="J" unicode="J" horiz-adv-x="313" 
d="M300 594h-86v-594q0 -38 -1 -57t-7 -44t-18 -44q-21 -31 -59.5 -49.5t-85.5 -18.5q-39 0 -78 11v95q36 -9 74 -9q21 0 35.5 7t21.5 15.5t10.5 28t4 31.5t0.5 39v589h-87v85h276v-85z" />
    <glyph glyph-name="K" unicode="K" horiz-adv-x="625" 
d="M18 0v85h85v509h-85v85h275v-85h-87v-509h77v-85h-265zM346 85h73l-210 274l218 235h-78v85h266v-85h-72l-209 -235l215 -274h73v-85h-276v85z" />
    <glyph glyph-name="L" unicode="L" horiz-adv-x="521" 
d="M14 0v85h88v509h-88v85h278v-85h-84v-509h208v231h96v-316h-498z" />
    <glyph glyph-name="M" unicode="M" horiz-adv-x="875" 
d="M24 0v85h83v509h-83v85h234l177 -465l179 465h237v-85h-82v-509h82v-85h-256v85h81v509l-235 -601h-19l-231 601v-509h73v-85h-240z" />
    <glyph glyph-name="N" unicode="N" horiz-adv-x="719" 
d="M5 0v85h97v509h-97v85h232l298 -528v443h-97v85h279v-85h-98v-601h-107l-326 580v-488h98v-85h-279z" />
    <glyph glyph-name="O" unicode="O" horiz-adv-x="802" 
d="M50 343q0 149 97.5 248t251.5 99q155 0 254 -98t99 -251t-100 -252.5t-255 -99.5q-151 0 -249 101t-98 253zM162 342q0 -115 67.5 -189t169.5 -74q104 0 172.5 76.5t68.5 185.5t-69 184t-173 75q-103 0 -169.5 -73t-66.5 -185z" />
    <glyph glyph-name="P" unicode="P" horiz-adv-x="573" 
d="M20 0v85h85v509h-85v85h243q99 0 151 -12.5t88 -57.5q46 -57 46 -140q0 -86 -52 -144q-21 -23 -44.5 -37t-58.5 -19.5t-60.5 -6.5t-77.5 -1h-47v-176h88v-85h-276zM271 594h-63v-252h58q43 0 70.5 4t54.5 16.5t40 39t13 68.5q0 78 -53 108q-27 16 -120 16z" />
    <glyph glyph-name="Q" unicode="Q" horiz-adv-x="802" 
d="M399 690q154 0 253.5 -98.5t99.5 -250.5q0 -138 -84.5 -235.5t-220.5 -113.5q97 -40 143 -40q22 0 36 3l-36 -83q-18 -3 -27 -3q-46 0 -127 38t-122 38q-42 0 -69 -24l-30 42q29 29 76 41q-28 10 -42.5 16t-43.5 24t-53 43q-102 104 -102 255q0 150 97.5 249t251.5 99z
M162 342q0 -115 67.5 -189t169.5 -74q104 0 172.5 76.5t68.5 185.5t-69 184t-173 75q-103 0 -169.5 -73t-66.5 -185z" />
    <glyph glyph-name="R" unicode="R" horiz-adv-x="604" 
d="M13 0v85h93v509h-93v85h276q42 0 63 -1t50.5 -6.5t52.5 -17.5q89 -46 89 -152q0 -65 -36.5 -109t-104.5 -61l120 -247h83v-85h-147l-155 318h-95v-233h87v-85h-283zM296 594h-87v-191h80q27 0 43 1t38.5 6t34.5 15t21.5 29.5t9.5 47.5q0 26 -8.5 44t-20.5 27t-33 14
t-37 6t-41 1z" />
    <glyph glyph-name="S" unicode="S" horiz-adv-x="531" 
d="M35 0v247h84v-60q61 -111 160 -111q52 0 86.5 31t34.5 80q0 42 -27.5 67t-64 33.5t-92.5 24t-93 36.5q-91 52 -91 155q0 87 58 137.5t142 50.5q80 0 151 -54v45h84v-205h-84v47q-53 77 -144 77q-54 0 -84.5 -24t-30.5 -61q0 -33 26 -59q21 -21 78 -35.5t119.5 -34
t95.5 -52.5q22 -22 39 -61t17 -85q0 -86 -60.5 -142.5t-152.5 -56.5q-94 0 -167 66v-56h-84z" />
    <glyph glyph-name="T" unicode="T" horiz-adv-x="573" 
d="M149 0v85h87v509h-140v-173h-84v258h550v-258h-84v173h-139v-509h88v-85h-278z" />
    <glyph glyph-name="U" unicode="U" horiz-adv-x="677" 
d="M280 679v-85h-80v-340v-11q0 -33 1 -50t7.5 -44t19.5 -41t39.5 -25t65.5 -11q42 0 70.5 10.5t42.5 23.5t21.5 40t8.5 45.5t1 54.5v4v344h-79v85h266v-85h-84v-355q0 -88 -12 -121q-22 -62 -79 -95.5t-143 -33.5q-196 0 -238 132q-11 34 -11 129v344h-84v85h267z" />
    <glyph glyph-name="V" unicode="V" horiz-adv-x="708" 
d="M628 594l-224 -601h-94l-228 601h-84v85h268v-85h-78l172 -456l169 456h-79v85h261v-85h-83z" />
    <glyph glyph-name="W" unicode="W" horiz-adv-x="1000" 
d="M501 530l-152 -537h-94l-173 601h-82v85h260v-85h-82l129 -444l123 444h-81v85h312v-85h-80l125 -444l126 444h-81v85h250v-85h-80l-170 -601h-97z" />
    <glyph glyph-name="X" unicode="X" horiz-adv-x="656" 
d="M10 0v85h91l172 257l-172 252h-87v85h273v-85h-77l118 -172l119 172h-79v85h261v-85h-85l-168 -243l182 -266h89v-85h-279v85h79l-125 185l-124 -185h83v-85h-271z" />
    <glyph glyph-name="Y" unicode="Y" horiz-adv-x="646" 
d="M184 0v85h91v224l-202 285h-83v85h279v-85h-85l150 -209l136 209h-85v85h271v-85h-90l-188 -285v-224h92v-85h-286z" />
    <glyph glyph-name="Z" unicode="Z" horiz-adv-x="563" 
d="M530 217v-217h-505v85l364 509h-263v-119h-84v204h477v-75l-370 -519h297v132h84z" />
    <glyph glyph-name="bracketleft" unicode="[" horiz-adv-x="375" 
d="M105 -204v883h241v-68h-148v-747h148v-68h-241z" />
    <glyph glyph-name="backslash" unicode="\" horiz-adv-x="438" 
d="M352 -11l-347 704h81l347 -704h-81z" />
    <glyph glyph-name="bracketright" unicode="]" horiz-adv-x="375" 
d="M177 611h-148v68h241v-883h-241v68h148v747z" />
    <glyph glyph-name="asciicircum" unicode="^" horiz-adv-x="469" 
d="M354 288l-121 292l-117 -292h-90l173 391h70l174 -391h-89z" />
    <glyph glyph-name="underscore" unicode="_" horiz-adv-x="500" 
d="M506 -124h-512v48h512v-48z" />
    <glyph glyph-name="grave" unicode="`" horiz-adv-x="333" 
d="M54 690h135l69 -155h-63z" />
    <glyph glyph-name="a" unicode="a" horiz-adv-x="531" 
d="M440 85h78v-85h-162v58q-68 -66 -150 -66q-66 0 -112.5 43t-46.5 107q0 65 49 109t122 44q67 0 129 -40v46q0 22 -3.5 38t-13 33.5t-32 26.5t-56.5 9q-70 0 -101 -56l-89 24q60 111 205 111q110 0 155 -59q14 -18 20.5 -41.5t7 -38t0.5 -47.5v-216zM347 120v56
q-61 47 -122 47q-39 0 -64.5 -23.5t-25.5 -57.5q0 -33 22.5 -55.5t61.5 -22.5q67 0 128 56z" />
    <glyph glyph-name="b" unicode="b" horiz-adv-x="646" 
d="M109 85v513h-83v81h175v-273q73 79 171 79q99 0 164.5 -66.5t65.5 -176.5q0 -108 -64.5 -179t-165.5 -71q-52 0 -98.5 22t-72.5 57v-71h-175v85h83zM205 236q0 -71 43 -116t105 -45q63 0 108 46.5t45 122.5q0 73 -44 115.5t-106 42.5q-64 0 -107.5 -45t-43.5 -121z" />
    <glyph glyph-name="c" unicode="c" horiz-adv-x="521" 
d="M400 440v32h84v-178h-84q-7 51 -41 78.5t-83 27.5q-63 0 -102 -44t-39 -116q0 -73 39.5 -121.5t105.5 -48.5q97 0 142 94l76 -36q-64 -141 -222 -141q-110 0 -175 74.5t-65 178.5t68.5 175t162.5 71q80 0 133 -46z" />
    <glyph glyph-name="d" unicode="d" horiz-adv-x="625" 
d="M445 0v70q-73 -78 -169 -78q-97 0 -164.5 65.5t-67.5 176.5t68.5 181.5t165.5 70.5t167 -76v188h-91v81h184v-594h85v-85h-178zM143 237q0 -75 42.5 -118.5t107.5 -43.5t109 46.5t44 119.5q0 72 -44.5 115.5t-109.5 43.5q-64 0 -106.5 -47t-42.5 -116z" />
    <glyph glyph-name="e" unicode="e" horiz-adv-x="573" 
d="M536 213h-397q10 -69 53 -108t108 -39q46 0 87 21.5t67 57.5l82 -37q-79 -121 -238 -121q-112 0 -187 68.5t-75 180.5q0 108 74 179t173 71q103 0 176.5 -72.5t76.5 -200.5zM142 281h298q-11 56 -55 93t-100 37q-54 0 -93.5 -35t-49.5 -95z" />
    <glyph glyph-name="f" unicode="f" 
d="M28 0v85h69v306h-69v81h69v69q0 152 124 152q106 0 123 -109l-82 -13q-5 47 -36 47q-17 0 -25.5 -12t-9.5 -23.5t-1 -34.5v-3.5v-3.5v-69h81v-81h-81v-306h90v-85h-252z" />
    <glyph glyph-name="g" unicode="g" horiz-adv-x="625" 
d="M614 391h-85v-353q0 -45 -1 -64.5t-10.5 -52t-30.5 -58.5q-31 -39 -87.5 -62.5t-123.5 -23.5q-101 0 -186 63l60 68q61 -48 134 -48q39 0 73 14.5t53 38.5q5 7 9.5 14t7 12.5t4.5 14.5t3 12.5t1.5 14t0.5 12.5v14.5v13.5v43q-28 -33 -74 -55.5t-98 -22.5q-101 0 -165 70
t-64 174q0 108 68.5 179t165.5 71q94 0 167 -74v66h178v-81zM134 232q0 -72 41.5 -117.5t106.5 -45.5t110 46t45 117q0 72 -44.5 117t-107.5 45q-62 0 -106.5 -45t-44.5 -117z" />
    <glyph glyph-name="h" unicode="h" horiz-adv-x="573" 
d="M20 0v85h85v513h-85v81h178v-260q84 67 159 67q56 0 91 -31q24 -21 31.5 -51.5t7.5 -82.5v-236h80v-85h-173v289v9q0 26 -1 39.5t-6 31.5t-18 26t-34 8q-53 0 -137 -62v-256h82v-85h-260z" />
    <glyph glyph-name="i" unicode="i" 
d="M32 0v85h74v306h-74v81h167v-387h72v-85h-239zM96 633q0 23 16.5 39.5t39.5 16.5t39.5 -16.5t16.5 -39.5t-16.5 -39.5t-39.5 -16.5t-39.5 16.5t-16.5 39.5z" />
    <glyph glyph-name="j" unicode="j" 
d="M38 472h167v-401v-22v-44.5t-1 -40t-3 -38t-6 -32.5t-10.5 -30.5t-15.5 -24.5t-21.5 -20.5t-28.5 -14t-36.5 -10t-45.5 -2.5q-27 0 -55 5v84q19 -3 45 -3q56 0 75 31q10 17 10 146v336h-74v81zM100 633q0 23 16 39.5t39 16.5t40 -16.5t17 -39.5t-17 -39.5t-40 -16.5
t-39 16.5t-16 39.5z" />
    <glyph glyph-name="k" unicode="k" horiz-adv-x="573" 
d="M25 0v85h85v513h-85v81h178v-424l176 140h-78v77h261v-77h-72l-177 -146l166 -164h83v-85h-121l-238 238v-153h82v-85h-260z" />
    <glyph glyph-name="l" unicode="l" 
d="M20 0v85h84v513h-84v81h177v-594h72v-85h-249z" />
    <glyph glyph-name="m" unicode="m" horiz-adv-x="865" 
d="M205 472v-59q84 67 164 67q81 0 112 -74q93 74 171 74q46 0 77.5 -21.5t42.5 -60.5q6 -20 6 -81v-232h83v-85h-176v300v27t-3 24.5t-8.5 24t-17.5 14.5t-29 7q-60 0 -135 -61v-251h81v-85h-174v309q0 41 -11.5 64.5t-47.5 23.5q-52 0 -135 -61v-251h82v-85h-260v85h85
v306h-79v81h172z" />
    <glyph glyph-name="n" unicode="n" horiz-adv-x="573" 
d="M203 472v-57q90 64 163 64q46 0 78 -23t42 -65q4 -16 4 -78v-228h80v-85h-173v309q0 43 -12 65t-43 22q-60 0 -139 -61v-250h82v-85h-258v85h83v306h-83v81h176z" />
    <glyph glyph-name="o" unicode="o" horiz-adv-x="573" 
d="M39 236q0 109 71.5 179.5t176.5 70.5t176 -70.5t71 -179.5t-71 -179t-176 -70t-176.5 70t-71.5 179zM135 236q0 -69 44.5 -114t107.5 -45t107 45t44 114t-44 114.5t-107 45.5t-107.5 -45.5t-44.5 -114.5z" />
    <glyph glyph-name="p" unicode="p" horiz-adv-x="625" 
d="M186 472v-74q69 83 168 83q100 0 165 -68.5t65 -178.5t-68.5 -178.5t-163.5 -68.5q-94 0 -166 72v-190h92v-81h-271v81h86v522h-79v81h172zM185 230q0 -68 42.5 -114t107.5 -46q67 0 110 45.5t43 121.5q0 73 -43.5 117t-104.5 44q-63 0 -109 -46.5t-46 -121.5z" />
    <glyph glyph-name="q" unicode="q" horiz-adv-x="615" 
d="M528 391v-522h85v-81h-271v81h92v191q-70 -73 -167 -73q-94 0 -162 69t-68 179t65 178t164 68t168 -83v74h172v-81h-78zM436 230q0 75 -46 121.5t-109 46.5q-61 0 -104.5 -44t-43.5 -118t41.5 -120t109.5 -46q67 0 109.5 46t42.5 114z" />
    <glyph glyph-name="r" unicode="r" horiz-adv-x="417" 
d="M379 480h24v-94h-19h-12.5h-13h-12t-12.5 -0.5t-11.5 -1.5t-12.5 -2t-10.5 -2.5t-11.5 -3.5t-11 -5t-11 -6q-36 -23 -46 -63.5t-10 -115.5v-101h103v-85h-291v85h95v306h-95v81h169v-106q15 38 36.5 63t49 35t49.5 13t53 3z" />
    <glyph glyph-name="s" unicode="s" horiz-adv-x="458" 
d="M321 316v29q-38 57 -108 57q-38 0 -61 -15.5t-23 -41.5q0 -41 61 -50q129 -21 151 -30q42 -17 65 -51.5t23 -77.5q0 -63 -49 -103.5t-132 -40.5q-73 0 -123 34v-26h-84v162h84v-15q6 -35 36.5 -55.5t75.5 -20.5t70.5 16t25.5 43q0 26 -23.5 39.5t-54.5 17.5t-74.5 13.5
t-71.5 26.5q-31 18 -49.5 48.5t-18.5 65.5q0 58 46 99t120 41q65 0 114 -28v19h84v-156h-84z" />
    <glyph glyph-name="t" unicode="t" horiz-adv-x="302" 
d="M91 156v235h-61v81h61v74l93 84v-158h88v-81h-88v-270q0 -40 37 -40q30 0 51 8v-84q-42 -14 -71 -14q-21 0 -37.5 3t-27.5 12t-19.5 16t-13 22.5t-7.5 24t-4 29t-1 28v30.5z" />
    <glyph glyph-name="u" unicode="u" horiz-adv-x="563" 
d="M379 0v54q-81 -61 -156 -61q-38 0 -68.5 15t-44.5 41q-17 30 -17 124v218h-67v81h160v-288v-11v-30.5t3 -26.5t8.5 -23.5t17 -14t27.5 -6.5q29 0 67 17t70 45v257h-83v81h176v-387h82v-85h-175z" />
    <glyph glyph-name="v" unicode="v" horiz-adv-x="542" 
d="M471 391l-151 -399h-84l-154 399h-84v81h238v-81h-61l101 -269l102 269h-66v81h232v-81h-73z" />
    <glyph glyph-name="w" unicode="w" horiz-adv-x="771" 
d="M381 334l-110 -342h-88l-126 399h-58v81h199v-81h-62l91 -286l90 286h-52v81h229v-81h-52l90 -286l91 286h-65v81h213v-81h-67l-127 -399h-88z" />
    <glyph glyph-name="x" unicode="x" horiz-adv-x="552" 
d="M312 85h66l-100 103l-91 -103h60v-85h-229v85h70l142 158l-136 148h-64v81h222v-81h-59l85 -92l82 92h-48v81h223v-81h-78l-129 -148l148 -158h59v-85h-223v85z" />
    <glyph glyph-name="y" unicode="y" horiz-adv-x="563" 
d="M93 -131h92l57 139l-155 383h-79v81h234v-81h-57l103 -263l100 263h-63v81h229v-81h-70l-234 -603h-157v81z" />
    <glyph glyph-name="z" unicode="z" horiz-adv-x="448" 
d="M423 174v-174h-407v77l296 318h-195v-90h-77v167h383v-82l-298 -313h217v97h81z" />
    <glyph glyph-name="braceleft" unicode="{" horiz-adv-x="333" 
d="M311 -211h-27q-79 0 -116.5 35.5t-37.5 132.5q0 129 -8 164q-16 65 -75 73q-9 2 -19 2v75q25 1 43 7t29 22.5t17.5 30t9 45t3 50.5t0.5 63v21q0 98 37.5 133.5t116.5 35.5h27v-72h-15q-50 0 -67 -17.5t-17 -77.5v-71q0 -93 -22.5 -136.5t-80.5 -70.5q59 -24 81 -71.5
t22 -136.5v-71q0 -59 17 -76.5t67 -17.5h15v-72z" />
    <glyph glyph-name="bar" unicode="|" horiz-adv-x="527" 
d="M302 -223h-77v916h77v-916z" />
    <glyph glyph-name="braceright" unicode="}" horiz-adv-x="333" 
d="M22 679h27q79 0 116.5 -35.5t37.5 -133.5v-21v-54.5t2 -45.5t6 -41t11 -30.5t18 -25.5t27 -14t38 -7v-75q-25 -1 -43 -7t-29 -22.5t-17.5 -30t-9 -45t-3 -50.5t-0.5 -63v-21q0 -98 -37.5 -133.5t-116.5 -35.5h-27v72h15q50 0 67 18t17 77v71q0 95 22 138.5t80 69.5
q-59 24 -80.5 71t-21.5 136v71q0 60 -17 77.5t-67 17.5h-15v72z" />
    <glyph glyph-name="asciitilde" unicode="~" horiz-adv-x="583" 
d="M169 339q-66 0 -145 -68v83q78 64 149 64q42 0 127.5 -38.5t115.5 -38.5q65 0 143 67v-83q-77 -63 -144 -63q-45 0 -130 38.5t-116 38.5z" />
    <glyph glyph-name="nbspace" unicode="&#xa0;" horiz-adv-x="250" 
 />
    <glyph glyph-name="exclamdown" unicode="&#xa1;" 
d="M96 4l25 291h50l24 -291v-204h-99v204zM206 357h-120v120h120v-120z" />
    <glyph glyph-name="cent" unicode="&#xa2;" horiz-adv-x="521" 
d="M405 440v35h84v-181h-77q-12 64 -67 91l-109 -306q25 -9 48 -9q98 0 143 94l76 -36q-64 -141 -223 -141q-45 0 -73 9l-76 -212h-43l81 227q-60 33 -94 94.5t-34 134.5q0 105 68.5 175.5t160.5 70.5q32 0 65 -11l77 219h43l-83 -232q15 -7 33 -22zM200 99l107 298
q-18 3 -26 3q-63 0 -102 -44t-39 -116q0 -92 60 -141z" />
    <glyph glyph-name="sterling" unicode="&#xa3;" horiz-adv-x="542" 
d="M256 370h122v-77h-98q6 -30 6 -67q0 -49 -15 -99q6 -3 20.5 -10.5t20.5 -10t17 -7.5t18 -7t16 -3.5t17 -1.5q77 0 84 85h59q-3 -91 -41 -137t-104 -46q-60 0 -143 60q-49 -60 -107 -60q-39 0 -66.5 24.5t-27.5 65.5q0 42 29.5 69.5t70.5 27.5q27 0 71 -19q2 16 2 21
q0 46 -25 115h-149v77h119q-39 95 -39 160q0 74 50.5 117.5t129.5 43.5q84 0 134 -46.5t50 -128.5v-17h-93v26q0 36 -22 61.5t-65 25.5t-65.5 -21t-22.5 -58q0 -40 47 -163zM187 85q-41 30 -67 30q-16 0 -27.5 -10t-11.5 -26t11.5 -26.5t29.5 -10.5q34 0 65 43z" />
    <glyph glyph-name="currency" unicode="&#xa4;" horiz-adv-x="667" 
d="M90 148l64 63q-41 65 -41 132q0 68 41 125l-64 64l51 52l64 -64q59 42 128 42q70 0 130 -42l64 64l51 -52l-64 -64q42 -62 42 -130q0 -70 -42 -127l64 -63l-51 -51l-64 63q-63 -43 -131 -43q-69 0 -127 43l-63 -63zM334 490q-62 0 -106 -44t-44 -106t44 -106.5t106 -44.5
t106.5 44.5t44.5 106.5t-44.5 106t-106.5 44z" />
    <glyph glyph-name="yen" unicode="&#xa5;" horiz-adv-x="646" 
d="M654 594h-90l-138 -209h181v-57h-219l-12 -19v-83h231v-57h-231v-84h92v-85h-286v85h91v84h-237v57h237v83l-13 19h-224v57h184l-149 209h-83v85h279v-85h-85l150 -209l136 209h-85v85h271v-85z" />
    <glyph glyph-name="brokenbar" unicode="&#xa6;" horiz-adv-x="527" 
d="M302 -223h-77v381h77v-381zM302 313h-77v380h77v-380z" />
    <glyph glyph-name="section" unicode="&#xa7;" horiz-adv-x="479" 
d="M439 -8q0 -71 -52 -118.5t-139 -47.5t-137.5 46.5t-53.5 134.5h90q2 -47 29.5 -72.5t73.5 -25.5q45 0 71 20.5t26 51.5q0 36 -36 57.5t-136 58.5q-25 9 -38 14q-49 18 -81 56t-32 85q0 83 99 141q-80 47 -80 134q0 70 51.5 116.5t136.5 46.5q91 0 142.5 -46t51.5 -122v-9
h-92q-4 48 -32.5 73t-74.5 25q-40 0 -65.5 -20.5t-25.5 -52.5q0 -28 21 -49q20 -20 71 -38.5t106.5 -41.5t86.5 -54q34 -34 34 -89q0 -86 -96 -143q81 -47 81 -131zM180 363q-33 -19 -50.5 -38t-17.5 -48q0 -13 3 -22.5t12.5 -19t18 -15.5t27.5 -15t33 -15t43 -17.5
t49 -19.5q33 16 52 39.5t19 49.5q0 15 -7 27.5t-17.5 21t-30 18t-36.5 16t-46.5 18t-51.5 20.5z" />
    <glyph glyph-name="dieresis" unicode="&#xa8;" horiz-adv-x="333" 
d="M24 613q0 23 16 38.5t38 15.5t38 -15.5t16 -38.5t-16 -39t-38 -16t-38 16t-16 39zM201 613q0 23 15.5 38.5t38.5 15.5t38.5 -15.5t15.5 -38.5t-16 -39t-38 -16t-38 16t-16 39z" />
    <glyph glyph-name="copyright" unicode="&#xa9;" horiz-adv-x="740" 
d="M489 261l60 -17q-15 -63 -63 -98t-114 -35q-89 0 -141 57t-52 159q0 89 52.5 145.5t143.5 56.5q63 0 106 -30t60 -86l-58 -14q-30 74 -114 74q-56 0 -91 -42.5t-35 -113.5q0 -70 34.5 -110t93.5 -40q39 0 73 24t45 70zM371 690q153 0 260.5 -108t107.5 -261
t-107.5 -260.5t-260.5 -107.5t-261 107.5t-108 260.5q0 152 108.5 260.5t260.5 108.5zM371 629q-127 0 -217.5 -90.5t-90.5 -217.5t90.5 -217t217.5 -90t217 90t90 217t-90 217.5t-217 90.5z" />
    <glyph glyph-name="ordfeminine" unicode="&#xaa;" horiz-adv-x="344" 
d="M278 447h51v-48h-103v34q-42 -39 -99 -39q-42 0 -73 25t-31 64t33 65.5t80 26.5q42 0 83 -24v28q0 13 -2 22t-8 19.5t-21 16.5t-37 6q-45 0 -66 -34l-58 15q37 66 132 66q42 0 68.5 -10t36.5 -30.5t12 -33.5t2 -37v-132zM219 470v34q-39 28 -78 28q-27 0 -43.5 -13.5
t-16.5 -34.5q0 -20 14.5 -33.5t40.5 -13.5q45 0 83 33z" />
    <glyph glyph-name="guillemotleft" unicode="&#xab;" horiz-adv-x="479" 
d="M259 0h-98l-145 237l145 235h98l-143 -235zM468 0h-98l-145 237l145 235h98l-143 -235z" />
    <glyph glyph-name="logicalnot" unicode="&#xac;" horiz-adv-x="667" 
d="M525 416h-459v77h536v-307h-77v230z" />
    <glyph glyph-name="sfthyphen" unicode="&#xad;" horiz-adv-x="354" 
d="M324 188h-293v94h293v-94z" />
    <glyph glyph-name="registered" unicode="&#xae;" horiz-adv-x="740" 
d="M371 690q153 0 260.5 -108t107.5 -261t-107.5 -260.5t-260.5 -107.5t-261 107.5t-108 260.5q0 152 108.5 260.5t260.5 108.5zM274 286v-168h-66v396h137q79 0 108 -13q28 -13 45 -38.5t17 -53.5q0 -47 -30.5 -78.5t-82.5 -35.5q25 -10 44 -32t48 -68l48 -77h-78l-35 62
q-36 64 -58 85t-60 21h-37zM346 460h-72v-119h77q96 0 96 60q0 26 -16.5 39.5t-35.5 16.5t-49 3zM371 629q-127 0 -217.5 -90.5t-90.5 -217.5t90.5 -217t217.5 -90t217 90t90 217t-90 217.5t-217 90.5z" />
    <glyph glyph-name="macron" unicode="&#xaf;" horiz-adv-x="333" 
d="M309 647v-77h-285v77h285z" />
    <glyph glyph-name="degree" unicode="&#xb0;" horiz-adv-x="396" 
d="M198 690q70 0 119.5 -49.5t49.5 -119.5t-49.5 -119.5t-119.5 -49.5t-119.5 49.5t-49.5 119.5t49.5 119.5t119.5 49.5zM198 626q-44 0 -74.5 -31t-30.5 -74t30.5 -73.5t74.5 -30.5t74.5 30.5t30.5 73.5t-30.5 74t-74.5 31z" />
    <glyph glyph-name="plusminus" unicode="&#xb1;" horiz-adv-x="667" 
d="M295 384h-229v77h229v229h77v-229h229v-77h-229v-229h-77v229zM601 -11h-535v77h535v-77z" />
    <glyph glyph-name="twosuperior" unicode="&#xb2;" horiz-adv-x="333" 
d="M234 383v79h62l-4 -130h-268v5q0 46 27.5 88t74.5 72q44 27 58.5 37t26.5 25t12 32q0 23 -15.5 37.5t-45.5 14.5q-34 0 -48.5 -17t-14.5 -56q0 -2 0.5 -10.5t0.5 -10.5h-65v17q0 124 129 124q60 0 94 -28t34 -69q0 -35 -27 -63.5t-60.5 -45.5t-66.5 -43.5t-43 -57.5h139z
" />
    <glyph glyph-name="threesuperior" unicode="&#xb3;" horiz-adv-x="333" 
d="M141 491h-20v49q65 1 82 10q21 12 21 40q0 23 -15 38t-43 15q-33 0 -45.5 -17.5t-14.5 -52.5h-68q0 117 126 117q60 0 92 -27t32 -69q0 -46 -46 -77q65 -26 65 -84q0 -48 -40 -77.5t-105 -29.5q-67 0 -104.5 32.5t-37.5 89.5v7h65q3 -82 82 -82q34 0 53 16.5t19 42.5
q0 59 -98 59z" />
    <glyph glyph-name="acute" unicode="&#xb4;" horiz-adv-x="333" 
d="M280 690l-141 -155h-63l69 155h135z" />
    <glyph glyph-name="mu" unicode="&#xb5;" horiz-adv-x="552" 
d="M398 264v208h88v-472h-79v61q-24 -36 -53 -54.5t-79 -18.5q-44 0 -70.5 16.5t-50.5 47.5v-264h-88v684h88v-206q0 -102 16 -134q32 -65 101 -65t105 57q22 34 22 140z" />
    <glyph glyph-name="paragraph" unicode="&#xb6;" horiz-adv-x="542" 
d="M279 594v-806h-81v487q-91 4 -144.5 59t-53.5 141q0 93 59.5 148.5t171.5 55.5h309v-85h-69v-806h-84v806h-108z" />
    <glyph glyph-name="periodcentered" unicode="&#xb7;" 
d="M206 400v-120h-120v120h120z" />
    <glyph glyph-name="cedilla" unicode="&#xb8;" horiz-adv-x="333" 
d="M125 -103l20 113h61l-11 -58q69 -17 69 -79q0 -45 -37.5 -70.5t-112.5 -25.5h-32v54q31 1 47.5 3t29.5 10t13 24q0 31 -47 29z" />
    <glyph glyph-name="onesuperior" unicode="&#xb9;" horiz-adv-x="333" 
d="M76 332v48h55v256h-55v48h121v-304h53v-48h-174z" />
    <glyph glyph-name="ordmasculine" unicode="&#xba;" horiz-adv-x="375" 
d="M26 540q0 66 47 108.5t115 42.5t114.5 -42.5t46.5 -108.5t-46.5 -108t-114.5 -42t-115 42t-47 108zM90 540q0 -42 28.5 -68t69.5 -26t69 26t28 68q0 41 -28.5 68t-68.5 27q-41 0 -69.5 -27t-28.5 -68z" />
    <glyph glyph-name="guillemotright" unicode="&#xbb;" horiz-adv-x="479" 
d="M11 472h98l145 -235l-145 -237h-98l143 237zM220 472h98l145 -235l-145 -237h-98l143 237z" />
    <glyph glyph-name="onequarter" unicode="&#xbc;" horiz-adv-x="969" 
d="M76 332v48h55v256h-55v48h121v-304h53v-48h-174zM720 678l-537 -678h-61l539 678h59zM696 48h36v-48h-144v48h42v45h-133q-7 27 -27 42l169 220h57v-214h63v-48h-63v-45zM630 259l-90 -118h90v118z" />
    <glyph glyph-name="onehalf" unicode="&#xbd;" horiz-adv-x="969" 
d="M68 332v48h55v256h-55v48h121v-304h53v-48h-174zM694 678l-537 -678h-60l539 678h58zM710 51v79h62l-4 -130h-268v6q0 95 102 159q72 45 85 61q12 14 12 33q0 23 -15.5 37.5t-45.5 14.5q-34 0 -48.5 -17t-14.5 -55q0 -3 0.5 -11t0.5 -11h-65v18q0 62 33.5 92.5t95.5 30.5
q60 0 94 -28t34 -69q0 -29 -17.5 -52t-44 -40t-53.5 -33t-50.5 -37.5t-31.5 -47.5h139z" />
    <glyph glyph-name="threequarters" unicode="&#xbe;" horiz-adv-x="969" 
d="M760 678l-539 -678h-59l539 678h59zM771 48h36v-48h-144v48h42v45h-134q-8 28 -26 42l169 220h57v-214h63v-48h-63v-45zM705 259l-90 -118h90v118zM182 491h-20v49q65 1 82 10q21 12 21 40q0 23 -15 38t-43 15q-33 0 -45.5 -17.5t-14.5 -52.5h-68q0 117 126 117
q60 0 92 -27t32 -69q0 -46 -46 -77q65 -26 65 -84q0 -48 -40 -77.5t-105 -29.5q-67 0 -104.5 32.5t-37.5 89.5v7h65q3 -82 82 -82q34 0 53 16.5t19 42.5q0 59 -98 59z" />
    <glyph glyph-name="questiondown" unicode="&#xbf;" horiz-adv-x="469" 
d="M354 7h91q0 -5 0.5 -11t0.5 -11q0 -93 -55.5 -145.5t-145.5 -52.5q-97 0 -152 52.5t-55 140.5q0 82 50.5 132.5t122.5 50.5q1 0 7.5 -0.5t7.5 -0.5l13 132h50l12 -216q-28 6 -46 6q-58 0 -89.5 -29.5t-31.5 -79.5t30 -79.5t79 -29.5q52 0 81.5 32t29.5 85v24zM204 357
v120h120v-120h-120z" />
    <glyph glyph-name="Agrave" unicode="&#xc0;" horiz-adv-x="698" 
d="M524 85l-51 155h-243l-53 -155h83v-85h-268v85h82l186 517h-83v77h347v-77h-84l190 -517h76v-85h-266v85h84zM255 317h193l-90 285h-9zM361 861l83 -143h-70l-191 143h178z" />
    <glyph glyph-name="Aacute" unicode="&#xc1;" horiz-adv-x="698" 
d="M524 85l-51 155h-243l-53 -155h83v-85h-268v85h82l186 517h-83v77h347v-77h-84l190 -517h76v-85h-266v85h84zM255 317h193l-90 285h-9zM324 718h-70l83 143h178z" />
    <glyph glyph-name="Acircumflex" unicode="&#xc2;" horiz-adv-x="698" 
d="M524 85l-51 155h-243l-53 -155h83v-85h-268v85h82l186 517h-83v77h347v-77h-84l190 -517h76v-85h-266v85h84zM255 317h193l-90 285h-9zM434 719l-83 87l-84 -87h-78l78 141h167l78 -141h-78z" />
    <glyph glyph-name="Atilde" unicode="&#xc3;" horiz-adv-x="698" 
d="M524 85l-51 155h-243l-53 -155h83v-85h-268v85h82l186 517h-83v77h347v-77h-84l190 -517h76v-85h-266v85h84zM255 317h190l-87 285h-9zM417 808q28 0 30 48h65q0 -3 0.5 -7t0.5 -7q0 -58 -25.5 -91t-67.5 -33q-30 0 -78.5 27t-58.5 27q-16 0 -22 -12t-7 -36h-65
q0 68 21 99q24 39 63 39q26 0 77 -27t67 -27z" />
    <glyph glyph-name="Adieresis" unicode="&#xc4;" horiz-adv-x="698" 
d="M524 85l-51 155h-243l-53 -155h83v-85h-268v85h82l186 517h-83v77h347v-77h-84l190 -517h76v-85h-266v85h84zM255 317h193l-90 285h-9zM187 789q0 23 16.5 39.5t39.5 16.5t39.5 -16.5t16.5 -39.5t-16.5 -39.5t-39.5 -16.5t-39.5 16.5t-16.5 39.5zM402 789q0 23 16.5 39.5
t39.5 16.5t39.5 -16.5t16.5 -39.5t-16.5 -39.5t-39.5 -16.5t-39.5 16.5t-16.5 39.5z" />
    <glyph glyph-name="Aring" unicode="&#xc5;" horiz-adv-x="698" 
d="M177 679h133q-31 13 -49 40t-18 59q0 44 31 75t75 31t75 -31t31 -75q0 -32 -18 -59t-49 -40h136v-77h-84l190 -517h76v-85h-266v85h84l-51 155h-243l-53 -155h83v-85h-268v85h82l186 517h-83v77zM255 317h193l-90 285h-9zM290 778q0 -25 17 -42t42 -17t42 17.5t17 41.5
t-17 41.5t-42 17.5q-24 0 -41.5 -17t-17.5 -42z" />
    <glyph glyph-name="AE" unicode="&#xc6;" horiz-adv-x="938" 
d="M308 85h109v225h-192l-117 -225h74v-85h-241v85h66l262 509h-107v85h735v-204h-84v119h-293v-199h254v-85h-254v-225h293v124h84v-209h-589v85zM372 594l-105 -199h150v199h-45z" />
    <glyph glyph-name="Ccedilla" unicode="&#xc7;" horiz-adv-x="760" 
d="M606 617v62h88v-218h-88q-30 66 -89.5 102.5t-129.5 36.5q-101 0 -166.5 -72.5t-65.5 -185.5q0 -114 69 -187.5t166 -73.5q79 0 143.5 50.5t90.5 144.5l89 -49q-27 -102 -104 -163.5t-186 -72.5l-4 -24q41 -6 63 -29t22 -57q0 -28 -16 -51.5t-42 -36.5q-31 -15 -105 -15
q-6 0 -21 0.5t-21 0.5v55h14q87 0 87 34t-61 32l18 91q-145 11 -229.5 107.5t-84.5 240.5q0 159 93.5 255t245.5 96q132 0 224 -73z" />
    <glyph glyph-name="Egrave" unicode="&#xc8;" horiz-adv-x="625" 
d="M27 85h88v509h-88v85h565v-204h-84v119h-290v-202h252v-85h-252v-222h290v124h84v-209h-565v85zM328 861l82 -143h-70l-191 143h179z" />
    <glyph glyph-name="Eacute" unicode="&#xc9;" horiz-adv-x="625" 
d="M27 85h88v509h-88v85h565v-204h-84v119h-290v-202h252v-85h-252v-222h290v124h84v-209h-565v85zM290 718h-70l83 143h178z" />
    <glyph glyph-name="Ecircumflex" unicode="&#xca;" horiz-adv-x="625" 
d="M27 85h88v509h-88v85h565v-204h-84v119h-290v-202h252v-85h-252v-222h290v124h84v-209h-565v85zM393 719l-84 87l-83 -87h-78l78 141h167l77 -141h-77z" />
    <glyph glyph-name="Edieresis" unicode="&#xcb;" horiz-adv-x="625" 
d="M27 85h88v509h-88v85h565v-204h-84v119h-290v-202h252v-85h-252v-222h290v124h84v-209h-565v85zM146 789q0 23 16.5 39.5t39.5 16.5t39.5 -16.5t16.5 -39.5t-16.5 -39.5t-39.5 -16.5t-39.5 16.5t-16.5 39.5zM361 789q0 23 16.5 39.5t39.5 16.5t39.5 -16.5t16.5 -39.5
t-16.5 -39.5t-39.5 -16.5t-39.5 16.5t-16.5 39.5z" />
    <glyph glyph-name="Igrave" unicode="&#xcc;" horiz-adv-x="313" 
d="M32 85h74v509h-74v85h250v-85h-73v-509h73v-85h-250v85zM157 861l83 -143h-70l-191 143h178z" />
    <glyph glyph-name="Iacute" unicode="&#xcd;" horiz-adv-x="313" 
d="M31 85h74v509h-74v85h250v-85h-73v-509h73v-85h-250v85zM143 718h-70l82 143h179z" />
    <glyph glyph-name="Icircumflex" unicode="&#xce;" horiz-adv-x="313" 
d="M240 719l-84 87l-83 -87h-78l78 141h167l78 -141h-78zM31 85h74v509h-74v85h250v-85h-73v-509h73v-85h-250v85z" />
    <glyph glyph-name="Idieresis" unicode="&#xcf;" horiz-adv-x="313" 
d="M-7 789q0 23 16.5 39.5t39.5 16.5t39.5 -16.5t16.5 -39.5t-16.5 -39.5t-39.5 -16.5t-39.5 16.5t-16.5 39.5zM208 789q0 23 16.5 39.5t39.5 16.5t39.5 -16.5t16.5 -39.5t-16.5 -39.5t-39.5 -16.5t-39.5 16.5t-16.5 39.5zM31 85h74v509h-74v85h250v-85h-73v-509h73v-85
h-250v85z" />
    <glyph glyph-name="Ntilde" unicode="&#xd1;" horiz-adv-x="719" 
d="M5 85h97v509h-97v85h232l298 -528v443h-97v85h279v-85h-98v-601h-107l-326 580v-488h98v-85h-279v85zM428 808q17 0 22.5 11.5t6.5 36.5h66v-14q0 -58 -25 -91t-67 -33q-30 0 -79 27t-59 27q-27 0 -29 -48h-65q0 66 21 99q25 39 63 39q26 0 77.5 -27t67.5 -27z" />
    <glyph glyph-name="Ograve" unicode="&#xd2;" horiz-adv-x="802" 
d="M50 343q0 149 97.5 248t251.5 99q155 0 254 -98t99 -251t-100 -252.5t-255 -99.5q-151 0 -249 101t-98 253zM162 342q0 -115 67.5 -189t169.5 -74q104 0 172.5 76.5t68.5 185.5t-69 184t-173 75q-103 0 -169.5 -73t-66.5 -185zM396 861l83 -143h-70l-191 143h178z" />
    <glyph glyph-name="Oacute" unicode="&#xd3;" horiz-adv-x="802" 
d="M50 343q0 149 97.5 248t251.5 99q155 0 254 -98t99 -251t-100 -252.5t-255 -99.5q-151 0 -249 101t-98 253zM162 342q0 -115 67.5 -189t169.5 -74q104 0 172.5 76.5t68.5 185.5t-69 184t-173 75q-103 0 -169.5 -73t-66.5 -185zM394 718h-70l82 143h179z" />
    <glyph glyph-name="Ocircumflex" unicode="&#xd4;" horiz-adv-x="802" 
d="M50 343q0 149 97.5 248t251.5 99q155 0 254 -98t99 -251t-100 -252.5t-255 -99.5q-151 0 -249 101t-98 253zM162 342q0 -115 67.5 -189t169.5 -74q104 0 172.5 76.5t68.5 185.5t-69 184t-173 75q-103 0 -169.5 -73t-66.5 -185zM485 719l-84 87l-83 -87h-78l78 141h167
l78 -141h-78z" />
    <glyph glyph-name="Otilde" unicode="&#xd5;" horiz-adv-x="802" 
d="M50 343q0 149 97.5 248t251.5 99q155 0 254 -98t99 -251t-100 -252.5t-255 -99.5q-151 0 -249 101t-98 253zM162 342q0 -115 67.5 -189t169.5 -74q104 0 172.5 76.5t68.5 185.5t-69 184t-173 75q-103 0 -169.5 -73t-66.5 -185zM468 808q17 0 22.5 11.5t6.5 36.5h66v-15
q0 -57 -25 -90t-67 -33q-30 0 -78.5 27t-59.5 27q-27 0 -29 -48h-65q1 70 24 104t60 34q26 0 77.5 -27t67.5 -27z" />
    <glyph glyph-name="Odieresis" unicode="&#xd6;" horiz-adv-x="802" 
d="M50 343q0 149 97.5 248t251.5 99q155 0 254 -98t99 -251t-100 -252.5t-255 -99.5q-151 0 -249 101t-98 253zM162 342q0 -115 67.5 -189t169.5 -74q104 0 172.5 76.5t68.5 185.5t-69 184t-173 75q-103 0 -169.5 -73t-66.5 -185zM238 789q0 23 16.5 39.5t39.5 16.5
t39.5 -16.5t16.5 -39.5t-16.5 -39.5t-39.5 -16.5t-39.5 16.5t-16.5 39.5zM453 789q0 23 16.5 39.5t39.5 16.5t39.5 -16.5t16.5 -39.5t-16.5 -39.5t-39.5 -16.5t-39.5 16.5t-16.5 39.5z" />
    <glyph glyph-name="multiply" unicode="&#xd7;" horiz-adv-x="668" 
d="M335 286l-194 -194l-54 54l193 194l-193 193l54 54l194 -193l193 193l54 -54l-193 -193l193 -194l-54 -54z" />
    <glyph glyph-name="Oslash" unicode="&#xd8;" horiz-adv-x="802" 
d="M667 689l50 -43l-56 -63q92 -98 92 -243q0 -153 -100.5 -252t-253.5 -99q-120 0 -208 63l-56 -62l-49 42l56 63q-92 100 -92 250q0 146 97.5 245.5t250.5 99.5q123 0 213 -64zM590 502l-333 -375q62 -48 143 -48q103 0 172 77t69 185q0 92 -51 161zM212 175l332 375
q-67 50 -146 50q-103 0 -169.5 -73t-66.5 -184q0 -95 50 -168z" />
    <glyph glyph-name="Ugrave" unicode="&#xd9;" horiz-adv-x="677" 
d="M280 594h-80v-340v-11q0 -33 1 -50t7.5 -44t19.5 -41t39.5 -25t65.5 -11q42 0 70.5 10.5t42.5 23.5t21.5 40t8.5 45.5t1 54.5v4v344h-79v85h266v-85h-84v-355q0 -88 -12 -121q-22 -62 -79 -95.5t-143 -33.5q-196 0 -238 132q-11 34 -11 129v344h-84v85h267v-85zM339 861
l83 -143h-71l-190 143h178z" />
    <glyph glyph-name="Uacute" unicode="&#xda;" horiz-adv-x="677" 
d="M280 594h-80v-340v-11q0 -33 1 -50t7.5 -44t19.5 -41t39.5 -25t65.5 -11q42 0 70.5 10.5t42.5 23.5t21.5 40t8.5 45.5t1 54.5v4v344h-79v85h266v-85h-84v-355q0 -88 -12 -121q-22 -62 -79 -95.5t-143 -33.5q-196 0 -238 132q-11 34 -11 129v344h-84v85h267v-85zM327 718
h-72l83 143h178z" />
    <glyph glyph-name="Ucircumflex" unicode="&#xdb;" horiz-adv-x="677" 
d="M280 594h-80v-340v-11q0 -33 1 -50t7.5 -44t19.5 -41t39.5 -25t65.5 -11q42 0 70.5 10.5t42.5 23.5t21.5 40t8.5 45.5t1 54.5v4v344h-79v85h266v-85h-84v-355q0 -88 -12 -121q-22 -62 -79 -95.5t-143 -33.5q-196 0 -238 132q-11 34 -11 129v344h-84v85h267v-85zM422 719
l-84 87l-83 -87h-78l78 141h167l78 -141h-78z" />
    <glyph glyph-name="Udieresis" unicode="&#xdc;" horiz-adv-x="677" 
d="M280 594h-80v-340v-11q0 -33 1 -50t7.5 -44t19.5 -41t39.5 -25t65.5 -11q42 0 70.5 10.5t42.5 23.5t21.5 40t8.5 45.5t1 54.5v4v344h-79v85h266v-85h-84v-355q0 -88 -12 -121q-22 -62 -79 -95.5t-143 -33.5q-196 0 -238 132q-11 34 -11 129v344h-84v85h267v-85zM175 789
q0 23 16.5 39.5t39.5 16.5t39.5 -16.5t16.5 -39.5t-16.5 -39.5t-39.5 -16.5t-39.5 16.5t-16.5 39.5zM390 789q0 23 16.5 39.5t39.5 16.5t39.5 -16.5t16.5 -39.5t-16.5 -39.5t-39.5 -16.5t-39.5 16.5t-16.5 39.5z" />
    <glyph glyph-name="germandbls" unicode="&#xdf;" horiz-adv-x="646" 
d="M599 195q0 -92 -51 -147t-133 -55q-48 0 -84 18v78q31 -17 62 -17q48 0 79 34t31 91q0 73 -51 112q-39 30 -121 32v77q55 2 83 29.5t28 69.5t-29.5 69t-78.5 27q-36 0 -61.5 -11.5t-38.5 -27.5t-20 -46t-8.5 -54t-1.5 -64v-325h73v-85h-250v85h84v325q0 93 12 143t55 87
q61 52 156 52q91 0 147.5 -45t56.5 -120q0 -93 -87 -137q71 -15 109.5 -67t38.5 -128z" />
    <glyph glyph-name="agrave" unicode="&#xe0;" horiz-adv-x="531" 
d="M356 0v58q-68 -66 -150 -66q-66 0 -112.5 43t-46.5 107q0 65 49 109t122 44q67 0 129 -40v46q0 22 -3.5 38t-13 33.5t-32 26.5t-56.5 9q-70 0 -101 -56l-89 24q60 111 205 111q110 0 155 -59q14 -18 20.5 -41.5t7 -38t0.5 -47.5v-216h78v-85h-162zM347 120v56
q-61 47 -122 47q-39 0 -64.5 -23.5t-25.5 -57.5q0 -33 22.5 -55.5t61.5 -22.5q67 0 128 56zM291 690l69 -155h-62l-141 155h134z" />
    <glyph glyph-name="aacute" unicode="&#xe1;" horiz-adv-x="531" 
d="M356 0v58q-68 -66 -150 -66q-66 0 -112.5 43t-46.5 107q0 65 49 109t122 44q67 0 129 -40v46q0 22 -3.5 38t-13 33.5t-32 26.5t-56.5 9q-70 0 -101 -56l-89 24q60 111 205 111q110 0 155 -59q14 -18 20.5 -41.5t7 -38t0.5 -47.5v-216h78v-85h-162zM347 120v56
q-61 47 -122 47q-39 0 -64.5 -23.5t-25.5 -57.5q0 -33 22.5 -55.5t61.5 -22.5q67 0 128 56zM243 535h-63l69 155h135z" />
    <glyph glyph-name="acircumflex" unicode="&#xe2;" horiz-adv-x="531" 
d="M356 0v58q-68 -66 -150 -66q-66 0 -112.5 43t-46.5 107q0 65 49 109t122 44q67 0 129 -40v46q0 22 -3.5 38t-13 33.5t-32 26.5t-56.5 9q-70 0 -101 -56l-89 24q60 111 205 111q110 0 155 -59q14 -18 20.5 -41.5t7 -38t0.5 -47.5v-216h78v-85h-162zM347 120v56
q-61 47 -122 47q-39 0 -64.5 -23.5t-25.5 -57.5q0 -33 22.5 -55.5t61.5 -22.5q67 0 128 56zM344 536l-82 86l-80 -86h-66l82 153h131l84 -153h-69z" />
    <glyph glyph-name="atilde" unicode="&#xe3;" horiz-adv-x="531" 
d="M356 0v58q-68 -66 -150 -66q-66 0 -112.5 43t-46.5 107q0 65 49 109t122 44q67 0 129 -40v46q0 22 -3.5 38t-13 33.5t-32 26.5t-56.5 9q-70 0 -101 -56l-89 24q60 111 205 111q110 0 155 -59q14 -18 20.5 -41.5t7 -38t0.5 -47.5v-216h78v-85h-162zM347 120v56
q-61 47 -122 47q-39 0 -64.5 -23.5t-25.5 -57.5q0 -33 22.5 -55.5t61.5 -22.5q67 0 128 56zM340 623q33 0 35 56h54q-4 -135 -89 -135q-7 0 -14.5 1t-13.5 2.5t-14.5 5t-13 5.5t-14.5 7.5t-14.5 8t-16.5 9.5t-17 10q-20 11 -32 11q-28 0 -28 -53h-56q3 132 88 132
q30 0 81.5 -30t64.5 -30z" />
    <glyph glyph-name="adieresis" unicode="&#xe4;" horiz-adv-x="531" 
d="M356 0v58q-68 -66 -150 -66q-66 0 -112.5 43t-46.5 107q0 65 49 109t122 44q67 0 129 -40v46q0 22 -3.5 38t-13 33.5t-32 26.5t-56.5 9q-70 0 -101 -56l-89 24q60 111 205 111q110 0 155 -59q14 -18 20.5 -41.5t7 -38t0.5 -47.5v-216h78v-85h-162zM347 120v56
q-61 47 -122 47q-39 0 -64.5 -23.5t-25.5 -57.5q0 -33 22.5 -55.5t61.5 -22.5q67 0 128 56zM128 613q0 23 16 38.5t38 15.5t38 -15.5t16 -38.5q0 -22 -16 -38.5t-38 -16.5t-38 16t-16 39zM305 613q0 23 15.5 38.5t38.5 15.5t38.5 -15.5t15.5 -38.5t-16 -39t-38 -16t-38 16
t-16 39z" />
    <glyph glyph-name="aring" unicode="&#xe5;" horiz-adv-x="531" 
d="M356 0v58q-68 -66 -150 -66q-66 0 -112.5 43t-46.5 107q0 65 49 109t122 44q67 0 129 -40v46q0 22 -3.5 38t-13 33.5t-32 26.5t-56.5 9q-70 0 -101 -56l-89 24q60 111 205 111q110 0 155 -59q14 -18 20.5 -41.5t7 -38t0.5 -47.5v-216h78v-85h-162zM347 120v56
q-61 47 -122 47q-39 0 -64.5 -23.5t-25.5 -57.5q0 -33 22.5 -55.5t61.5 -22.5q67 0 128 56zM170 613q0 40 28.5 68.5t68.5 28.5t69 -28.5t29 -68.5t-29 -69t-69 -29t-68.5 29t-28.5 69zM208 613q0 -25 17.5 -42t41.5 -17t41.5 17t17.5 42t-17 42t-42 17t-42 -17.5t-17 -41.5
z" />
    <glyph glyph-name="ae" unicode="&#xe6;" horiz-adv-x="885" 
d="M214 -13q-74 0 -122.5 41.5t-48.5 107.5q0 70 54 113t130 43q70 0 138 -40v49q0 51 -22.5 79t-86.5 28q-83 0 -119 -58l-89 25q64 112 218 112q115 0 168 -74q64 72 167 72q102 0 171 -75.5t71 -197.5h-384q5 -66 50 -106t106 -40q41 0 80 20.5t65 55.5l83 -37
q-33 -55 -94 -86.5t-131 -31.5q-133 0 -211 101q-31 -43 -83 -72t-110 -29zM459 284h283q-10 57 -50 89.5t-92 32.5q-51 0 -90 -33t-51 -89zM365 122v47q-61 48 -124 48q-43 0 -71 -23.5t-28 -58.5q0 -32 26 -52.5t63 -20.5q77 0 134 60z" />
    <glyph glyph-name="ccedilla" unicode="&#xe7;" horiz-adv-x="521" 
d="M400 440v32h84v-178h-84q-7 51 -41 78.5t-83 27.5q-63 0 -102 -44t-39 -116t39.5 -120.5t105.5 -48.5q98 0 142 93l76 -36q-60 -132 -207 -141l-6 -35q69 -17 69 -79q0 -45 -37.5 -70.5t-112.5 -25.5h-32v54q31 1 47.5 3t29.5 10t13 24q0 31 -48 29l17 93
q-87 14 -141 85.5t-54 164.5q0 104 68.5 175t162.5 71q80 0 133 -46z" />
    <glyph glyph-name="egrave" unicode="&#xe8;" horiz-adv-x="573" 
d="M454 145l82 -37q-79 -121 -238 -121q-112 0 -187 68.5t-75 180.5q0 108 74 179t173 71q103 0 176.5 -72.5t76.5 -200.5h-397q10 -69 53 -108t108 -39q46 0 87 21.5t67 57.5zM142 281h298q-11 56 -55 93t-100 37q-54 0 -93.5 -35t-49.5 -95zM292 690l69 -155h-62l-141 155
h134z" />
    <glyph glyph-name="eacute" unicode="&#xe9;" horiz-adv-x="573" 
d="M454 145l82 -37q-79 -121 -238 -121q-112 0 -187 68.5t-75 180.5q0 108 74 179t173 71q103 0 176.5 -72.5t76.5 -200.5h-397q10 -69 53 -108t108 -39q46 0 87 21.5t67 57.5zM142 281h298q-11 56 -55 93t-100 37q-54 0 -93.5 -35t-49.5 -95zM276 535h-62l69 155h134z" />
    <glyph glyph-name="ecircumflex" unicode="&#xea;" horiz-adv-x="573" 
d="M454 145l82 -37q-79 -121 -238 -121q-112 0 -187 68.5t-75 180.5q0 108 74 179t173 71q103 0 176.5 -72.5t76.5 -200.5h-397q10 -69 53 -108t108 -39q46 0 87 21.5t67 57.5zM142 281h298q-11 56 -55 93t-100 37q-54 0 -93.5 -35t-49.5 -95zM366 536l-82 86l-81 -86h-65
l82 153h130l85 -153h-69z" />
    <glyph glyph-name="edieresis" unicode="&#xeb;" horiz-adv-x="573" 
d="M454 145l82 -37q-79 -121 -238 -121q-112 0 -187 68.5t-75 180.5q0 108 74 179t173 71q103 0 176.5 -72.5t76.5 -200.5h-397q10 -69 53 -108t108 -39q46 0 87 21.5t67 57.5zM142 281h298q-11 56 -55 93t-100 37q-54 0 -93.5 -35t-49.5 -95zM144 613q0 23 16 38.5t38 15.5
t38 -15.5t16 -38.5q0 -22 -16 -38.5t-38 -16.5t-38 16t-16 39zM321 613q0 23 15.5 38.5t37.5 15.5q23 0 39 -16t16 -38q0 -23 -16.5 -39t-38.5 -16t-37.5 16t-15.5 39z" />
    <glyph glyph-name="igrave" unicode="&#xec;" 
d="M147 690l69 -155h-63l-141 155h135zM33 85h74v306h-74v81h167v-387h72v-85h-239v85z" />
    <glyph glyph-name="iacute" unicode="&#xed;" 
d="M133 535h-63l69 155h135zM32 85h74v306h-74v81h167v-387h72v-85h-239v85z" />
    <glyph glyph-name="icircumflex" unicode="&#xee;" 
d="M226 536l-82 86l-80 -86h-66l82 153h130l85 -153h-69zM32 85h74v306h-74v81h167v-387h73v-85h-240v85z" />
    <glyph glyph-name="idieresis" unicode="&#xef;" 
d="M4 613q0 23 16 38.5t38 15.5t38 -15.5t16 -38.5t-16 -39t-38 -16t-38 16t-16 39zM181 613q0 23 15.5 38.5t38.5 15.5t38.5 -15.5t15.5 -38.5t-16 -39t-38 -16t-38 16t-16 39zM32 85h74v306h-74v81h167v-387h73v-85h-240v85z" />
    <glyph glyph-name="ntilde" unicode="&#xf1;" horiz-adv-x="573" 
d="M203 335v-250h82v-85h-258v85h83v306h-83v81h176v-57q90 64 163 64q46 0 78 -23t42 -65q4 -16 4 -78v-228h80v-85h-173v309q0 43 -12 65t-43 22q-60 0 -139 -61zM371 623q33 0 35 56h54q-4 -135 -89 -135q-8 0 -15.5 1t-16.5 4l-15 5t-16.5 8t-15.5 9t-19 11t-19 11
q-20 11 -33 11q-28 0 -28 -53h-56q3 132 89 132q30 0 81 -30t64 -30z" />
    <glyph glyph-name="ograve" unicode="&#xf2;" horiz-adv-x="573" 
d="M39 236q0 109 71.5 179.5t176.5 70.5t176 -70.5t71 -179.5t-71 -179t-176 -70t-176.5 70t-71.5 179zM135 236q0 -69 44.5 -114t107.5 -45t107 45t44 114t-44 114.5t-107 45.5t-107.5 -45.5t-44.5 -114.5zM284 690l69 -155h-63l-141 155h135z" />
    <glyph glyph-name="oacute" unicode="&#xf3;" horiz-adv-x="573" 
d="M39 236q0 109 71.5 179.5t176.5 70.5t176 -70.5t71 -179.5t-71 -179t-176 -70t-176.5 70t-71.5 179zM135 236q0 -69 44.5 -114t107.5 -45t107 45t44 114t-44 114.5t-107 45.5t-107.5 -45.5t-44.5 -114.5zM283 535h-63l69 155h135z" />
    <glyph glyph-name="ocircumflex" unicode="&#xf4;" horiz-adv-x="573" 
d="M39 236q0 109 71.5 179.5t176.5 70.5t176 -70.5t71 -179.5t-71 -179t-176 -70t-176.5 70t-71.5 179zM135 236q0 -69 44.5 -114t107.5 -45t107 45t44 114t-44 114.5t-107 45.5t-107.5 -45.5t-44.5 -114.5zM366 536l-81 86l-81 -86h-66l82 153h130l85 -153h-69z" />
    <glyph glyph-name="otilde" unicode="&#xf5;" horiz-adv-x="573" 
d="M39 236q0 109 71.5 179.5t176.5 70.5t176 -70.5t71 -179.5t-71 -179t-176 -70t-176.5 70t-71.5 179zM135 236q0 -69 44.5 -114t107.5 -45t107 45t44 114t-44 114.5t-107 45.5t-107.5 -45.5t-44.5 -114.5zM359 623q33 0 35 56h54q-4 -135 -89 -135q-8 0 -15.5 1t-16.5 4
l-15 5t-16.5 8t-15.5 9t-19 11t-19 11q-20 11 -33 11q-18 0 -23 -14t-5 -39h-56q3 132 89 132q30 0 81 -30t64 -30z" />
    <glyph glyph-name="odieresis" unicode="&#xf6;" horiz-adv-x="573" 
d="M39 236q0 109 71.5 179.5t176.5 70.5t176 -70.5t71 -179.5t-71 -179t-176 -70t-176.5 70t-71.5 179zM135 236q0 -69 44.5 -114t107.5 -45t107 45t44 114t-44 114.5t-107 45.5t-107.5 -45.5t-44.5 -114.5zM144 613q0 23 16 38.5t38 15.5t38 -15.5t16 -38.5t-16 -39
t-38 -16t-38 16t-16 39zM321 613q0 23 15.5 38.5t38.5 15.5t38.5 -15.5t15.5 -38.5t-16 -39t-38 -16t-38 16t-16 39z" />
    <glyph glyph-name="divide" unicode="&#xf7;" horiz-adv-x="668" 
d="M335 592q20 0 34 -14t14 -34t-14.5 -34t-33.5 -14q-20 0 -34 14t-14 34t14.5 34t33.5 14zM602 301h-535v77h535v-77zM335 183q20 0 34 -14t14 -34t-14 -34t-34 -14q-19 0 -33.5 14.5t-14.5 33.5q0 20 14 34t34 14z" />
    <glyph glyph-name="oslash" unicode="&#xf8;" horiz-adv-x="573" 
d="M94 -25l-34 28l48 56q-69 72 -69 178q0 108 71.5 178.5t175.5 70.5q83 0 147 -45l47 55l33 -28l-47 -55q68 -69 68 -177q0 -109 -71.5 -179t-175.5 -70q-82 0 -146 44zM170 132l202 237q-40 27 -86 27q-63 0 -107 -45t-44 -114q0 -60 35 -105zM403 339l-201 -236
q38 -26 85 -26q63 0 107 45t44 114q0 58 -35 103z" />
    <glyph glyph-name="ugrave" unicode="&#xf9;" horiz-adv-x="563" 
d="M293 690l69 -155h-62l-144 155h137zM379 134v257h-83v81h176v-387h82v-85h-175v54q-81 -61 -156 -61q-38 0 -68.5 15t-44.5 41q-17 30 -17 124v218h-67v81h160v-288v-11v-30.5t3 -26.5t8.5 -23.5t17 -14t27.5 -6.5q29 0 67 17t70 45z" />
    <glyph glyph-name="uacute" unicode="&#xfa;" horiz-adv-x="563" 
d="M274 535h-62l69 155h134zM379 134v257h-83v81h176v-387h82v-85h-175v54q-81 -61 -156 -61q-38 0 -68.5 15t-44.5 41q-17 30 -17 124v218h-67v81h160v-288v-11v-30.5t3 -26.5t8.5 -23.5t17 -14t27.5 -6.5q29 0 67 17t70 45z" />
    <glyph glyph-name="ucircumflex" unicode="&#xfb;" horiz-adv-x="563" 
d="M369 536l-81 86l-81 -86h-66l82 153h131l84 -153h-69zM379 134v257h-83v81h176v-387h82v-85h-175v54q-81 -61 -156 -61q-38 0 -68.5 15t-44.5 41q-17 30 -17 124v218h-67v81h160v-288v-11v-30.5t3 -26.5t8.5 -23.5t17 -14t27.5 -6.5q29 0 67 17t70 45z" />
    <glyph glyph-name="udieresis" unicode="&#xfc;" horiz-adv-x="563" 
d="M148 613q0 22 16 38t38 16t38 -15.5t16 -38.5t-16 -39t-38 -16t-38 16t-16 39zM324 613q0 23 16 38.5t38 15.5t38 -15.5t16 -38.5q0 -22 -16 -38.5t-38 -16.5t-38 16.5t-16 38.5zM379 134v257h-83v81h176v-387h82v-85h-175v54q-81 -61 -156 -61q-38 0 -68.5 15t-44.5 41
q-17 30 -17 124v218h-67v81h160v-288v-11v-30.5t3 -26.5t8.5 -23.5t17 -14t27.5 -6.5q29 0 67 17t70 45z" />
    <glyph glyph-name="ydieresis" unicode="&#xff;" horiz-adv-x="563" 
d="M185 -131l57 139l-155 383h-79v81h234v-81h-57l103 -263l100 263h-63v81h229v-81h-70l-234 -603h-157v81h92zM145 613q0 23 15.5 38.5t38.5 15.5t38.5 -15.5t15.5 -38.5t-16 -39t-38 -16t-38 16t-16 39zM322 613q0 23 15.5 38.5t37.5 15.5q23 0 39 -16t16 -38
q0 -23 -16 -39t-39 -16q-22 0 -37.5 16t-15.5 39z" />
    <glyph glyph-name="Gbreve" unicode="&#x11e;" horiz-adv-x="802" 
d="M717 679v-223h-88q-29 63 -91 103.5t-138 40.5q-108 0 -174 -73.5t-66 -184.5q0 -119 72 -191t178 -72q83 0 145 45.5t74 118.5h-123v85h248v-23q0 -142 -93 -229t-248 -87q-163 0 -258 89q-107 102 -107 264q0 151 93.5 249.5t249.5 98.5q139 0 238 -86v75h88zM479 864
h83q-10 -69 -54.5 -108.5t-107.5 -39.5t-107 39t-54 109h82q12 -65 79 -65t79 65z" />
    <glyph glyph-name="gbreve" unicode="&#x11f;" horiz-adv-x="625" 
d="M436 406v66h178v-81h-85v-353q0 -45 -1 -64.5t-10.5 -52t-30.5 -58.5q-31 -39 -87.5 -62.5t-123.5 -23.5q-101 0 -186 63l60 68q61 -48 134 -48q39 0 73 14.5t53 38.5q5 7 9.5 14t7 12.5t4.5 14.5t3 12.5t1.5 14t0.5 12.5v14.5v13.5v43q-28 -33 -74 -55.5t-98 -22.5
q-101 0 -165 70t-64 174q0 108 68.5 179t165.5 71q94 0 167 -74zM134 232q0 -72 41.5 -117.5t106.5 -45.5t110 46t45 117q0 72 -44.5 117t-107.5 45q-62 0 -106.5 -45t-44.5 -117zM393 682h70q-6 -63 -47.5 -101t-103.5 -38t-103 37.5t-47 101.5h70q11 -71 80 -71
q34 0 55 18.5t26 52.5z" />
    <glyph glyph-name="Idotaccent" unicode="&#x130;" horiz-adv-x="313" 
d="M31 85h74v509h-74v85h250v-85h-73v-509h73v-85h-250v85zM156 845q23 0 39.5 -16.5t16.5 -39.5t-16.5 -39.5t-39.5 -16.5t-39.5 16.5t-16.5 39.5t16.5 39.5t39.5 16.5z" />
    <glyph glyph-name="dotlessi" unicode="&#x131;" 
d="M32 0v85h74v306h-74v81h167v-387h72v-85h-239z" />
    <glyph glyph-name="OE" unicode="&#x152;" horiz-adv-x="1021" 
d="M904 475v119h-290v-199h251v-85h-251v-225h290v123h84v-208h-515q-140 0 -188 13q-112 31 -179 119.5t-67 205.5q0 84 38.5 159.5t102.5 120.5q58 40 117 50.5t153 10.5h538v-204h-84zM435 85h76v509h-89q-42 0 -64.5 -1.5t-53.5 -10.5t-58 -26q-103 -68 -103 -216
q0 -93 40.5 -155t115.5 -85q47 -15 136 -15z" />
    <glyph glyph-name="oe" unicode="&#x153;" horiz-adv-x="948" 
d="M283 -14q-105 0 -175.5 71.5t-70.5 179.5q0 110 74 179.5t169 69.5q113 0 191 -96q70 97 189 97q104 0 176 -76.5t73 -198.5h-390q4 -62 47 -102.5t107 -40.5q92 0 155 77l81 -36q-38 -61 -100 -92.5t-135 -31.5q-127 0 -203 97q-71 -97 -188 -97zM521 284h284
q-11 56 -52.5 88t-94.5 32q-51 0 -88 -31t-49 -89zM136 235q0 -69 42 -114t104 -45q63 0 104 45.5t41 116.5q0 70 -44 112t-103 42q-61 0 -102.5 -44t-41.5 -113z" />
    <glyph glyph-name="Scedilla" unicode="&#x15e;" horiz-adv-x="531" 
d="M124 516q0 -34 21.5 -55.5t57.5 -33t75 -20t82.5 -23.5t70.5 -38q31 -26 49.5 -68.5t18.5 -88.5q0 -81 -54 -137t-137 -62l-4 -23q41 -6 63 -29t22 -57q0 -60 -58 -88q-30 -15 -106 -15q-6 0 -20.5 0.5t-20.5 0.5v55h14q87 0 87 34t-61 32l18 93q-68 13 -123 63v-56h-84
v247h84v-60q61 -111 160 -111q52 0 86.5 31t34.5 80q0 42 -27.5 67t-64 33.5t-92.5 24t-93 36.5q-91 52 -91 155q0 87 58 137.5t142 50.5q80 0 151 -54v45h84v-205h-84v47q-53 77 -144 77q-54 0 -84.5 -24t-30.5 -61z" />
    <glyph glyph-name="scedilla" unicode="&#x15f;" horiz-adv-x="458" 
d="M321 316v29q-38 57 -108 57q-38 0 -61 -15.5t-23 -41.5q0 -41 61 -50q129 -21 151 -30q42 -17 65 -51.5t23 -77.5q0 -57 -41 -96t-115 -46l-7 -42q69 -17 69 -79q0 -45 -37.5 -70.5t-112.5 -25.5h-32v54q30 1 46.5 3t30 10t13.5 24q0 31 -48 29l18 97q-49 6 -88 32v-26
h-84v162h84v-15q6 -35 36.5 -55.5t75.5 -20.5t70.5 16t25.5 43q0 26 -23.5 39.5t-54.5 17.5t-74.5 13.5t-71.5 26.5q-31 18 -49.5 48.5t-18.5 65.5q0 58 46 99t120 41q65 0 114 -28v19h84v-156h-84z" />
    <glyph glyph-name="Scaron" unicode="&#x160;" horiz-adv-x="531" 
d="M171 860l83 -87l83 87h78l-78 -141h-166l-78 141h78zM119 56v-56h-84v247h84v-60q61 -111 160 -111q52 0 86.5 31t34.5 80q0 42 -27.5 67t-64 33.5t-92.5 24t-93 36.5q-91 52 -91 155q0 87 58 137.5t142 50.5q80 0 151 -54v45h84v-205h-84v47q-53 77 -144 77
q-54 0 -84.5 -24t-30.5 -61q0 -34 21.5 -55.5t57.5 -33t75 -20t82.5 -23.5t70.5 -38q31 -26 49.5 -68.5t18.5 -88.5q0 -86 -60.5 -142.5t-152.5 -56.5q-94 0 -167 66z" />
    <glyph glyph-name="scaron" unicode="&#x161;" horiz-adv-x="458" 
d="M125 26v-26h-84v162h84v-15q6 -35 36.5 -55.5t75.5 -20.5t70.5 16t25.5 43q0 26 -23.5 39.5t-54.5 17.5t-74.5 13.5t-71.5 26.5q-31 18 -49.5 48.5t-18.5 65.5q0 58 46 99t120 41q65 0 114 -28v19h84v-156h-84v29q-38 57 -108 57q-38 0 -61 -15.5t-23 -41.5q0 -41 61 -50
q129 -21 151 -30q42 -17 65 -51.5t23 -77.5q0 -63 -49 -103.5t-132 -40.5q-73 0 -123 34zM155 689l82 -85l81 85h66l-82 -153h-131l-85 153h69z" />
    <glyph glyph-name="Ydieresis" unicode="&#x178;" horiz-adv-x="646" 
d="M184 85h91v224l-202 285h-83v85h279v-85h-85l150 -209l136 209h-85v85h271v-85h-90l-188 -285v-224h92v-85h-286v85zM160 789q0 23 16.5 39.5t39.5 16.5t39.5 -16.5t16.5 -39.5t-16.5 -39.5t-39.5 -16.5t-39.5 16.5t-16.5 39.5zM375 789q0 23 16.5 39.5t39.5 16.5
t39.5 -16.5t16.5 -39.5t-16.5 -39.5t-39.5 -16.5t-39.5 16.5t-16.5 39.5z" />
    <glyph glyph-name="uni018f" unicode="&#x18f;" horiz-adv-x="802" 
d="M390 581q-161 0 -215 -120h-88v218h88v-62q92 73 224 73q155 0 254 -98t99 -251t-100 -252.5t-255 -99.5q-151 0 -249 101t-98 253v49q60 0 272 0.5t313 0.5q-17 85 -85 136.5t-160 51.5zM399 79q95 0 161.5 65t77.5 163h-474q10 -102 75.5 -165t159.5 -63z" />
    <glyph glyph-name="florin" unicode="&#x192;" horiz-adv-x="552" 
d="M452 450h-100l-93 -533q-12 -66 -40 -97t-84 -31q-47 0 -112 13l17 76q43 -10 75 -10q17 0 28.5 5.5t18 17.5t9.5 22t6 29l86 508h-98l12 68h98l12 66q13 72 40.5 109t96.5 37q37 0 107 -20l-18 -75q-55 12 -75 12q-32 0 -44 -17.5t-20 -60.5l-9 -51h99z" />
    <glyph glyph-name="uni0259" unicode="&#x259;" horiz-adv-x="573" 
d="M159 331l-72 47q26 42 78 75t122 33q105 0 176 -70.5t71 -179.5t-71 -179t-176 -70t-176.5 70t-71.5 179v45h393q-14 52 -53.5 83.5t-91.5 31.5q-44 0 -69.5 -14.5t-58.5 -50.5zM287 77q58 0 100 37.5t49 98.5h-300q7 -60 50 -98t101 -38z" />
    <glyph glyph-name="circumflex" unicode="&#x2c6;" horiz-adv-x="333" 
d="M315 536h-69l-82 86l-80 -86h-66l82 153h130z" />
    <glyph glyph-name="tilde" unicode="&#x2dc;" horiz-adv-x="333" 
d="M89 604q-28 0 -28 -53h-56q3 132 89 132q30 0 81 -30t64 -30q33 0 35 56h55q-2 -68 -26 -101.5t-64 -33.5q-18 0 -39.5 8t-32 14t-45.5 27q-20 11 -33 11z" />
    <glyph glyph-name="endash" unicode="&#x2013;" horiz-adv-x="500" 
d="M506 208h-512v85h512v-85z" />
    <glyph glyph-name="emdash" unicode="&#x2014;" horiz-adv-x="1000" 
d="M1006 208h-1012v85h1012v-85z" />
    <glyph glyph-name="quoteleft" unicode="&#x2018;" 
d="M147 556l1 -12h58v-120h-120v104q0 75 23 111.5t97 39.5v-51q-59 -9 -59 -72z" />
    <glyph glyph-name="quoteright" unicode="&#x2019;" 
d="M145 548l-1 11h-58v120h120v-104q0 -75 -23.5 -111.5t-96.5 -39.5v51q59 9 59 73z" />
    <glyph glyph-name="quotesinglbase" unicode="&#x201a;" 
d="M145 -12l-1 12h-58v120h120v-104q0 -75 -23.5 -111.5t-96.5 -39.5v51q59 9 59 72z" />
    <glyph glyph-name="quotedblleft" unicode="&#x201c;" horiz-adv-x="521" 
d="M141 556l1 -12h58v-120h-120v104q0 75 23 111.5t97 39.5v-51q-59 -9 -59 -72zM383 556v-12h59v-120h-120v104q0 75 23.5 111.5t96.5 39.5v-51q-59 -9 -59 -72z" />
    <glyph glyph-name="quotedblright" unicode="&#x201d;" horiz-adv-x="521" 
d="M138 548l-1 11h-58v120h120v-104q0 -75 -23.5 -111.5t-96.5 -39.5v51q59 9 59 73zM379 548v11h-58v120h120v-104q0 -75 -23 -111.5t-97 -39.5v51q58 9 58 73z" />
    <glyph glyph-name="quotedblbase" unicode="&#x201e;" horiz-adv-x="521" 
d="M138 -12l-1 12h-58v120h120v-104q0 -75 -23.5 -111.5t-96.5 -39.5v51q59 9 59 72zM379 -12v12h-58v120h120v-104q0 -75 -23 -111.5t-97 -39.5v51q58 9 58 72z" />
    <glyph glyph-name="dagger" unicode="&#x2020;" horiz-adv-x="521" 
d="M242 443v8q0 81 -32 126v113h103v-113q-32 -59 -33 -134q77 2 126 29h92v-94h-92q-50 29 -118 29h-8q0 -82 33 -138v-118l-33 -368h-38l-32 368v118q30 54 32 138q-74 -2 -125 -29h-94v94h94q58 -31 125 -29z" />
    <glyph glyph-name="daggerdbl" unicode="&#x2021;" horiz-adv-x="521" 
d="M39 488h90q46 -26 113 -29q-2 68 -32 120v111h103v-111q-31 -53 -34 -120q74 5 115 29h87v-91h-87q-49 25 -115 27q6 -98 48 -183q-45 -95 -48 -186q73 3 115 28h87v-90h-87q-37 21 -115 26q6 -68 34 -115v-116h-103v116q24 44 32 115q-65 0 -113 -26h-90v90h90
q41 -23 113 -28q-5 105 -44 186q37 81 44 183q-63 -1 -113 -27h-90v91z" />
    <glyph glyph-name="bullet" unicode="&#x2022;" horiz-adv-x="354" 
d="M177 462q50 0 86 -35.5t36 -86.5t-35.5 -87t-86.5 -36t-87 36.5t-36 86.5q0 51 36 86.5t87 35.5z" />
    <glyph glyph-name="ellipsis" unicode="&#x2026;" horiz-adv-x="1000" 
d="M227 120v-120h-120v120h120zM560 120v-120h-120v120h120zM894 120v-120h-120v120h120z" />
    <glyph glyph-name="perthousand" unicode="&#x2030;" horiz-adv-x="1083" 
d="M666 679l-535 -679h-73l539 679h69zM27 508q0 87 39 134.5t106 47.5q68 0 106.5 -47.5t38.5 -134.5t-39 -134.5t-106 -47.5t-106 47.5t-39 134.5zM98 508q0 -135 74 -135t74 135t-74 135t-74 -135zM402 171q0 87 38.5 134.5t105.5 47.5q68 0 107 -47.5t39 -134.5
t-39 -134.5t-106 -47.5t-106 47.5t-39 134.5zM473 171q0 -69 17.5 -102t55.5 -33q75 0 75 135t-74 135t-74 -135zM767 171q0 87 39 134.5t106 47.5q68 0 106.5 -47.5t38.5 -134.5t-39 -134.5t-106 -47.5t-106 47.5t-39 134.5zM838 171q0 -135 74 -135t74 135t-74 135
t-74 -135z" />
    <glyph glyph-name="guilsinglleft" unicode="&#x2039;" 
d="M270 0h-95l-148 237l148 235h95l-143 -235z" />
    <glyph glyph-name="guilsinglright" unicode="&#x203a;" 
d="M22 472h95l148 -235l-148 -237h-95l143 237z" />
    <glyph glyph-name="trademark" unicode="&#x2122;" horiz-adv-x="1000" 
d="M307 620v-338h-66v338h-129v59h325v-59h-130zM542 620v-338h-60v397h98l100 -318l97 318h96v-397h-61v333l-102 -333h-60z" />
    </font>
</defs>
</svg>
